<?xml version="1.0" encoding="UTF-8"?>
<svg id="Layer_1_copy_3" data-name="Layer 1 copy 3" xmlns="http://www.w3.org/2000/svg" viewBox="0 0 150 150">
  <defs>
    <style>
      .cls-1 {
        fill: #191919;
      }
    </style>
  </defs>
  <path class="cls-1" d="M128.44,114.65c0-.33,0-.66-.02-1l-.03-.77-.04-1.01-.09-2.03c-.13-2.7-.29-5.41-.51-8.11-.22-2.71-.49-5.42-.85-8.15-.38-2.73-.81-5.46-1.55-8.28-.38-1.42-.81-2.84-1.59-4.42-.09-.19-.23-.41-.34-.61-.12-.2-.23-.4-.4-.63-.16-.22-.31-.43-.5-.66-.22-.24-.45-.47-.69-.69-.82-.7-1.6-1.14-2.37-1.53-1.52-.74-2.96-1.2-4.39-1.58-1.42-.37-2.82-.65-4.21-.89-2.78-.47-5.53-.75-8.26-.96-1.37-.1-2.74-.18-4.1-.24l-2.05-.08-1.15-.03.09-5.97,4.53.1,9.58.22,2.39.05,1.3.03,1.16.03c.39.01.77.02,1.16-.01.77-.09,1.35-.3,1.95-.66.59-.36,1.12-.88,1.5-1.47.19-.29.34-.61.45-.91.06-.15.1-.32.15-.48.03-.18.08-.34.1-.52.09-.73-.03-1.56-.06-2.34l-.33-5.03-.22-3.32c-.04-.39-.11-.77-.23-1.1-.11-.34-.25-.64-.44-.94-.36-.6-.89-1.14-1.5-1.52-.3-.19-.62-.34-.94-.45-.15-.07-.35-.06-.53-.1l-.55-.07c-.75-.15-1.42-.05-2.12-.03l-.52.02h-.29s-.57.02-.57.02c-.38.01-.76,0-1.14.01-1.53,0-3.05-.02-4.56-.12-1.51-.09-3.01-.23-4.46-.45-1.47-.2-2.88-.51-4.23-.89-1.35-.38-2.58-.9-3.63-1.5l-.73-.47-.32-.25-.27-.24c-.09-.08-.14-.16-.22-.23-.06-.07-.1-.14-.16-.2-.07-.12-.13-.21-.14-.25-.02-.05-.02-.05-.02-.07,0-.02,0-.06.03-.15.05-.18.27-.55.6-.94.34-.39.78-.8,1.29-1.19.25-.2.52-.39.79-.57l.42-.28.4-.25.52-.3c.88-.5,1.49-1.17,1.92-2.02.21-.42.35-.88.42-1.33.04-.23.05-.46.04-.69v-.35s-.05-.37-.05-.37c-.06-.49-.17-.98-.26-1.46l-.18-.83c-.12-.53-.25-1.05-.39-1.57-.56-2.09-1.28-4.16-2.25-6.18-.98-2.02-2.21-4.01-3.9-5.78-.84-.88-1.81-1.71-2.9-2.4-1.09-.69-2.3-1.24-3.56-1.6-1.24-.36-2.61-.53-3.75-.56-1.2-.03-2.44.04-3.71.29-1.26.25-2.55.7-3.73,1.36-1.19.65-2.26,1.51-3.15,2.47-.89.96-1.62,2.02-2.2,3.09-.58,1.07-1.03,2.16-1.41,3.24-.74,2.16-1.17,4.31-1.47,6.41-.3,2.11-.46,4.19-.56,6.26-.05,1.03-.08,2.06-.1,3.08l-.02,3.03c-.01,3.95-.12,7.86-.31,11.81-.38,7.88-1.01,15.8-1.69,23.72-.09,1.04-.12,1.9-.1,2.63-.08,1.25-.14,2.5-.16,3.81v.59s0,.82,0,.82c.02.73.06,1.46.19,2.15.13.69.35,1.31.71,1.83.18.25.41.52.65.71.24.2.51.37.8.52.65.28,1.39.45,2.16.57.38.05.78.1,1.13.13l.5.04.32.02c.85.06,1.67.08,2.48.1,1.62.04,3.21.03,4.79.01,3.16-.03,6.3-.11,9.42-.18,3.12-.07,6.23-.13,9.29-.11,1.53.01,3.05.04,4.51.12.73.04,1.44.1,2.07.19l.28.04.05.17c.03.09.06.19.09.29.06.21.11.41.17.63.22.88.4,1.83.57,2.78.33,1.93.6,3.91.84,5.91.24,2,.45,4.01.64,6.03l.27,3.03.31,3.94c.08.71.28,1.32.54,1.87.29.54.71,1.05,1.22,1.45.51.4,1.09.69,1.67.85.59.17,1.29.2,2,.12l4.99-.4,9.41-.76c.67-.06,1.27-.25,1.77-.51.52-.27,1.01-.65,1.4-1.11.4-.46.7-1,.88-1.55.12-.59.29-1.17.23-1.86ZM91.23,35.16h0s0,0,0,0h0ZM117.6,83.22s.06.1.1.14c.04.03.09.13.13.21.05.09.1.16.15.26.41.82.79,1.96,1.1,3.12.62,2.35,1.04,4.91,1.39,7.48.34,2.57.6,5.18.81,7.81.21,2.62.37,5.26.5,7.9l.13,3.2-11.24.91-.18-2.18-.27-3.09c-.19-2.06-.41-4.12-.65-6.19-.25-2.07-.52-4.14-.89-6.25-.19-1.06-.39-2.12-.66-3.23-.06-.27-.14-.56-.22-.85-.04-.14-.08-.29-.13-.44l-.07-.23c-.03-.11-.06-.21-.11-.33-.19-.47-.36-.96-.62-1.39-.06-.11-.12-.22-.18-.33l-.23-.29c-.15-.2-.3-.39-.46-.58-.29-.23-.57-.49-.91-.67-.32-.19-.68-.33-1.04-.46-.37-.12-.75-.21-1.13-.29l-.29-.05-.23-.04-.35-.05c-.92-.13-1.76-.19-2.6-.24-1.66-.1-3.27-.12-4.86-.13-3.19-.01-6.33.05-9.47.12-3.13.07-6.25.15-9.34.18-1.54.01-3.08.02-4.59-.01-.75-.02-1.49-.04-2.2-.09l-.38-.03v-.78c.02-1.36.1-2.79.2-4.21.19-2.86.86-10.67.83-11.44.36-4.75.69-9.51.92-14.3.19-4.01.3-8.07.31-12.09l.02-2.95c.02-.97.04-1.93.09-2.89.09-1.91.24-3.81.5-5.64.26-1.83.63-3.61,1.18-5.22.55-1.6,1.29-3.03,2.22-4.02.93-1,2.01-1.59,3.39-1.88,1.34-.26,3.17-.23,4.38.14,1.31.37,2.5,1.13,3.56,2.25,1.06,1.11,1.98,2.54,2.73,4.1.76,1.57,1.36,3.28,1.83,5.04.12.44.23.88.33,1.33l.14.63s-.01,0-.11.07c-.19.12-.39.25-.58.38-.38.26-.76.53-1.14.83-.75.59-1.49,1.24-2.2,2.05-.35.41-.7.85-1.02,1.37-.32.51-.62,1.08-.84,1.75-.47,1.29-.53,3.05,0,4.45.24.72.59,1.31.96,1.86.19.25.38.5.58.73.2.21.4.44.6.63.2.19.41.38.61.55l.62.49c.42.29.84.55,1.27.83,1.71.99,3.44,1.68,5.15,2.16,1.71.48,3.41.85,5.09,1.08,1.69.26,3.36.41,5.02.51,1.67.11,3.32.14,4.98.14.41,0,.83,0,1.24-.01l1-.02h.2s.38,5.92.38,5.92l-3.51-.08-9.5-.22-5-.11c-.79,0-1.63-.1-2.35.05-.36.07-.68.17-.99.31-.31.14-.62.31-.91.53-.58.42-1.06,1-1.37,1.61-.31.59-.5,1.28-.52,2.09l-.1,6.85-.03,2.01c0,.49-.03,1,.04,1.46.06.47.18.88.35,1.26.34.78.95,1.52,1.69,2,.38.24.73.44,1.17.54.22.05.41.14.64.17l.72.07,1.88.03.98.03,1.96.07c1.31.06,2.61.13,3.91.23,2.59.19,5.17.47,7.67.89,1.25.21,2.47.46,3.63.76,1.16.3,2.27.68,3.15,1.11.2.11.43.22.58.33.08.05.19.11.24.16l.1.07.05.04.02.02.03.03Z"/>
  <path class="cls-1" d="M94.13,102.12c-1.74-.42-3.22-.56-3.84,1.65-.87,2.73-2.01,5.35-3.43,7.81-1.46,2.44-3.2,4.69-5.19,6.71-1.99,2.01-4.22,3.8-6.65,5.25-2.43,1.46-5.04,2.62-7.76,3.45-5.42,1.66-11.26,1.99-16.72.76-5.46-1.22-10.47-4.07-14.13-8.2-1.84-2.06-3.31-4.39-4.6-7.01-1.27-2.58-2.25-5.28-2.89-8.05-1.29-5.53-1.21-11.35.46-16.7,1.65-5.34,4.8-10.21,9.12-13.69,4.3-3.5,9.67-5.59,15.25-6.02,2.23-.12,2.45-1.55,2.46-3.36,0-.9-.05-1.71-.45-2.28-.4-.56-1.15-.94-2.53-.84-3.39.27-6.77,1.03-9.97,2.29-3.19,1.26-6.2,3.01-8.87,5.17-5.36,4.33-9.23,10.33-11.23,16.83-2.03,6.52-2.11,13.53-.58,20.08.75,3.28,1.91,6.45,3.38,9.43,1.44,2.95,3.29,5.93,5.59,8.49,2.29,2.57,5.01,4.78,7.99,6.5,2.98,1.72,6.22,2.96,9.55,3.71,6.66,1.49,13.62,1.08,20.06-.89,3.22-.99,6.32-2.36,9.21-4.1,2.89-1.73,5.55-3.85,7.92-6.25,2.37-2.4,4.44-5.09,6.17-7.98,1.69-2.91,3.03-6.01,4.04-9.19.73-2.61-.63-3.16-2.37-3.58Z"/>
</svg>