<?xml version="1.0" encoding="UTF-8"?>
<svg id="Layer_1_copy_3" data-name="Layer 1 copy 3" xmlns="http://www.w3.org/2000/svg" viewBox="0 0 150 150">
  <defs>
    <style>
      .cls-1 {
        fill: #191919;
      }
    </style>
  </defs>
  <path class="cls-1" d="M106.24,46.07c-.99-3.03-2.19-6-3.61-8.87-.71-1.43-1.46-2.85-2.29-4.23-.2-.35-.41-.69-.62-1.03l-.38-.62c-.09-.15-.2-.31-.3-.47-.11-.15-.23-.28-.34-.42l-1.37-1.65s-.3-.3-.37-.35c-.13-.09-.28-.17-.42-.25-.29-.15-.61-.28-.94-.37-.66-.18-1.36-.22-2.02-.13-.32.06-.65.1-.93.27,0,0-1.68,1.08-1.86,1.27l-.57.39-.79.54-.44.33c-1.17.9-2.37,1.77-3.58,2.64-2.43,1.73-4.92,3.4-7.44,5.05-2.52,1.65-5.06,3.26-7.63,4.85l-3.86,2.37-3.8,2.28-46.24,17.19c-2.46.91-3.35,1.83-3.54,2.8-.31.78-.47,1.91-.34,3.48.24,2.72.68,5.33,1.22,7.9.13.64.27,1.28.42,1.92l.22.96.32,1.29c.11.57.37,1.13.59,1.7.26.52.64.99,1.09,1.39.45.39.97.71,1.52.91l.21.07c.07.02.14.02.21.03l.41.04.82.09.82.09.41.04.2.02h.12s.95.06.95.06l1.9.1,3.8.2,2.44.13c-.1.2-.13.43-.1.72l.27,2.14c.09.71.22,1.43.33,2.14.12.71.22,1.43.36,2.14l.42,2.13c.13.71.29,1.42.47,2.12l.51,2.12c.39,1.4.76,2.81,1.22,4.2.89,2.79,1.94,5.54,3.23,8.22.66,1.34,1.34,2.67,2.13,3.96.38.65.81,1.29,1.23,1.93l.67.95,1.22,1.55c.33.29.66.6,1,.88.36.23.75.43,1.18.56.42.14.86.21,1.3.22.22,0,.43,0,.64-.03.21-.03.43-.09.65-.14.22-.06.43-.11.65-.19l.65-.28,1.03-.45,1.3-.57,5.21-2.33c1.74-.79,3.47-1.59,5.21-2.43l1.18-.59.63-.32.53-.39c.34-.27.74-.5.98-.83.26-.32.49-.68.67-1.07.36-.77.51-1.66.45-2.49-.03-.42-.11-.81-.25-1.23-.07-.21-.16-.42-.26-.62l-.34-.61-1-1.73c-.23-.37-.4-.78-.6-1.16l-.58-1.17c-.19-.39-.34-.8-.52-1.2-.17-.4-.35-.8-.5-1.2l-.43-1.22c-.32-.81-.51-1.65-.76-2.47-.42-1.67-.75-3.36-.92-5.05-.15-1.62-.19-3.27-.04-4.81l2.77.1c.65.02,1.27.04,1.94.05h.99c.16.02.34.02.53,0l.56-.02c.28,0,.09,0,.04,0h-.04s0,0,0,0c0,0-.02,0,.02,0,.04,0,.08.02.14.03.23.06.53.15.84.26.62.21,1.29.48,1.96.75,1.34.55,2.71,1.15,4.08,1.76,2.74,1.23,5.49,2.51,8.24,3.79,2.76,1.28,5.53,2.57,8.35,3.82,1.41.62,2.84,1.24,4.32,1.83.75.29,1.51.58,2.34.85l.44.14.55.15c.18.05.37.09.55.13.18.04.37.07.55.09.18.02.37.04.55.04.18.01.36,0,.54-.02.35-.06.72-.1,1.06-.25.68-.26,1.32-.64,1.88-1.13.27-.26.55-.51.79-.81.23-.28.52-.62.66-.83.59-.84,1.03-1.64,1.42-2.44.77-1.59,1.34-3.15,1.83-4.71.97-3.12,1.62-6.25,2.09-9.4.93-6.29,1.11-12.62.64-18.93-.49-6.3-1.66-12.58-3.64-18.64ZM58.11,111.67c-1.65.8-3.35,1.59-5.06,2.36l-5.14,2.3-1.55.68-.07-.09-.54-.76c-.35-.53-.7-1.05-1.02-1.61-.67-1.09-1.26-2.25-1.84-3.42-1.13-2.35-2.08-4.84-2.89-7.37-.43-1.26-.76-2.56-1.12-3.85l-.47-1.96c-.16-.65-.31-1.31-.43-1.97l-.39-1.98c-.13-.66-.22-1.33-.33-2-.1-.67-.23-1.33-.31-2l-.2-1.6,13.82.67,2.06.09c-.32,4.09.2,8.01,1.17,11.83.3.98.54,1.98.9,2.94l.51,1.45c.18.48.39.94.59,1.41.2.47.39.95.61,1.4l.68,1.37c.23.45.44.92.7,1.35l.38.66.03.06h0s0,0,0,0l-.08.04ZM84.11,90.18c-2.76-1.28-5.52-2.57-8.33-3.83-1.41-.63-2.82-1.25-4.29-1.85-.74-.3-1.48-.59-2.3-.88-.41-.14-.83-.28-1.34-.41-.12-.03-.27-.07-.41-.1-.15-.04-.36-.07-.54-.1-.19-.02-.38-.05-.57-.05h-.14c-.05,0-.08,0-.18,0-.15,0-.43.02-.25.01-.27,0-.49.01-.81,0h-.91c-.6-.02-1.24-.05-1.86-.06l-3.77-.13-7.57-.33-15.16-.74-14.53-.76h-.18s-.01-.06-.01-.06l-.34-1.44c-.14-.6-.27-1.19-.39-1.79-.48-2.28-.86-4.56-1.07-6.79l22.91-8.51,11.68-4.34,5.84-2.17,2.92-1.08,1.46-.54.73-.27.18-.07.1-.04c.05-.06.12-.06.17-.09l.71-.31,4.03-2.41,3.92-2.4c2.6-1.61,5.19-3.26,7.76-4.94.54-.35,1.07-.7,1.6-1.06-.36,1.27-.65,2.56-.88,3.84-1.14,6.46-.93,12.92-.06,19.19.89,6.28,2.51,12.4,4.74,18.3,1.12,2.95,2.39,5.85,3.86,8.67.14.28.29.55.44.83-2.38-1.07-4.77-2.17-7.16-3.29ZM102.69,82.67c-.43,2.87-1.02,5.71-1.86,8.39-.37,1.19-.8,2.34-1.28,3.39-2.58-3.95-4.68-8.33-6.39-12.83-2.06-5.45-3.57-11.14-4.37-16.89-.8-5.73-.96-11.57.02-17.08.49-2.75,1.29-5.41,2.45-7.82.77-1.61,1.71-3.1,2.81-4.43l.57.93c.74,1.23,1.41,2.5,2.05,3.79,1.27,2.58,2.36,5.26,3.26,8.01,1.8,5.5,2.89,11.26,3.33,17.08.44,5.82.26,11.71-.59,17.46Z"/>
  <path class="cls-1" d="M114.37,44.86l18.98-13.49c.32-.23-.51-1.45-1.57-2.94-1.06-1.49-1.94-2.68-2.26-2.45l-18.98,13.49c-.32.23.51,1.45,1.57,2.94,1.06,1.49,1.94,2.68,2.26,2.45Z"/>
  <path class="cls-1" d="M117.84,93.68c-.32-.2-1.14,1.03-2.11,2.58-.98,1.55-1.74,2.82-1.42,3.02l18.98,11.99c.32.2,1.14-1.03,2.11-2.58.98-1.55,1.74-2.82,1.42-3.02l-18.98-11.99Z"/>
  <path class="cls-1" d="M137.47,68.82c-.05-1.83-.11-3.31-.43-3.3l-18.98.5c-.32,0-.31,1.49-.26,3.32s.11,3.31.43,3.3l18.98-.5c.32,0,.31-1.49.26-3.32Z"/>
</svg>