<?xml version="1.0" encoding="UTF-8"?>
<svg id="Layer_1_copy_3" data-name="Layer 1 copy 3" xmlns="http://www.w3.org/2000/svg" viewBox="0 0 150 150">
  <defs>
    <style>
      .cls-1 {
        fill: #191919;
      }
    </style>
  </defs>
  <path class="cls-1" d="M139.99,88.72l-11.23-22.85c-.83-1.55-2.27-2.78-3.93-3.36-1.65-.6-3.57-.53-5.17.14l-5.26,2.16-10.52,4.31c-.65.27-1.22.53-1.71.78l-6.09,2.34c-.59.23-1.2.45-1.71.71-.2.14-.44.28-.61.43-.15.15-.32.29-.45.44l-.33.43c-.1.14-.15.26-.23.39l-.11.2c-.03.06-.04.11-.07.17l-.13.34c-.06.19-.16.58-.18,1.03-.03.45.04.93.12,1.22.06.27.17.47.25.7.06.12.14.26.21.38l.11.19.16.21c.12.14.19.28.37.43.17.14.28.29.51.43l.31.21c.1.07.25.13.38.19.25.13.56.24.86.35l3.56,1.34,4.56,1.72.89.33.22.08.11.04h.01s.04.02.06.04c.08.04.14.1.19.18.05.08.08.17.09.25.01.04,0,.08,0,.12-.02.02,0,.04-.02.06,0,0,0,.02,0,.03h0s-.02.06-.02.06l-.04.11c-1.77,4.54-3.91,8.88-6.58,12.78-.71.94-1.36,1.93-2.13,2.8-.38.44-.73.92-1.13,1.34l-1.2,1.27c-.39.43-.84.8-1.26,1.2-.42.4-.84.8-1.3,1.15l-1.35,1.1-1.42,1c-.46.35-.96.64-1.46.94-.5.29-.98.62-1.5.89l-1.55.8c-.25.14-.52.27-.79.38l-.8.35c-1.06.5-2.18.88-3.28,1.29-.55.21-1.13.35-1.69.54l-.85.26-.43.13-.4.09c-2.12.53-4.25.74-6.26.45-.51-.04-1-.18-1.5-.28-.48-.15-.98-.27-1.44-.47-.48-.16-.94-.4-1.4-.61-.45-.26-.91-.49-1.34-.79-.45-.27-.86-.61-1.29-.92-.41-.35-.83-.68-1.22-1.07-.8-.74-1.55-1.57-2.25-2.45-1.42-1.76-2.66-3.75-3.76-5.84-1.1-2.1-2.07-4.3-2.94-6.57-.22-.57-.43-1.14-.63-1.71l-.17-.48-.27-.81-.27-.81-.14-.4-.07-.2-.11-.18-.87-1.41-.22-.35c-.07-.12-.17-.17-.27-.26-.2-.16-.44-.31-.69-.43-.25-.12-.51-.22-.76-.29-.24-.07-.49-.08-.74-.11l-.38-.04c-.14.01-.29.04-.43.06-.29.05-.58.08-.87.15l-5.45,1.78-4.25,1.36-.62.19-1.08.32-1.08.32-.95.45c-.18.07-.27.17-.39.27l-.34.29c-.22.18-.4.42-.59.69-.18.27-.33.58-.44.87-.05.15-.1.29-.13.43l.07.51.28,2.04c.11.67.14,1.36.39,2.06.23.75.44,1.48.69,2.23.95,2.96,2.06,5.94,3.49,8.82,1.42,2.88,3.13,5.65,5.15,8.21,1.98,2.59,4.38,4.86,6.92,6.89l1.95,1.47,2.05,1.31c.34.22.68.44,1.03.65l1.07.57,2.14,1.13,2.2.97c.74.32,1.46.66,2.23.92l1.14.42c.38.14.77.24,1.16.37l1.17.36,1.18.3c3.16.79,6.42,1.22,9.69,1.25,6.55.08,13.09-1.55,18.88-4.44,5.83-2.87,10.87-6.98,15.19-11.58,2.18-2.3,4.12-4.78,5.96-7.31l1.34-1.92c.45-.64.85-1.31,1.27-1.96.86-1.3,1.62-2.66,2.41-4,.39-.67.74-1.36,1.12-2.04.36-.69.75-1.36,1.09-2.06.68-1.39,1.4-2.76,2.02-4.17l.96-2.11c.16-.35.3-.71.45-1.06l.26-.63h0s2.67,1.04,2.67,1.04l2.56,1,1.91.75.95.37c.32.12.64.26.94.34,1.24.38,2.14.19,2.8,0,.33-.1.6-.21,1-.45.38-.23.79-.56,1.12-.94.33-.38.6-.82.76-1.2.08-.19.14-.36.19-.51l.12-.49c.11-.71.16-1.69-.4-2.92ZM125.52,84.6c-.7-.27-1.39-.32-1.96-.26-.54.04-1.25.27-1.78.61-.27.17-.48.34-.7.55-.22.21-.43.46-.62.76-.19.29-.34.64-.48.99l-.43,1.03-.6,1.45c-.14.34-.27.68-.43,1.01l-.91,1.99c-.58,1.34-1.26,2.62-1.9,3.93-.31.66-.68,1.28-1.02,1.93-.35.64-.68,1.28-1.04,1.91-.74,1.24-1.44,2.51-2.24,3.71-.39.6-.77,1.22-1.18,1.81l-1.23,1.77c-1.69,2.32-3.45,4.58-5.41,6.64-3.88,4.13-8.31,7.72-13.28,10.16-4.95,2.46-10.38,3.8-15.86,3.74-2.73-.03-5.46-.39-8.13-1.05l-1-.25-.99-.3c-.33-.1-.66-.19-.99-.31l-.97-.35c-.65-.22-1.29-.52-1.93-.79l-1.92-.84-1.84-.98-.92-.49c-.3-.18-.58-.37-.87-.55l-1.75-1.11-1.64-1.24c-2.13-1.71-4.14-3.59-5.81-5.78-1.69-2.16-3.15-4.51-4.39-7.02-1.25-2.5-2.25-5.16-3.13-7.91l-.65-2.1.46-.14,4.33-1.38,3.11-1.01.24.68c.22.62.45,1.24.68,1.85.94,2.47,2.02,4.91,3.27,7.3,1.27,2.38,2.7,4.72,4.47,6.91.88,1.09,1.83,2.15,2.89,3.14.51.5,1.09.96,1.64,1.43.59.44,1.17.89,1.8,1.29.61.42,1.28.77,1.93,1.13.68.32,1.36.66,2.08.91.7.29,1.44.48,2.17.7.74.16,1.48.34,2.24.42,3.01.43,6.02.11,8.8-.59l.52-.13.48-.15.97-.29c.64-.21,1.29-.37,1.93-.61,1.27-.47,2.55-.91,3.79-1.49l.94-.41c.31-.13.62-.28.92-.44l1.82-.95c.61-.31,1.18-.7,1.77-1.04.59-.35,1.18-.71,1.73-1.12l1.68-1.19,1.6-1.3c.55-.42,1.04-.89,1.54-1.36.49-.48,1.02-.92,1.49-1.42l1.41-1.49c.47-.49.88-1.04,1.32-1.56.9-1.03,1.66-2.15,2.46-3.24,3.06-4.46,5.41-9.28,7.32-14.17l.05-.11.02-.06.04-.1.14-.42c.09-.28.14-.57.21-.86.09-.59.13-1.18.07-1.77-.09-1.18-.48-2.32-1.11-3.31-.63-.99-1.51-1.83-2.54-2.41-.25-.15-.52-.27-.79-.39l-.2-.08-.11-.04-.22-.08-.89-.33-2.55-.96,4.62-1.78c1.17-.45,2.07-.88,2.75-1.29l6.12-2.51,5.26-2.16c.26-.11.55,0,.68.24l8.83,17.98-6.2-2.43Z"/>
  <path class="cls-1" d="M46.23,81.2l3.51-1.39,3.28-1.3,1.77-.7c.3-.11.55-.25.82-.38.23-.14.43-.29.64-.44.74-.63,1.03-1.21,1.3-1.73.11-.26.24-.64.31-1.07.07-.44.08-.93.02-1.37-.06-.45-.19-.86-.31-1.14-.05-.14-.13-.27-.2-.4-.08-.14-.14-.26-.23-.4-.39-.56-1.01-1.24-2.16-1.71l-9.48-3.57.02-.05.05-.13.02-.07.3-.73c1.78-4.52,3.93-8.84,6.62-12.71,1.38-1.9,2.83-3.74,4.49-5.35l.61-.62.31-.31.33-.28,1.31-1.13.33-.28.35-.26.69-.52.69-.52.35-.26.37-.23c.98-.62,1.93-1.27,2.98-1.79.52-.27,1.01-.58,1.54-.81l1.59-.72c.52-.26,1.08-.45,1.63-.66l1.65-.62,1.7-.52c.56-.17,1.14-.36,1.66-.47,1.06-.28,2.12-.41,3.16-.51,1.04-.05,2.07-.02,3.08.12,1,.16,1.98.41,2.92.78.94.38,1.85.86,2.72,1.43,1.74,1.16,3.32,2.7,4.72,4.47,1.4,1.77,2.63,3.76,3.73,5.85,1.09,2.1,2.06,4.3,2.92,6.56.22.56.42,1.14.63,1.71l.43,1.23c.21.6.48,1.15.84,1.63.72.97,1.74,1.71,2.89,2.07,1.15.38,2.4.37,3.59,0l6.95-2.23,1.63-.53c1.08-.31,2.14-.86,2.93-1.67.81-.8,1.39-1.81,1.67-2.91.29-1.1.26-2.27-.05-3.38l-.39-1.29c-.12-.38-.22-.75-.35-1.13-.25-.75-.48-1.51-.76-2.26-.53-1.51-1.11-3.01-1.76-4.49-1.3-2.97-2.86-5.87-4.77-8.57-3.82-5.4-8.99-9.93-14.8-12.96-.73-.37-1.45-.77-2.19-1.12l-2.24-.97c-.38-.16-.74-.33-1.13-.48l-1.16-.42c-.77-.3-1.56-.52-2.35-.77-3.17-.93-6.46-1.52-9.78-1.68-6.64-.34-13.36,1.04-19.35,3.81-3,1.38-5.82,3.08-8.44,5.01-2.63,1.93-5.06,4.09-7.28,6.42-4.46,4.64-8.19,9.87-11.33,15.34-1.6,2.73-3,5.55-4.36,8.38l-.96,2.15-.48,1.07-.15.35-.04.11-.24.6-9.54-3.74c-.7-.27-1.46-.62-2.04-.68-.61-.1-1.04-.02-1.45.06-.19.04-.34.11-.52.16-.17.06-.27.13-.41.2-.14.07-.25.14-.34.21-.11.08-.18.11-.35.27-.17.14-.38.36-.52.55-.16.2-.2.29-.27.4-.13.19-.24.48-.35.76-.19.61-.38,1.51.21,2.86l8.03,16.36,3.21,6.54.8,1.63.57,1.16c.27.54.6,1.03,1,1.46.8.85,1.85,1.45,2.99,1.69,1.14.25,2.33.15,3.45-.3l15.15-6.26c.35-.12.71-.25,1.11-.41ZM28.19,81.38l-9.05-18.42,7.51,2.95,2.13.84.27.1.13.05.05-.12.2-.48.39-.95,1.56-3.81.39-.95.19-.45.11-.25.45-1.02.91-2.03c1.28-2.67,2.6-5.32,4.09-7.86,2.93-5.1,6.36-9.89,10.36-14.05,1.99-2.09,4.14-3.99,6.43-5.68,2.29-1.69,4.72-3.15,7.27-4.32,5.09-2.35,10.67-3.49,16.23-3.21,2.78.13,5.54.62,8.22,1.41.67.21,1.34.4,2,.65l.99.36c.33.12.65.28.98.42l1.96.85c.64.31,1.25.65,1.88.97l.94.49.89.55c.59.38,1.21.72,1.78,1.12l1.69,1.24c.29.2.55.43.81.66l.79.68c2.09,1.83,3.97,3.9,5.59,6.18,1.62,2.28,2.96,4.78,4.11,7.4.57,1.31,1.09,2.66,1.58,4.03.25.68.46,1.39.7,2.08.12.34.22.7.33,1.06l.27.9-7.9,2.54-.19-.56c-.22-.62-.44-1.23-.68-1.85-.93-2.46-2-4.9-3.24-7.28-1.25-2.38-2.68-4.71-4.42-6.9-1.74-2.18-3.79-4.23-6.26-5.88-1.24-.81-2.57-1.52-3.97-2.08-1.41-.55-2.89-.93-4.38-1.17-1.5-.22-3-.26-4.48-.18-1.47.12-2.93.32-4.31.68-.72.16-1.35.36-1.99.56l-1.93.59-1.9.71c-.63.24-1.27.46-1.88.76l-1.86.84c-.62.27-1.21.63-1.81.95-1.22.62-2.36,1.38-3.52,2.11l-.43.28-.41.31-.83.61-.82.62-.41.31-.39.34-1.55,1.35-.39.34-.36.36-.73.72c-1.96,1.91-3.65,4.05-5.24,6.24-3.08,4.43-5.45,9.23-7.37,14.1l-.18.46-.09.23-.05.13-.08.21-.62,1.71-1.24,3.43-.31.86-.08.21s-.04.08-.03.1l.11.04.44.17,1.77.67,3.55,1.34,4.7,1.77-.89.35c-.58.18-1.23.41-1.97.71l-16.5,6.82Z"/>
  <path class="cls-1" d="M74.66,103.32c1.84,0,3.34,0,3.34-.1v-2.83c.32-.06.63-.12.95-.19,2.29-.51,4.62-1.3,6.84-2.77,1.1-.74,2.17-1.67,3.05-2.85.88-1.18,1.57-2.6,1.86-4.09.31-1.49.28-2.98.03-4.34-.25-1.36-.69-2.6-1.22-3.73-.53-1.13-1.15-2.17-1.81-3.14-.75-1.06-1.62-2.05-2.58-2.91-1.94-1.7-4.12-2.85-6.19-3.71-2.08-.87-4.08-1.5-5.84-2.19-1.75-.68-3.24-1.46-4.08-2.34-.43-.44-.72-.9-.94-1.47-.21-.57-.36-1.24-.41-2-.02-.19,0-.39-.01-.59,0-.2-.02-.39,0-.6.03-.42.04-.84.11-1.24l.08-.61.13-.58.06-.29.09-.27.16-.54c.26-.69.58-1.31.96-1.84.39-.52.86-.94,1.38-1.29.53-.35,1.13-.61,1.81-.78.68-.16,1.41-.24,2.17-.22,3.06.04,6.46,1.63,8.35,3.88.18.23.39.35.63.39.23.05.5.02.81-.06.62-.16,1.36-.54,2.16-1.01.79-.47,1.5-.91,1.85-1.48.18-.28.26-.6.23-.97-.05-.35-.22-.74-.56-1.16-1.71-2.02-3.8-3.49-6.05-4.55-1.12-.51-2.29-.93-3.49-1.23v-2.45c0-.08-1.49-.09-3.34-.09s-3.34,0-3.34.09v2.16c-.35.06-.7.13-1.05.22-1.32.34-2.63.88-3.82,1.66-1.19.77-2.25,1.77-3.09,2.89-.83,1.13-1.44,2.35-1.9,3.59l-.29.93-.14.46-.1.46-.2.93-.13.91c-.1.61-.12,1.22-.16,1.83-.03.3-.02.62-.01.93,0,.32,0,.63.03.95.09,1.29.34,2.66.85,4,.51,1.35,1.35,2.65,2.36,3.68,1.01,1.04,2.13,1.81,3.23,2.43,1.1.61,2.17,1.08,3.21,1.49,2.06.8,3.99,1.41,5.7,2.14,1.72.71,3.19,1.54,4.35,2.55.57.52,1.06,1.08,1.5,1.69.49.73.92,1.46,1.26,2.19.34.73.59,1.44.7,2.1.12.66.11,1.25,0,1.78-.1.53-.34.99-.68,1.47-.34.47-.84.92-1.44,1.32-1.21.81-2.82,1.41-4.53,1.79-.43.1-.87.17-1.31.25-.44.06-.92.13-1.27.15-.76.06-1.5.03-2.19-.1-1.39-.26-2.64-.92-3.76-1.95-1.12-1.03-2.08-2.43-2.8-3.95-.54-1.21-1.91-.78-3.69-.26-.88.26-1.66.57-2.14,1.05-.47.48-.63,1.14-.22,2.03,1.04,2.19,2.42,4.26,4.32,6.03.95.87,2.04,1.66,3.23,2.28,1.14.59,2.38,1.03,3.64,1.28v2.73c0,.09,1.49.1,3.34.1Z"/>
</svg>