<?xml version="1.0" encoding="UTF-8"?>
<svg id="Layer_1_copy_3" data-name="Layer 1 copy 3" xmlns="http://www.w3.org/2000/svg" viewBox="0 0 150 150">
  <defs>
    <style>
      .cls-1 {
        fill: #191919;
      }
    </style>
  </defs>
  <path class="cls-1" d="M119.32,57.83c-.02-.18-.06-.39-.13-.62-.12-.46-.35-.95-.63-1.36-.14-.2-.29-.38-.43-.53-.15-.15-.25-.25-.39-.37l-.45-.34-.57-.31c-.24-.08-.45-.19-.71-.25-.28-.06-.54-.14-.87-.14-.63-.05-1.32-.01-1.97-.02h-13.1l1.09-2.14,15.39-30.16c.46-.95.53-1.81.47-2.48-.04-.34-.08-.62-.2-.98-.12-.36-.3-.75-.54-1.1-.23-.35-.52-.67-.78-.89-.25-.23-.51-.38-.81-.57l-.51-.24c-.2-.06-.39-.13-.61-.19-.44-.1-.94-.14-1.47-.12l-8.13.11-12.65.17-25.31.35c-5.72.08-6.19,1.63-6.17,3.54.03,1.91.54,3.45,6.26,3.37l42.49-.59-13.6,26.65-2.53,4.96c-.31.59-.6,1.19-.72,1.74-.1.53-.13,1.05-.07,1.45.02.21.05.41.1.61.05.21.13.44.23.68.2.48.52.95.86,1.31.17.18.34.33.49.46.16.12.34.23.51.35.4.21.85.43,1.44.53.57.12,1.27.09,1.93.09h12.8l-44.91,59.73,1.96-27.34.59-8.22.2-2.72c.04-.68.14-1.39.05-2.02-.09-.63-.26-1.13-.51-1.62-.27-.5-.66-1-1.13-1.37-.23-.19-.47-.35-.71-.48-.12-.06-.24-.12-.36-.18l-.4-.15c-.55-.2-1.22-.27-1.91-.25h-23.87l.52-1.04,7.36-14.75,14.71-29.5c2.55-5.12,1.39-6.25-.32-7.1-1.71-.85-3.31-1.1-5.87,4.02l-14.71,29.5-7.36,14.75-1.32,2.65-.92,1.84c-.3.61-.46,1.21-.5,1.74-.01.25-.02.51,0,.73.03.21.04.44.1.63.08.38.28.92.58,1.38.3.47.68.86.98,1.1.15.12.35.24.53.36.22.11.41.23.68.32.48.21,1.13.29,1.81.29h25.58l-.1,1.39-.59,8.22-2.76,38.42c-.05.96.19,1.45.39,1.9.22.42.45.7.68.94l.33.3c.1.07.2.13.3.2.1.07.2.13.29.17l.14.07s.21.09.34.13l.12.04.07.02.15.04c.1.03.23.04.35.05.22.05.53.03.84.02l.54-.09c.22-.08.41-.13.64-.24.46-.22,1.01-.6,1.6-1.43l10.29-13.69,14.16-18.83,29.75-39.57c.76-1.07.91-2.07.9-2.78,0-.2,0-.36-.03-.53Z"/>
</svg>