<?xml version="1.0" encoding="UTF-8"?>
<svg id="Layer_1_copy_4" data-name="Layer 1 copy 4" xmlns="http://www.w3.org/2000/svg" viewBox="0 0 150 150">
  <defs>
    <style>
      .cls-1 {
        fill: #191919;
      }
    </style>
  </defs>
  <path class="cls-1" d="M143.61,49.82c-.3-2.1-.83-4.2-1.49-6.26-.71-2.05-1.62-4.05-2.71-5.95-2.24-3.78-5.29-7.06-8.74-9.59-.85-.65-1.75-1.23-2.64-1.81-.91-.54-1.81-1.09-2.75-1.57-.92-.51-1.87-.93-2.81-1.38-.95-.4-1.9-.83-2.86-1.19-.84-.33-1.59-.57-2.27-.75-.06-.02-.12-.03-.18-.05-.91-.4-2.08-.78-3.6-1.15-8.94-2.14-18.01-3.64-27.17-4.47-4.58-.41-9.19-.64-13.81-.66-4.62,0-9.26.22-13.89.72-4.63.51-9.25,1.3-13.82,2.49-4.56,1.18-9.06,2.82-13.35,4.98-4.28,2.16-8.35,4.88-11.93,8.2-.93.79-1.75,1.7-2.59,2.59-.41.45-.85.88-1.23,1.35l-1.14,1.44-1.13,1.44-1.01,1.53-1.01,1.53c-.33.52-.62,1.09-.93,1.64l-.45.83-.39.85c-.26.57-.53,1.14-.77,1.71-.43,1.17-.9,2.33-1.22,3.52-.38,1.18-.63,2.39-.91,3.59-.13.6-.21,1.21-.32,1.81l-.15.91c-.04.3-.07.61-.11.91l-.2,1.82-.1,1.82c-.01.3-.04.61-.04.91v.91c0,.61,0,1.21.01,1.82.07,1.21.1,2.42.25,3.62.07.6.12,1.2.2,1.8l.28,1.79c.08.6.22,1.19.34,1.78.13.59.23,1.19.38,1.77.31,1.17.59,2.34.97,3.49.7,2.31,1.61,4.57,2.64,6.77,1.03,2.2,2.29,4.31,3.65,6.35,1.43,2,2.98,3.94,4.77,5.7.43.45.92.85,1.38,1.28l.7.63c.24.2.5.39.74.59.5.38.99.78,1.51,1.15l1.6,1.04c.26.18.54.34.82.49l.84.46.85.45c.28.15.59.26.88.4.59.25,1.17.52,1.78.75l1.84.61c.61.22,1.25.32,1.87.48.63.14,1.25.3,1.9.37l1.91.26,1.89.09,1.65.06c.48.03.99.05,1.46.11.95.1,1.87.26,2.63.49.76.23,1.37.55,1.64.8.27.27.32.34.39.72.07.37,0,1.05-.21,1.82-.22.77-.57,1.63-1.01,2.49-.44.86-.95,1.74-1.5,2.61-.28.43-.57.87-.87,1.3l-.22.33-.47.65c-.33.46-.66.91-1.01,1.37-1.37,1.81-2.87,3.63-4.4,5.48-1.5,1.82-3.1,3.75-3.64,5.01-.07.23-.18.49-.23.7-.03.19-.09.42-.08.57-.04.35,0,.63.04.88.09.49.22.84.4,1.19.05.09.1.17.16.26l.1.15s.1.14.2.26c.23.27.22.24.29.31l.17.16c.14.11.31.22.47.33,0,0,.25.13.31.16l.39.14s.58.18.69.18c.5.02,1.08-.09,1.45-.17.34-.07.99-.26,1.34-.38.1-.03.37-.16.57-.25l.64-.32,2.56-1.3,9.8-5.03c6.89-3.59,13.76-7.22,20.58-11.04,1.7-.96,3.4-1.92,5.1-2.92.85-.5,1.7-.99,2.54-1.51.83-.51,1.76-1.08,2.38-1.42,2.83-1.57,6.4-2.61,10.03-3.54,7.31-1.83,15.13-3.19,22.82-5.94,3.84-1.4,7.68-3.12,11.21-5.59.9-.58,1.73-1.29,2.58-1.96l1.22-1.1c.2-.19.41-.37.6-.56l.57-.6c1.56-1.56,2.86-3.37,4.03-5.24.53-.97,1.11-1.92,1.52-2.93.22-.5.46-1,.66-1.51l.54-1.54.27-.77c.08-.25.14-.48.21-.73l.41-1.44.41-1.44.37-1.46c.98-3.89,1.76-7.87,2.16-11.96.39-4.08.45-8.27-.2-12.48ZM136.6,61.59c-.36,3.63-1.06,7.27-1.97,10.88l-.34,1.36-.38,1.35-.39,1.35c-.07.22-.13.46-.2.67l-.21.6-.42,1.2c-.16.39-.34.77-.51,1.15-.31.78-.76,1.48-1.15,2.22-.89,1.4-1.84,2.77-3.03,3.95l-.43.46-.47.43-.94.85c-.68.52-1.31,1.08-2.05,1.54-2.82,1.98-6.1,3.48-9.53,4.73-3.45,1.23-7.07,2.2-10.78,3.08-3.71.88-7.5,1.68-11.36,2.65-3.85,1-7.82,2.07-11.79,4.24-1.07.6-1.78,1.06-2.61,1.55-.8.5-1.63.97-2.45,1.46-1.64.97-3.31,1.91-4.98,2.85-6.7,3.75-13.52,7.37-20.37,10.93l-.5.26.28-.41c.34-.49.67-1,1-1.51.66-1.03,1.29-2.1,1.87-3.25.58-1.15,1.11-2.38,1.51-3.77.38-1.39.68-2.99.41-4.86-.14-.92-.43-1.9-.92-2.79-.49-.89-1.14-1.67-1.84-2.29-1.43-1.24-2.93-1.86-4.31-2.29-1.39-.42-2.71-.64-4-.77-.65-.08-1.26-.11-1.91-.14l-1.73-.06-1.48-.06-1.43-.2c-.48-.04-.95-.17-1.42-.28-.46-.12-.95-.18-1.4-.36l-1.37-.45c-.45-.17-.89-.38-1.33-.57-.22-.1-.45-.18-.66-.3l-.64-.35-.64-.35c-.22-.11-.43-.23-.63-.37l-1.23-.8c-.4-.28-.78-.6-1.18-.9-.19-.15-.4-.3-.59-.46l-.55-.5c-.36-.34-.75-.65-1.1-1.01-1.43-1.4-2.7-3-3.89-4.65-1.13-1.71-2.19-3.48-3.07-5.36-.88-1.88-1.67-3.81-2.27-5.81-.34-.99-.57-2.01-.84-3.02-.13-.51-.22-1.02-.33-1.53-.1-.51-.22-1.02-.29-1.54l-.24-1.55c-.08-.52-.11-1.04-.17-1.56-.14-1.04-.15-2.08-.22-3.12-.01-.52,0-1.04,0-1.56v-.78c0-.26.02-.52.04-.78l.08-1.55.17-1.54c.03-.26.05-.51.09-.77l.13-.76c.09-.5.16-1.02.26-1.52.24-.99.43-2,.75-2.96.26-.99.64-1.91.99-2.86.19-.46.41-.91.61-1.37l.31-.68.36-.65c.25-.43.46-.87.73-1.3l.85-1.29.85-1.29.96-1.21.96-1.21c.32-.4.7-.76,1.04-1.14.71-.75,1.39-1.52,2.18-2.19,3.03-2.81,6.51-5.15,10.27-7.05,7.53-3.81,16.06-5.79,24.69-6.74,4.33-.47,8.7-.68,13.09-.68,4.39.02,8.79.24,13.18.63,8.78.79,17.54,2.24,26.12,4.29.89.21,4.39,1.36,5.12,1.65.86.31,1.67.69,2.5,1.04.8.39,1.63.75,2.4,1.18.8.4,1.54.87,2.3,1.31.73.48,1.47.95,2.15,1.48,2.79,2.05,5.1,4.57,6.82,7.45.84,1.46,1.53,3,2.1,4.6.51,1.63.94,3.3,1.19,5.03.54,3.45.5,7.07.15,10.69Z"/>
  <path class="cls-1" d="M121.34,58.03c-.21-.39-.41-.8-.65-1.17-.46-.77-1-1.49-1.6-2.17-1.2-1.36-2.67-2.51-4.34-3.35-1.67-.82-3.55-1.32-5.42-1.39-1.86-.07-3.73.22-5.47.89-3.49,1.31-6.38,4.08-7.83,7.52-1.46,3.44-1.46,7.43.04,10.86,1.47,3.43,4.37,6.18,7.88,7.47,3.5,1.3,7.48,1.13,10.84-.52,1.67-.82,3.17-1.97,4.39-3.37.63-.73,1.18-1.52,1.65-2.37.02-.03.04-.05.06-.08.98-1.68,1.52-3.54,1.69-5.4.15-1.86-.04-3.74-.69-5.57-.15-.46-.36-.91-.57-1.36ZM111.63,69.67c-1.57.78-3.51.86-5.15.24-1.65-.6-3.05-1.93-3.75-3.55-.71-1.61-.71-3.55-.02-5.17.69-1.63,2.08-2.96,3.73-3.58.82-.31,1.71-.45,2.6-.42.88.02,1.71.26,2.5.64.78.4,1.52.95,2.13,1.66.31.35.6.73.84,1.14.13.2.23.42.35.62.08.18.16.35.22.54.27.76.38,1.67.3,2.54-.04.43-.12.85-.25,1.25-.05.05-.09.11-.11.18-.27.84-.71,1.63-1.29,2.3-.59.67-1.3,1.22-2.1,1.61Z"/>
  <path class="cls-1" d="M83.94,57.12c-.21-.39-.41-.8-.65-1.17-.46-.77-1-1.49-1.6-2.17-1.2-1.36-2.67-2.51-4.34-3.35-1.67-.82-3.55-1.32-5.42-1.39-1.86-.07-3.73.22-5.47.89-3.49,1.31-6.38,4.08-7.83,7.52-1.46,3.44-1.46,7.43.04,10.86,1.47,3.43,4.37,6.18,7.88,7.47,3.5,1.3,7.48,1.13,10.84-.52,1.67-.82,3.17-1.97,4.39-3.37.63-.73,1.18-1.52,1.65-2.37.02-.03.04-.05.06-.08.98-1.68,1.52-3.54,1.69-5.4.15-1.86-.04-3.74-.69-5.57-.15-.46-.36-.91-.57-1.36ZM74.23,68.76c-1.57.78-3.51.86-5.15.24-1.65-.6-3.05-1.93-3.75-3.55-.71-1.61-.71-3.55-.02-5.17.69-1.63,2.08-2.96,3.73-3.58.82-.31,1.71-.45,2.6-.42.88.02,1.71.26,2.5.64.78.4,1.52.95,2.13,1.66.31.35.6.73.84,1.14.13.2.23.42.35.62.08.18.16.35.22.54.27.76.38,1.67.3,2.54-.04.43-.12.85-.25,1.25-.05.05-.09.11-.11.18-.27.84-.71,1.63-1.29,2.3-.59.67-1.3,1.22-2.1,1.61Z"/>
  <path class="cls-1" d="M48.05,56.97c-.21-.39-.41-.8-.65-1.17-.46-.77-1-1.49-1.6-2.17-1.2-1.36-2.67-2.51-4.34-3.35-1.67-.82-3.55-1.32-5.42-1.39-1.86-.07-3.73.22-5.47.89-3.49,1.31-6.38,4.08-7.83,7.52-1.46,3.44-1.46,7.43.04,10.86,1.47,3.43,4.37,6.18,7.88,7.47,3.5,1.3,7.48,1.13,10.84-.52,1.67-.82,3.17-1.97,4.39-3.37.63-.73,1.18-1.52,1.65-2.36.02-.03.04-.05.06-.08.98-1.68,1.52-3.54,1.69-5.4.15-1.86-.04-3.74-.69-5.57-.15-.46-.36-.91-.57-1.36ZM38.35,68.61c-1.57.78-3.51.86-5.15.24-1.65-.6-3.05-1.93-3.75-3.55-.71-1.61-.71-3.55-.02-5.17.69-1.63,2.08-2.96,3.73-3.58.82-.31,1.71-.45,2.6-.42.88.02,1.71.26,2.5.64.78.4,1.52.95,2.13,1.66.31.35.6.73.84,1.14.13.2.23.42.35.62.08.18.16.35.22.54.27.76.38,1.67.3,2.54-.04.43-.12.85-.25,1.25-.05.05-.09.11-.11.18-.27.84-.71,1.63-1.29,2.3-.59.67-1.3,1.22-2.1,1.61Z"/>
</svg>