<?xml version="1.0" encoding="UTF-8"?>
<svg id="Layer_1_copy_3" data-name="Layer 1 copy 3" xmlns="http://www.w3.org/2000/svg" viewBox="0 0 150 150">
  <defs>
    <style>
      .cls-1 {
        fill: #191919;
      }
    </style>
  </defs>
  <path class="cls-1" d="M137.47,90.71l-.09-1.42-.18-1.49c-.06-.5-.12-.99-.25-1.49l-.34-1.49c-.12-.49-.32-.98-.48-1.47-.3-.99-.8-1.91-1.24-2.85-1.03-1.82-2.3-3.51-3.81-4.93-1.53-1.4-3.22-2.57-5.01-3.5-1.8-.9-3.66-1.58-5.56-2.08-1.89-.47-3.83-.77-5.72-.92-.03,0-.05-.01-.1-.06-.02-.02-.04-.05-.05-.08-.01-.07,0,.11-.06-.54-.36-3.71-1.11-7.41-2.4-10.98-1.29-3.57-3.12-7.02-5.6-10.05-2.47-3.02-5.61-5.58-9.11-7.35-3.5-1.77-7.29-2.81-11.06-3.26-1.89-.25-3.76-.29-5.67-.3l-2.77.14-2.74.25c-3.66.42-7.33,1.17-10.91,2.45-3.57,1.27-7.05,3.09-10.09,5.61l-1.09,1c-.36.34-.74.66-1.06,1.04-.66.74-1.36,1.45-1.93,2.27l-.89,1.2c-.27.42-.52.84-.78,1.27-.25.43-.54.84-.74,1.29l-.32.67-.02.05h0s0,.01,0,.01h0s-.1.01-.1.01h-.28s-.39.01-.39.01l-.61.02c-1.61.04-3.23.19-4.84.4-1.61.21-3.22.52-4.82.9-1.59.41-3.17.88-4.72,1.47-1.55.6-3.07,1.3-4.54,2.11-1.46.82-2.88,1.76-4.21,2.81-2.66,2.11-5,4.72-6.73,7.71-.86,1.5-1.58,3.08-2.15,4.7-.57,1.63-.95,3.31-1.2,5-.26,1.68-.34,3.4-.31,5.05.01,1.64.15,3.29.39,4.94.46,3.3,1.44,6.59,2.98,9.66,1.56,3.06,3.75,5.85,6.4,8.08,2.64,2.25,5.74,3.89,8.94,4.98,3.21,1.1,6.53,1.63,9.81,1.79.41.03.82.02,1.23.03h.62s.57.01.57.01h2.27s4.55.03,4.55.03l9.1.04,18.2.09,18.22.03c.69,0,1.29-.02,1.83-.07h10.37c3.61-.05,7.25-.27,10.95-.92,1.85-.32,3.71-.77,5.56-1.41,1.85-.64,3.7-1.49,5.44-2.68l.65-.45.62-.5c.42-.32.81-.71,1.2-1.08.75-.78,1.48-1.61,2.06-2.53,1.23-1.82,1.98-3.87,2.45-5.87.44-2.01.59-3.99.59-5.91,0-.48-.02-.95-.03-1.43ZM130.67,96.64c-.64,2.8-2.04,5-4.36,6.55-1.14.79-2.48,1.42-3.93,1.92-1.44.5-2.99.88-4.58,1.15-3.18.56-6.53.78-9.9.81h-10.44c-.67.01-1.27.03-1.79.08l-18.08-.03-18.22-.09-9.11-.04-4.55-.02h-2.28s-.57-.01-.57-.01h-.52c-.35-.02-.7-.01-1.04-.04-2.77-.13-5.5-.57-8.04-1.45-2.54-.87-4.9-2.13-6.88-3.82-1.99-1.68-3.62-3.75-4.82-6.1-1.18-2.36-1.97-4.95-2.35-7.66-.19-1.35-.31-2.73-.32-4.13-.02-1.38.04-2.7.24-4.02.37-2.63,1.24-5.14,2.55-7.41,1.31-2.26,3.09-4.26,5.18-5.91,1.05-.82,2.17-1.57,3.35-2.23,1.19-.66,2.43-1.22,3.71-1.72,1.28-.49,2.61-.89,3.96-1.24,1.36-.32,2.73-.59,4.13-.77,1.4-.17,2.8-.31,4.22-.34l.53-.02h.27s.46-.04.46-.04l1.94-.13c.32-.04.65,0,.97-.16.32-.13.64-.32.92-.53.29-.22.52-.45.74-.73.22-.28.41-.6.56-.95l.78-1.62c.15-.35.38-.65.57-.98.2-.32.38-.65.59-.97l.68-.9c.42-.63.96-1.15,1.46-1.72.24-.29.53-.53.81-.79l.84-.77c2.34-1.94,5.13-3.42,8.12-4.49,3-1.07,6.21-1.74,9.48-2.12l2.47-.23,2.46-.12,1.19.02h.6s.6.04.6.04l1.2.07,1.19.13c3.16.37,6.19,1.23,8.92,2.61,2.73,1.38,5.12,3.33,7.07,5.71,1.95,2.37,3.45,5.16,4.53,8.16,1.08,3,1.74,6.19,2.05,9.43.03.23.02.3.09.81.06.41.16.82.3,1.22.27.79.7,1.53,1.25,2.17,1.09,1.28,2.74,2.13,4.46,2.25,1.59.13,3.1.37,4.61.73,1.48.4,2.9.92,4.23,1.58,1.31.69,2.5,1.52,3.55,2.47,1.03.98,1.86,2.1,2.56,3.32.28.65.64,1.25.84,1.95.11.34.26.66.34,1.02l.24,1.06c.1.35.14.72.18,1.09l.14,1.11.07,1.2c0,.39.03.79.03,1.18,0,1.57-.12,3.08-.43,4.49Z"/>
</svg>