<?xml version="1.0" encoding="UTF-8"?>
<svg id="Layer_1_copy_3" data-name="Layer 1 copy 3" xmlns="http://www.w3.org/2000/svg" viewBox="0 0 150 150">
  <defs>
    <style>
      .cls-1 {
        fill: #191919;
      }
    </style>
  </defs>
  <path class="cls-1" d="M119.9,44.18c-.05-.34-.15-.61-.29-.94-.14-.32-.35-.64-.62-.94-.27-.3-.58-.59-.86-.89l-1.3-1.32-3.48-3.53-6.96-7.06-3.98-4.03c-.31-.27-.63-.48-.98-.64-.36-.16-.74-.26-1.12-.31-.39-.05-.8,0-1.21.04l-1,.1-2.47.25-9.87,1.01-7.55.78-.43-4.44-.16-1.66-.15-1.54c-.04-.51-.1-1.03-.26-1.46-.15-.44-.36-.79-.59-1.1-.24-.32-.6-.65-.97-.89-.38-.25-.71-.38-1.12-.49-.41-.11-.89-.17-1.4-.11l-8.11.83-4.6.47c-.58.06-1.09.25-1.5.47-.2.12-.39.23-.57.38-.19.15-.37.33-.54.53-.16.2-.31.41-.42.62-.12.21-.19.4-.28.63-.15.45-.24.98-.2,1.56l.63,8.33-9.79,1.01c-.19,0-.39.02-.6.04l-6.66.68c-.66.07-1.22.3-1.64.58-.22.14-.39.27-.59.47-.2.19-.39.43-.54.66-.15.24-.24.43-.34.68-.09.24-.17.5-.21.79-.1.58.02,1.27.08,1.92l.49,4.7.82,7.91,1.76,17.04c.07.63.29,1.17.55,1.59.13.22.26.38.44.58.18.19.4.38.62.54.23.16.43.25.65.35.23.09.47.17.75.23.54.12,1.2.04,1.83,0l4.6-.36,7.6-.6,3.11-.25.48,6.27-13.69,1.06c-.47.04-.89.15-1.29.34-.41.19-.76.44-1.08.76-.32.33-.59.72-.88,1.07l-.47.59-1.74,2.18-3.47,4.36-3.47,4.36-1.74,2.18-.89,1.11-.87,1.09c-.28.36-.6.72-.82,1.1-.22.38-.35.76-.42,1.12-.07.33-.1.74-.05,1.16.05.43.14.73.29,1.09.16.35.38.72.69,1.05l2.85,2.8,3.99,3.9,8.39,8.2c.38.36.78.62,1.23.8.47.19.92.27,1.43.27.5-.02,1.05-.09,1.51-.13l.77-.08,3.07-.3,6.14-.61,3.55-.35.98,9.61.58,5.72.18,1.79.15,1.43c.04.48.14.94.3,1.32.17.38.36.69.59.97.24.29.59.6.93.8.17.11.33.19.49.26.18.06.34.14.54.18.39.1.83.16,1.31.11l9.3-.83,4.83-.43c.67-.06,1.38-.09,1.93-.32.28-.1.52-.23.74-.37.21-.14.4-.28.61-.49.2-.2.4-.44.55-.69.15-.25.25-.45.34-.7.18-.48.29-1.09.22-1.77l-2.21-19,20.66-1.87c.65-.06,1.23-.26,1.71-.52.49-.26.96-.65,1.33-1.11.37-.46.64-.99.79-1.52.17-.54.21-1.18.16-1.83l-.22-4.6-.37-7.82-.79-16.46c-.03-.63-.19-1.2-.41-1.68-.22-.5-.55-.97-.95-1.37-.4-.4-.89-.73-1.4-.95-.51-.22-1.02-.35-1.63-.38-.6-.02-1.24.06-1.86.1l-1.13.09-1.88.15-7.51.58-10.27.8-.61-6.3,21.51-1.71c.42-.04.81-.13,1.17-.29.38-.16.71-.37,1.01-.64.31-.27.56-.61.83-.93l.52-.62,1.62-1.92,3.23-3.84,7.2-8.56c.53-.64.77-1.33.85-1.94.04-.33.04-.73-.02-1.07ZM71.43,21.46l.57,5.89-8.25.85-.45-5.91,8.13-.83ZM71.88,128.56l-1.67-16.39,9.93-1.21,1.94,16.7-10.21.91ZM103.48,76.63l1.24,25.84-54.89,5.45-12.68-12.39,11.67-14.66,54.66-4.24ZM66.69,66.9l5.88-.47,3.19-.25.61,6.29-9.2.71-.48-6.28ZM101.96,57.85l-55.68,4.41-2.66-25.74,2.7-.28c.19,0,.39-.02.61-.04l39.46-4.05,9.87-1.01,2.7-.28,2.99,3.03,10.89,11.04-10.87,12.93Z"/>
</svg>