<?xml version="1.0" encoding="UTF-8"?>
<svg id="Layer_1_copy_3" data-name="Layer 1 copy 3" xmlns="http://www.w3.org/2000/svg" viewBox="0 0 150 150">
  <defs>
    <style>
      .cls-1 {
        fill: #191919;
      }
    </style>
  </defs>
  <path class="cls-1" d="M116.7,22.86s0,0,0,0c0,.01,0,0,0,0Z"/>
  <path class="cls-1" d="M135.19,112.6V29.16s-.02-1-.02-1l-.06-1.02c-.12-1.38-.36-2.84-.95-4.38-.57-1.52-1.61-3.15-3.04-4.33-1.42-1.2-3.04-1.85-4.46-2.25-1.44-.4-2.75-.57-3.98-.7-1.23-.13-2.39-.2-3.48-.29l-1.61-.14s-.75-.05-.77-.04h-.46s-.87,0-.87,0l-6.83.03-13.63.09c-.27,0-.53,0-.78.01l-50.37.38-13.7.11c-.65.01-1.3.03-1.99.11-.34.04-.67.05-1.01.11l-1.04.18c-.34.05-.7.15-1.06.24-.36.1-.71.18-1.07.3-.72.26-1.44.53-2.16.93-1.41.75-2.81,1.83-3.81,3.16-.28.32-.49.67-.71,1.01-.22.34-.45.69-.6,1.05-.17.35-.34.71-.5,1.06l-.38,1.06c-.14.36-.22.71-.31,1.05-.09.35-.18.7-.25,1.04-.1.67-.25,1.37-.3,2.03-.05.66-.13,1.33-.14,1.96-.02.64-.04,1.31-.03,1.85v89.46c.02.33.02.66.04,1l.08,1.03c.03.34.09.7.14,1.06.23,1.42.63,2.95,1.48,4.49.83,1.53,2.25,3.05,3.92,3.89,1.66.87,3.35,1.19,4.85,1.28l.56.02c.18,0,.4.01.52.01h92.83c.68-.02,1.37-.04,2.07-.12,1.4-.15,2.85-.45,4.29-1,1.43-.55,2.85-1.38,4.05-2.44,1.21-1.06,2.19-2.33,2.93-3.65.74-1.32,1.26-2.68,1.63-4.01.72-2.67.92-5.25.97-7.68.02-1.22,0-2.38.01-3.48ZM127.49,115.93c-.04,2.1-.23,4.08-.7,5.8-.47,1.72-1.23,3.06-2.22,3.93-.98.88-2.36,1.4-4.08,1.58-.42.05-.87.06-1.33.08h-1.67s-3.41,0-3.41,0h-61.3l-27.01-.02c-.76-.04-1.34-.2-1.7-.39-.36-.19-.56-.4-.82-.85-.25-.44-.47-1.14-.6-1.95-.03-.21-.07-.41-.08-.63l-.05-.67c-.01-.23-.01-.47-.02-.7v-.36s0-.43,0-.43V32.76c0-.6.01-1.07.03-1.56,0-.5.06-.96.1-1.43.03-.48.14-.89.19-1.34l.15-.61c.05-.21.09-.41.17-.58l.19-.54.23-.47c.06-.17.16-.29.25-.43.09-.13.16-.28.27-.38.35-.49.82-.82,1.39-1.14,1.13-.64,2.94-.93,4.87-.97l13.55-.11,54.51-.41c.17,0,.33,0,.5,0l9.81-.06,6.79-.03h.83s.39,0,.39,0h0c0,.14,0,.18,0,.18,0-.02,0-.07.01-.18h.02c0,.07-.02.14-.02.17,0-.03.02-.09.04-.17h.05s-.05,0-.05,0c0,0,0-.02,0-.02.03-.15.06-.29.04.02l1.78.16c1.17.09,2.27.17,3.3.28,1.03.11,1.97.25,2.72.46.76.21,1.28.47,1.6.75.32.27.57.6.8,1.2.23.58.39,1.37.46,2.26l.04.68v.7s.02,1.7.02,1.7v81.73c0,1.17.01,2.28,0,3.33Z"/>
  <path class="cls-1" d="M117.8,71.62v-8.28c0-.64-.11-1.24-.3-1.72-.04-.13-.1-.24-.15-.35-.05-.12-.11-.22-.17-.32-.12-.21-.23-.37-.41-.58-.17-.2-.38-.41-.58-.58-.21-.17-.38-.28-.58-.4-.41-.23-.9-.44-1.48-.54-.58-.11-1.25-.06-1.88-.07h-5.57v-6.33s0-.1,0-.1v-.02s0-.02,0-.03c0-.02.01-.04,0-.06.01-.04.02-.07.04-.11.03-.07.08-.13.14-.19.06-.06.13-.09.2-.11.04,0,.07-.02.11-.02.01,0,.02,0,.03,0h.24s.48,0,.48,0h3.71c.64,0,1.29.02,1.91-.02.62-.05,1.15-.23,1.6-.45.23-.11.42-.23.61-.36.19-.13.41-.32.6-.52.4-.43.61-.74.84-1.22.22-.46.38-1.02.41-1.65l.1-5.52.04-2.18.03-1.92c0-.64.05-1.3-.08-1.86-.12-.56-.33-1.04-.57-1.42-.2-.35-.61-.83-1.01-1.15-.36-.29-.75-.51-1.26-.7-.5-.19-1.1-.28-1.75-.27h-11.14c-.33,0-.61,0-.99,0l-1.25.06c-1.66.16-3.32.53-4.87,1.17-1.55.65-2.99,1.53-4.28,2.6-1.28,1.07-2.38,2.36-3.29,3.77-.92,1.4-1.57,2.97-2,4.59-.24.81-.35,1.64-.46,2.47-.06.8-.1,1.77-.09,2.32v9h-8.29c-.64,0-1.21.15-1.69.35-.23.11-.45.21-.64.34-.2.12-.37.25-.59.44-.21.18-.4.4-.56.59-.15.19-.26.38-.38.58-.23.42-.42.93-.51,1.53-.08.6-.04,1.26-.05,1.9v7.7c.01.63-.03,1.3.04,1.9.08.6.27,1.12.49,1.54.12.2.23.4.38.58.15.2.34.41.55.6.21.19.4.33.59.45l.3.18.34.16c.47.2,1.04.35,1.67.36h8.34v37.46c0,.64.12,1.23.31,1.71.1.24.21.47.33.66.12.21.24.37.41.58.17.2.38.41.59.57.2.17.38.27.58.4.41.23.9.44,1.49.53.59.1,1.25.06,1.89.07h13.96c.65.02,1.28-.03,1.8-.2.53-.17.94-.41,1.31-.66.39-.27.85-.77,1.07-1.12.25-.37.47-.84.61-1.39.15-.55.14-1.2.14-1.84v-30.07c0-.13,0-.25-.01-.37,0-.12.01-.24.01-.37v-6.35h4.23c.64-.02,1.2-.16,1.68-.36.23-.11.45-.22.64-.34.19-.12.38-.26.59-.44.2-.18.4-.4.55-.6.15-.19.25-.38.38-.58.23-.43.42-.94.5-1.54.07-.6.03-1.27.04-1.9ZM110.12,69.7h-3.46c-.64,0-1.29,0-1.83.15-.54.15-.99.38-1.37.62-.36.23-.85.7-1.1,1.08-.25.37-.49.8-.65,1.33-.17.52-.2,1.17-.18,1.81v9.03c0,.13,0,.25.01.37,0,.12-.01.24-.01.37v27.6h-9.11v-37.52c0-.64-.13-1.22-.33-1.7-.1-.23-.21-.46-.33-.65-.12-.2-.24-.37-.42-.59-.18-.2-.39-.41-.59-.57-.2-.16-.37-.27-.58-.39-.42-.23-.92-.43-1.51-.52-.59-.09-1.26-.05-1.89-.06h-7.03v-3.84h7.09c.63-.01,1.3.03,1.89-.07.59-.1,1.08-.3,1.49-.54.21-.12.38-.23.58-.4.2-.16.41-.37.59-.57.18-.21.29-.38.41-.58.12-.19.23-.42.33-.66.2-.48.32-1.07.31-1.71v-12.15c-.01-.73.04-1.05.05-1.52.08-.44.12-.88.25-1.3.23-.85.56-1.69,1.06-2.43.48-.74,1.06-1.43,1.75-2,.69-.56,1.45-1.03,2.27-1.38.82-.34,1.69-.53,2.58-.62l.67-.04c.26,0,.62,0,.93,0h8.09l-.06,3.84h-2.78s-.45.02-.45.02c-.6.03-1.2.13-1.78.29-1.16.32-2.25.91-3.15,1.7-.91.79-1.64,1.77-2.13,2.87-.25.55-.43,1.13-.55,1.72-.05.3-.1.59-.13.89l-.02.45v.22s0,.14,0,.14v9.05c-.02.65.02,1.28.19,1.81.16.53.4.95.65,1.32.26.38.76.85,1.11,1.08.38.25.83.47,1.38.62.54.15,1.19.15,1.84.15h5.97v3.25Z"/>
</svg>