<?xml version="1.0" encoding="UTF-8"?>
<svg id="Layer_1_copy_3" data-name="Layer 1 copy 3" xmlns="http://www.w3.org/2000/svg" viewBox="0 0 150 150">
  <defs>
    <style>
      .cls-1 {
        fill: #191919;
      }
    </style>
  </defs>
  <path class="cls-1" d="M136.66,84.36c-.02-.17-.05-.37-.09-.55-.04-.18-.09-.32-.14-.47-.22-.61-.62-1.28-1.27-1.83l-4.98-4.25-6.15-5.25,9.32-7.59c.55-.46.95-1.01,1.19-1.53.12-.27.21-.5.28-.79.04-.15.07-.32.09-.47.02-.15.02-.28.03-.41.02-.54-.07-1.17-.34-1.81-.13-.32-.32-.64-.5-.95l-.54-.95-2.49-4.37-4.32-7.59-9.42-16.55c-.33-.58-.76-1.02-1.19-1.33-.45-.32-.8-.51-1.41-.69-.49-.13-.96-.18-1.54-.13-.57.04-1.19.26-1.8.55l-4.88,2.11-5.58,2.42-4.38-13.01c-.23-.69-.62-1.25-1.03-1.67-.19-.19-.45-.41-.73-.58-.25-.15-.5-.29-.81-.4-.3-.11-.62-.2-.97-.24-.35-.04-.71-.04-1.08-.05l-1.99-.06-4.34-.12-8.68-.25-18.86-.54c-.82-.02-1.54.19-2.1.48-.15.07-.27.15-.4.23-.13.09-.29.2-.42.32-.27.23-.44.43-.65.7-.39.52-.71,1.24-.84,2.06l-.48,2.42-.97,4.94-1.6,8.11-17.9-1.46c-.72-.05-1.39.07-1.94.29-.25.1-.56.26-.83.44-.24.17-.47.35-.69.59-.22.23-.43.49-.6.8-.17.31-.32.64-.48.97l-.84,1.77-1.86,3.93-3.71,7.86-8.05,17.04c-.31.69-.43,1.38-.41,1.97,0,.54.18,1.27.43,1.75.25.53.67,1.09,1.27,1.55l1.82,1.36,3.91,2.91,6.05,4.5-8.79,8.2c-.52.5-.89,1.08-1.09,1.62-.1.28-.17.51-.22.81-.03.15-.05.32-.05.48-.01.15,0,.28,0,.41.02.54.16,1.17.47,1.79.34.62.79,1.22,1.18,1.83l2.77,4.19,4.83,7.32,10.47,15.84c.44.65.99,1.11,1.52,1.4.27.15.51.26.87.36.34.1.59.13.91.16.62.04,1.35-.05,2.07-.37l2.17-.88,4.51-1.83,6.71-2.72,2.45,11.79c.15.7.45,1.3.81,1.75.18.24.34.41.59.63.26.22.48.37.72.5.49.27,1.1.5,1.81.54.71.03,1.44.03,2.15.05l4.75.09,8.62.16,18.71.35c.72,0,1.38-.15,1.89-.4.27-.13.47-.24.73-.43.13-.09.26-.2.37-.3.11-.1.19-.19.29-.29.37-.41.71-.95.92-1.61.18-.68.31-1.41.47-2.11l1.03-4.79,1.49-6.93,12.27,1.14c.64.06,1.25-.03,1.76-.21.25-.08.5-.19.77-.34.25-.14.45-.29.67-.47.43-.36.81-.86,1.11-1.44l.94-1.69,1.9-3.41,3.77-6.77,7.53-13.54c.16-.3.31-.57.45-.84.18-.3.36-.61.54-.95l1.13-2.03c.2-.37.43-.74.59-1.12.17-.38.25-.75.3-1.1.05-.36.04-.68.02-1ZM113.6,111.26l-7.04-.66-5.25-.49c-.68-.07-1.38-.15-1.97-.03-.6.11-1.09.32-1.5.57-.23.14-.51.35-.67.52-.18.17-.35.36-.52.58-.33.44-.61,1-.76,1.67l-2.93,13.69-28.28-.53-1.51-7.26-.53-2.56-.45-2.16c-.16-.71-.26-1.49-.53-2.07-.27-.59-.62-1.03-.97-1.36-.18-.18-.35-.3-.53-.43-.19-.13-.51-.31-.75-.41-.42-.16-.85-.29-1.41-.33-.55-.03-1.2.04-1.88.31l-14.82,6-15.77-23.86,5.54-5.17,2.26-2.1,1.66-1.55c.57-.51,1-1.07,1.23-1.61.24-.54.35-1.04.38-1.48.02-.21.01-.58-.03-.86-.04-.26-.08-.45-.16-.69-.14-.46-.38-.98-.8-1.49-.4-.52-1.09-.95-1.68-1.4l-11.88-8.85,12.47-26.41,9.76.79,5.49.45,2.53.21c.46.03.92.09,1.36.07.44-.01.83-.1,1.19-.22.36-.12.65-.27.94-.44.15-.1.33-.22.47-.35.15-.12.25-.23.37-.35.46-.5.89-1.2,1.07-2.1l3.14-15.95,29.06.83,2.62,7.79,2.04,6.07c.23.77.57,1.45.99,1.91.2.24.42.44.63.6.23.17.39.28.68.43.14.07.31.14.45.2.15.06.25.08.38.12.12.04.25.06.39.08.13.03.27.05.42.05.59.04,1.28-.03,2-.34l11.58-5.02,13.99,24.59-5.64,4.6-2.05,1.67-1.7,1.39c-.55.47-1.2.91-1.57,1.43-.39.51-.61,1.02-.74,1.48-.08.24-.1.44-.14.67-.03.23-.04.6-.01.85.05.44.14.89.36,1.4.22.5.58,1.04,1.14,1.52l9.37,8,2.78,2.38-.11.2c-.16.3-.31.57-.45.84-.18.3-.36.61-.54.95l-13.17,23.67Z"/>
  <path class="cls-1" d="M87.21,73.88c-.15-.82-.39-1.64-.74-2.44-.65-1.52-1.71-2.91-2.99-3.95-1.28-1.05-2.75-1.74-4.22-2.15-.74-.2-1.48-.34-2.22-.41-.72-.07-1.51-.08-2.3,0-3.16.28-6.15,1.93-8.08,4.42-.97,1.24-1.69,2.69-2.09,4.22-.4,1.53-.48,3.13-.24,4.69.46,3.14,2.27,6.03,4.88,7.81,1.3.9,2.79,1.53,4.34,1.84.39.07.78.15,1.17.17.39.03.79.07,1.16.05.74,0,1.49-.06,2.23-.19,1.49-.26,2.99-.79,4.38-1.68,1.38-.88,2.6-2.16,3.41-3.6.81-1.44,1.26-2.98,1.44-4.43.16-1.44.13-2.83-.05-4.11-.01-.09-.04-.17-.07-.24ZM79.55,77.26c-.08.63-.26,1.12-.46,1.51-.21.39-.48.67-.86.92-.38.24-.88.44-1.45.54-1.26.2-2.22,0-3.09-.59-.86-.58-1.45-1.54-1.59-2.54-.16-1.03.12-2.1.76-2.9.64-.82,1.61-1.36,2.63-1.44.25-.02.51-.02.84,0,.3.03.59.08.87.16.54.15,1.01.38,1.35.67.34.29.58.61.76,1.01.18.4.28.91.29,1.51,0,.03,0,.06.02.09,0,.38,0,.74-.04,1.08Z"/>
  <path class="cls-1" d="M100.12,77.24h0s0,0,0,0Z"/>
  <path class="cls-1" d="M107.89,74.08c-.01-.38-.05-.71-.11-1.01-.43-4.07-1.65-8.06-3.58-11.66-1.98-3.7-4.68-7-7.92-9.67-3.23-2.67-7-4.7-11.01-5.93-4.02-1.23-8.26-1.66-12.43-1.28-4.18.38-8.28,1.6-11.99,3.57-3.71,1.96-7.02,4.65-9.7,7.88-2.68,3.22-4.73,6.98-5.97,10.99-1.25,4.01-1.69,8.25-1.33,12.43.36,4.18,1.57,8.29,3.52,12.01,1.95,3.72,4.63,7.04,7.84,9.73,3.21,2.7,6.96,4.76,10.96,6.02,4.01,1.26,8.25,1.73,12.42,1.38,4.18-.35,8.3-1.54,12.02-3.47,3.73-1.93,7.06-4.6,9.77-7.8,2.71-3.2,4.78-6.94,6.06-10.94l.44-1.51c.15-.5.3-1.01.37-1.53l.28-1.55c.09-.52.2-1.03.23-1.55l.13-1.57.06-.78.03-.44v-.49s-.08-2.8-.08-2.8ZM100.12,77.24h0s0,0,0,0l-.02.25-.05.59-.09,1.19c0,.4-.1.79-.17,1.18l-.21,1.17c-.05.39-.17.77-.28,1.15l-.33,1.14c-.96,3.02-2.53,5.84-4.58,8.26-2.05,2.43-4.57,4.45-7.39,5.91-2.81,1.46-5.91,2.36-9.07,2.62-3.17.26-6.38-.09-9.4-1.04-3.02-.95-5.85-2.5-8.28-4.54-2.43-2.04-4.46-4.56-5.93-7.36-1.47-2.81-2.38-5.9-2.66-9.06-.27-3.16.07-6.38,1.01-9.4.94-3.02,2.48-5.86,4.51-8.3,2.03-2.44,4.54-4.48,7.34-5.96,2.8-1.48,5.89-2.4,9.05-2.69,3.16-.29,6.38.04,9.41.97,3.03.93,5.87,2.46,8.31,4.48,2.45,2.02,4.5,4.52,5.99,7.32,1.5,2.8,2.43,5.88,2.73,9.04.02.11.03.21.05.31l.07,2.6v.17s0,.03,0,.04h0Z"/>
</svg>