<?xml version="1.0" encoding="UTF-8"?>
<svg id="Layer_1_copy_3" data-name="Layer 1 copy 3" xmlns="http://www.w3.org/2000/svg" viewBox="0 0 150 150">
  <defs>
    <style>
      .cls-1 {
        fill: #191919;
      }
    </style>
  </defs>
  <path class="cls-1" d="M127.98,81.37c-1.17-1.59-2.93-2.67-4.52-3.12-.4-.13-.78-.19-1.18-.28-.19-.04-.39-.08-.59-.11l-.55-.05c-.37-.03-.74-.06-1.1-.07l-1.04.04c-1.37.07-2.62.31-3.83.6-1.19.31-2.34.66-3.43,1.09l-2.89,1.11c-1.85.66-3.74,1.26-5.68,1.78-7.75,2.06-15.92,3.17-24.1,3.81-4.09.32-8.2.49-12.3.54-2.05.02-4.09,0-6.12-.07l-.82-.03,2.78-2.16c2-1.63,4.01-3.35,5.89-5.56.93-1.12,1.84-2.36,2.57-3.93.36-.79.68-1.67.86-2.65.03-.12.04-.24.06-.38.02-.16.05-.34.06-.49.02-.3.04-.61.04-.92,0-.61-.08-1.21-.19-1.81-.1-.41-.24-.81-.39-1.21-.17-.39-.36-.77-.6-1.12-.47-.7-1.08-1.3-1.78-1.79-.7-.49-1.5-.84-2.32-1.08-.21-.06-.42-.12-.63-.17-.2-.05-.47-.09-.6-.12-.33-.06-.62-.08-.93-.12-2.37-.19-4.33.09-6.23.42-3.78.7-7.24,1.8-10.64,3-3.4,1.21-6.7,2.56-9.96,4.01-3.26,1.46-6.46,3.01-9.64,4.73-2.08,1.13-2.99,2.21-3.22,3.17-.23.97.22,1.84.81,2.73.59.89,1.2,1.64,2.1,1.9.9.26,2.09.03,4-1.01,5.91-3.17,12.19-5.98,18.5-8.25,3.15-1.12,6.36-2.11,9.43-2.67,1.51-.28,3.04-.43,4.15-.33l.4.05s0,.03,0,.04c-.04.22-.13.51-.28.84-.3.65-.83,1.43-1.47,2.19-1.3,1.54-3.01,3.06-4.82,4.52l-1.39,1.1-1.65,1.26c-.98.74-1.96,1.48-2.91,2.23-.94.75-1.86,1.52-2.55,2.29-.7.76-1.13,1.5-1.36,2.16-.23.67-.3,1.25-.25,1.9.02.17.04.34.08.54.04.2.1.43.18.62.07.2.15.34.22.48.07.15.15.27.24.4.15.26.39.48.6.71.09.12.25.22.4.33l.44.32c.33.16.72.29,1.08.43l.55.21c.08.04.2.06.32.08l.35.07,1.39.26c.46.09,1,.12,1.5.18l1.52.15,1.56.09,1.5.09.81.03c2.16.07,4.31.09,6.46.08,4.29-.04,8.56-.23,12.82-.56,8.53-.67,17.05-1.82,25.51-4.06,2.11-.57,4.22-1.23,6.32-1.98l2.98-1.14c.43-.16.86-.34,1.29-.46.42-.12.86-.29,1.27-.37.83-.2,1.65-.35,2.37-.38l.54-.03.47.04h.23s.18.06.18.06c.11.03.26.04.35.07.42.13.51.26.59.35.07.09.18.33.2.79-.01.13.03.22,0,.37-.02.14-.03.28-.04.43-.08.31-.11.62-.25.96-.19.67-.55,1.38-.94,2.08-.83,1.39-1.95,2.73-3.26,3.91-1.3,1.19-2.79,2.22-4.38,3.1-.41.21-.79.44-1.21.63l-1.25.57-1.29.5c-.21.09-.43.16-.65.23l-1.3.41c-1.01.3-1.8.8-2.48,1.53-.33.36-.62.77-.84,1.2-.1.22-.22.42-.27.67l-.16.74-.29,1.33-.13.54c-.1.36-.23.71-.36,1.07-.59,1.43-1.49,2.9-2.6,4.3-2.25,2.8-5.18,5.34-8.31,7.61-3.14,2.26-6.54,4.29-10.02,5.98-.87.42-1.74.81-2.6,1.17-.43.17-.86.34-1.28.49-.41.15-.87.3-1.08.33-.58.13-1.47.24-2.38.28-.45.03-.92.04-1.4.05-.47.02-.96,0-1.44,0-3.89-.04-7.94-.38-11.95-.8-4.03-.43-8.06-.96-12.08-1.57-8.03-1.24-16.09-2.72-23.82-4.73-.99-.27-1.78-.39-2.43-.4.12-6.05.23-12.1.32-18.16.07-4.96.14-9.93.17-14.9l.02-7.47c-.02-2.51-.02-4.97-.12-7.6-.04-1.06-1.77-1.04-3.9-.91s-3.85.33-3.82,1.26c.1,2.33.1,4.83.12,7.27l-.02,7.4c-.03,4.94-.09,9.89-.17,14.84-.15,9.9-.34,19.81-.56,29.71-.02,1,1.7,1.12,3.84,1.17,2.13.05,3.86,0,3.89-1,.03-1.31.05-2.62.08-3.92.2.06.39.12.61.18,8.22,2.14,16.39,3.63,24.65,4.91,4.12.63,8.26,1.17,12.43,1.62,4.18.43,8.36.79,12.7.84.55,0,1.09.01,1.65,0,.55,0,1.11-.02,1.69-.06,1.15-.06,2.32-.16,3.74-.48.8-.19,1.31-.37,1.87-.57.55-.2,1.08-.41,1.61-.62,1.04-.43,2.05-.88,3.04-1.36,3.93-1.91,7.64-4.12,11.18-6.67,3.53-2.57,6.91-5.44,9.84-9.06,1.45-1.82,2.77-3.87,3.74-6.26.23-.6.45-1.23.62-1.86l.27-1.11.2-.06c.28-.09.56-.18.83-.29l1.65-.64,1.61-.74c.54-.24,1.05-.55,1.58-.82,2.08-1.15,4.05-2.52,5.85-4.16,1.79-1.63,3.42-3.52,4.73-5.73.63-1.13,1.23-2.3,1.63-3.65.23-.64.37-1.37.51-2.08.05-.38.09-.76.12-1.14.05-.37.01-.8.01-1.2-.06-1.61-.54-3.49-1.72-5.08ZM64.36,70.85h0s0,0,0,0Z"/>
  <path class="cls-1" d="M135.55,26.4c-.19-.55-.36-1.11-.61-1.64-.24-.53-.46-1.07-.75-1.57-.29-.5-.54-1.01-.89-1.5-.33-.49-.66-.99-1.07-1.46l-.59-.7-.67-.67c-.43-.45-.96-.84-1.47-1.23-1.06-.74-2.22-1.39-3.45-1.8-2.46-.89-4.99-.95-7.27-.69-2.28.3-4.38.91-6.34,1.68-1.95.78-3.79,1.7-5.54,2.72-.88.51-1.73,1.04-2.56,1.6-.42.27-.83.56-1.24.85l-.51.36-.24-.18-.12-.09-.15-.11-.31-.21c-1.61-1.15-3.33-2.2-5.12-3.16-3.61-1.85-7.68-3.34-12.17-3.48-2.23-.07-4.54.22-6.74.92-2.21.7-4.29,1.86-6.08,3.33-.9.74-1.71,1.57-2.46,2.46-.74.9-1.39,1.87-1.96,2.91-.56,1.04-1.02,2.15-1.36,3.35-.08.3-.17.6-.22.92-.06.32-.13.6-.17,1-.04.37-.08.76-.07,1.07,0,.32-.01.67.01.95.14,2.4.63,4.36,1.2,6.32.58,1.94,1.28,3.8,2.07,5.61,1.58,3.62,3.51,7.04,5.76,10.27,1.12,1.62,2.34,3.17,3.64,4.66,1.29,1.5,2.69,2.92,4.17,4.26,1.47,1.35,3.05,2.6,4.71,3.75,1.65,1.16,3.42,2.18,5.25,3.08,1.49.74,2.52.64,3.2.17.69-.47,1.09-1.36,1.46-2.35.38-1,.65-1.93.53-2.73-.12-.81-.63-1.44-1.81-2.03-5.89-2.87-10.92-7.65-14.83-13.24-1.96-2.8-3.65-5.81-5.01-8.93-.68-1.56-1.28-3.14-1.75-4.72-.47-1.56-.83-3.2-.89-4.47-.02-.17,0-.28,0-.42,0-.15.01-.22.02-.31,0-.06.04-.23.06-.36.02-.14.06-.28.1-.42.16-.57.4-1.17.71-1.75.32-.58.69-1.13,1.12-1.66.44-.51.91-1,1.43-1.43,1.04-.85,2.23-1.52,3.53-1.93,1.29-.41,2.68-.6,4.12-.55,2.89.08,5.93,1.12,8.83,2.61,1.44.78,2.87,1.64,4.25,2.63l.26.18.41.27,1,.65c.67.43,1.32.88,2,1.28.76.25,1.67.33,2.49.18.42-.06.79-.19,1.18-.37.39-.13.76-.42,1.14-.65l1.12-.84.63-.45c.36-.25.71-.49,1.07-.73.72-.48,1.44-.93,2.18-1.36,1.47-.86,2.98-1.61,4.49-2.21,1.51-.6,3.02-1.01,4.44-1.2,1.41-.15,2.71-.09,3.77.31,1.07.36,1.97,1.03,2.78,2.02.21.23.39.52.58.8.2.26.35.6.53.9.19.3.3.63.45.95.16.31.25.65.36.98.86,2.64.68,5.63-.29,8.61-.96,2.99-2.68,5.92-4.71,8.66-2.07,2.73-4.46,5.3-7.08,7.68-5.22,4.77-11.21,8.84-17.49,12.36-2.52,1.38-1.96,3.02-.97,4.92.98,1.89,2.02,3.32,4.73,1.83,6.71-3.76,13.15-8.11,18.94-13.4,2.9-2.63,5.62-5.53,8.05-8.74,2.39-3.24,4.55-6.8,5.88-10.92.66-2.05,1.12-4.24,1.21-6.51.1-2.27-.19-4.62-.91-6.85Z"/>
</svg>