<?xml version="1.0" encoding="UTF-8"?>
<svg id="Layer_1_copy" data-name="Layer 1 copy" xmlns="http://www.w3.org/2000/svg" viewBox="0 0 150 150">
  <defs>
    <style>
      .cls-1 {
        fill: #191919;
      }
    </style>
  </defs>
  <path class="cls-1" d="M84.15,54.83c1.24-1.67,2.32-3.41,3.23-5.21.93-1.79,1.65-3.64,2.14-5.53,1.03-3.77,1.04-7.69.1-11.5-.09-.48-.23-.95-.39-1.42-.15-.47-.29-.95-.45-1.42l-.56-1.39c-.09-.22-.18-.49-.28-.67l-.28-.56c-.77-1.45-1.84-2.62-3.22-3.43-2.74-1.67-6.68-1.93-10.35-1.06-1.84.42-3.64,1.13-5.25,2.05-1.6.93-3.03,2.09-3.98,3.38-.26.32-.43.63-.64.98l-.69,1.34c-.42.9-.84,1.81-1.15,2.73-.65,1.84-1.1,3.7-1.22,5.55-.1,1.84.11,3.65.59,5.4.48,1.76,1.39,3.4,2.4,5,1.15,1.54,2.4,3.05,3.92,4.38l1.13,1.01c.38.34.84.65,1.25.97l1.27.96.56.45c.24.23.47.42.84.94.17.3.47.61.67,1.67,0-.17.13,1.08-.12,1.63-.14.41-.2.5-.33.75-.12.2-.36.52-.36.52-.16.19-.26.28-.33.36-.16.15-.59.51-.59.51-4.89,4.06-9.61,8.35-13.51,13.11-3.9,4.76-6.96,10.01-8.69,15.88-1.8,5.84-2.63,12.12-3.21,18.51-.57,6.39-.87,12.9-1.22,19.42-.16,3.12-1.77,3.3-3.74,3.2-1.97-.1-3.55-.46-3.39-3.57.35-6.52.65-13.06,1.24-19.68.6-6.6,1.46-13.35,3.51-20.01,1.97-6.69,5.6-12.96,9.97-18.26,3.58-4.45,8.84-9.33,11.74-11.76,0,0-.09-.09-.13-.12l-1.37-1.23c-1.84-1.62-3.48-3.55-4.98-5.6-1.39-2.16-2.65-4.47-3.37-7.04-.72-2.55-1.02-5.23-.87-7.85.17-2.62.78-5.14,1.63-7.51.41-1.19.93-2.32,1.45-3.44l.85-1.64c.35-.61.75-1.27,1.18-1.82,1.73-2.3,3.88-3.97,6.13-5.29,2.27-1.29,4.68-2.23,7.19-2.82,2.51-.58,5.12-.83,7.79-.58,2.65.24,5.4.99,7.86,2.48,2.47,1.45,4.54,3.71,5.85,6.21l.47.95c.16.32.24.58.36.87l.68,1.72c.21.58.38,1.18.57,1.78.2.59.37,1.19.49,1.81,1.21,4.86,1.2,10.16-.14,15.01-.63,2.44-1.55,4.77-2.68,6.94-1.11,2.19-2.4,4.25-3.82,6.18-2.01,2.69-3.46,1.82-4.96.58-1.53-1.27-2.54-2.47-.81-4.78Z"/>
  <path class="cls-1" d="M48.8,59.26c-.41-2.8-1.2-5-2.6-6.28-1.35-1.32-3.67-1.94-6.28-2.06-1.29-.03-2.54.06-3.7.31-1.16.26-2.21.7-3.14,1.29-1.87,1.18-3.27,3.11-4.12,5.47-.86,2.35-1.18,5.06-1.04,7.74.14,2.67.75,5.39,1.83,7.59.42.89,1.49,2.46,2.25,3.89.8,1.47,1.55,2.99,2.19,4.62.63,1.65,1.18,3.36,1.42,5.38.03.25.05.51.07.78.03.31,0,.75,0,1.12-.04.77-.14,1.53-.46,2.23-.55,1.42-1.63,2.6-3.05,3.24l-1.42.74c-.38.19-.74.47-1.11.7-.75.45-1.46,1.05-2.18,1.61-.73.55-1.38,1.24-2.08,1.85-.67.66-1.31,1.37-1.97,2.04-2.54,2.84-4.74,6.05-6.6,9.44-3.69,6.8-6.1,14.36-6.64,22.03-.14,1.93-1.75,2.05-3.72,1.98-1.97-.06-3.56-.3-3.4-2.53.63-8.77,3.34-17.27,7.5-24.93,2.1-3.83,4.58-7.46,7.53-10.77.77-.8,1.52-1.63,2.32-2.41.85-.75,1.62-1.55,2.53-2.25.9-.71,1.77-1.43,2.79-2.05.5-.31.96-.66,1.5-.94l.81-.42.41-.21s.09-.05.11-.06l-.04-.41c-.12-1.06-.49-2.34-.98-3.58-.49-1.26-1.11-2.52-1.8-3.78-.69-1.31-1.43-2.28-2.4-4.17-1.64-3.39-2.35-6.86-2.56-10.37-.18-3.51.2-7.09,1.46-10.57.63-1.74,1.5-3.44,2.67-5.01,1.16-1.56,2.63-2.96,4.31-4.03,1.68-1.07,3.54-1.82,5.41-2.24,1.87-.41,3.73-.53,5.54-.48,1.8.12,3.64.28,5.53.92,1.87.59,3.8,1.56,5.36,3.06,1.57,1.47,2.71,3.31,3.43,5.12.73,1.82,1.1,3.62,1.36,5.28.17,1.12-.16,1.72-.76,2.1-.6.39-1.48.55-2.46.68-.98.13-1.87.2-2.55-.02-.68-.22-1.15-.74-1.29-1.68Z"/>
  <path class="cls-1" d="M139.84,125.48c-.7-8.84-3.11-17.55-7.31-25.23-1.08-1.89-2.21-3.76-3.52-5.47-1.28-1.74-2.68-3.37-4.2-4.78-.19-.18-.37-.37-.56-.54l-.72-.61c-.46-.35-.83-.78-1.2-1.2-.18-.21-.39-.44-.56-.66-.14-.21-.26-.44-.37-.7-.44-1.03-.49-2.16-.26-3.28.1-.56.28-1.12.48-1.66l.46-1.14c1.12-2.44,2.31-4.41,3.42-6.44,1.11-2.01,2.16-3.98,2.99-5.92,0,0,.68-2.1.77-2.5.09-.4.11-.8.12-1.25-.01-.44-.01-.86-.06-1.29-.39-3.5-2.51-7.08-5.45-9.59-1.45-1.25-3.2-2.31-4.89-2.95-1.71-.64-3.44-.83-5.12-.6-3.37.41-6.47,2.91-8.58,6.2-.81,1.34-2.28.75-4.04-.16-1.74-.9-3.11-1.81-1.98-3.69,1.45-2.27,3.3-4.38,5.59-6.07,1.13-.86,2.41-1.56,3.73-2.17,1.36-.54,2.78-1,4.25-1.18,2.94-.43,5.97-.03,8.63.97,2.67,1.02,4.95,2.44,7.04,4.22,2.06,1.77,3.84,3.88,5.22,6.28,1.37,2.39,2.36,5.08,2.68,7.98.08.72.08,1.47.1,2.2-.06.74-.07,1.49-.21,2.23-.15.74-.26,1.49-.53,2.2l-.36,1.08-.37.89c-1.01,2.34-2.16,4.49-3.31,6.56-1.13,2.06-2.33,4.11-3.15,5.91l-.21.48h0s.61.52.61.52c.24.22.47.44.7.67,1.89,1.77,3.53,3.7,5.02,5.71,1.52,2,2.81,4.13,4.04,6.28,4.76,8.7,7.4,18.37,8.18,28.11.16,1.97-1.43,2.22-3.4,2.32-1.97.1-3.58.03-3.72-1.75Z"/>
  <path class="cls-1" d="M106.19,132.16c.09-5.75.14-11.5-.15-17.2-.08-2.86-.35-5.68-.56-8.52-.33-2.81-.61-5.63-1.12-8.38-.94-5.52-2.34-10.91-4.57-15.81-.25-.63-.59-1.2-.89-1.8-.32-.58-.6-1.2-.95-1.76-.71-1.12-1.38-2.27-2.21-3.3-.75-1.09-1.67-2.06-2.52-3.08-.95-.95-1.85-1.93-2.89-2.83-.81-.73.17-2.01,1.46-3.5,1.29-1.49,2.41-2.63,3.34-1.79,1.16,1.01,2.24,2.16,3.34,3.27,1.02,1.2,2.1,2.36,3,3.66.98,1.25,1.79,2.61,2.63,3.95.42.67.75,1.38,1.12,2.07.36.7.76,1.38,1.04,2.11,2.59,5.7,4.11,11.67,5.12,17.59.55,2.97.84,5.94,1.19,8.9.22,2.96.51,5.93.59,8.88.3,5.91.26,11.8.16,17.68-.02,1.19-1.62,1.25-3.59,1.2-1.97-.05-3.57-.19-3.55-1.35Z"/>
</svg>