<?xml version="1.0" encoding="UTF-8"?>
<svg id="Layer_1_copy_3" data-name="Layer 1 copy 3" xmlns="http://www.w3.org/2000/svg" viewBox="0 0 150 150">
  <defs>
    <style>
      .cls-1 {
        fill: #191919;
      }
    </style>
  </defs>
  <path class="cls-1" d="M26.21,103.15c-2.14-.03-3.87-.01-3.88.5l-.45,30.72c0,.52,1.73.59,3.86.62s3.87.01,3.88-.5l.45-30.72c0-.52-1.73-.59-3.86-.62Z"/>
  <path class="cls-1" d="M58.31,79.17c-2.14-.03-3.87.02-3.89.93l-.79,53.86c-.01.9,1.72,1.01,3.86,1.04,2.14.03,3.87-.02,3.89-.93l.79-53.86c.01-.9-1.72-1.01-3.86-1.04Z"/>
  <path class="cls-1" d="M93.45,92.4c-2.14-.03-3.87,0-3.88.66l-.58,39.5c0,.66,1.72.75,3.86.78,2.14.03,3.87,0,3.88-.66l.58-39.5c0-.66-1.72-.75-3.86-.78Z"/>
  <path class="cls-1" d="M124.86,61.39c-2.14-.03-3.87.04-3.89,1.2l-1.01,69.02c-.02,1.16,1.72,1.29,3.85,1.32s3.87-.04,3.89-1.2l1.01-69.02c.02-1.16-1.72-1.29-3.85-1.32Z"/>
  <path class="cls-1" d="M132.03,16.36c-.12-.14-.22-.24-.43-.42-.21-.18-.32-.24-.48-.34-.31-.19-.68-.37-1.13-.48-.23-.05-.47-.1-.73-.12-.27,0-.56.03-.84.04-.58.07-1.19.2-1.79.3l-3.12.55-7.18,1.28-14.36,2.55c-.97.17-.75,1.89-.37,4,.37,2.11.76,3.8,1.73,3.63l16-2.84-28.67,37.56-26.72-19.21c-.47-.35-.98-.61-1.48-.77-.47-.16-.98-.25-1.52-.26-.54-.01-1.09.07-1.58.21-.49.15-.94.36-1.41.67-.47.31-.89.74-1.32,1.13l-1.07.98-1.3,1.19-5.19,4.78-10.39,9.56-20.77,19.11c-1.81,1.67-.8,3.09.65,4.66,1.45,1.57,2.78,2.71,4.59,1.04l37.88-34.85,14.51,10.43,7.66,5.51,4.72,3.39c.62.51,1.31.82,1.95.99.6.16,1.28.22,1.99.13.7-.09,1.38-.34,1.9-.64.56-.33,1.13-.8,1.6-1.43l29.97-39.28-.03,20.93c0,.98,1.73,1.07,3.87,1.07s3.87-.08,3.87-1.07l.03-31.45c-.08-1.18-.57-2-1.05-2.53Z"/>
</svg>