<?xml version="1.0" encoding="UTF-8"?>
<svg id="Layer_1" data-name="Layer 1" xmlns="http://www.w3.org/2000/svg" viewBox="0 0 150 150">
  <defs>
    <style>
      .cls-1 {
        fill: #191919;
      }
    </style>
  </defs>
  <path class="cls-1" d="M136.08,55.3s-.32-1.74-.8-3.18c-.39-1.19-.77-2.07-.77-2.07-.25-.55-.45-1.12-.74-1.64-1.05-2.14-2.36-4.08-3.76-5.92-1.45-1.79-2.96-3.5-4.62-5.03-3.26-3.12-6.86-5.76-10.61-8.1-3.75-2.34-7.68-4.35-11.76-6.05-2.04-.85-4.12-1.62-6.26-2.27-2.14-.66-4.32-1.22-6.63-1.58-1.86-.29-2.98.04-3.56.63-.58.58-.64,1.41-.64,2.33,0,.92.08,1.76.5,2.38.42.61,1.16,1.01,2.67,1.25,1.88.29,3.8.77,5.71,1.37,1.91.58,3.8,1.28,5.67,2.05,3.73,1.55,7.36,3.4,10.79,5.55,3.43,2.14,6.68,4.54,9.54,7.27,1.46,1.34,2.74,2.81,3.96,4.31,1.16,1.53,2.22,3.11,3.04,4.77,1.63,3.31,2.35,6.86,1.76,10.3-.22,1.3-1.19,4.18-1.7,5.12-.91,1.81-1.75,3.65-2.82,5.4-4.04,7.12-8.94,13.88-14.18,20.34-5.26,6.46-10.89,12.64-16.83,18.48-3,2.88-6.02,5.75-9.19,8.4-3.13,2.68-6.41,5.23-9.72,7.23-.85.54-1.6.95-2.33,1.22-.74.32-1.42.43-1.97.47-.57.03-.89-.08-1.1-.23-.21-.14-.43-.39-.62-.89-.19-.48-.32-1.17-.31-1.94-.03-.76.1-1.61.25-2.46.34-1.71.99-3.49,1.82-5.21,1.66-3.45,3.95-6.74,6.56-9.78,2.61-3.05,5.53-5.89,8.65-8.53,2.53-2.09,1.85-3.44.72-4.89-1.13-1.44-2.28-2.44-5.02-.2s-7.72,7.25-7.83,7.35c-3.92,3.66-8.23,6.95-12.85,9.21-2.28,1.1-4.72,1.97-6.81,2.13-1.02.1-1.92-.09-2.15-.26-.13-.08-.09-.07-.12-.12-.02-.05-.08-.23-.08-.56,0-.65.28-1.71.75-2.73.47-1.04,1.09-2.11,1.8-3.16,1.42-2.11,3.15-4.14,4.99-6.08,1.67-1.75,3.44-3.42,5.27-5.06,1.26-.97,2.49-1.96,3.7-2.98.17-.14,2.28-2.04,3.26-2.81.88-.68.05-1.92-1.07-3.39-1.12-1.46-2.1-2.59-3.02-1.88-2.43,1.89-4.82,3.86-7.14,5.92-3.48,2.67-7.11,5.1-10.9,7.16-2.56,1.39-5.21,2.62-7.84,3.46-1.3.41-2.63.74-3.78.83-.55.06-1.15.04-1.42,0h0s0,0,0,0h0s.02-.09.02-.09c.05-.2.13-.43.22-.67.41-1,1.1-2.15,1.9-3.26,1.62-2.24,3.64-4.4,5.74-6.47,4.24-4.14,8.93-7.97,13.73-11.64.97-.74.16-2-.95-3.47-1.11-1.47-2.09-2.6-3.09-1.84-1.27.97-2.54,1.96-3.8,2.96-.07.05-.14.09-.22.15-4.13,2.86-8.38,5.55-12.76,7.66-2.17,1.04-4.41,1.96-6.5,2.44-1.02.24-2.05.34-2.64.25-.03,0-.17-.02-.17-.02,0,0,.08-.87.33-1.53.32-.9.81-1.89,1.39-2.85,1.16-1.95,2.65-3.86,4.25-5.68,3.22-3.66,6.92-7.03,10.8-10.18,1.94-1.57,3.94-3.09,5.98-4.56,1.02-.74,7.08-5.25,8.72-5.66.85-.21,1.63-.34,2.46-.22,1.64.21,3.47,1.19,5.28,2.59,1.82,1.41,3.61,3.14,5.59,4.92.99.89,2.02,1.8,3.2,2.68,1.18.87,2.5,1.73,4.14,2.36.82.31,1.73.54,2.69.66.9.09,5.99.31,9.73-3.29,0,0,2.87-2.37,3.72-6.73.64-3.3.23-6.46-.63-9.3l-.75-2.09c-.95-2.44-3.07-5.66-3.07-5.66-.82-1.13-1.63-2.27-2.5-3.34-.89-1.02-1.83-2.12-2.7-3.06-1.73-1.85-3.44-3.74-5.16-5.65-1.73-1.91-3.46-3.84-5.31-5.75-1.85-1.91-3.81-3.8-6.08-5.53-2.28-1.7-4.96-3.31-8.15-3.99-1.58-.35-3.23-.45-4.83-.31-1.61.12-3.13.52-4.56,1.01-1.45.48-2.75,1.14-4.03,1.81-.6.35-3.44,2.08-3.44,2.08-2.2,1.36-4.41,2.74-6.6,4.19-4.38,2.9-8.69,6.07-12.63,9.83-3.91,3.76-7.49,8.18-9.77,13.47-1.14,2.63-1.93,5.45-2.28,8.32-.36,2.87-.29,5.78.12,8.6.21,1.12.45,1.98.77,2.6.33.61.68,1.01,1.06,1.24.74.47,1.56.32,2.45.06s1.66-.58,2.1-1.29c.22-.35.36-.8.38-1.38.03-.58.02-1.31-.16-2.22-.69-4.54-.14-9.1,1.69-13.28,1.8-4.19,4.79-7.96,8.27-11.31,3.5-3.35,7.5-6.31,11.69-9.09,2.1-1.39,4.24-2.73,6.42-4.08,0,0,2.65-1.61,3.16-1.91,1-.52,2-1.03,2.99-1.35,2-.71,3.92-.89,5.78-.48,1.87.38,3.74,1.44,5.56,2.8,1.82,1.39,3.58,3.06,5.31,4.85,1.73,1.78,3.43,3.68,5.15,5.58,1.72,1.91,3.46,3.83,5.24,5.74.88.95,1.58,1.83,2.41,2.73,3.13,3.36,5.12,8.86,5.12,8.86.63,2.05.86,4.13.48,5.89-.39,1.75-1.28,3.17-2.7,3.96-2.44,1.35-3.94.77-4.56.58-1.56-.58-3.42-2.1-5.23-3.75-1.84-1.66-3.74-3.52-5.99-5.26-1.13-.87-2.37-1.7-3.78-2.41-1.4-.71-3-1.28-4.73-1.5-1.73-.24-3.55-.05-5.17.44-1.63.48-3.1,1.23-4.37,2.09-.66.42-5.31,3.78-6.37,4.55-2.13,1.54-4.23,3.13-6.28,4.79-4.1,3.33-8.04,6.9-11.62,10.96-1.78,2.04-3.48,4.2-4.96,6.67-.74,1.24-1.42,2.56-1.96,4.08-.26.78-.5,1.58-.62,2.54-.04.22-.05.49-.07.74l-.02.38.02.48c.03.64.14,1.28.34,1.88.39,1.21,1.16,2.29,2.19,3.03,1,.75,2.37,1.18,3.38,1.3,1.97.24,3.52-.04,5.01-.35.36-.08.69-.19,1.04-.28-.02.03-.04.06-.07.09-.99,1.39-1.94,2.86-2.69,4.7-.18.48-.36.97-.49,1.52-.06.25-.2,1.04-.2,1.04-.06.37-.06.76-.07,1.13,0,1.52.56,3,1.58,4.09,1.03,1.08,2.47,1.75,3.98,2,1.24.2,2.19.16,3.17.08,1.91-.17,3.58-.62,5.21-1.12,1.14-.36,2.24-.79,3.32-1.23-.16.32-.32.65-.47.99-.34.76-.65,1.57-.89,2.46-.25.87-.42,1.84-.43,2.93-.01,1.07.16,2.32.75,3.54.58,1.22,1.61,2.3,2.7,2.92,1.1.64,2.19.94,3.2,1.1,1.01.15,1.94.14,2.83.08,1.78-.13,3.38-.53,4.9-1.02,1.51-.49,2.93-1.08,4.29-1.75-.6,1.49-1.11,3.05-1.45,4.72-.22,1.23-.41,2.49-.38,3.85,0,1.34.19,2.78.76,4.27.55,1.47,1.6,3.03,3.17,4.05,1.56,1.04,3.41,1.4,4.95,1.32,1.56-.07,2.97-.41,4.19-.92,1.26-.48,2.36-1.1,3.3-1.69,3.93-2.38,7.34-5.07,10.64-7.89,3.32-2.79,6.45-5.74,9.54-8.73,6.13-6.03,11.91-12.37,17.34-19.04,5.41-6.68,10.49-13.67,14.81-21.27,1.13-1.86,2.06-3.88,3.05-5.85.51-.92,1.03-2.14,1.37-3.28.52-1.71.76-3.06.87-3.6.51-2.44.33-5-.06-7.43ZM51.15,54.06s-.02.01,0,0h0Z"/>
</svg>