<?xml version="1.0" encoding="UTF-8"?>
<svg id="Layer_1_copy_3" data-name="Layer 1 copy 3" xmlns="http://www.w3.org/2000/svg" viewBox="0 0 150 150">
  <defs>
    <style>
      .cls-1 {
        fill: #191919;
      }
    </style>
  </defs>
  <path class="cls-1" d="M140.12,80.1c0-1.58-.01-3.15-.04-4.73,0-.02,0-.03,0-.05,0-.21,0-.45-.02-.7-.14-6.02-.55-12.07-1.52-18.14-.72-4.37-1.77-8.76-3.46-13.03l-.65-1.6c-.21-.53-.5-1.05-.74-1.57-.26-.52-.5-1.05-.78-1.56l-.88-1.52-.44-.76-.5-.73-1-1.45c-.35-.47-.74-.92-1.1-1.39-.38-.46-.73-.93-1.15-1.35-3.2-3.48-7.09-6.32-11.23-8.32-4.13-2.03-8.44-3.43-12.75-4.48-8.64-2.07-17.28-2.92-25.89-3.49-4.36-.28-8.75-.32-13.16-.13-4.41.22-8.84.77-13.22,1.72-4.38.96-8.73,2.38-12.84,4.42-4.11,2.03-7.97,4.69-11.3,7.91-3.35,3.21-6.08,7-8.26,11.01-2.18,4.01-3.8,8.26-5.01,12.56-2.37,8.47-3.24,17.11-3.53,25.65-.03.24-.06.49-.06.78-.22,7.58-.5,15.21-.65,22.86-.07,3.83-.12,7.66-.08,11.53.01.97.02,1.93.06,2.91l.04,1.46.08,1.48c.02.49.05.99.1,1.5,0,0,.11,1.38.14,1.56.11.65.17,1.29.39,1.94.1.32.19.64.3.96l.42.93c.13.31.3.61.49.9.18.29.35.58.55.85.42.52.83,1.07,1.31,1.5.93.95,1.98,1.64,3.04,2.25,2.14,1.16,4.34,1.79,6.49,2.16,2.16.36,4.3.45,6.41.36,2.11-.09,4.2-.37,6.26-.83,2.06-.47,4.1-1.09,6.11-2.02.5-.25,1-.47,1.49-.76l.74-.42.73-.48c.24-.15.49-.32.73-.51.24-.18.48-.36.72-.56.47-.42.94-.82,1.37-1.33.47-.49.8-.98,1.17-1.48.33-.51.66-1.02.93-1.55.56-1.05,1-2.13,1.34-3.19.69-2.14,1.04-4.22,1.28-6.25.45-4.06.47-7.95.48-11.8l-.07-11.43c-.01-3.78.02-7.55.12-11.32.05-1.88.12-3.76.2-5.64v-.35s.01-.43.01-.43v-.89s-.03-.89-.03-.89l-.12-.89c-.08-.59-.15-1.19-.33-1.77l-.24-.88-.12-.44-.17-.42c-.83-2.28-2.18-4.34-3.83-6-1.65-1.67-3.55-2.97-5.55-3.97-4.02-2-8.44-2.8-12.85-2.51-3.5.21-7.06,1.24-10.18,3.18.29-1.31.61-2.61.97-3.89,2.18-7.78,5.82-15.07,11.43-20.48,2.79-2.7,6.02-4.93,9.55-6.67,3.52-1.74,7.33-3,11.26-3.86,3.93-.86,7.99-1.36,12.08-1.57,4.1-.18,8.23-.14,12.38.12,8.37.55,16.75,1.4,24.69,3.31,3.96.96,7.8,2.22,11.31,3.95,3.53,1.7,6.62,4.01,9.19,6.78.34.33.62.71.92,1.08.29.37.61.73.89,1.11l.81,1.18.41.59.36.62.72,1.24c.23.42.43.87.65,1.3.21.44.44.86.62,1.32l.56,1.36c1.45,3.65,2.41,7.59,3.07,11.62.19,1.16.34,2.32.49,3.49-1.24-.8-2.56-1.44-3.92-1.92-2.08-.73-4.24-1.1-6.38-1.17-4.28-.14-8.54.93-12.28,3.16-1.86,1.12-3.59,2.56-5.01,4.32-1.43,1.75-2.49,3.85-3.09,6.06-.18.55-.27,1.1-.37,1.66l-.14.84c-.04.28-.04.56-.06.84l-.04.84c-.01.28-.03.58-.02.78v1.34c0,1.79-.03,3.58-.07,5.38-.08,3.59-.21,7.18-.38,10.78l-.53,10.89c-.14,3.67-.26,7.38.03,11.29.16,1.95.44,3.98,1.03,6.05.32,1.04.7,2.09,1.22,3.12.54,1.04,1.14,2,2.01,3,1.69,1.83,3.59,3.03,5.5,3.94,1.92.91,3.89,1.55,5.88,1.99,1.99.44,4.02.69,6.07.73,2.05.04,4.14-.11,6.26-.61,2.1-.51,4.27-1.3,6.24-2.82.99-.73,1.89-1.68,2.62-2.75l.53-.83c.15-.29.29-.58.43-.88l.21-.44.16-.46.3-.92.19-.92.09-.46c.03-.16.03-.25.05-.38l.17-1.45c.1-.95.18-1.88.25-2.82.13-1.86.24-3.7.32-5.53.17-3.67.27-7.31.35-10.95.17-7.28.23-14.55.35-21.78,0-.34-.01-.64-.05-.91ZM17.86,73.19c.09-.8.34-1.52.54-2.27.12-.36.28-.7.41-1.06.08-.17.12-.36.22-.52l.27-.49c.7-1.31,1.59-2.49,2.74-3.42,2.25-1.89,5.28-3.03,8.47-3.21,1.59-.1,3.21,0,4.79.29,1.58.3,3.11.82,4.51,1.52,2.8,1.38,5.07,3.55,5.98,6.17l.1.24.06.25.13.5c.12.33.14.68.19,1.03l.08.52v.54s.01.54.01.54c0,.09,0,.17,0,.28l-.02.36c-.08,1.92-.16,3.85-.2,5.77-.1,3.85-.13,7.69-.12,11.52l.07,11.41c0,3.76-.04,7.5-.43,11.01-.2,1.75-.5,3.43-.99,4.92-.24.75-.52,1.44-.86,2.07-.16.32-.35.61-.53.9-.2.26-.4.57-.6.76-.17.22-.44.43-.67.66l-.41.32c-.13.11-.28.21-.44.31l-.46.3-.5.28c-.32.2-.7.36-1.05.53-1.45.68-3.07,1.18-4.71,1.55-3.3.73-6.82.92-10.01.39-1.59-.27-3.08-.74-4.3-1.4-.58-.35-1.14-.7-1.54-1.13-.24-.19-.38-.43-.57-.64-.08-.11-.14-.23-.22-.35-.08-.11-.15-.23-.19-.36-.05-.12-.11-.25-.17-.37l-.12-.4c-.11-.25-.11-.57-.18-.85-.02-.06-.06-.62-.06-.62l-.05-.66c-.04-.44-.07-.89-.09-1.35l-.11-2.76c-.03-.92-.04-1.86-.06-2.8-.04-3.74,0-7.52.08-11.31.14-7.37.41-14.76.63-22.19.04-.28.06-.59.07-.94.06-1.86.15-3.73.27-5.58.02-.08.04-.16.05-.25ZM132.56,113.42c-.08,1.79-.18,3.57-.31,5.33-.07.87-.14,1.75-.23,2.6l-.15,1.26c-.01.1-.02.23-.04.29l-.05.2-.08.41c-.31,1.02-.82,1.85-1.77,2.55-.9.72-2.2,1.24-3.61,1.58-1.42.34-2.97.46-4.54.43-1.57-.03-3.16-.23-4.71-.57-1.55-.34-3.05-.84-4.4-1.48-1.36-.63-2.54-1.46-3.32-2.3-.33-.37-.7-.95-1-1.52-.3-.59-.54-1.25-.75-1.94-.4-1.41-.65-3-.78-4.66-.25-3.33-.15-6.88-.01-10.46l.53-10.84c.17-3.64.31-7.3.39-10.96.03-1.83.06-3.67.06-5.5v-1.38c0-.25.01-.41.02-.58l.03-.52c.01-.17,0-.35.03-.52l.09-.5c.05-.34.1-.67.22-.99.35-1.29.95-2.5,1.82-3.57.86-1.06,1.95-1.99,3.19-2.73,2.48-1.49,5.54-2.29,8.5-2.17,2.96.09,5.82,1.04,7.85,2.82,1.01.89,1.83,1.98,2.43,3.21.33.6.52,1.29.77,1.95.14.69.34,1.36.4,2.09.06,2.5.07,5,.05,7.5,0,.28,0,.53.02.76-.09,6.48-.16,12.94-.31,19.39-.08,3.61-.18,7.21-.35,10.79Z"/>
</svg>