<?xml version="1.0" encoding="UTF-8"?>
<svg id="Layer_1_copy_3" data-name="Layer 1 copy 3" xmlns="http://www.w3.org/2000/svg" viewBox="0 0 150 150">
  <defs>
    <style>
      .cls-1 {
        fill: #191919;
      }
    </style>
  </defs>
  <path class="cls-1" d="M129.9,48.71c-.66-3.77-1.65-7.59-3.26-11.3-.37-.93-.87-1.83-1.34-2.74-.22-.46-.52-.89-.78-1.33-.28-.44-.53-.89-.83-1.31-.62-.83-1.2-1.7-1.91-2.47-.35-.39-.68-.8-1.04-1.17l-1.12-1.09c-.37-.37-.77-.7-1.17-1.03-.4-.33-.8-.67-1.21-.98l-1.27-.89c-.21-.15-.42-.3-.64-.44l-.66-.39-1.32-.78-1.35-.69c-.9-.48-1.82-.84-2.73-1.24-3.68-1.51-7.42-2.47-11.14-3.21-3.72-.73-7.42-1.22-11.11-1.61-1.85-.21-3.68-.35-5.52-.51-1.83-.14-3.66-.28-5.54-.36-1.86-.12-3.75-.13-5.63-.17-1.89.03-3.77.03-5.67.17-3.79.23-7.61.68-11.4,1.55-3.79.87-7.56,2.14-11.11,4.01-3.55,1.85-6.86,4.31-9.65,7.25-2.79,2.94-5.07,6.32-6.78,9.88-1.73,3.56-2.97,7.26-3.9,10.98-1.85,7.46-2.47,14.97-2.7,22.39,0,.28-.35,8.23-.43,12.05-.04,2.68-.02,5.42.22,8.18l.09,1.04c0,.14.05.42.09.65l.12.71c.09.47.26.95.4,1.42.16.47.39.92.6,1.38.94,1.8,2.4,3.21,3.91,4.18,1.52.98,3.1,1.59,4.64,2.01,1.55.41,3.08.63,4.58.73,3.01.17,5.95-.1,8.84-.77,1.45-.34,2.88-.79,4.31-1.39,1.42-.61,2.84-1.35,4.23-2.42.69-.52,1.37-1.18,2-1.92.47-.59.87-1.06,1.32-1.7.22-.32.44-.58.66-.95.22-.36.45-.69.66-1.08.21-.41.42-.81.6-1.24.16-.45.35-.9.47-1.36.1-.44.24-.93.29-1.35.06-.42.12-.86.16-1.25l.07-1.15c.02-.37.01-.71.02-1.07.02-1.41,0-2.7-.02-4-.03-2.59-.03-5.14,0-7.71l.1-3.85.16-3.92c0-.07,0-.2,0-.32l-.02-.36-.04-.72c-.01-.49-.12-.95-.21-1.41-.09-.46-.19-.92-.37-1.36-.17-.44-.31-.9-.53-1.31-.79-1.72-2-3.11-3.27-4.25-.64-.59-1.32-1.05-2-1.52-.7-.41-1.39-.84-2.11-1.16-.71-.36-1.43-.63-2.16-.91-.36-.13-.73-.24-1.09-.36-.36-.12-.73-.23-1.1-.31-2.94-.76-5.92-1.02-8.93-.83-1.5.12-3.01.31-4.52.71-.8.21-1.61.46-2.4.76.17-.83.36-1.66.57-2.48,1.64-6.64,4.39-12.9,8.86-17.54,2.21-2.33,4.81-4.27,7.7-5.78,2.88-1.52,6.05-2.6,9.34-3.35,3.3-.75,6.72-1.17,10.18-1.37,1.73-.13,3.48-.12,5.22-.16,1.75.04,3.5.04,5.27.16,1.75.07,3.54.22,5.33.35,1.78.15,3.56.29,5.33.49,3.53.38,7.04.84,10.45,1.51,6.79,1.34,13.33,3.55,17.85,7.79,4.58,4.17,6.87,10.54,8.05,17.27.22,1.27.39,2.56.55,3.85-.34-.18-.68-.35-1.03-.51-.36-.19-.73-.33-1.11-.47-.38-.13-.75-.3-1.13-.39-1.52-.48-3.07-.69-4.61-.79-1.54-.07-3.07.05-4.58.31-1.5.3-2.98.72-4.4,1.34-1.41.64-2.79,1.39-4.04,2.4-2.51,1.95-4.57,4.81-5.42,8.04l-.17.6-.11.61c-.07.41-.14.81-.2,1.22l-.07,1.22-.03.6v.46s-.03,3.7-.03,3.7c-.05,2.46-.12,4.91-.28,7.35-.07,1.22-.16,2.44-.26,3.67l-.16,1.86-.08.95-.07,1-.03.5-.02.55c-.01.37-.03.72-.01,1.15.02.42.01.81.09,1.29.06.46.12.92.26,1.4l.2.71.26.66c.09.21.18.44.27.64l.3.56.3.55.3.47c.2.3.41.65.6.92l.59.84c.06.08.08.13.16.22l.22.28.45.55c.62.66,1.28,1.26,1.94,1.74,1.34.99,2.71,1.69,4.1,2.26,2.78,1.11,5.61,1.7,8.52,1.86,1.79.08,3.62.02,5.49-.34-.48,3.75-1.59,7.28-3.49,10.28-2.51,4.01-6.5,6.97-11.16,8.93-4.66,1.98-9.89,3.05-15.21,3.69-1.97.24-3.95.41-5.95.54l.05-.75c.05-.92.1-1.85.13-2.79l.04-1.42v-.82c0-.45,0-.9-.01-1.35-.03-.9-.1-1.79-.29-2.59-.2-.8-.52-1.47-1.01-2-.12-.13-.27-.28-.41-.4-.14-.11-.26-.19-.38-.29-.34-.13-.73-.22-1.09-.33-.38-.1-.72-.24-1.12-.3h-26.71c-.9.01-1.81-.03-2.7.03-.42.06-.84.14-1.18.28-.36.13-.66.28-1,.49-.65.42-1.25,1.06-1.6,1.71-.34.61-.6,1.4-.63,2.3l-.14,6.12-.06,2.91c0,.81-.08,1.65.02,2.42.05.38.15.73.26,1.04.12.32.25.59.43.89.36.59.91,1.14,1.49,1.51.29.19.56.33.88.45.16.06.32.12.5.16.17.05.35.09.55.12.37.07.79.06,1.2.07h1.22s1.66.01,1.66.01l4.9.02,12.39.05c.18.08.38.12.62.12h1.38c.1.05.21.07.33.07.9,0,1.79-.01,2.69-.03h.93c.81,0,1.66.08,2.42-.05.04,0,.08-.02.12-.03,3.64-.12,7.3-.35,10.98-.79,5.75-.7,11.59-1.85,17.24-4.23,2.81-1.2,5.56-2.73,8.06-4.69,2.5-1.96,4.74-4.36,6.45-7.09,1.72-2.72,2.94-5.72,3.72-8.75.79-3.03,1.11-6.1,1.19-9.11,0-.06,0-.12-.01-.18.08-.08.15-.15.23-.23,1.3-1.4,2.23-3.25,2.59-5.08l.13-.69.07-.5.13-.97c.07-.65.16-1.29.22-1.94.14-1.29.24-2.58.34-3.87.34-4.99.59-15.32.59-15.67.05-7.38-.14-14.84-1.43-22.4ZM26.96,64.02c.18-.7.48-1.31.95-1.89.47-.58,1.19-1.09,2-1.55.81-.46,1.78-.8,2.79-1.06,1.01-.28,2.1-.41,3.18-.5,1.1-.08,2.21-.05,3.32.04,1.1.12,2.2.27,3.25.57.27.06.53.13.78.22.25.08.52.16.77.25.49.2.99.37,1.44.61.48.21.88.48,1.32.72.38.28.79.54,1.1.85.66.59,1.2,1.22,1.49,1.88.1.16.3.84.33,1.02.04.17.13.97.12,1.07l-.15,3.89-.1,3.96c-.04,2.64-.04,5.3,0,7.92.01,1.3.04,2.61.02,3.81,0,1.23-.08,2.28-.27,2.93-.04.18-.12.32-.17.49-.07.16-.17.34-.25.51-.22.38-.48.78-.82,1.24-.29.43-.74.95-1.07,1.38-.22.24-.47.51-.82.77-.68.53-1.57,1.02-2.55,1.43-.98.41-2.03.75-3.12,1.01-2.18.51-4.48.72-6.68.59-2.17-.13-4.28-.67-5.63-1.55-.67-.44-1.13-.92-1.4-1.43-.05-.14-.13-.27-.18-.41-.03-.16-.1-.29-.13-.46l-.04-.25c-.01-.09-.04-.14-.05-.32l-.08-.91c-.21-2.42-.23-4.91-.19-7.44.1-5.05.64-15.97.61-16.14.06-1.06.24-3.22.24-3.25ZM52.86,127.32l.13-5.66h23.36v.54s-.04,1.29-.04,1.29c-.03.87-.07,1.74-.12,2.62l-.08,1.31-17.56-.07-5.69-.02ZM114.25,96.75c-2.09-.11-4.23-.57-6.11-1.32-.93-.38-1.79-.84-2.47-1.34-.35-.25-.62-.51-.86-.75-.04-.06-.09-.12-.14-.18l-.07-.09s-.08-.11-.11-.16l-.49-.7c-.18-.24-.28-.44-.43-.66l-.2-.32-.14-.27-.15-.27c-.04-.08-.06-.15-.09-.23l-.1-.22c-.01-.07-.03-.13-.04-.2-.05-.12-.06-.28-.08-.44-.04-.13-.03-.37-.04-.58-.02-.19,0-.47,0-.73v-.39s.04-.43.04-.43l.06-.88.08-.92.16-1.88c.1-1.27.2-2.55.27-3.83.16-2.56.23-5.12.29-7.67l.03-3.82v-.48s.02-.34.02-.34l.03-.66.11-.63.05-.32.09-.3c.43-1.62,1.43-3.05,2.86-4.19.7-.58,1.54-1.02,2.41-1.43.88-.39,1.82-.65,2.78-.85.96-.16,1.94-.24,2.9-.2.96.07,1.91.19,2.78.47,1.76.54,3.25,1.51,4.27,2.86l.2.25.17.27c.11.18.23.36.34.55.17.41.41.77.52,1.22l.23.64.15.69c.13.44.15.95.22,1.43.01.2.04,3.74.03,3.96-.1,5.02-.17,9.99-.5,14.84-.09,1.21-.19,2.42-.32,3.62-.06.6-.14,1.2-.2,1.8l-.12.9-.06.43-.05.24c-.13.63-.37,1.09-.77,1.54-.41.44-1.03.85-1.81,1.18-1.57.66-3.67.91-5.75.8Z"/>
</svg>