<?xml version="1.0" encoding="UTF-8"?>
<svg id="Layer_1_copy_3" data-name="Layer 1 copy 3" xmlns="http://www.w3.org/2000/svg" viewBox="0 0 150 150">
  <defs>
    <style>
      .cls-1 {
        fill: #191919;
      }
    </style>
  </defs>
  <path class="cls-1" d="M132.71,45.04c0-.2,0-.39-.03-.59-.03-.39-.09-.78-.18-1.17-.18-.77-.47-1.51-.86-2.19-.77-1.37-1.95-2.51-3.34-3.24l-.53-.25-.33-.14-.61-.26-1.23-.53-2.45-1.06-9.81-4.23c-1.04-.45-1.91-.75-2.65-.95l-18.07-7.89-9.79-4.27-4.89-2.14-.61-.27-.31-.13-.48-.2c-.74-.27-1.51-.45-2.3-.51-.78-.06-1.58,0-2.34.16-.38.08-.76.19-1.13.33-.35.12-.8.34-.93.4l-38.47,18.57-9.74,4.71c-1.38.73-2.56,1.88-3.32,3.25-.38.69-.67,1.43-.85,2.2-.09.38-.15.78-.18,1.17-.02.2-.02.39-.02.59v.29s0,.17,0,.17c.05,1.84.15,3.67.28,5.49.54,7.29,1.62,14.52,3.26,21.65,1.67,7.12,3.93,14.15,6.97,20.89,1.51,3.38,3.28,6.65,5.19,9.84,1.02,1.56,1.98,3.15,3.11,4.65l.82,1.14.41.57.44.55,1.77,2.19c.58.73,1.25,1.4,1.87,2.11.63.69,1.25,1.4,1.94,2.04l2.02,1.97c.69.64,1.42,1.24,2.14,1.85l1.07.92c.36.3.75.57,1.13.86l2.27,1.69c.78.53,1.58,1.03,2.37,1.55l1.19.77c.4.26.82.46,1.23.7l2.48,1.36c.83.44,1.71.8,2.56,1.21l1.29.59.64.29.66.25,2.64.99c.87.36,1.78.61,2.68.88l2.7.8.17.05.08.02.14.04c.19.05.38.08.58.12.39.06.77.1,1.16.11.39,0,.78,0,1.16-.05.19-.02.39-.05.58-.09.12-.02.14-.03.21-.04l.17-.04,2.75-.64c.46-.11.92-.2,1.37-.33l1.36-.41c.9-.28,1.81-.53,2.7-.84,1.76-.68,3.56-1.29,5.26-2.13l1.29-.59.65-.3.63-.34,2.5-1.36c.83-.46,1.61-1,2.42-1.5l1.2-.77,1.15-.84c.76-.57,1.55-1.1,2.28-1.7l2.18-1.82c.72-.61,1.38-1.29,2.08-1.93.34-.33.69-.65,1.02-.98l.97-1.03.97-1.03.48-.52.45-.54,1.81-2.17c1.13-1.5,2.29-2.98,3.31-4.55,1.08-1.54,2-3.15,2.97-4.75.89-1.63,1.8-3.26,2.59-4.94,1.63-3.33,3.05-6.75,4.26-10.23,2.46-6.95,4.16-14.09,5.37-21.29,1.17-7.21,1.85-14.47,2.01-21.75v-.17s0-.29,0-.29ZM125.55,45.34c-.15,6.95-.8,13.9-1.91,20.75-1.14,6.84-2.76,13.6-5.06,20.07-1.13,3.25-2.45,6.41-3.94,9.47-.72,1.55-1.56,3.02-2.37,4.52-.88,1.45-1.72,2.92-2.69,4.3-.91,1.43-1.96,2.74-2.97,4.09l-1.62,1.93-.4.48-.43.46-.86.92-.86.92c-.29.3-.6.58-.91.86-.61.57-1.2,1.17-1.83,1.7l-1.92,1.6c-.64.54-1.33.99-2,1.49l-1.01.74-1.05.67c-.71.44-1.39.91-2.12,1.32l-2.19,1.19-.55.3-.57.26-1.13.52c-1.49.74-3.08,1.27-4.63,1.87-.79.27-1.6.49-2.4.74l-1.2.37c-.4.12-.82.2-1.22.3l-2.45.57-.27.06s-.05,0-.08.01c-.05,0-.11,0-.17,0-.06,0-.11,0-.17-.02l-.08-.02h-.02s-.08-.03-.08-.03l-.15-.05-2.42-.72c-.81-.24-1.62-.46-2.39-.78l-2.35-.88-.59-.22-.57-.26-1.14-.53c-.75-.36-1.53-.67-2.27-1.07l-2.2-1.21c-.36-.21-.74-.39-1.09-.62l-1.05-.68c-.7-.46-1.41-.9-2.1-1.37l-2.01-1.5c-.33-.25-.68-.49-1-.76l-.95-.82c-.63-.55-1.28-1.08-1.9-1.64l-1.8-1.76c-.62-.57-1.17-1.2-1.73-1.83-.56-.63-1.15-1.22-1.68-1.89l-1.59-1.97-.4-.49-.37-.51-.74-1.03c-1.02-1.35-1.9-2.8-2.83-4.22-1.74-2.92-3.37-5.92-4.77-9.04-2.82-6.24-4.94-12.83-6.52-19.56-1.55-6.74-2.59-13.63-3.1-20.55-.12-1.73-.22-3.46-.27-5.17v-.16s0-.05,0-.05c0-.03,0-.05,0-.08,0-.05,0-.1.02-.15.02-.1.06-.19.11-.28.1-.18.25-.33.44-.43l9.49-4.58,38.47-18.57c.27-.13.23-.11.29-.14.05-.02.1-.03.15-.04.1-.02.21-.03.31-.02.1,0,.21.03.3.07l1.06.46,4.89,2.14,9.79,4.27,19.57,8.55c1.09.48,2,.79,2.77.99l8.22,3.55,4.65,2.01c.19.1.34.25.44.43.05.09.09.19.11.28.01.05.02.1.02.15,0,.03,0,.05,0,.08v.04s0,.16,0,.16Z"/>
  <path class="cls-1" d="M107.61,59.59c-.08-.35-.21-.65-.35-.93-.15-.27-.28-.49-.51-.76-.22-.26-.49-.51-.75-.7-.24-.18-.49-.31-.78-.45-.57-.28-1.35-.39-2.16-.37h-12.76v-12.4c0-.4,0-.8-.08-1.16-.14-.73-.43-1.27-.77-1.75-.19-.26-.45-.53-.71-.74-.27-.21-.48-.35-.76-.49-.55-.27-1.25-.49-2.07-.46h-23.07c-.17,0-.32,0-.47.01-.33,0-.66.02-.98.09-1.39.21-2.65,1.79-2.74,1.95-.11.18-.21.37-.29.59-.17.43-.3.93-.31,1.49l-.32,13.3h-9.86c-.73.02-1.5-.05-2.16.09-.66.14-1.17.4-1.6.7-.23.16-.48.38-.69.62-.22.24-.37.46-.5.69-.27.47-.5,1.06-.56,1.77-.04.72,0,1.47-.02,2.2v18.91c0,.37,0,.74.05,1.08.1.68.35,1.25.63,1.69.26.44.82,1,1.26,1.26.44.28,1,.53,1.69.63.34.06.71.05,1.08.05h11.97l.2,8.21.06,2.41.05,2.16c.02.8,0,1.64.27,2.27.12.32.26.61.42.85.14.24.36.5.61.76.26.25.53.45.77.59.24.15.54.29.86.4.64.25,1.48.22,2.28.22h24.09c.8,0,1.5-.22,2.03-.51.26-.15.49-.29.75-.52.26-.22.51-.5.68-.75.32-.46.61-1.04.73-1.79.07-.36.06-.78.06-1.17v-13.55h10.48c.82.03,1.52-.19,2.08-.46.28-.14.5-.28.76-.49.26-.21.52-.48.71-.74.34-.48.63-1.01.77-1.75.07-.36.08-.76.08-1.16v-19.57c-.02-.79.06-1.65-.13-2.33ZM100.59,78.93h-10c-.4,0-.81-.01-1.19.04-.75.1-1.37.37-1.83.69-.24.16-.52.39-.75.65-.24.27-.4.51-.55.76-.3.51-.53,1.19-.55,1.98v14.16h-19.29l-.06-2.66-.26-11.07c-.03-.74-.23-1.38-.49-1.88-.14-.26-.27-.46-.46-.7-.19-.24-.44-.48-.68-.66-.24-.19-.45-.31-.71-.44-.26-.13-.54-.24-.86-.32-.63-.18-1.41-.12-2.14-.13h-11.26v-15.38h10.05c.73,0,1.5.04,2.13-.15.32-.08.59-.2.85-.33.25-.14.46-.26.71-.46.24-.19.48-.44.67-.67.18-.24.31-.44.45-.7.26-.51.46-1.16.47-1.9l.14-5.81.18-7.42h18.01v12.9c.03.79.27,1.47.56,1.98.14.25.31.49.55.76.23.26.52.49.75.65.47.31,1.08.59,1.84.69.38.05.79.04,1.19.04h12.54v15.38Z"/>
</svg>