<?xml version="1.0" encoding="UTF-8"?>
<svg id="Layer_1_copy_3" data-name="Layer 1 copy 3" xmlns="http://www.w3.org/2000/svg" viewBox="0 0 150 150">
  <defs>
    <style>
      .cls-1 {
        fill: #191919;
      }
    </style>
  </defs>
  <path class="cls-1" d="M134.82,48.03c-.15-.3-.29-.53-.52-.82-.23-.28-.52-.57-.79-.77-.5-.36-1.08-.68-1.89-.83-.39-.08-.83-.08-1.26-.08h-27.96l-.86-13.61-.48-7.53-.12-1.88-.1-1.61c-.05-.62-.06-1.26-.13-1.87-.08-.61-.28-1.14-.52-1.57-.12-.23-.24-.4-.39-.6-.15-.2-.35-.41-.56-.59-.44-.38-.78-.58-1.27-.79-.48-.19-1.05-.33-1.68-.33l-40.15-.16c-1.38,0-7.6.14-8.47.17-.86.06-1.55.36-2.08.69-.26.16-.57.41-.83.69-.27.29-.46.56-.62.83-.34.55-.58,1.32-.61,2.2l-.03,2.64-.04,2.85-.07,5.29-.2,15.7-12.66.51-7.06.29-2.14.09-1.77.07c-.59.01-1.18.06-1.67.22-.49.15-.92.37-1.26.61-.34.23-.76.62-1.04,1.02-.15.2-.24.37-.35.56-.1.2-.2.4-.27.64-.16.46-.26,1-.24,1.59l1.25,40.82.15,4.91.07,2.18c.03.81.01,1.67.25,2.35.11.34.25.64.41.9.15.26.32.5.57.77.24.26.53.5.78.67.13.08.26.15.39.23.15.07.29.14.44.2.32.12.66.23,1.05.27.38.06.8.05,1.2.05h25.47l.64,16.62.19,4.91.14,3.73c0,.83.16,1.61.46,2.19.15.3.3.55.49.79.2.26.46.53.74.75.28.22.51.36.79.51.29.14.6.27.96.35.71.19,1.58.11,2.38.13h43.01c.82,0,1.65.02,2.45-.02.79-.08,1.44-.34,1.95-.66.26-.16.56-.39.81-.64.26-.26.44-.51.61-.77.34-.52.61-1.23.68-2.04l1.99-25.57,12.95-.35,7.17-.19,1.88-.05,1.79-.05c.59-.02,1.22,0,1.75-.12.54-.11,1-.31,1.39-.54.36-.2.78-.55,1.12-.95.17-.2.3-.38.41-.57.12-.18.22-.4.32-.63.19-.45.32-1,.34-1.6l.97-43.27.15-6.73c.04-.89-.17-1.65-.46-2.24ZM127.56,56.83l-.9,40.32-24.61.66c-.61.02-1.17.16-1.64.36-.47.21-.82.42-1.25.8-.2.18-.39.39-.54.58-.14.19-.27.37-.39.6-.24.43-.43.96-.51,1.55l-.41,5.17-.57,7.33-1.03,13.23h-40.53l-.23-6.09-.38-9.82-.19-4.91-.12-3.02-.05-1.23c-.02-.41-.02-.83-.09-1.2-.13-.76-.43-1.39-.78-1.86-.18-.25-.43-.53-.7-.76-.28-.24-.53-.4-.79-.55-.53-.3-1.25-.52-2.06-.55h-3.99s-4.91,0-4.91,0h-17.22l-.16-5.19-1.15-37.76,24.05-.98c.88-.05,1.63-.32,2.18-.68.52-.29,1.2-.98,1.48-1.52.34-.56.6-1.31.63-2.19l.03-2.64.07-5.45.13-10.58.1-7.73h6.23c1.25,0,36.07-.01,36.07-.01l1.66,26.19c.07.87.35,1.61.71,2.15.3.51.99,1.17,1.53,1.45.56.33,1.3.58,2.17.59h2.61s5.4,0,5.4,0h20.2l-.08,3.72Z"/>
</svg>