<?xml version="1.0" encoding="UTF-8"?>
<svg id="Layer_1_copy_3" data-name="Layer 1 copy 3" xmlns="http://www.w3.org/2000/svg" viewBox="0 0 150 150">
  <defs>
    <style>
      .cls-1 {
        fill: #191919;
      }
    </style>
  </defs>
  <path class="cls-1" d="M137.5,60.49v-1.45s-.14-1.45-.14-1.45l-.07-.72-.13-.72-.26-1.43-.38-1.41-.19-.7-.24-.68-.5-1.36c-1.49-3.56-3.69-6.7-6.2-9.37-2.49-2.63-5.27-4.99-8.43-6.93-3.14-1.95-6.68-3.38-10.36-4.15-3.68-.81-7.48-.85-11.14-.4-3.66.5-7.19,1.49-10.5,2.86-3.33,1.35-6.45,3.06-9.41,4.97-1.48.96-2.91,1.99-4.3,3.06l-1.04.82-.51.42-.13.11s-.03.03-.03.03h0s-.02.03-.03.03c-.07.06-.16.07-.25.07-.09,0-.16-.02-.24-.08l-2.13-1.49c-.36-.25-.72-.51-1.08-.75l-1.13-.7c-.76-.46-1.49-.95-2.27-1.37-3.08-1.76-6.38-3.21-9.84-4.3-3.46-1.07-7.11-1.72-10.82-1.77-7.41-.14-14.97,2.25-20.86,6.81-2.96,2.25-5.57,4.97-7.64,8.1-1.06,1.55-1.95,3.22-2.7,4.97l-.54,1.33-.45,1.38c-.16.45-.27.93-.38,1.41-.11.48-.24.94-.31,1.44-.08.49-.16.98-.22,1.47l-.11,1.51c-.04.5,0,1.03.01,1.54,0,.52.06,1.01.12,1.51.09,1,.32,1.93.51,2.88.26.91.48,1.84.8,2.7,1.2,3.52,2.86,6.7,4.72,9.69,3.73,5.98,8.23,11.25,13.12,16.09,9.81,9.62,21.23,17.55,33.88,23.09.78.36,1.59.67,2.39,1,.8.33,1.6.65,2.42.94l1.22.44.61.22c.06.03.31.11.49.16.19.05.39.1.58.14,1.57.32,3.21.13,4.65-.51.18-.08.36-.17.53-.26l.32-.18.56-.31,1.11-.63,2.19-1.27c1.45-.85,2.89-1.71,4.32-2.58,5.61-3.4,11.16-6.86,16.69-10.32.72-.3,1.55-.76,2.53-1.44,2.8-1.94,5.56-3.96,8.23-6.12,2.66-2.16,5.25-4.45,7.71-6.89,2.46-2.44,4.8-5.05,6.92-7.88,2.12-2.83,4.03-5.89,5.53-9.24.4-.82.7-1.71,1.04-2.56.17-.43.29-.89.44-1.33.13-.45.29-.89.4-1.34.21-.92.47-1.82.59-2.77l.22-1.41.11-1.44.05-.72v-.72ZM130.16,61.48l-.08,1.05-.16,1.05c-.08.7-.3,1.4-.44,2.1-.08.35-.21.7-.31,1.04-.12.35-.2.7-.34,1.04-.28.68-.5,1.38-.83,2.06-2.45,5.46-6.43,10.44-10.92,14.91-2.26,2.24-4.66,4.36-7.15,6.39-2.5,2.02-5.1,3.93-7.76,5.77-.58.27-1.23.61-1.97,1.08-5.63,3.52-11.26,7.04-16.91,10.46-1.41.86-2.83,1.7-4.24,2.53l-2.12,1.24-1.84,1.04c-.08.04-.17.04-.23.03,0,0-.02,0-.02,0-.02-.01.03.01-.1-.04l-.56-.2-1.12-.41c-.75-.26-1.49-.56-2.23-.86-.74-.3-1.48-.59-2.21-.92-11.71-5.12-22.5-12.6-31.66-21.59-4.55-4.51-8.73-9.43-12.04-14.74-.83-1.32-1.57-2.68-2.27-4.05-.65-1.37-1.29-2.76-1.74-4.15-.26-.69-.42-1.38-.62-2.07-.13-.68-.31-1.37-.36-2.02-.04-.33-.09-.66-.08-.97,0-.32-.04-.62,0-.95l.07-.98.15-.99c.49-2.65,1.65-5.35,3.27-7.74.78-1.22,1.73-2.34,2.71-3.41.53-.51,1.01-1.06,1.58-1.52l.82-.73.87-.67c4.64-3.59,10.47-5.42,16.33-5.33,5.9.08,11.79,2.08,17.17,5.12.68.36,1.33.81,1.99,1.21l.99.61c.33.21.64.45.96.67l1.95,1.37c1.27.93,2.84,1.46,4.41,1.48,1.57.03,3.15-.43,4.45-1.31.17-.1.32-.23.47-.35l.32-.25.45-.37.92-.73c1.24-.96,2.51-1.86,3.82-2.72,5.22-3.39,10.99-5.93,16.87-6.71,5.87-.78,11.73.42,16.74,3.54,2.51,1.54,4.84,3.51,6.92,5.7,2.03,2.16,3.69,4.57,4.77,7.14l.36.98.18.49.13.5.27,1,.18,1.02.09.51.04.52.1,1.03v1.04s0,.52,0,.52l-.04.52Z"/>
</svg>