<?xml version="1.0" encoding="UTF-8"?>
<svg id="Layer_1_copy_2" data-name="Layer 1 copy 2" xmlns="http://www.w3.org/2000/svg" viewBox="0 0 150 150">
  <defs>
    <style>
      .cls-1 {
        fill: #191919;
      }
    </style>
  </defs>
  <path class="cls-1" d="M132.23,72.35c-3.02-3.78-6.11-7.49-9.23-11.18V21.91c0-.62-.11-1.2-.27-1.71-.16-.51-.4-1.01-.72-1.48-.32-.47-.72-.88-1.16-1.23-.22-.17-.44-.32-.68-.45l-.76-.35c-.12-.07-.27-.1-.42-.13l-.44-.11c-.3-.07-.58-.15-.89-.2l-1.59-.29c-2.54-.43-5.1-.78-7.8-.92-.73-.03-1.17-.06-2.51-.03-.56,0-1.16.05-1.76.11-.3.03-.61.04-.89.1l-.84.18-.42.09-.21.05c-.07.02-.11.06-.17.09l-.66.37c-.22.13-.44.23-.62.42-.2.17-.39.38-.55.59-.17.21-.29.4-.4.6-.11.21-.22.42-.31.66-.18.48-.31,1.04-.32,1.66l-.07,7.05c0,1.84-.06,3.68-.03,5.52,0,.47,0,.94.01,1.41-5.77-6.07-11.64-12.04-17.65-17.87-.92-.89-2.25.33-3.8,1.93-.58.6-40.43,35.67-59.18,53.45-.95.9.22,2.28,1.75,3.9s2.86,2.85,3.8,1.96c3.22-3.06,6.47-6.09,9.72-9.12v58.77c-3.05,0-6.09-.02-9.12-.04-.1,0-.19,0-.28.02-.04,0-.09.01-.13.02-.05,0-.08.02-.09.03-.05.05-.09.13-.14.24-.1.21-.21.52-.34.89-.26.73-.56,1.71-.83,2.79-.27,1.08-.5,2.06-.28,2.81.11.37.33.69.72.92.19.11.42.2.69.26.08.02.12.03.16.04.04.01.09.02.13.03.09.01.19.02.29.02,8.11.06,16.12.05,24.18.06h24.13s48.26-.1,48.26-.1c1.62,0,1.76-1.81,1.75-4.04,0-.89-.03-1.71-.16-2.38.15-.15.23-.33.23-.56l-.06-55.05c1.23,1.5,2.45,3,3.66,4.52.79.98,2.27-.06,4.02-1.44,1.74-1.39,3.09-2.6,2.29-3.6ZM106.57,32.49c-.03-1.83.02-3.65.03-5.48l.03-2.74v-1.21s.06,0,.06,0c-.11,0,.67.01,1.17.04,2.21.11,4.54.42,6.84.81l.22.04v27.86c-2.49-2.83-5-5.64-7.54-8.42-.25-.27-.5-.54-.75-.81,0-3.39-.05-6.74-.07-10.1ZM72.23,126.92h-5.79c0-.05,0-.53,0-.87v-42.82l4.09-.07,8.91-.16,4.46-.08,2.23-.04c.06,0,.12,0,.18,0v7.4s0,12.83,0,12.83v23.8s-14.08.02-14.08.02ZM90.1,79.34h0s0,0,0,0ZM114.24,126.84l-19.87.03v-23.75s0-12.81,0-12.81v-6.41s0-3.2,0-3.2v-1.45s-.01-.22-.01-.22c-.02-.29-.07-.59-.15-.88-.08-.29-.18-.54-.31-.78-.12-.24-.27-.47-.44-.68-.19-.24-.28-.33-.42-.46-.13-.13-.27-.24-.42-.35-.17-.13-.25-.18-.35-.24-.1-.06-.2-.12-.3-.17-.23-.12-.35-.16-.49-.22-.32-.12-.5-.16-.72-.22-.37-.08-.67-.13-.92-.15-.52-.05-.89-.05-1.36-.04l-1.12-.05c-.41-.03-.78-.02-1.16,0l-2.25.04-4.51.08-9.02.16-4.87.09c-1.52-.06-2.89.34-4.1,1.07-1.19.73-2.17,1.84-2.66,3.14-.07.16-.12.33-.16.49l-.07.25c-.02.09-.02.18-.03.27l-.11,1.08-.05.54v.56s0,.89,0,.89v42.59c0,.34,0,.87,0,.87h-10.27c-2.29,0-4.58,0-6.88,0V60.7c12.7-11.64,25.62-23.05,38.75-34.21,7.33,7.27,14.48,14.73,21.45,22.35,4.32,4.74,8.57,9.53,12.75,14.39l.07,63.61Z"/>
</svg>