<?xml version="1.0" encoding="UTF-8"?>
<svg id="Layer_1_copy_3" data-name="Layer 1 copy 3" xmlns="http://www.w3.org/2000/svg" viewBox="0 0 150 150">
  <defs>
    <style>
      .cls-1 {
        fill: #191919;
      }
    </style>
  </defs>
  <path class="cls-1" d="M104.24,71.29c-.13-.22-.28-.41-.49-.65-.21-.22-.45-.43-.65-.57-.21-.14-.42-.27-.68-.39-.5-.23-1.12-.4-1.83-.4h-11.05v-9.95c0-.71,0-1.43-.19-2.01l-.15-.42-.18-.37c-.14-.23-.25-.43-.43-.64-.18-.22-.41-.46-.63-.64-.11-.09-.21-.17-.31-.23l-.33-.2c-.46-.25-1.04-.46-1.73-.51-.69-.03-1.41,0-2.11-.02h-18.66c-.26,0-.5.01-.73.03-.37,0-.74.05-1.08.18-.44.14-.79.34-1.11.55-.31.21-.71.58-.95.91-.45.58-.85,1.42-.89,2.5l-.27,11.19h-9.21c-.65,0-1.25.12-1.73.33-.24.1-.46.22-.65.34-.2.12-.38.26-.59.45-.21.19-.4.41-.54.6-.14.18-.25.38-.37.6-.23.44-.41.98-.45,1.61-.03.63,0,1.29-.02,1.94v16.74c-.02.65.06,1.28.26,1.78.09.26.2.48.32.69.12.21.23.38.41.59.17.21.39.42.59.58.2.17.38.27.59.4.42.23.93.44,1.54.51.61.07,1.28.03,1.93.04h9.05l.17,6.95.06,2.66c.02.7.03,1.42.06,2.11.04.69.25,1.3.5,1.77.14.24.26.44.43.65.18.22.41.45.64.64.11.09.22.17.32.24l.33.2.37.18.42.15c.58.19,1.3.19,2.01.18h20.08c.7-.01,1.44.05,2.07-.09.63-.13,1.14-.38,1.55-.65.4-.25.94-.81,1.17-1.19.27-.41.52-.94.63-1.59.11-.64.05-1.38.07-2.08v-10.5h7.39c.7-.01,1.43.04,2.09-.05.65-.1,1.19-.33,1.62-.6.22-.13.41-.28.65-.49.22-.21.43-.45.57-.65.28-.4.53-.9.68-1.52.16-.61.1-1.36.11-2.06v-17.18c.02-.71-.07-1.39-.29-1.93-.1-.27-.23-.52-.36-.73ZM97.51,89.13h-7.44c-.7.01-1.43-.04-2.09.06-.65.1-1.19.34-1.61.61-.39.22-.94.74-1.21,1.15-.28.41-.53.91-.67,1.53-.15.62-.08,1.37-.1,2.06v10.68h-15.93l-.28-11.56c-.02-.65-.18-1.22-.4-1.69-.23-.49-.44-.8-.86-1.23-.44-.42-.77-.63-1.25-.85-.47-.21-1.04-.37-1.69-.38h-5.45s-4.97,0-4.97,0v-12.47h8.31c.64,0,1.32.03,1.88-.11.57-.13,1.03-.36,1.42-.61.37-.24.88-.73,1.11-1.09.26-.38.5-.85.64-1.42.16-.56.13-1.24.15-1.89l.05-1.95.05-2.01.15-6.27h14.8v10.17c0,.35,0,.71.03,1.04.08.66.3,1.22.56,1.67.13.23.26.41.46.65.2.23.44.45.65.6.4.29.87.55,1.48.71.6.17,1.33.14,2.03.14h10.13,0s0,12.47,0,12.47Z"/>
  <path class="cls-1" d="M126.77,54.61c-.19-.65-.51-1.27-.93-1.8-.21-.26-.44-.51-.7-.74-.27-.22-.55-.43-.83-.64l-3.45-2.64-13.39-10.22c-.66-.51-1.26-.92-1.8-1.26-.25-.21-.52-.42-.82-.65l-18.86-14.45-4.71-3.61-2.72-2.08c-.39-.3-.78-.62-1.2-.84-.42-.23-.82-.4-1.26-.51-.88-.23-1.85-.23-2.73.02-.44.12-.84.29-1.26.52-.41.23-.8.56-1.18.86l-1.53,1.23-2.32,1.86-4.63,3.72-37.43,30.05c-1.08.86-1.78,2.13-1.95,3.48-.05.34-.05.69-.05,1.04v70.96c0,.7,0,1.42.16,2.03.15.62.39,1.15.74,1.68.34.53.8.99,1.31,1.36.52.37,1.06.64,1.65.8.59.19,1.29.23,2,.21h91.84c.7,0,1.42.03,2.05-.12.63-.14,1.16-.36,1.7-.69,1.08-.65,1.91-1.77,2.26-2.89.19-.58.27-1.27.26-1.97V56.65c.02-.71-.02-1.4-.22-2.04ZM119.61,57.94v69.68H30.39V58.57l36.67-29.44,7.73-6.21,6.71,5.14,18.86,14.45c.67.51,1.27.93,1.81,1.27.25.21.52.42.81.64l13.39,10.22,3.24,2.47v.81Z"/>
</svg>