<?xml version="1.0" encoding="UTF-8"?>
<svg id="Layer_1_copy" data-name="Layer 1 copy" xmlns="http://www.w3.org/2000/svg" viewBox="0 0 150 150">
  <defs>
    <style>
      .cls-1 {
        fill: #191919;
      }
    </style>
  </defs>
  <path class="cls-1" d="M111.83,53.37c-2.4-7.24-4.25-14.4-7.83-20.13-1.91-3.14-4.4-5.87-7.26-8.07-2.85-2.2-6.13-3.8-9.57-4.57-3.44-.79-7.01-.79-10.36.06-3.34.91-6.4,2.66-8.94,5.08-.31.31-.66.58-.95.92l-.86,1.01c-.62.66-1.08,1.36-1.56,2.05-.89,1.44-1.61,3-2.16,4.68-1.07,3.39-1.46,7.18-1.65,11.16-.21,3.97-.21,8.21-.79,12.55-.25,2.15-.66,4.35-1.24,6.55-.58,2.21-1.46,4.44-2.61,6.54-1.15,2.09-2.6,4.02-4.13,5.67-1.53,1.66-3.11,3.14-4.68,4.54-3.13,2.79-6.22,5.4-9.07,8.12-5.72,5.47-10.79,11.57-14.82,18.26-3.97,6.71-6.97,13.98-8.45,21.6-.26,1.13-.5,2-.78,2.65-.29.65-.64,1.1-1.03,1.39-.78.59-1.74.58-2.77.45s-1.96-.35-2.52-1.18c-.28-.41-.48-.98-.55-1.77-.08-.79-.03-1.79.25-3.05,1.65-8.49,4.99-16.61,9.37-23.99,4.44-7.36,9.95-13.97,16.08-19.83,3.08-2.95,6.27-5.63,9.25-8.29,2.97-2.68,5.65-5.27,7.25-8.25,1.66-2.96,2.49-6.54,2.96-10.38.51-3.79.52-7.77.74-11.98.21-4.19.6-8.63,2-13.09.72-2.22,1.71-4.41,2.99-6.45.68-1,1.37-2,2.14-2.85l1.14-1.32c.38-.44.84-.82,1.26-1.23,3.38-3.24,7.63-5.68,12.22-6.91,4.6-1.18,9.45-1.16,13.99-.12,4.56,1.03,8.81,3.12,12.45,5.92,3.64,2.79,6.74,6.23,9.1,10.1,1.2,1.91,2.21,3.91,3.08,5.92.89,2.01,1.64,4.03,2.32,6.03,1.38,4.03,2.5,7.88,3.83,11.72.08.23.15.48.2.7l.11.57c.06.36.11.7.14,1.1.03.4.06.79-.01,1.47-.03.21-.06.39-.11.63-.35,1.63-1.61,2.5-2.02,2.73-.49.27-1.08.45-1.64.49h-.22c-.92.06-1.85.11-2.73.2-1.75.17-3.48.51-4.44,1-.47.25-.65.42-.72.54-.08.12-.2.39-.22.98-.06,1.17.28,2.97.72,4.74.45,1.78,1.01,3.72,1.56,5.52.51,1.67,1.19,3.32,1.99,4.94,1.6,3.25,3.68,6.39,5.93,9.55l3.46,4.8c1.19,1.67,2.33,3.36,3.43,5.07,2.19,3.41,4.25,6.88,6.2,10.4,1.95,3.53,3.8,7.11,5.54,10.77,1.73,3.67,3.35,7.4,4.69,11.38.83,2.47.76,4.06.24,4.98-.5.91-1.41,1.17-2.44,1.35-1.03.18-1.98.23-2.79-.26-.8-.49-1.45-1.51-2.18-3.68-1.19-3.51-2.72-7.06-4.36-10.54-1.65-3.49-3.43-6.94-5.31-10.33-1.88-3.39-3.87-6.73-5.95-9.98-1.04-1.62-2.11-3.21-3.22-4.76l-3.48-4.82c-2.33-3.28-4.66-6.75-6.55-10.6-.95-1.92-1.78-3.95-2.43-6.06-.6-1.98-1.14-3.85-1.66-5.9-.48-2.06-1.03-4.17-.94-6.97.03-.69.14-1.47.34-2.25.23-.8.55-1.63,1.05-2.4.98-1.57,2.45-2.62,3.73-3.25,1.31-.65,2.53-.98,3.69-1.24.88-.19,1.74-.33,2.58-.43h0Z"/>
</svg>