<?xml version="1.0" encoding="UTF-8"?>
<svg id="Layer_1_copy_3" data-name="Layer 1 copy 3" xmlns="http://www.w3.org/2000/svg" viewBox="0 0 150 150">
  <defs>
    <style>
      .cls-1 {
        fill: #191919;
      }
    </style>
  </defs>
  <path class="cls-1" d="M14.14,16.37v118.63h108.6c7.32,0,7.96-1.6,7.96-3.58,1.98.03,3.59-.58,3.69-7.91l1.47-108.51-121.72,1.37ZM54.18,81.6l30.74-.26-.84,46.5h-30.33s.01-.07.02-.11l.41-46.14ZM92.08,81.28l35.7-.3s.01,0,.02,0l-.43,31.46-35.85-.53.55-30.63ZM127.9,73.83c-.06,0-.12,0-.18,0l-35.51.3.42-23.1,35.59-.13-.31,22.94ZM128.31,43.73l-35.55.13.38-21.22,35.46-.4-.29,21.49ZM85.97,22.72l-.93,51.46-63.6.53c-.05,0-.1,0-.15,0V23.45l64.67-.73ZM21.3,81.86c.07,0,.13.01.21.01l25.51-.21-.41,46.01c0,.06.01.12.03.17h-25.34v-45.98ZM91.24,127.84l.16-8.77,35.88.53-.05,3.82c-.03,2.1.08,3.65.3,4.79-1.14-.23-2.69-.37-4.79-.37h-31.5Z"/>
</svg>