<?xml version="1.0" encoding="UTF-8"?>
<svg id="Layer_2" data-name="Layer 2" xmlns="http://www.w3.org/2000/svg" viewBox="0 0 150 150">
  <defs>
    <style>
      .cls-1 {
        fill: #191919;
      }
    </style>
  </defs>
  <path class="cls-1" d="M110.61,118.61l-.21-.53-.18-.4-.34-.73-.68-1.46-1.36-2.92-2.72-5.85-10.42-22.4c4.39-4.08,7.88-9.13,10.07-14.72,1.03-2.93-.42-3.62-2.27-4.17-1.86-.55-3.44-.77-4.27,1.61-2.3,5.86-6.34,11.02-11.45,14.71-2.55,1.84-5.35,3.36-8.33,4.37-2.97,1.03-6.09,1.63-9.24,1.79-6.31.38-12.67-1.17-18.12-4.31-5.46-3.13-10-7.88-12.89-13.47-2.9-5.59-4.13-12.02-3.52-18.3.59-6.27,3.04-12.34,6.97-17.28,3.91-4.95,9.26-8.74,15.22-10.76,5.95-2.03,12.52-2.32,18.63-.79,1.23.31,1.99.15,2.56-.33.56-.48.91-1.29,1.22-2.21.31-.92.54-1.77.32-2.51-.22-.74-.9-1.38-2.4-1.76-7.42-1.85-15.34-1.51-22.58.96-7.24,2.46-13.72,7.05-18.46,13.05-4.76,5.98-7.74,13.36-8.45,20.97-.74,7.59.75,15.41,4.27,22.2,3.5,6.79,8.99,12.53,15.62,16.33,6.62,3.82,14.37,5.69,21.98,5.24,1.12-.06,2.24-.17,3.35-.32l10.3,22.13,2.72,5.85,1.36,2.92.68,1.46.34.73.45.9c1.4,2.68,3.89,4.8,6.75,5.76,1.43.49,2.96.71,4.48.63.76-.04,1.51-.15,2.25-.33.36-.1.73-.2,1.09-.32l1.56-.68.5-.26c.33-.19.64-.41.96-.61.62-.44,1.2-.94,1.72-1.49,1.05-1.1,1.89-2.39,2.46-3.8,1.15-2.8,1.19-6.06.07-8.89ZM104.04,124.85c-.24.59-.59,1.13-1.02,1.58-.22.23-.46.43-.71.62-.14.08-.26.18-.4.26l-.21.11-.43.2-.22.09c-.15.05-.3.08-.46.13-.31.07-.62.12-.93.13-.63.03-1.27-.06-1.87-.26-1.21-.41-2.22-1.27-2.82-2.41l-.11-.22-.03-.06-.04-.09-.09-.18-.34-.73-.68-1.46-1.36-2.92-2.72-5.85-9.66-20.78c.28-.09.57-.18.85-.28,2.9-.99,5.65-2.37,8.22-4.02l9.74,20.94,2.72,5.85,1.36,2.92.68,1.46.34.73.09.18.04.09.02.06.08.22c.46,1.17.45,2.51-.03,3.69Z"/>
  <path class="cls-1" d="M122.25,27.01l-22.62.18c-.65,0-.7,1.58-.68,3.52.02,1.94.08,3.51.74,3.5l11.23-.09-17.39,15.84-11.06-8.09-20.7,22.13c-.81.86.27,2.01,1.69,3.33,1.42,1.32,2.63,2.32,3.44,1.46l16.45-17.59,10.67,7.81,21.35-19.44.11,10.68c0,.65,1.58.69,3.52.67s3.51-.09,3.5-.74l-.23-23.17Z"/>
</svg>