<?xml version="1.0" encoding="UTF-8"?>
<svg id="Layer_1_copy_3" data-name="Layer 1 copy 3" xmlns="http://www.w3.org/2000/svg" viewBox="0 0 150 150">
  <defs>
    <style>
      .cls-1 {
        fill: #191919;
      }
    </style>
  </defs>
  <path class="cls-1" d="M134.07,67.2c-.12-3.87-.53-7.75-1.27-11.59-.74-3.84-1.83-7.63-3.34-11.28-1.5-3.65-3.42-7.16-5.77-10.39-2.34-3.23-5.11-6.17-8.23-8.68-3.12-2.51-6.59-4.6-10.25-6.18-7.34-3.2-15.39-4.37-23.21-4.01-.07,0-.13,0-.19.01-.02,0-.03,0-.05,0-.92-.04-2.1.03-3.61.29l-2.81.47-2.8.55c-1.87.34-3.72.82-5.58,1.24-3.7.96-7.38,2.01-10.99,3.35-3.61,1.34-7.16,2.9-10.59,4.76-3.43,1.85-6.71,4.04-9.75,6.57-3.03,2.53-5.81,5.4-8.19,8.59-2.38,3.18-4.36,6.66-5.93,10.28-3.15,7.26-4.65,15-5.29,22.63-.64,7.62-.41,15.5,1.39,23.16.9,3.83,2.2,7.59,3.95,11.16,1.75,3.57,3.96,6.94,6.58,9.97,5.25,6.08,12.19,10.55,19.59,13.26,7.43,2.71,15.33,3.74,23.05,3.63,7.67-.1,15.42-1.06,22.89-3.36,3.73-1.15,7.38-2.64,10.86-4.51,3.47-1.88,6.75-4.14,9.73-6.77,2.98-2.62,5.64-5.6,7.93-8.82,2.29-3.23,4.2-6.7,5.76-10.29,1.55-3.6,2.79-7.31,3.69-11.08.9-3.77,1.53-7.58,1.96-11.4.38-3.83.56-7.69.47-11.56ZM118.48,37.72c2.41,3.31,4.3,6.99,5.72,10.87l-46.23.14c1.19-.96,2.38-1.92,3.57-2.88,4.13-3.34,8.25-6.69,12.35-10.07,2.05-1.69,4.1-3.39,6.14-5.1l3.06-2.6c.71-.61,1.4-1.22,2.11-1.86,5.23,2.74,9.79,6.69,13.26,11.51ZM87.18,58.09l1.73,3.73,3.41,7.52c1.24,2.77,2.48,5.55,3.71,8.33-.72.65-1.46,1.3-2.2,1.95l-3.41,2.94-6.9,5.85c-3.44,2.9-6.9,5.79-10.37,8.67-.07-.07-.16-.13-.28-.17-4.96-1.69-9.92-3.37-14.88-5.04-.1-1.06-.17-2.21-.23-3.33l-.21-4.14c-.13-2.77-.23-5.55-.33-8.33-.12-3.47-.23-6.95-.34-10.43,4.36-3.48,8.72-6.96,13.07-10.45l15.79-.05c.48.94.96,1.95,1.44,2.95ZM58.2,27.02c3.36-1.25,6.83-2.24,10.32-3.14,1.77-.4,3.52-.85,5.3-1.18l2.67-.53,2.69-.45c.31-.05.6-.11.88-.16.64.01,1.38,0,2.23-.07,5.54-.26,11.09.36,16.29,1.98l-2.68,2.28c-2.02,1.69-4.05,3.38-6.09,5.06-4.08,3.36-8.19,6.7-12.31,10.03-6.93,5.6-13.89,11.18-20.85,16.74-.27-9.89-.51-19.78-.73-29.67.76-.31,1.52-.6,2.29-.89ZM27.42,53.74c1.39-3.19,3.11-6.22,5.18-8.99,2.07-2.77,4.49-5.27,7.16-7.5,2.98-2.5,6.28-4.61,9.78-6.43.21,9.58.45,19.15.71,28.73.16,5.58.33,11.16.53,16.75.1,2.79.21,5.59.34,8.39,0,0,.24,4.71.26,4.96-1.51-.51-3.02-1.02-4.54-1.52-4.35-1.45-8.7-2.88-13.06-4.3l-6.57-2.09-3.32-1.02c-.51-.15-1.02-.3-1.53-.45.02-1.97.12-3.95.29-5.94.59-7.16,2-14.2,4.78-20.6ZM33.01,113.88c-4.5-5.18-7.54-11.57-9.13-18.38-.65-2.76-1.07-5.58-1.3-8.43l2.71.83,6.51,2.07c4.34,1.41,8.68,2.84,13.01,4.28,7.54,2.51,15.07,5.05,22.6,7.61-8.13,6.75-16.29,13.47-24.46,20.18-3.74-2.17-7.13-4.9-9.94-8.16ZM101.48,121.46c-3.07,1.65-6.33,2.98-9.7,4.02-6.74,2.08-13.89,2.99-21.07,3.08-7.12.1-14.2-.85-20.76-3.23-.2-.07-.39-.15-.59-.23,8.14-6.69,16.26-13.39,24.37-20.12,4.65-3.87,9.3-7.74,13.94-11.64l6.94-5.88s3.92-3.39,4.15-3.6c.09.21,8.83,20.17,13.07,29.97-.59.58-1.19,1.15-1.82,1.69-2.6,2.29-5.47,4.28-8.53,5.94ZM127.2,78.08c-.4,3.57-.99,7.1-1.81,10.56-.82,3.46-1.95,6.82-3.34,10.05-1.49,3.46-3.35,6.73-5.55,9.73-3.84-8.85-7.69-17.7-11.57-26.53-2.23-5.06-4.47-10.12-6.73-15.18l-3.43-7.58-1.76-3.79c-.03-.07-.07-.14-.1-.21l33.2-.1c.14.6.27,1.21.38,1.82.67,3.46,1.05,6.99,1.16,10.54.08,3.56-.08,7.13-.44,10.7Z"/>
</svg>