<?xml version="1.0" encoding="UTF-8"?>
<svg id="Layer_1_copy_3" data-name="Layer 1 copy 3" xmlns="http://www.w3.org/2000/svg" viewBox="0 0 150 150">
  <defs>
    <style>
      .cls-1 {
        fill: #191919;
      }
    </style>
  </defs>
  <path class="cls-1" d="M133.96,126.28l-4.61.03,2.64-62.64c.05-1.09-1.72-1.26-3.9-1.35-2.18-.09-3.95-.07-4,1.01l-2.66,63.03-29.74.2,1.27-30.16c.02-.55-1.74-.67-3.92-.76-2.18-.09-3.95-.12-3.97.43l-1.29,30.54-39.46.27.4-9.45c0-.21-1.76-.31-3.94-.4-2.18-.09-3.95-.15-3.96.07l-.41,9.83-16.38.11,4.54-107.67c.16-3.86-1.59-4.27-3.77-4.36-2.18-.09-3.96.17-4.12,4.03l-4.89,115.96,122.21-.82c3.86-.03,4.19-1.8,4.17-3.98-.01-2.18-.36-3.95-4.23-3.92Z"/>
  <path class="cls-1" d="M35.31,104.85c.87.71,1.88,1.24,2.93,1.55.27.09.5.13.74.18l.72.13c.23.05.51.06.77.07.27.01.54.02.81.02.56-.03,1.18-.11,1.74-.25.57-.18,1.14-.34,1.65-.64,1.06-.52,1.96-1.37,2.67-2.28.66-.9,1.1-1.83,1.4-2.76.26-.84.42-1.68.46-2.53l33.31-15.4c.41.28.85.52,1.31.72,1.03.45,2.14.68,3.24.7.29.02.51,0,.76-.03l.73-.06c.23-.01.5-.08.76-.14.26-.06.52-.13.78-.2.53-.18,1.1-.43,1.61-.71.5-.32,1.01-.63,1.42-1.06.88-.79,1.52-1.85,1.95-2.92.39-1.04.57-2.06.6-3.03.02-.97-.07-1.91-.29-2.81-.03-.13-.07-.25-.1-.38l30.76-37.37c.64.22,1.3.37,1.97.44,1.09.1,2.17,0,3.21-.29,2.08-.59,3.85-1.91,5.01-3.63,1.18-1.71,1.76-3.86,1.56-5.96-.18-2.11-1.18-4.21-2.82-5.69-.81-.74-1.78-1.33-2.84-1.71-1.05-.38-2.19-.53-3.28-.48-.29,0-.51.04-.75.08l-.72.11c-.23.03-.5.11-.75.19-.26.08-.51.16-.77.25-.52.21-1.07.5-1.56.82-.47.35-.96.7-1.34,1.16-.83.85-1.39,1.95-1.75,3.04-.32,1.07-.42,2.1-.39,3.07.03.74.13,1.45.3,2.15l-31.06,37.74c-.31-.09-.63-.17-.95-.22-1.08-.18-2.16-.14-3.22.07-2.11.44-3.97,1.65-5.25,3.28-1.29,1.62-2.02,3.73-1.96,5.84,0,.03,0,.07,0,.1l-32.16,14.87c-.48-.36-.99-.67-1.53-.92-.99-.46-2.04-.72-3.12-.8-2.15-.15-4.26.51-5.94,1.73-1.68,1.21-2.96,3.04-3.47,5.09-.54,2.05-.31,4.36.74,6.3.52.97,1.23,1.85,2.1,2.56Z"/>
</svg>