<?xml version="1.0" encoding="UTF-8"?>
<svg id="Layer_1_copy_3" data-name="Layer 1 copy 3" xmlns="http://www.w3.org/2000/svg" viewBox="0 0 150 150">
  <defs>
    <style>
      .cls-1 {
        fill: #191919;
      }
    </style>
  </defs>
  <path class="cls-1" d="M140.98,122.76l-.15-9.69-.32-21c-.02-.86-.24-1.62-.53-2.22-.15-.32-.3-.57-.51-.86-.21-.29-.47-.58-.75-.82-.59-.52-1.09-.79-1.78-1.05-.67-.26-1.51-.34-2.38-.32l-6.45-.03-8.57-.04.12-4.16.11-3.95.04-1.52c.01-.5.05-1.03-.03-1.48-.12-.94-.51-1.63-.89-2.18-.17-.25-.55-.65-.82-.87-.26-.21-.55-.4-.9-.58-.33-.18-.75-.31-1.19-.41-.45-.09-.95-.1-1.47-.09l-4.81.03-6.1.04-24.38.15h-.77s0-10.87,0-10.87h12.38c.8-.01,1.64.04,2.4-.07.77-.12,1.4-.34,2-.65.61-.33,1.19-.79,1.67-1.34.48-.55.84-1.17,1.07-1.78.24-.62.41-1.37.41-2.18l-.07-25.13c.05-.24.07-.5.07-.79v-7.43c.03-1.06-.14-2.08-.5-2.86-.34-.79-.92-1.6-1.65-2.2-.36-.3-.76-.56-1.15-.76-.2-.1-.39-.19-.61-.26-.2-.08-.42-.15-.66-.2-.92-.26-2.03-.17-3.07-.18h-33.7c-.53,0-1.06,0-1.57.03-.5.06-.99.15-1.41.31-.43.14-.82.34-1.23.58-.8.5-1.5,1.22-1.96,2.01-.44.76-.75,1.65-.83,2.72l-1.23,20.63-.58,9.69-.1,1.74c-.04.8-.13,1.63-.11,2.41.04.78.23,1.45.47,2.05.26.61.64,1.23,1.14,1.75.49.53,1.08.96,1.67,1.26.58.28,1.23.52,2.01.61.78.08,1.6.03,2.41.05h14.05v10.92l-14.94.09-12.19.07-6.41.04-3.05.02c-1.02,0-1.9.29-2.53.68-.34.2-.56.36-.9.68-.34.34-.52.58-.72.9-.2.3-.37.69-.51,1.09-.13.42-.21.89-.23,1.39l-.15,11.08h-12.49c-.7-.01-1.4.03-1.99.22-.6.18-1.09.38-1.6.72-.51.33-.99.76-1.38,1.25-.39.5-.67.98-.87,1.53-.21.55-.37,1.19-.39,1.89l-.09,5.68-.26,16.84-.13,8.42-.04,2.53-.03,2.1c0,.7.12,1.35.3,1.91.18.57.43,1.03.78,1.54.35.5.81.96,1.3,1.31.51.36.97.61,1.54.79.56.19,1.21.31,1.91.31l22.75-.2c.51,0,.93-.08,1.27-.22l6.2-.09,3.39-.05c.7,0,1.38-.1,1.96-.29.58-.2,1.05-.43,1.56-.79.5-.35.96-.81,1.32-1.31.37-.51.62-.98.8-1.56.44-1.13.29-2.66.31-4.03v-31.87c0-.7.01-1.41-.13-2.04-.14-.63-.35-1.15-.63-1.65-.29-.51-.68-1.01-1.15-1.43-.97-.85-1.9-1.28-3.27-1.47-.68-.06-1.39-.03-2.09-.04h-10.22l.1-7.17,42.35-.26,24.38-.15,7.38-.05-.19,6.51-15.17-.07c-.81,0-1.54.18-2.14.44-.3.13-.56.27-.84.45-.28.18-.56.41-.82.66-.26.25-.48.53-.66.79-.17.25-.32.53-.46.83-.28.61-.45,1.36-.47,2.18l-.26,6.35-.4,9.74-.86,21.19c-.01.57.05,1.1.17,1.58.13.47.3.89.5,1.25.2.36.49.77.84,1.13.35.36.74.65,1.09.86.7.43,1.7.76,2.84.76l3.35.03,6.84.05,7.17.05c.18.02.37.03.58.03h.96s4.96.02,4.96.02c.43,0,.8-.04,1.12-.13l16.55-.25c.81-.02,1.53-.21,2.12-.47l.42-.21c.13-.08.25-.15.39-.24.26-.18.54-.4.79-.65.25-.25.47-.53.66-.8.18-.27.31-.52.44-.82.26-.58.44-1.3.45-2.1l-.09-6.57ZM56.88,52.18l.04-.69.58-9.69,1.08-18.13h31.17v.85c-.06.26-.09.55-.09.88l.07,26.78h-32.85ZM45.67,96.47v29.18h-.82s-16.84.26-16.84.26c-.42,0-.76.06-1.07.16l-9.32.08.42-26.93.04-2.74h27.57ZM113.15,126.3l-15.53-.12,1.26-30.89,33.03.16.47,30.56-19.22.29Z"/>
</svg>