<?xml version="1.0" encoding="UTF-8"?>
<svg id="Layer_1_copy_5" data-name="Layer 1 copy 5" xmlns="http://www.w3.org/2000/svg" viewBox="0 0 150 150">
  <defs>
    <style>
      .cls-1 {
        fill: #191919;
      }
    </style>
  </defs>
  <path class="cls-1" d="M136.85,68.38c-12.58-8.53-26.9-14.72-41.94-17.58-3.76-.73-7.56-1.2-11.37-1.52l-2.86-.19-2.87-.1c-.44,0-.89-.05-1.34,0-.11.01-.23,0-.34.04l-.32.11c-.22.07-.43.15-.64.24-.42.18-.83.39-1.23.63l-.27.17-.24.17c-.16.11-.32.24-.48.37-.64.54-1.31,1.23-1.8,2.21-.5.97-.73,2.2-.62,3.27.1,1.07.44,1.94.8,2.64.37.7.78,1.28,1.19,1.78.21.26.41.49.62.7.1.11.21.23.31.33l.37.36c.34.32.69.61,1.04.92.18.14.34.32.53.44l.68.13.68.13.13.02.28.07c.14.03.27.07.39.11.13.04.59.24.69.3.42.23.76.51,1.04.86.29.35.51.79.69,1.31.17.47.28,1.3.25,1.36-.01.24-.12.6-.38,1.04-.26.44-.65.93-1.13,1.38-.77.71.13,1.97,1.24,3.62.55.82,1.11,1.52,1.73,1.87.61.35,1.29.34,1.99-.33.86-.82,1.66-1.76,2.34-2.92.67-1.14,1.24-2.56,1.35-4.17.07-.78-.03-1.7-.13-2.23-.1-.62-.25-1.24-.46-1.86-.4-1.23-1.02-2.47-1.9-3.56-.87-1.09-1.98-2.01-3.19-2.66-.3-.17-.6-.32-.91-.45-.31-.14-.62-.25-.93-.36-.31-.11-.62-.2-.94-.27l-.23-.06h-.03s-.04-.04-.04-.04l-.09-.09c-.07-.06-.11-.12-.17-.17-.08-.08-.16-.17-.22-.25l2.22.07,2.67.18c3.55.3,7.09.73,10.59,1.42,1.89.36,3.77.78,5.64,1.25.45,1.74.51,3.78.28,5.85-.25,2.22-.81,4.47-1.6,6.65-.78,2.18-1.82,4.29-3.05,6.21-1.23,1.92-2.67,3.68-4.26,5.02-.31.27.65,1.56,1.87,3.11s2.25,2.78,2.72,2.37c2.34-1.98,4.16-4.27,5.71-6.67,1.53-2.41,2.78-4.95,3.73-7.61.96-2.66,1.66-5.42,1.98-8.31.15-1.44.22-2.91.14-4.42,7.34,2.47,14.41,5.79,21.08,9.81-3.67,4.15-7.7,8.06-11.91,11.76-4.87,4.25-9.99,8.27-15.34,11.73-.54.35.27,1.73,1.33,3.4,1.05,1.67,1.96,2.99,2.54,2.61,5.77-3.74,11.08-7.91,16.19-12.37,4.99-4.39,9.75-9.06,14.11-14.2.48-.43.96-1.07,1.46-1.79,1.13-1.62,1.93-3.01.65-3.86ZM78.61,56.7h0s0,0,0,0h0Z"/>
  <path class="cls-1" d="M44,28.48c-1.01-1.5-2.43-.73-4.06.38s-2.87,2.13-1.86,3.63l12.68,18.74c-6.32,1.33-12.51,3.28-18.48,5.78-6.92,2.92-13.54,6.61-19.58,11.21-.61.46.32,1.76,1.54,3.32,1.22,1.56,2.25,2.78,2.8,2.36,5.48-4.17,11.6-7.6,18.01-10.3,2.32-.97,4.68-1.85,7.06-2.64-.21.83-.38,1.66-.51,2.49-.4,2.85-.35,5.73.11,8.53.97,5.58,3.56,10.94,7.6,15,2,2.04,4.32,3.75,6.81,5.09,2.49,1.34,5.15,2.29,7.85,2.92,2.7.64,5.43.91,8.13.95,1.32.04,2.77.01,4.18-.15,1.37-.15,2.73-.41,4.06-.77l2.02,2.99c-4.65.73-9.37.91-14.06.5-5.66-.49-11.25-1.8-16.59-3.82-5.35-2.02-10.46-4.73-15.23-7.96l-1.77-1.24c-.59-.42-1.19-.81-1.75-1.27-1.13-.9-2.28-1.78-3.41-2.69l-3.27-2.87c-1.07-.98-2.09-2.02-3.14-3.03-.84-.82-2.06.23-3.48,1.6-1.42,1.38-2.49,2.57-1.59,3.45,1.12,1.08,2.21,2.2,3.36,3.25l3.52,3.09c1.21.98,2.45,1.94,3.68,2.91.6.5,1.26.93,1.9,1.38l1.93,1.35c5.2,3.51,10.8,6.49,16.72,8.73,5.92,2.23,12.16,3.71,18.5,4.25,6.34.55,12.78.16,19.01-1.14.02,0,.03,0,.04-.01l11.53,17.05c1.01,1.5,2.43.73,4.06-.38,1.64-1.11,2.87-2.13,1.86-3.63L44,28.48ZM75.5,88.68c-1.06.12-2.1.15-3.26.11-2.26-.04-4.51-.26-6.65-.77-4.29-.98-8.21-3.01-11.17-6.04-2.99-2.99-4.92-6.99-5.66-11.18-.34-2.1-.37-4.24-.09-6.31.32-2.06.94-4.05,1.93-5.75.03-.05.05-.11.06-.16,1.46-.33,2.92-.64,4.4-.9,0,0,.02,0,.02,0l5.31,7.86-.15.49c-.08.26-.27.92-.33,1.48-.03.29-.04.58-.03.85l.03.67c.03.41.1.82.16,1.23.3,1.63.97,3.19,1.91,4.55.94,1.36,2.16,2.53,3.57,3.38,1.36.83,2.9,1.38,4.48,1.61l5.97,8.82c-.18.02-.35.05-.53.07Z"/>
</svg>