<?xml version="1.0" encoding="UTF-8"?>
<svg id="Layer_1_copy_3" data-name="Layer 1 copy 3" xmlns="http://www.w3.org/2000/svg" viewBox="0 0 150 150">
  <defs>
    <style>
      .cls-1 {
        fill: #191919;
      }
    </style>
  </defs>
  <path class="cls-1" d="M135.56,54.79c-.02-.47-.14-1.01-.37-1.55-.24-.54-.59-1.07-.88-1.6l-.77-1.33-.92-1.59-3.67-6.38-8.06-14c-.29-.5-.65-.9-1.02-1.21-.38-.32-.71-.51-1.14-.71-.43-.19-.95-.32-1.43-.35-.49-.04-.87,0-1.34.09-.45.09-.95.28-1.44.58-.48.3-.96.64-1.44.96l-1.98,1.34-5.75,3.89-9.3,6.29-.17-19.72c-.01-.71-.18-1.34-.41-1.85-.12-.26-.24-.48-.41-.72-.17-.24-.37-.48-.6-.7-.23-.21-.47-.4-.71-.55-.23-.15-.47-.26-.74-.37-.53-.22-1.2-.34-1.91-.33h-5.45s-8.48,0-8.48,0h-18.35c-.93.01-1.73.28-2.31.63-.59.33-1.28.99-1.63,1.63-.18.29-.28.66-.43.98-.06.42-.15.82-.19,1.25l.11,2.72.07,2.91.04,2.77.05,5.56.02,5.16-15.72-10.89c-.47-.33-.97-.53-1.43-.66-.47-.12-.88-.17-1.39-.15-.5.02-1.03.14-1.45.31-.41.16-.81.39-1.22.72-.41.32-.76.77-1.11,1.25l-1.06,1.4-1.11,1.46-4.16,5.45-9.15,12.01c-.48.63-.74,1.31-.86,1.91-.12.56-.12,1.28.04,1.95.18.68.4,1.14.83,1.71.41.56,1.09,1.02,1.73,1.48l4.6,3.29,7.74,5.54,12.91,9.24-27.34,18.5c-.48.32-.85.71-1.14,1.11-.28.4-.48.76-.64,1.25-.16.48-.23,1.01-.23,1.47,0,.44.07.9.24,1.41.16.5.47,1,.77,1.49l.9,1.48.93,1.54,3.58,5.9,7.88,13c.31.5.68.9,1.06,1.2.39.31.73.51,1.19.69.46.18,1,.29,1.47.3.47.01.88-.04,1.37-.16.49-.13.99-.38,1.48-.71l1.47-.96,1.8-1.18,5.89-3.85,9.68-6.33-.2,19.62c0,.61.11,1.17.29,1.64.18.47.38.84.71,1.26.33.41.76.78,1.16,1.03.39.24.83.44,1.37.56.53.13,1.15.13,1.76.12h1.83s1.92-.02,1.92-.02l7.31-.04,14.62-.08,3.65-.02h2.58c.6-.03,1.23,0,1.8-.07.57-.08,1.08-.26,1.48-.48.4-.2.83-.52,1.2-.91.18-.2.35-.41.48-.61.14-.21.24-.4.34-.62.2-.44.35-.96.4-1.55.03-.59,0-1.21,0-1.82l-.04-4.28-.11-11.98,13.61,9.74c.5.36,1.02.58,1.51.7.24.06.48.11.71.13.24.02.5.03.77,0,.54-.04,1.08-.19,1.5-.38.43-.2.87-.47,1.29-.87.42-.4.78-.92,1.16-1.39l1-1.28,1.13-1.44,4.52-5.75,9.91-12.62c.45-.58.71-1.2.85-1.76.06-.28.11-.53.12-.83.02-.29,0-.62-.05-.93-.05-.32-.13-.63-.24-.9-.05-.14-.1-.26-.16-.38l-.2-.37c-.3-.49-.74-1.01-1.35-1.43l-4.77-3.3-7.24-5.01-12.84-8.9s-.03,0-.05-.06c-.08.04.02-.05.17-.16,1.03-.54,2.22-1.26,3.64-2.19l21.79-14.31c.51-.34.92-.75,1.21-1.17.14-.21.27-.41.38-.63.11-.22.21-.47.29-.73.16-.52.21-1.09.18-1.55ZM107.75,67.12c-1.18.77-2.16,1.47-2.98,2.1,0,0,0,0-.01,0-.38.2-.55.28-1.44.83-.74.47-1.53.96-2.38,1.49-.43.26-.81.57-1.13.9-.14.17-.28.34-.4.51-.1.17-.23.35-.3.51-.22.46-.35.8-.44,1.39-.09.56-.05,1.22.07,1.7.06.24.11.42.21.66l.14.33.2.35c.29.46.69.96,1.29,1.38l25.82,17.89-13.93,17.73-9.3-6.66-2.94-2.1-2.58-1.85-.65-.46c-.22-.16-.43-.31-.64-.43-.22-.15-.42-.23-.63-.32-.21-.1-.4-.15-.59-.2-.75-.19-1.39-.18-1.88-.09-.47.05-1.39.37-1.98.84-.15.11-.28.22-.39.32-.1.09-.19.19-.27.28-.09.09-.18.2-.26.33-.09.13-.18.22-.26.38-.34.55-.65,1.34-.66,2.39l.15,17.25.03,3.03-4.73.03-23.66.13.13-12.55.09-9.54c-.05-1.13-.43-1.92-.81-2.47-.2-.3-.37-.49-.61-.72-.24-.23-.61-.51-1.01-.72-.4-.21-.82-.35-1.13-.42-.15-.04-.29-.05-.44-.08-.16-.02-.33-.02-.5-.03-.69,0-1.58.13-2.56.74l-20.9,13.67-10.88-17.95,14.72-9.96,7.88-5.33,5.25-3.55c.33-.22.66-.44.95-.68.28-.24.52-.5.71-.75.37-.51.61-1.01.73-1.47.15-.5.23-1.22.14-1.84-.04-.31-.1-.58-.18-.8-.03-.11-.09-.24-.14-.36-.06-.12-.09-.24-.17-.37-.25-.5-.68-1.06-1.3-1.53l-1.93-1.39-2.57-1.84-3.87-2.77-7.74-5.54-10.88-7.79,12.64-16.59,9.64,6.68,2.67,1.85,1.38.96c.88.64,1.81,1.18,2.83,1.41,2.01.51,4.2.04,5.8-1.22,1.62-1.25,2.64-3.24,2.65-5.39l-.02-6-.05-5.6-.04-2.81-.06-2.67v-.07s27.05,0,27.05,0l.11,12.55.08,9.36c0,1.18.38,2.02.76,2.61l.3.41c.1.12.2.22.3.33.21.2.54.48.93.71.39.23.82.39,1.17.47.17.04.31.07.46.09.14.03.3.04.47.04.65.02,1.51-.07,2.47-.62l20.32-13.73,11.37,19.74-19.68,12.92Z"/>
</svg>