<?xml version="1.0" encoding="UTF-8"?>
<svg id="Layer_1_copy_3" data-name="Layer 1 copy 3" xmlns="http://www.w3.org/2000/svg" viewBox="0 0 150 150">
  <defs>
    <style>
      .cls-1 {
        fill: #191919;
      }
    </style>
  </defs>
  <path class="cls-1" d="M84.68,36.37c.81,0,.84-1.46.84-3.27s-.03-3.27-.84-3.27h-19.65c-.81,0-.84,1.46-.84,3.27s.03,3.27.84,3.27h19.65Z"/>
  <path class="cls-1" d="M110.06,41.72c-.04-2.46-.08-4.92-.15-7.39-.07-2.6-.16-5.2-.32-7.83-.08-1.32-.17-2.64-.33-4.03l-.07-.6c-.05-.32-.08-.64-.14-.95-.11-.63-.24-1.26-.46-1.82-.22-.57-.51-1.07-.92-1.49-.19-.24-.46-.34-.7-.51-.25-.14-2.03-.81-2.7-.95-.16-.04-.34-.06-.51-.09l-.42-.07c-.19-.03-.38-.07-.57-.09-.75-.11-1.47-.19-2.19-.27-1.43-.14-2.85-.24-4.24-.31-2.8-.15-5.56-.22-8.32-.26-5.51-.08-11-.05-16.47,0l-16.39.22-8.17.09h-2.04s-1.11.02-1.11.02c-.69,0-1.36.04-2.01.22-1.29.35-2.45,1.1-3.29,2.13-.84,1.03-1.35,2.31-1.44,3.67l-.04.91-.02.6-.02,1.18c0,.78,0,1.55,0,2.32.01,1.53.05,3.06.1,4.58l.08,2.13v2.12s-.02,4.49-.02,4.49c0,5.56,1.56,6.04,3.49,6.04,1.93,0,3.49-.48,3.5-6.03v-4.48s.02-2.16.02-2.16l-.09-2.35c-.05-1.47-.08-2.94-.1-4.4,0-.73,0-1.45,0-2.17l.02-1.06.02-.53v-.21s11.21-.11,11.21-.11l16.37-.22c5.45-.05,10.89-.09,16.29,0,2.7.04,5.4.11,8.05.25,1.33.07,2.64.17,3.93.29.64.07,1.27.14,1.87.23l.52.08.04.36c.13,1.17.22,2.42.3,3.67.15,2.51.24,5.06.31,7.61.14,5.11.2,10.24.23,15.38.06,10.28,0,20.57-.09,30.86-.1,10.29-.25,20.59-.44,30.88l-.32,14.81s-.04.01-.09.02l-.38.09c-.26.06-.53.12-.81.17-.55.11-1.14.19-1.73.27-2.38.32-4.9.49-7.41.63-5.05.26-10.16.33-15.28.35-5.14,0-10.33.05-15.41,0-2.54-.03-5.08-.08-7.55-.22-1.24-.07-2.45-.17-3.63-.32-1.17-.15-2.32-.34-3.33-.6-1-.25-1.91-.64-2.26-.94-.18-.15-.22-.22-.23-.22,0,0,0-.01,0-.01,0,0,0-.03,0-.03-.02,0,0-.05,0-.07,0-.01,0-.03-.01-.04v-.23s0-7.72,0-7.72l-.03-61.8c0-5.56-1.57-6.04-3.5-6.04-1.93,0-3.49.48-3.49,6.04l.03,61.86v7.73s0,.25,0,.25l.03.44c.03.29.03.57.11.88.07.3.13.6.23.9.11.3.23.6.35.89.56,1.16,1.41,2.06,2.24,2.71,1.7,1.28,3.28,1.76,4.75,2.17,1.48.39,2.88.61,4.27.78,1.38.17,2.73.28,4.07.36,2.67.16,5.29.21,7.9.24,5.22.04,10.34,0,15.5,0,5.19-.02,10.38-.09,15.62-.36,2.63-.14,5.26-.32,7.99-.68.68-.09,1.37-.2,2.09-.33.35-.06.72-.14,1.09-.23l.56-.14c.13-.04.56-.15.84-.24,1.22-.39,2.39-.95,3.2-1.83.41-.43.77-.96.94-1.51l.14-.41c.06-.13.05-.3.08-.45.04-.31.09-.62.08-.94l.2-8.36.16-7.74c.19-10.31.34-20.63.44-30.94.08-8.23.12-16.46.11-24.7,1.61,0,2.85-.06,2.85-.56v-13.27c0-.51-1.3-.56-2.95-.56Z"/>
</svg>