<?xml version="1.0" encoding="UTF-8"?>
<svg id="Layer_1_copy_3" data-name="Layer 1 copy 3" xmlns="http://www.w3.org/2000/svg" viewBox="0 0 150 150">
  <defs>
    <style>
      .cls-1 {
        fill: #191919;
      }
    </style>
  </defs>
  <path class="cls-1" d="M144.06,18.01c-.51-.72-1.15-1.21-1.99-1.56-.84-.35-1.83-.52-2.81-.66-.25-.04-.5-.06-.74-.09l-.63-.07-.8-.07c-2.11-.18-4.15-.27-6.19-.34-4.07-.14-8.1-.18-12.13-.2-8.06-.03-16.09.05-24.11.17-16.06.25-32.09.66-48.13,1.13-.89.03-1.68.07-2.39.13l-15.36.47-14.26.44-1.49.05h-.37c-.07,0-.13,0-.11.09l-.02.19-.06.74-.24,2.98-.34,4.27-.47,5.96c-1.25,15.91-2.46,31.81-3.57,47.74-.56,7.96-1.09,15.93-1.56,23.91-.24,3.99-.46,7.98-.65,11.99-.09,2-.18,4.01-.24,6.03l-.08,3.04-.02,1.54v.78s0,.39,0,.39v.7c.03.99.07,2,.24,2.92.1.45.22.89.42,1.25.19.38.47.63.76.95-.06.14.05.1.06.16l.11.1c.08.07.17.11.25.16.17.11.34.21.54.29.19.09.38.18.58.26l.67.18c.23.05.43.14.68.15l.74.07c.49.05.98.09,1.48.12l1.75.09,1.52.06,3.02.09c4.02.1,8.01.16,12.01.21,7.99.09,15.97.13,23.95.16,15.96.05,31.91.03,47.86-.02l23.93-.09,7.94-.04c.99,0,2.02.02,2.92-.14,1.65-.42,2.68-1.75,3.04-3.72.1-.48.17-.97.25-1.46l.17-1.35.16-1.55c.1-1.02.18-2.03.26-3.04.16-2.02.29-4.02.42-6.02.95-16,1.53-31.93,2.12-47.89l1.62-49.21c.04-1.01-.28-1.86-.67-2.43ZM136.55,45.49l-.81,23.89c-.58,15.92-1.16,31.86-2.11,47.69-.12,1.98-.26,3.95-.41,5.91-.08.98-.16,1.95-.25,2.91l-.16,1.56-7.01.04-23.91.09c-15.94.05-31.88.07-47.81.02-7.97-.03-15.93-.07-23.89-.16-3.98-.05-7.95-.11-11.9-.21l-2.95-.09-1.46-.06-1.24-.06v-1.11s.02-1.45.02-1.45l.08-2.94c.06-1.97.15-3.94.24-5.92.19-3.96.41-7.93.64-11.9.47-7.94,1.01-15.88,1.56-23.83,1.11-15.89,2.32-31.78,3.57-47.67l.61-7.65,9.65-.3,23.91-.74c.7-.02,1.33-.05,1.92-.1,13.31-.37,26.63-.69,39.93-.9,8-.12,16-.2,23.97-.17,3.98.02,7.97.07,11.91.2,1.97.07,3.93.16,5.81.32l.81.08-.71,22.52Z"/>
  <path class="cls-1" d="M35.8,61.6c1.34,1.74,3.16,3.04,5.02,3.89,1.87.85,3.8,1.3,5.65,1.48,1.91.19,3.95.11,5.91-.38,1.97-.48,3.84-1.39,5.46-2.57,1.63-1.18,3.01-2.65,4.1-4.27,2.17-3.26,3.3-7.14,3.06-11.12-.13-1.98-.61-3.99-1.5-5.84-.88-1.85-2.16-3.54-3.69-4.88-.76-.69-1.6-1.24-2.44-1.78l-1.31-.69c-.43-.24-.89-.38-1.33-.57l-.67-.26c-.22-.08-.45-.14-.68-.21l-1.36-.39-1.35-.26-.68-.13-.67-.07c-1.46-.15-1.68,1.49-1.8,3.52s-.12,3.69.91,3.8l.49.05.47.09.94.17.88.26c.15.04.3.08.44.13l.41.17c.27.12.57.19.81.34l.76.39c.46.31.93.6,1.32.97,1.61,1.4,2.55,3.38,2.7,5.64.16,2.24-.54,4.65-1.82,6.55-1.29,1.91-3.14,3.28-5.24,3.81-1.06.26-2.17.31-3.35.2-1.25-.11-2.38-.41-3.34-.85-1.93-.87-3.05-2.34-3.46-4.38-.4-2.03.09-4.5,1.21-6.56,1.12-2.07,2.89-3.69,4.83-4.4.38-.15.49-.57.47-1.27-.03-.69-.2-1.59-.43-2.58-.23-.99-.45-1.88-.84-2.47-.37-.57-.94-.89-1.73-.59-1.95.71-3.7,1.83-5.17,3.17-1.47,1.35-2.68,2.91-3.6,4.61-.92,1.7-1.59,3.54-1.95,5.46-.35,1.93-.43,3.95-.03,6,.39,2.04,1.25,4.09,2.61,5.81Z"/>
  <path class="cls-1" d="M113.06,74.25l-6.51-12.78-3.71-7.28c-.55-1.03-1.03-2.27-1.76-2.92l-.26-.25-.26-.2c-.09-.06-.17-.14-.26-.19l-.25-.15c-.17-.1-.33-.19-.51-.26-.18-.08-.4-.15-.62-.21-.45-.13-.96-.18-1.43-.16-.48.02-.88.09-1.23.21-.71.21-1.6.68-2.36,1.59l-29.66,36.9-6.38-6.79-4.43-4.71c-.31-.33-.61-.66-.93-.95-.16-.13-.33-.26-.49-.37-.17-.09-.33-.21-.5-.29-.33-.16-.64-.28-.96-.36-.33-.08-.7-.14-1.09-.15-.78-.02-1.56.17-2.13.44-.6.28-1.27.74-1.82,1.45l-22.12,28.87c-1.69,2.21-.53,3.4,1.09,4.64s3.07,2.05,4.76-.16l20.3-26.51,11.32,12.05c.75.77,1.6,1.2,2.35,1.38.4.1.87.16,1.34.14.47-.02.93-.1,1.33-.23.39-.12.74-.3,1.13-.54.38-.26.76-.57,1.11-.99l1.95-2.42,4.05-5.04,8.1-10.08,14.98-18.63,22.33,43.84c1.26,2.48,2.84,1.94,4.65,1.02,1.81-.92,3.17-1.89,1.91-4.36l-13.02-25.56Z"/>
</svg>