<?xml version="1.0" encoding="UTF-8"?>
<svg id="Layer_1_copy_3" data-name="Layer 1 copy 3" xmlns="http://www.w3.org/2000/svg" viewBox="0 0 150 150">
  <defs>
    <style>
      .cls-1 {
        fill: #191919;
      }
    </style>
  </defs>
  <path class="cls-1" d="M124.72,78.61c-.93-.02-1.77.09-2.42.87-.66.79-1.04,2.25-1.39,4.94l-.1.89-.15.88-.31,1.76c-.08.59-.26,1.16-.39,1.74l-.42,1.74c-.67,2.28-1.4,4.54-2.4,6.68-.93,2.18-2.12,4.22-3.38,6.22-.69.96-1.31,1.97-2.07,2.88-.37.46-.72.94-1.1,1.39l-1.17,1.33c-6.39,7.03-14.93,12.09-24.1,15.15-2.29.77-4.63,1.42-7,1.92-2.36.51-4.75.89-7.13,1.1-1.19.1-2.38.18-3.54.19h-1.74s-1.74-.13-1.74-.13c-2.32-.22-4.63-.64-6.9-1.25-9.09-2.52-17.39-8.06-23.54-15.31-6.16-7.25-10.21-16.29-11.18-25.75-.56-4.72-.29-9.53.52-14.23.43-2.35.98-4.67,1.75-6.93.75-2.26,1.63-4.48,2.71-6.6,2.11-4.27,4.88-8.21,8.09-11.77,1.62-1.77,3.35-3.44,5.17-5.02,1.83-1.57,3.76-3.03,5.75-4.4,4.01-2.72,8.31-5.04,12.8-6.93,2.24-.96,4.54-1.8,6.87-2.53,1.16-.38,2.34-.7,3.51-1.04l1.77-.46c.29-.08.59-.14.89-.21,0,0,0,0,0,0l-4.52,51.69c-.06.86.13,1.62.4,2.18.24.54.8,1.23,1.36,1.6.51.35,1.15.64,1.98.73.85.04,1.73.01,2.6.02h5.51s10.43,0,10.43,0h20.86c5.76,0,6.26-1.51,6.26-3.36,0-1.85-.5-3.35-6.26-3.35h-36.22s2.36-27,2.36-27l1.24-14.19.62-7.1.1-1.14c.04-.59.12-1.19.12-1.77,0-.29-.03-.56-.07-.83-.05-.26-.11-.51-.18-.76-.15-.5-.39-.97-.68-1.41-.59-.87-1.46-1.58-2.44-1.97-.99-.4-1.99-.51-3.16-.29l-1.85.42c-.32.07-.64.14-.96.23l-1.92.49c-1.27.36-2.54.71-3.8,1.12-2.52.8-5,1.71-7.44,2.74-4.88,2.05-9.57,4.57-13.97,7.56-2.19,1.51-4.32,3.12-6.35,4.86-2.02,1.75-3.95,3.62-5.76,5.6-3.6,3.99-6.72,8.44-9.12,13.29-1.23,2.41-2.23,4.93-3.08,7.49-.87,2.56-1.49,5.2-1.98,7.85-.91,5.3-1.22,10.75-.58,16.14,1.11,10.8,5.74,21.15,12.74,29.37,6.99,8.22,16.33,14.5,26.87,17.43,2.64.71,5.34,1.21,8.09,1.46l2.07.14c.69.02,1.38.01,2.08.02,1.38,0,2.72-.09,4.07-.21,2.68-.25,5.32-.67,7.93-1.23,2.61-.55,5.18-1.26,7.7-2.11,2.52-.85,5.02-1.81,7.43-2.94,2.42-1.13,4.8-2.37,7.07-3.8,1.16-.68,2.25-1.47,3.36-2.22,1.07-.81,2.18-1.58,3.2-2.47,2.1-1.69,4.05-3.58,5.88-5.58l1.34-1.53c.44-.51.85-1.06,1.27-1.59.86-1.05,1.6-2.2,2.38-3.31,1.45-2.3,2.82-4.66,3.89-7.16,1.14-2.47,1.99-5.06,2.75-7.65.17-.65.32-1.31.48-1.97.14-.66.34-1.31.44-1.98l.35-1.99.17-1,.12-1c.39-3.03.02-4.7-.53-5.6-.56-.9-1.39-1.04-2.32-1.06Z"/>
  <path class="cls-1" d="M134.43,60.09c-.02-.92-.04-1.83-.07-2.75-.19-3.67-.72-7.37-1.68-10.99-.97-3.62-2.37-7.18-4.31-10.46-1.94-3.28-4.38-6.28-7.19-8.85-2.8-2.59-6-4.68-9.34-6.38-3.35-1.71-6.88-2.94-10.45-3.87-3.58-.93-7.22-1.48-10.86-1.76-1.47-.13-2.29.25-2.74.82-.28.36-.9,2.28-1,3.02l-5.25,41.43-.33,2.59-.3,2.34c-.16.88-.1,1.71.11,2.36.1.33.22.61.41.93.18.31.42.62.69.88.27.27.56.49.85.66.14.09.29.15.44.23.16.07.32.13.5.19.36.1.74.2,1.18.2.43.02.87,0,1.3,0h47.44s.06,0,.08,0v-.08s.1-1.27.1-1.27l.18-2.53.18-2.53.03-.75.02-.68.03-1.37c.02-.46.02-.91,0-1.37ZM127.72,61.39l-.03,1.24-.03,1.17v.07s-.01.11-.01.11h-39.83l.36-2.84,4.96-39.11c2.23.28,4.43.69,6.59,1.25,3.16.82,6.24,1.89,9.09,3.36,2.85,1.46,5.53,3.21,7.85,5.35,2.32,2.13,4.32,4.58,5.92,7.29,3.2,5.44,4.73,11.86,5.07,18.4l.06,2.47c.02.41.01.82,0,1.24Z"/>
</svg>