<?xml version="1.0" encoding="UTF-8"?>
<svg id="Layer_1_copy_3" data-name="Layer 1 copy 3" xmlns="http://www.w3.org/2000/svg" viewBox="0 0 150 150">
  <defs>
    <style>
      .cls-1 {
        fill: #191919;
      }
    </style>
  </defs>
  <path class="cls-1" d="M137.77,78.35c-.22-3.1-.71-6.16-1.49-9.15-.8-2.99-1.87-5.91-3.2-8.7-2.66-5.59-6.36-10.61-10.66-14.88-4.31-4.29-9.18-7.87-14.46-10.79-2.15-1.17-3.63-1.23-4.66-.71-1.03.53-1.62,1.63-2.11,2.9-.49,1.27-.89,2.44-.71,3.49.18,1.06.92,2,2.72,2.98,8.95,4.94,16.71,12.31,20.96,21.27,1.07,2.24,1.92,4.56,2.56,6.96.63,2.4,1.02,4.86,1.19,7.31.11,1.23.09,2.48.1,3.72-.06,1.25-.11,2.5-.27,3.74-.28,2.49-.73,4.97-1.45,7.37-.7,2.4-1.55,4.77-2.67,7.01l-.4.85-.45.82c-.3.54-.59,1.1-.91,1.63-.68,1.04-1.3,2.12-2.07,3.1-2.89,4.05-6.59,7.45-10.74,10.17-4.17,2.72-8.89,4.62-13.83,5.88-4.94,1.25-10.13,1.79-15.36,1.81-5.23,0-10.52-.47-15.78-1.37-1.32-.21-2.62-.51-3.94-.76l-1.97-.39-1.84-.49-1.85-.48c-.61-.18-1.2-.41-1.8-.61l-1.79-.62c-.6-.21-1.16-.5-1.74-.74-9.25-3.97-17-11.07-21.66-20.02-2.34-4.46-3.97-9.3-4.84-14.28-.9-4.98-.89-10.1-.16-15.05.14-1.25.46-2.45.72-3.68.11-.62.33-1.2.49-1.8.18-.59.34-1.2.54-1.78l.66-1.73.33-.87.39-.83.79-1.66c.28-.55.61-1.06.9-1.59.57-1.09,1.31-2.05,1.99-3.05.32-.52.75-.94,1.13-1.42.4-.45.75-.94,1.17-1.37l1.28-1.27c.21-.21.42-.43.64-.63l.7-.57,1.38-1.15c.49-.35.99-.67,1.49-1.01.4-.27.73-.55,1.02-.81.3-.24.55-.48.74-.73.39-.5.59-1.01.64-1.56.12-1.08-.33-2.25-.92-3.47s-1.21-2.3-2.25-2.75c-.52-.23-1.15-.3-1.93-.15-.39.07-.82.2-1.29.38-.46.21-.94.5-1.48.86-.65.45-1.32.88-1.96,1.35l-1.84,1.51-.92.76c-.29.27-.57.55-.85.83l-1.68,1.68c-.55.57-1.03,1.2-1.54,1.8-.49.61-1.04,1.19-1.47,1.85-.9,1.29-1.84,2.56-2.58,3.94-.38.68-.8,1.35-1.15,2.04l-1,2.11-.49,1.06-.42,1.08-.83,2.17c-.25.73-.45,1.48-.68,2.21-.21.74-.47,1.47-.61,2.23-.32,1.5-.7,3-.88,4.52-1.87,12.12.36,24.63,6.03,35.45,2.82,5.42,6.62,10.34,11.13,14.5,4.5,4.17,9.74,7.54,15.33,9.96.7.3,1.39.64,2.1.89l2.15.75c.72.24,1.43.51,2.16.73l2.19.58,2.2.57,2.13.43c1.42.27,2.83.59,4.27.82,5.72.98,11.57,1.51,17.47,1.51,5.9-.01,11.88-.63,17.74-2.1,5.85-1.48,11.6-3.79,16.77-7.16,5.16-3.37,9.78-7.64,13.38-12.67.94-1.23,1.73-2.55,2.56-3.85.39-.66.75-1.34,1.12-2.02l.55-1.01.5-1.04c1.36-2.76,2.41-5.65,3.27-8.59.87-2.94,1.42-5.96,1.77-9,.19-1.52.25-3.06.32-4.59,0-1.54.01-3.08-.12-4.62Z"/>
  <path class="cls-1" d="M72.22,92.03c2.73,0,4.94-.11,4.94-1.36V16.36c0-1.25-2.21-1.36-4.94-1.36s-4.94.11-4.94,1.36v74.31c0,1.25,2.21,1.36,4.94,1.36Z"/>
</svg>