<?xml version="1.0" encoding="UTF-8"?>
<svg id="Layer_1_copy_3" data-name="Layer 1 copy 3" xmlns="http://www.w3.org/2000/svg" viewBox="0 0 150 150">
  <defs>
    <style>
      .cls-1 {
        fill: #191919;
      }
    </style>
  </defs>
  <path class="cls-1" d="M136.71,56.44c-.32-.55-.74-1.03-1.11-1.53-.17-.24-.43-.51-.67-.78-.25-.26-.5-.48-.75-.72-1.02-.88-2.07-1.56-3.13-2.12-2.12-1.11-4.28-1.8-6.49-2.24-2.21-.43-4.47-.6-6.84-.39-1.18.11-2.4.33-3.64.73-.62.19-1.25.45-1.87.76-.31.15-.63.34-.94.52l-.46.31-.23.16c-.07.05-.06.04-.09.07l-2.47-.9c-1.06-.36-2.14-.68-3.21-1.02-1.07-.35-2.16-.59-3.24-.89-4.34-1.09-8.75-1.84-13.18-2.28-4.01-.39-8.04-.52-12.06-.42l12.11-22.25,17.21,8.91c-.1.91-.06,1.82.08,2.7.23,1.4.75,2.75,1.56,3.96.81,1.22,1.94,2.3,3.3,3.03.34.17.69.34,1.05.49.36.13.72.24,1.09.35.36.08.73.14,1.1.2.36.05.69.06,1.04.08,1.38.04,2.82-.2,4.15-.75,1.33-.54,2.54-1.38,3.51-2.41,1.97-2.07,2.93-4.83,2.93-7.5-.01-.64-.09-1.31-.25-1.9-.15-.6-.36-1.13-.6-1.64-.49-1-1.11-1.84-1.82-2.57-1.42-1.45-3.23-2.52-5.38-2.94-1.07-.21-2.21-.22-3.31-.03-1.1.19-2.15.59-3.06,1.12-.58.33-1.1.71-1.58,1.12l-9.99-5.17-6.72-3.48-2.57-1.33c-.56-.29-1.13-.5-1.68-.6-.53-.09-1.07-.12-1.63-.05-1.12.12-2.24.65-3.01,1.36-.4.37-.79.81-1.1,1.36l-.91,1.66-14.56,26.77s-.04.09-.06.14c-1.81.21-3.61.45-5.41.75,0,0,0,0,0,0-.4.06-.82.13-1.27.23-3.59.78-7.02,1.76-10.43,2.84-1.7.53-3.39,1.11-5.08,1.7-.84.3-1.69.6-2.53.93l-1.51.58h-.01s-.26-.27-.26-.27l-.74-.64c-.25-.21-.52-.4-.78-.59-2.12-1.52-4.59-2.42-7.03-2.78-2.45-.36-4.9-.21-7.25.36-2.35.58-4.62,1.59-6.65,3.15l-.75.61c-.24.22-.48.44-.71.67-.23.24-.46.47-.68.73-.2.25-.45.54-.61.76l-.96,1.34c-.32.44-.6.94-.9,1.41-1.16,1.93-2.17,4.1-2.66,6.61-.27,1.24-.32,2.59-.24,3.94.14,1.35.43,2.73,1,3.99.52,1.28,1.29,2.41,2.12,3.43.44.47.86.99,1.34,1.39l.71.63c.12.1.25.19.36.28l.07.05-.05.42c-.06.5-.08.99-.13,1.49-.09.99-.11,1.98-.15,2.98,0,.99-.04,1.99,0,2.98.03,1.99.21,3.97.43,5.96.28,1.98.59,3.95,1.08,5.91.93,3.9,2.3,7.75,4.23,11.35,1.91,3.6,4.33,6.96,7.19,9.89,2.86,2.94,6.14,5.43,9.64,7.45,3.5,2.02,7.22,3.58,11.01,4.78,3.79,1.19,7.66,1.95,11.52,2.53,1.93.21,3.87.5,5.8.59l2.9.19,2.89.06c1.92.08,3.87-.02,5.81-.05.97,0,1.94-.11,2.91-.18.97-.08,1.94-.13,2.91-.24,1.94-.26,3.88-.45,5.81-.86l1.45-.27.72-.14.72-.18,2.87-.71c3.81-1.08,7.56-2.47,11.14-4.28,3.59-1.8,6.96-4.07,10.03-6.71,6.14-5.29,10.91-12.2,13.6-19.84l.5-1.44c.16-.48.29-.97.43-1.46.13-.49.29-.97.41-1.46l.34-1.48c.24-.98.37-2,.56-2.99l.19-1.52c.07-.51.12-1.01.15-1.52.19-2.03.16-4.1.03-6.18l-.16-1.57c-.06-.52-.16-1.05-.24-1.58-.07-.52-.2-1.06-.33-1.59l-.19-.79-.02-.07v-.02s-.02-.04-.02-.04h.02s0-.01.04-.03l.83-.57c2.21-1.56,3.89-3.78,4.83-6.18,1.9-4.81,1.3-10.28-1.42-14.56ZM114.19,31.79c.25-.26.48-.44.69-.56.42-.23.69-.27,1.1-.2.39.07.92.35,1.3.74.19.19.34.41.42.57.03.08.07.15.07.18.02.04,0,0,0,.02,0,.87-.32,1.68-.82,2.18-.5.51-1.1.77-1.87.76-.09-.01-.21,0-.29-.02-.07-.02-.14-.03-.21-.03-.06-.03-.11-.05-.18-.06-.05-.03-.1-.06-.16-.07-.2-.11-.39-.28-.57-.54-.36-.51-.5-1.4-.33-1.9,0-.01-.01-.03-.04-.06.06,0,.11-.03.13-.07.24-.36.49-.69.74-.93ZM131,68.12c-.46,1.18-1.23,2.12-2.15,2.78-.12.08-.23.16-.35.25l-1.18.69-.6.35c-.19.12-.42.21-.56.37-.32.29-.61.63-.86.99-.5.73-.83,1.6-.95,2.48-.03.22-.04.44-.05.66,0,.22,0,.43.06.66l.27,1.36.37,1.2.13.57c.09.38.19.75.24,1.15.06.4.14.78.18,1.18l.12,1.21c.1,1.63.13,3.3-.03,4.98-.24,3.35-1.03,6.7-2.16,9.89-2.26,6.42-6.24,12.17-11.38,16.61-2.58,2.22-5.42,4.14-8.5,5.68-3.07,1.55-6.33,2.77-9.68,3.72l-2.55.63-.64.16-.65.12-1.3.24c-1.72.37-3.48.54-5.23.78-.88.11-1.77.14-2.65.22-.89.06-1.77.16-2.66.16-1.79.03-3.56.13-5.36.05l-2.69-.06-2.67-.18c-1.79-.08-3.54-.35-5.31-.54-3.5-.53-6.96-1.21-10.28-2.26-3.31-1.06-6.5-2.4-9.45-4.1-2.95-1.7-5.64-3.76-7.98-6.16-4.69-4.8-7.9-10.96-9.45-17.65-.42-1.66-.69-3.37-.93-5.08-.19-1.72-.36-3.45-.38-5.18-.04-.87,0-1.74,0-2.6.04-.87.06-1.74.13-2.6.04-.43.06-.87.11-1.3l.1-.98c.05-.46.1-.93.06-1.37-.05-.89-.32-1.78-.76-2.56-.45-.78-1.06-1.45-1.83-1.98l-.73-.55-.37-.34c-.27-.21-.45-.47-.68-.69-.38-.49-.73-.97-.92-1.49-.25-.51-.33-1.05-.41-1.62-.02-.58-.02-1.19.13-1.84.25-1.3.86-2.71,1.69-4.09.22-.34.41-.69.66-1.03l.73-1.02c.39-.52.8-.93,1.33-1.34,2.1-1.63,5.31-2.41,8.07-1.99,1.39.2,2.65.69,3.68,1.43.12.1.26.19.38.29l.36.31.26.26c.15.14.32.35.47.53.31.38.64.73.96,1.1.16.22.33.29.51.39l.52.3c.18.1.34.21.53.26.19.06.42.12.63.15.19.05.4,0,.61,0l.62-.04.31-.02c.1,0,.2,0,.32-.06l.67-.24,1.2-.52c.21-.09.39-.17.62-.25l.36-.14,1.17-.45c.78-.3,1.58-.58,2.38-.87,1.6-.56,3.21-1.11,4.83-1.62,3.23-1.02,6.51-1.96,9.73-2.65.05-.01.1-.02.15-.04.25-.04.5-.08.77-.13,8.09-1.36,16.39-1.68,24.53-.88,4.07.4,8.1,1.09,12.04,2.08.98.27,1.98.49,2.94.8.97.31,1.94.59,2.9.92l1.42.52.71.26.65.24c.28.1.51.19.77.26,2.02.58,4.26.05,5.85-1.36,3.35-2.63,13.28-.79,15.3,3.08.71,1.11,1.15,2.39,1.28,3.71.13,1.32-.04,2.66-.51,3.83Z"/>
  <path class="cls-1" d="M98.1,103.9c-7.47,4.19-15.94,6.51-24.41,6.37-4.23-.06-8.45-.71-12.52-1.94-4.07-1.22-7.97-3-11.63-5.23-.74-.43-1.73.98-2.86,2.78s-1.99,3.29-1.13,3.8c4.18,2.55,8.69,4.61,13.42,6.02,4.72,1.42,9.66,2.19,14.61,2.26,4.95.07,9.9-.55,14.66-1.81,4.76-1.26,9.34-3.15,13.61-5.53.87-.47.08-2-.98-3.84-1.07-1.84-2-3.29-2.76-2.89Z"/>
  <path class="cls-1" d="M53.93,97.7c.91,0,1.75-.15,2.61-.27.42-.08.82-.17,1.23-.26.41-.1.81-.17,1.23-.32l1.24-.41c.41-.15.84-.36,1.25-.54.21-.1.42-.18.62-.3l.62-.36c.41-.24.82-.49,1.21-.81,1.59-1.17,2.98-2.9,3.77-4.76.42-.93.66-1.87.86-2.78.16-.89.27-1.79.3-2.58l.03-.58.02-.54v-.24c.01-.09.02-.13.01-.3,0-.29,0-.59-.02-.88,0-.31-.06-.56-.1-.83-.05-.27-.08-.55-.14-.8-.14-.49-.25-1.02-.44-1.47-.7-1.87-1.76-3.47-3.08-4.83-1.32-1.36-2.93-2.46-4.7-3.19-1.77-.74-3.69-1.08-5.55-1.08-.06,0-.11.01-.17.02-.1-.02-.21-.04-.33-.03-.4.03-.8.03-1.21.08l-1.24.17c-.81.08-1.67.34-2.51.54-1.69.53-3.44,1.24-5.02,2.51-1.58,1.24-2.89,2.96-3.66,4.82-.77,1.87-1.05,3.79-1.01,5.65,0,.49.06.89.09,1.32l.06.64.11.65c.13.86.35,1.73.63,2.59.56,1.72,1.45,3.46,2.77,4.96,1.31,1.5,3.07,2.71,4.94,3.4,1.87.69,3.79.9,5.57.83ZM47.61,84.66l-.07-.38-.03-.4c-.02-.26-.06-.55-.06-.76-.02-.91.13-1.8.42-2.5.3-.7.73-1.25,1.32-1.74.59-.49,1.46-.85,2.4-1.15.51-.11.98-.28,1.56-.33l.83-.12c.25-.04.53-.03.8-.05.05.02.1.03.15.02,1.83,0,3.46.67,4.7,1.95.61.63,1.1,1.4,1.38,2.13.09.19.1.35.16.52.03.09.02.15.04.23,0,.07.04.16.03.2,0,.05,0,.1,0,.16,0,0,0,.14,0,.22v.28s-.03.5-.03.5l-.02.46c-.02.6-.1,1.08-.17,1.55-.1.44-.2.85-.37,1.19-.31.69-.71,1.2-1.34,1.68-.64.46-1.48.89-2.51,1.18-.23.09-.52.13-.79.2-.27.06-.54.13-.81.18-.52.06-1.05.16-1.53.15-.99.04-1.88-.08-2.62-.35-.74-.28-1.34-.69-1.86-1.28-.52-.58-.94-1.36-1.24-2.27-.14-.46-.27-.94-.35-1.45Z"/>
  <path class="cls-1" d="M108.39,77.42c-.22-.43-.44-.77-.67-1.14l-.34-.55-.38-.53c-.5-.71-1.08-1.39-1.71-2.05-1.26-1.3-2.83-2.46-4.68-3.22-1.84-.77-3.95-1.08-5.93-.87-1.99.2-3.79.87-5.36,1.71-.81.41-1.5.9-2.22,1.39-.34.25-.66.52-.98.78-.32.27-.65.51-.96.83l-.94.91c-.31.32-.59.69-.89,1.03-.14.18-.29.34-.43.54l-.4.6c-.26.4-.52.8-.73,1.26-.91,1.75-1.39,3.92-1.28,5.94.03,1.02.23,1.97.46,2.88.25.87.55,1.73.87,2.45l.23.53.22.49.1.22c.04.09.05.12.13.27.13.26.27.52.41.78.14.27.3.47.45.7.16.22.31.46.48.65.34.38.68.8,1.05,1.12,1.46,1.37,3.11,2.33,4.9,2.97,1.78.64,3.71.92,5.63.79,1.92-.12,3.79-.66,5.46-1.48.05-.03.09-.06.14-.09.1-.02.21-.06.31-.12.35-.2.7-.38,1.05-.61l1.03-.7c.69-.43,1.35-1.04,2.01-1.59,1.28-1.22,2.54-2.63,3.4-4.47.87-1.81,1.28-3.93,1.15-5.94-.13-2.02-.73-3.86-1.59-5.51ZM101.87,85.57c-.31.7-.93,1.41-1.64,2.1-.41.32-.76.69-1.25.98l-.69.47c-.21.14-.46.26-.69.4-.05,0-.1.02-.15.05-1.64.8-3.4.93-5.08.33-.83-.29-1.61-.77-2.17-1.3-.17-.13-.24-.27-.38-.39-.06-.06-.08-.13-.13-.19-.04-.06-.11-.12-.11-.17-.02-.05-.05-.09-.08-.14,0,0-.06-.12-.09-.2l-.11-.25-.2-.46-.18-.42c-.24-.55-.39-1.01-.53-1.47-.1-.44-.19-.86-.2-1.23-.03-.75.1-1.39.46-2.1.37-.7.93-1.46,1.73-2.17.17-.19.41-.35.62-.53.22-.17.43-.35.65-.52.44-.28.87-.61,1.31-.82.87-.47,1.72-.76,2.51-.84.78-.08,1.51.03,2.23.33.72.3,1.45.8,2.11,1.49.33.35.66.72.95,1.15l.23.31.21.34c.13.22.3.46.39.65.42.81.68,1.67.72,2.43.04.76-.1,1.45-.42,2.15Z"/>
</svg>