<?xml version="1.0" encoding="UTF-8"?>
<svg id="Layer_1_copy_3" data-name="Layer 1 copy 3" xmlns="http://www.w3.org/2000/svg" viewBox="0 0 150 150">
  <defs>
    <style>
      .cls-1 {
        fill: #191919;
      }
    </style>
  </defs>
  <path class="cls-1" d="M144.56,68.21c-.02-.1-.02-.19-.04-.3l-.1-.33c-.16-.45-.37-.98-.99-1.56l-1.87-1.71c-1.04-.95-4.31-4.08-5.21-4.9l-8.97-8.13-4.49-4.06-1.31-1.18-1.12-1.02c-.38-.33-.74-.71-1.13-.97-.39-.26-.79-.42-1.16-.51-.38-.09-.67-.13-1.12-.09-.36.08-.72.15-1.08.26l-.56.28-.59.46s-23.42,21.86-23.99,22.43-1.18,2.26-.45,3.79c.13.28.14.31.19.41.05.09.12.19.18.29.1.19.31.4.51.61.44.41,1.12.94,2.53.99l13.07-.18v.19c0,.54.03,1.09.01,1.63-.03,1.08-.04,2.17-.1,3.25-.09,1.07-.13,2.16-.24,3.22l-.19,1.59c-.06.53-.12,1.07-.22,1.59-.66,4.21-1.82,8.27-3.6,12.02-1.76,3.76-4.24,7.12-7.17,10.1-.71.77-1.51,1.45-2.29,2.16l-.59.53-.62.49-1.25.99c-.42.35-.82.61-1.22.89-.39.3-.82.52-1.22.77-.41.26-.84.44-1.26.67-.43.19-.85.38-1.29.54-3.46,1.29-7.2,1.12-10.83-.37-3.63-1.45-7.05-3.96-10.17-6.84-1.57-1.44-3.06-3-4.51-4.63-.37-.41-.71-.8-1.09-1.25-.19-.22-.37-.44-.56-.65l-.58-.56-1.17-1.11c-.81-.55-1.87-.81-2.89-.74-.51.04-1,.14-1.45.32-.46.19-.93.44-1.37.8l-9.37,7.61c-.69.54-1.15,1.17-1.44,1.81-.31.66-.46,1.47-.42,2.22.01.19.03.38.06.56.02.09.03.18.06.27l.03.13s.05.08.08.12l.63,1,1.26,1.99.16.25c.06.09.07.1.11.15l.21.26.41.52.83,1.03c.58.68,1.14,1.37,1.73,2.04,2.36,2.7,4.97,5.26,7.89,7.52,2.91,2.25,6.12,4.2,9.56,5.62,3.43,1.44,7.04,2.4,10.68,2.97l2.74.31.68.08.68.03,1.37.05c.91.02,1.82.1,2.75.05l1.38-.04,1.38-.1c1.85-.13,3.68-.42,5.5-.78,1.81-.41,3.62-.87,5.36-1.52,3.51-1.24,6.86-2.95,9.9-5.1,3.04-2.14,5.79-4.67,8.19-7.47,2.4-2.8,4.45-5.86,6.17-9.06,1.72-3.2,3.13-6.54,4.27-9.94,1.14-3.4,2.06-6.86,2.72-10.34.67-3.49,1.18-6.99,1.47-10.5.19-1.75.25-3.51.36-5.26.04-.87.05-1.77.08-2.6h11.97c.89.03,1.6-.1,2.04-.34.14-.05.22-.11.32-.17.1-.06.2-.12.29-.18.14-.13.31-.25.43-.38.11-.12.22-.25.32-.37l.22-.34c.08-.13.1-.18.19-.36.05-.11.11-.28.14-.37l.05-.18c.04-.11.05-.26.07-.39l.03-.2v-.25s0-.25,0-.25c0-.09-.02-.19-.03-.29ZM132.85,65.45s-.06.04-.06.04h-5.98c-.87-.01-1.63.18-2.28.5-.68.33-1.31.84-1.77,1.46-.23.31-.43.64-.58.98-.15.33-.26.7-.33,1.09-.08.39-.09.83-.1,1.25l-.03,1.29c-.03.88-.03,1.68-.08,2.52-.11,1.66-.16,3.32-.34,4.97-.27,3.3-.75,6.57-1.37,9.8-.61,3.23-1.45,6.4-2.49,9.48-1.04,3.08-2.3,6.06-3.82,8.88-3.02,5.64-7.16,10.6-12.27,14.18-2.54,1.8-5.34,3.23-8.27,4.26-1.46.54-2.98.92-4.5,1.27-1.53.3-3.08.55-4.64.66l-1.17.09-1.18.03c-.78.04-1.58-.03-2.38-.05l-1.19-.04-.6-.02-.59-.07-2.36-.27c-3.11-.49-6.15-1.3-9.02-2.5-5.77-2.4-10.73-6.47-14.99-11.36-.54-.61-1.06-1.25-1.58-1.87l-1.44-1.8-.09-.11,6.55-5.32c.35.41.75.88,1.14,1.3,1.56,1.76,3.21,3.47,4.97,5.09,1.76,1.62,3.62,3.18,5.66,4.57,2.04,1.39,4.21,2.66,6.62,3.6,1.19.5,2.46.86,3.74,1.18,1.3.26,2.62.49,3.98.52,2.7.14,5.45-.36,7.97-1.27.62-.24,1.24-.5,1.84-.77.58-.31,1.19-.58,1.74-.92.55-.34,1.13-.66,1.65-1.04.53-.37,1.07-.74,1.52-1.11l1.42-1.12.71-.56.68-.61c.9-.81,1.82-1.6,2.65-2.49,3.41-3.46,6.38-7.49,8.46-11.94,2.11-4.44,3.44-9.17,4.19-13.9.11-.59.18-1.18.25-1.78l.21-1.78c.13-1.18.18-2.37.27-3.55.06-1.18.07-2.36.11-3.54.02-.59,0-1.17,0-1.76l-.02-1.51c-.01-.57,0-1.15-.12-1.66-.12-.51-.28-.94-.52-1.37-.24-.43-.57-.83-.95-1.17-.38-.34-.81-.62-1.25-.82-.43-.19-.9-.34-1.44-.39-.54-.05-1.12-.02-1.68-.02l-1.3.02-1.7.02-2.6.04,3.51-3.33,6.46-6.18,5.36-5.16,14.39,13.04c.4.36.76.67,1.11.95h0s-.03.05-.05.07Z"/>
  <path class="cls-1" d="M50.63,90.84l3.64-3.43,2.87-2.69,2.41-2.62c.33-.43.43-1.74.19-2.41-.03-.1-.02-.11-.11-.34-.04-.1-.09-.22-.12-.27l-.06-.13c-.1-.16-.21-.34-.33-.51-.17-.19-.29-.37-.55-.56-.46-.36-1.1-.8-2.35-.85l-12.76.17.05-.67.07-.83.32-3.29c.13-1.09.25-2.18.39-3.26.17-1.07.3-2.16.49-3.22.73-4.26,1.8-8.4,3.43-12.22.18-.49.42-.94.65-1.41l.68-1.39.77-1.33c.26-.44.5-.9.81-1.31.58-.84,1.13-1.71,1.8-2.48.32-.4.63-.81.97-1.19l1.05-1.13c1.4-1.51,2.99-2.85,4.63-4.14,1.59-1.23,3.23-2.18,4.97-2.79,3.45-1.28,7.18-1.01,10.79.46,1.8.74,3.56,1.73,5.25,2.9,1.69,1.18,3.31,2.52,4.87,3.96,1.55,1.45,3.05,3,4.49,4.62l.54.61.27.31.13.15.07.08.14.15,1.13,1.19c.19.19.37.41.57.58.21.15.43.29.66.41.92.48,2,.69,3.04.58,1.05-.12,2-.5,2.89-1.21l5.97-4.85,1.36-1.1,1.22-.99c.49-.39.94-.75,1.26-1.19.33-.43.56-.85.74-1.35.18-.49.28-1.03.28-1.57,0-.53-.06-1.06-.24-1.53-.22-.49-.47-.98-.74-1.45l-1.12-1.46-.43-.55-.33-.42c-.45-.55-.87-1.11-1.34-1.66-.46-.55-.91-1.1-1.39-1.64l-1.45-1.61c-1.99-2.11-4.15-4.11-6.48-5.91-2.33-1.83-4.91-3.36-7.57-4.69l-2.04-.92c-.68-.31-1.39-.53-2.09-.79-1.39-.56-2.84-.89-4.27-1.3-.72-.2-1.45-.3-2.18-.45l-1.09-.21c-.36-.07-.73-.14-1.09-.17l-2.2-.25-1.1-.12-1.1-.04c-2.91-.17-5.9-.09-8.85.32-5.89.79-11.66,2.86-16.7,6.06-5.05,3.19-9.37,7.46-12.7,12.29-3.38,4.82-5.86,10.14-7.66,15.59-1.84,5.46-2.95,11.08-3.66,16.7-.36,2.81-.58,5.63-.73,8.44-.05.7-.07,1.41-.08,2.11l-.03,1.06v.05h-12.5l-.51.04c-.16.02-.28.06-.43.09-.15.03-.26.07-.37.12l-.33.14-.26.16c-.19.1-.32.22-.44.33-.51.45-.75.84-.94,1.25-.04.09-.1.24-.13.34-.03.1-.04.12-.05.18-.03.09-.05.21-.07.33-.02.12-.05.22-.05.37v.43c0,.16.03.34.05.51.04.18.11.39.16.58.2.43.4.89.94,1.4l14.02,12.82,5.5,5.02,3.55,3.24c.46.42.91.87,1.4,1.11.49.25.95.35,1.37.38.1,0,.22.01.36,0,.14,0,.23-.01.34-.03.21-.03.43-.07.66-.15.46-.15.96-.41,1.41-.84l2.79-2.69c.36-.34.66-.66.95-.97.09-.09.18-.16.28-.25l11.43-10.8ZM17.22,84.5h6.05c.69,0,1.32-.14,1.86-.36.55-.23,1.09-.56,1.55-.99.46-.43.83-.95,1.09-1.49.25-.53.42-1.13.47-1.81.03-.34.02-.69.04-1.03l.03-.98.03-1c.02-.67.03-1.34.08-2,.14-2.66.34-5.32.69-7.94.67-5.25,1.7-10.45,3.37-15.4,1.63-4.95,3.85-9.67,6.78-13.84,2.89-4.19,6.55-7.78,10.77-10.45,4.22-2.68,9.01-4.4,13.99-5.07,2.49-.35,5-.42,7.57-.26l.96.03.95.11,1.89.21c.32.02.63.08.94.15l.93.18c.62.13,1.25.21,1.85.38,1.2.35,2.44.62,3.59,1.09.58.23,1.19.4,1.75.66l1.71.77c2.23,1.12,4.4,2.39,6.39,3.96,2,1.55,3.88,3.28,5.66,5.17l1.31,1.45c.43.49.85,1,1.27,1.5.43.49.83,1.03,1.25,1.54l.52.65.13.17-6.55,5.32-1.1-1.26c-1.56-1.75-3.2-3.45-4.94-5.08-3.5-3.22-7.43-6.22-12.2-8.18-2.38-.94-4.97-1.63-7.67-1.74-1.34-.09-2.7.01-4.04.19-.67.12-1.34.22-1.98.41-.32.09-.65.16-.97.26l-.95.32c-2.52.88-4.81,2.25-6.79,3.78-1.91,1.49-3.77,3.07-5.44,4.86-3.37,3.55-6.17,7.75-8.04,12.24-1.91,4.48-3.09,9.14-3.88,13.76-.21,1.16-.35,2.31-.53,3.46-.16,1.15-.28,2.3-.42,3.45l-.33,3.44-.07.86-.08,1-.13,1.69c-.03.28-.03.56-.03.83.02.26.04.53.1.76.1.49.25.89.48,1.31.23.42.54.83.9,1.17.36.34.78.62,1.18.81.2.1.42.17.64.25.24.06.48.13.74.16.52.08,1.1.04,1.66.04l1.51-.02,1.69-.02,2.64-.04-13.52,12.77c-.42.4-.78.76-1.11,1.11-.06.05-.11.1-.17.16l-.43.41-.21.2-15.41-14.09ZM32.62,98.59h0s0,0,0,0h0Z"/>
</svg>