<?xml version="1.0" encoding="UTF-8"?>
<svg id="Layer_1_copy_3" data-name="Layer 1 copy 3" xmlns="http://www.w3.org/2000/svg" viewBox="0 0 150 150">
  <defs>
    <style>
      .cls-1 {
        fill: #191919;
      }
    </style>
  </defs>
  <path class="cls-1" d="M119.73,72.11c-2.41,0-4.33.14-4.4,1.54-.44,7.08-3.51,14.42-8.68,18.51-2.57,2.07-5.65,3.26-9,3.56l-2.68.1h-3.11s-6.19.08-6.19.08c-14.74.21-29.45.54-44.17.9l19.58-19.58c.94-.94-.36-2.4-2.06-4.09-1.7-1.7-3.16-2.99-4.09-2.06l-13.95,13.95-6.97,6.97-4.26,4.26c-.56.59-1.23,1.15-1.63,1.78-.41.63-.61,1.26-.72,1.82-.05.27-.09.66-.07,1.01.01.35.05.6.12.91.14.6.39,1.27.89,1.9l27.5,30.96c.88.99,2.41-.22,4.21-1.81,1.79-1.6,3.17-2.97,2.29-3.97l-20.77-23.36c14.74-.36,29.49-.69,44.21-.9l6.14-.07h3.06s3.48-.15,3.48-.15c2.42-.22,4.86-.78,7.18-1.69,2.32-.9,4.49-2.19,6.42-3.72,1.94-1.53,3.62-3.32,5.05-5.24,1.43-1.93,2.62-3.98,3.58-6.11,1.92-4.27,3.04-8.78,3.33-13.45.09-1.91-1.89-2.07-4.28-2.06Z"/>
  <path class="cls-1" d="M125.8,41.07c-.1-.48-.27-.99-.58-1.52-.29-.53-.78-1.03-1.3-1.51l-2.63-2.53-3.02-2.9-6.04-5.8-12.08-11.6c-.81-.78-2.23.56-3.89,2.29-1.66,1.73-2.94,3.2-2.13,3.98l16.75,16.08c-6.78.08-13.58.28-20.38.72-4.23.25-8.47.62-12.71,1.08-4.24.45-8.49,1.06-12.73,1.83-4.24.78-8.48,1.73-12.69,3.01-4.21,1.29-8.4,2.89-12.44,5.12l-.76.41-.74.46-1.48.93c-.49.33-.96.69-1.44,1.03-.48.34-.96.69-1.41,1.1l-1.38,1.17-1.3,1.29c-.44.42-.84.9-1.24,1.37-.39.49-.82.93-1.17,1.46-1.51,2-2.67,4.31-3.52,6.69l-.57,1.81-.39,1.84c-.15.61-.2,1.23-.27,1.85-.06.61-.17,1.24-.16,1.84-.05,2,1.9,2.11,4.3,2.05s4.36-.24,4.38-1.62c.17-3.46,1.24-6.61,3.23-9.31.21-.36.54-.66.79-.99.27-.33.54-.66.86-.95l.92-.92,1.02-.86c.33-.3.69-.56,1.07-.82.37-.26.73-.54,1.11-.8l1.18-.73.59-.37.62-.34c3.29-1.82,6.95-3.25,10.74-4.4,3.8-1.16,7.73-2.05,11.72-2.78,3.99-.73,8.04-1.31,12.12-1.74,4.08-.44,8.18-.8,12.3-1.05,6.89-.44,13.82-.63,20.76-.71l-15.83,16.87c-.77.82.58,2.22,2.33,3.87,1.75,1.64,3.24,2.91,4.01,2.08l11.46-12.21,5.73-6.1,3.23-3.44,1.43-1.53c.49-.5.95-1.03,1.2-1.57.27-.54.41-1.06.48-1.54.08-.43.05-1.21-.05-1.63Z"/>
</svg>