<?xml version="1.0" encoding="UTF-8"?>
<svg id="Layer_1_copy_3" data-name="Layer 1 copy 3" xmlns="http://www.w3.org/2000/svg" viewBox="0 0 150 150">
  <defs>
    <style>
      .cls-1 {
        fill: #191919;
      }
    </style>
  </defs>
  <path class="cls-1" d="M121.59,79.97l-.09-24.99-.05-15.12v-1.89s0-.94,0-.94c0-.33,0-.58-.02-1.01-.06-1.56-.24-3.12-.63-4.64-.76-3.04-2.19-5.9-4.16-8.33-1.97-2.43-4.5-4.39-7.31-5.74-2.82-1.36-5.95-2.08-9.06-2.11l-15.14-.06-30.24-.11h-3.78s-.94-.02-.94-.02h-.48s-.58.02-.58.02c-.78.04-1.56.05-2.33.19-3.1.42-6.11,1.54-8.73,3.24-5.28,3.37-8.87,9.2-9.58,15.43-.07.39-.08.78-.1,1.17l-.05,1.17c-.02.43,0,.67,0,1.01v.94s.04,3.78.04,3.78l.06,7.56.13,15.12.54,63.13c.02,1.22.38,2.12.74,2.82l.29.49c.1.16.2.28.31.41.2.26.48.54.8.81.65.55,1.53,1.01,2.41,1.22.44.11.88.17,1.28.18.4,0,.73-.02,1.06-.06.18-.03.37-.08.55-.12.18-.04.36-.07.58-.17l.62-.25.66-.39c.44-.31.89-.69,1.32-1.12l1.31-1.25,3.65-3.48,10.47-9.98,19.74-18.83,36,34.63.61.58c.2.19.41.34.61.52.21.19.41.27.61.4l.3.18c.1.05.19.08.29.12l.57.23.51.12c.36.1.64.12.96.15.63.04,1.49-.03,2.29-.31.81-.27,1.58-.74,2.13-1.26.29-.26.5-.5.68-.74l.14-.18.13-.22.27-.44c.32-.69.67-1.47.69-2.6l.02-6.12v-13.46s.04-26.91.04-26.91c0-1.07-.04-1.99-.13-2.77ZM95.62,106.51l-9.68-9.31-4.84-4.66-1.92-1.85c-.41-.38-.8-.79-1.22-1.15-.42-.34-.86-.6-1.28-.77-.44-.16-.8-.27-1.24-.32-.46-.06-1-.04-1.41.04-.78.14-1.7.5-2.52,1.27l-34.18,32.59-.5-57.81-.13-15.12-.06-7.56-.03-3.78v-.94c0-.3-.02-.68,0-.88l.03-.72c0-.24,0-.48.06-.72.44-3.79,2.62-7.36,5.86-9.43,1.61-1.04,3.43-1.71,5.32-1.97.47-.1.95-.08,1.43-.12l.36-.02h.46s.94,0,.94,0h3.78s30.24.13,30.24.13l15.1.06c3.84.03,7.59,1.82,10.02,4.81,1.2,1.49,2.07,3.23,2.54,5.08.25.92.35,1.88.39,2.84.03.2.01.59.02.88v.94s0,1.89,0,1.89l.05,15.12.11,30.23c0,.91.04,1.7.1,2.4l-.04,35.92-17.75-17.08Z"/>
</svg>