<?xml version="1.0" encoding="UTF-8"?>
<svg id="Layer_1_copy_3" data-name="Layer 1 copy 3" xmlns="http://www.w3.org/2000/svg" viewBox="0 0 150 150">
  <defs>
    <style>
      .cls-1 {
        fill: #191919;
      }
    </style>
  </defs>
  <path class="cls-1" d="M137.33,41.73c-.01-.14-.09-.49-.21-.82-.06-.16-.13-.31-.18-.42-.05-.11-.09-.16-.14-.24l-.13-.22-.18-.23-.19-.24-.26-.24c-.15-.16-.42-.32-.64-.48-.29-.15-.56-.3-.96-.4-.17-.07-.4-.1-.62-.13-.21-.04-.47-.05-.71-.07l-9.15-.65-6.15-.44.53-10.86.26-5.46.07-1.45c0-.22,0-.46-.03-.67l-.11-.58c-.2-.69-.49-1.17-.78-1.55-.14-.18-.29-.31-.43-.47-.15-.13-.24-.22-.52-.41-.26-.18-.62-.35-.91-.45-.31-.11-.43-.13-.63-.17-.21-.02-.4-.06-.64-.07-.25,0-.48-.01-.78.05-.27.02-.6.14-.93.25l-.53.26c-.18.11-.37.26-.55.38l-10.96,8.99-4.22,3.46-2.11,1.73-.26.22-.03.03s0,.04-.04.05l-.14.1c-.09.06-.18.14-.27.21-.35.29-.66.61-.93.97-.54.72-.89,1.56-1.04,2.45l-3.49,21.37c-.07.46-.09.85-.06,1.19l-11.2,9.73c-.08-.09-.18-.17-.3-.25-3.14-1.95-7-2.69-10.62-2.02-3.64.63-7.01,2.64-9.3,5.52-1.14,1.44-2.04,3.09-2.6,4.85-.56,1.76-.78,3.62-.68,5.45.18,3.68,1.77,7.29,4.37,9.89,2.58,2.62,6.17,4.26,9.84,4.48,1.83.12,3.69-.08,5.46-.62,1.76-.55,3.43-1.41,4.88-2.55,2.91-2.25,4.96-5.6,5.63-9.23.68-3.52.03-7.28-1.77-10.4l11.82-10.27,10.13.82,5.81.47,2.9.23,1.06.08c.48.04.96,0,1.43-.08.94-.17,1.83-.59,2.56-1.2l9.02-8.01,4.79-4.25,4.35-3.87c.75-.65,1.08-1.29,1.28-1.83l.13-.4.06-.35c.05-.25.03-.43.04-.63.01-.22-.03-.35-.04-.53ZM76.79,80.66c-.36,1.93-1.45,3.72-3.01,4.93-.78.61-1.66,1.07-2.6,1.36-.94.29-1.94.39-2.93.33-1.97-.12-3.86-.98-5.26-2.39-1.4-1.41-2.23-3.32-2.33-5.29-.12-1.98.5-3.97,1.75-5.51,1.23-1.55,3.03-2.62,4.97-2.95,1.32-.25,2.69-.13,3.96.28l-1.88,1.64c-2.08,1.81-1.22,3.16.06,4.64,1.28,1.48,2.5,2.52,4.58.71l2.34-2.04c.49,1.36.62,2.85.35,4.29ZM113.61,55.78l-17.9-1.44,3.02-18.47,12.54-10.29-.62,12.77c-.03.49-.02.97.05,1.41.08.44.19.83.36,1.23.34.79.91,1.52,1.61,2.05.71.53,1.44.86,2.4,1,.47.07.96.08,1.45.12l1.11.08,5.81.42,2.48.18-12.32,10.95Z"/>
  <path class="cls-1" d="M45.07,60.39c1.96-2.6,4.34-4.88,6.97-6.76,2.66-1.84,5.59-3.26,8.66-4.11,3.08-.81,6.28-1.12,9.44-.77,3.16.35,6.26,1.29,9.16,2.72.6.26,1.07.45,1.51.48.43.04.8-.05,1.14-.23.67-.36,1.19-1.08,1.7-1.92.51-.84.92-1.62.85-2.4-.04-.39-.19-.78-.52-1.16-.33-.38-.81-.8-1.55-1.13-3.58-1.76-7.5-2.96-11.54-3.4-4.04-.44-8.16-.06-12.07.99-3.9,1.08-7.57,2.87-10.85,5.15-3.26,2.32-6.16,5.11-8.55,8.29-2.38,3.19-4.32,6.71-5.64,10.47-1.31,3.76-2.07,7.74-2.15,11.74-.1,7.99,2.21,15.92,6.73,22.55,1.15,1.63,2.4,3.21,3.8,4.66,1.42,1.43,2.91,2.8,4.57,3.96,1.65,1.18,3.39,2.24,5.24,3.08.91.46,1.87.8,2.82,1.17.48.17.97.31,1.45.47l.73.23.74.18,1.48.35,1.5.25.75.12.76.07,1.51.14c2.02.08,4.04.08,6.02-.18,3.98-.44,7.83-1.51,11.42-3.02,3.57-1.47,7.12-3.48,10.22-6.07.4-.31.76-.66,1.14-1.01.37-.35.76-.68,1.1-1.05.7-.74,1.41-1.47,2.03-2.28.67-.77,1.23-1.62,1.82-2.45.54-.86,1.09-1.72,1.55-2.63,1.93-3.58,3.11-7.5,3.7-11.42.59-3.93.59-7.88.12-11.78-.2-1.58-.78-2.39-1.5-2.72-.73-.33-1.61-.21-2.56.04-.95.25-1.8.49-2.34,1-.55.5-.8,1.25-.63,2.57.8,6.55-.04,13.4-3.04,18.98-.36.71-.79,1.37-1.21,2.04-.47.64-.89,1.3-1.42,1.9-.98,1.24-2.12,2.35-3.33,3.38l-.93.75c-.31.26-.65.47-.98.7-.33.22-.65.48-1,.68l-1.04.63-.52.31-.55.28-1.09.56c-.74.36-1.52.68-2.28,1.03-3.07,1.3-6.27,2.16-9.49,2.52-1.61.22-3.21.2-4.81.15l-1.19-.11-.59-.06-.59-.1-1.17-.19-1.16-.28-.58-.14-.57-.18c-.38-.12-.76-.23-1.13-.36-.73-.3-1.48-.55-2.19-.91-1.44-.65-2.8-1.49-4.1-2.41-1.31-.91-2.49-2-3.62-3.14-1.12-1.15-2.12-2.42-3.05-3.74-3.65-5.34-5.58-11.93-5.49-18.41.07-3.23.68-6.45,1.75-9.51,1.08-3.07,2.67-5.95,4.62-8.56Z"/>
  <path class="cls-1" d="M122.67,76.73c-.05-.26-.12-.49-.19-.71-.13-.44-.28-.82-.43-1.15-.31-.65-.66-1.08-1.03-1.34-.76-.53-1.64-.43-2.59-.21-.95.21-1.8.51-2.31,1.26-.25.38-.42.86-.48,1.52-.03.33-.03.69,0,1.11.01.21.04.43.07.66.02.23.04.48.08.74.75,5.15.78,10.34-.12,15.33l-.42,1.85c-.07.31-.13.62-.21.92l-.28.9c-.19.6-.35,1.21-.56,1.8l-.68,1.76c-.2.6-.51,1.15-.77,1.72-.27.57-.52,1.15-.85,1.68l-.92,1.65-1.04,1.58c-1.44,2.07-3.03,4.05-4.87,5.82-1.82,1.78-3.8,3.42-5.91,4.9-4.25,2.91-8.95,5.26-13.89,6.88-2.47.82-4.99,1.47-7.52,1.91-.63.12-1.26.21-1.89.29-.63.1-1.26.14-1.88.2-.63.07-1.24.06-1.85.1l-2.03.02c-5.34.03-10.61-.38-15.71-1.48-5.1-1.07-9.98-2.88-14.37-5.44-2.17-1.32-4.22-2.8-6.1-4.48-.47-.42-.9-.88-1.36-1.31l-.68-.66-.62-.71c-.41-.48-.84-.94-1.24-1.42l-1.14-1.51c-.19-.25-.39-.5-.56-.76l-.51-.8-1.03-1.6-.91-1.68-.46-.84c-.15-.28-.27-.58-.4-.87l-.79-1.75-.2-.44-.17-.45-.33-.91-.67-1.81-.54-1.86c-1.44-4.98-2.18-10.22-2.44-15.52l-.08-1.99-.04-.99.02-.99c.03-1.31.02-2.63.09-3.94l.34-3.9c.19-1.29.41-2.57.61-3.85.99-5.08,2.67-10,5.24-14.41,2.55-4.41,5.91-8.32,9.85-11.57,3.95-3.24,8.53-5.74,13.34-7.62l1.83-.64.92-.32c.31-.1.62-.18.93-.27l1.87-.54,1.9-.44.95-.22.96-.17,1.92-.34c1.29-.15,2.57-.36,3.86-.43,1.29-.13,2.58-.13,3.87-.17,1.28.04,2.57.04,3.83.18,2.52.22,5.02.66,7.24,1.43.44.17.84.28,1.2.37.33.11.64.18.92.22.59.05.97.05,1.38-.08.8-.26,1.42-.91,1.99-1.7.57-.79,1.03-1.55.73-2.51-.15-.46-.51-1.05-1.14-1.53-.31-.25-.7-.51-1.15-.78-.45-.24-.98-.45-1.59-.68-3-1.04-5.99-1.54-8.97-1.8-1.49-.15-2.97-.17-4.45-.2-1.47.04-2.95.05-4.41.19-1.47.08-2.92.31-4.37.48l-2.16.38-1.08.2-1.07.25-2.14.5-2.11.61c-.35.1-.71.2-1.05.31l-1.04.36c-.69.24-1.39.47-2.08.73l-2.04.84-1.02.42-1,.48-1.99.96-1.94,1.07c-1.31.68-2.52,1.54-3.77,2.33-.62.4-1.2.87-1.8,1.3-.59.45-1.21.86-1.76,1.36-4.59,3.77-8.54,8.37-11.51,13.53-3,5.15-4.94,10.85-6.06,16.6-.23,1.45-.48,2.89-.68,4.34l-.38,4.35c-.07,1.45-.07,2.9-.1,4.35l-.02,1.09.04,1.08.09,2.15c.29,5.73,1.08,11.51,2.71,17.15l.62,2.11.76,2.08.38,1.04.19.52.23.51.92,2.03c.16.34.3.68.47,1.01l.53.98,1.07,1.96,1.21,1.89.61.94c.21.31.45.6.67.9l1.36,1.79c.48.58.99,1.13,1.48,1.7l.75.84.8.79c.54.52,1.06,1.06,1.62,1.56,2.24,2,4.68,3.77,7.24,5.31,5.16,3.02,10.78,5.07,16.49,6.27,5.71,1.23,11.52,1.67,17.23,1.64l2.12-.03c.76-.04,1.54-.04,2.28-.12.75-.07,1.5-.13,2.24-.24l1.11-.15,1.09-.19c2.91-.51,5.75-1.25,8.53-2.17,5.56-1.83,10.84-4.45,15.71-7.79,2.42-1.7,4.71-3.59,6.84-5.67,2.14-2.07,4.04-4.41,5.75-6.87l1.24-1.88,1.11-1.97c.39-.65.69-1.34,1.01-2.02.31-.69.67-1.35.92-2.06l.81-2.11c.26-.71.45-1.43.68-2.15l.33-1.08c.1-.36.17-.73.26-1.09l.49-2.19c1.08-5.89,1.02-11.89.17-17.67-.04-.29-.08-.57-.13-.83Z"/>
</svg>