<?xml version="1.0" encoding="UTF-8"?>
<svg id="Layer_1_copy_3" data-name="Layer 1 copy 3" xmlns="http://www.w3.org/2000/svg" viewBox="0 0 150 150">
  <defs>
    <style>
      .cls-1 {
        fill: #191919;
      }
    </style>
  </defs>
  <path class="cls-1" d="M74.19,45.49l-.17-1.01-.04-.23-.03-.15-.06-.29c-.07-.39-.17-.78-.26-1.17-.21-.79-.42-1.58-.75-2.42-.32-.83-.69-1.68-1.28-2.58-.14-.22-.29-.44-.48-.68-.18-.23-.41-.54-.65-.76-.24-.24-.5-.48-.75-.7-.27-.2-.55-.4-.84-.59-.59-.34-1.21-.64-1.88-.79-.17-.04-.33-.09-.5-.12l-.51-.04-.51-.04h-.13s-.03-.01-.03-.01c0-.03-.02,0-.03-.02h-.06s-.26,0-.26,0l-12.15.05v-8.45c1.26-.17,2.51-.4,3.77-.71,2.59-.65,5.2-1.63,7.68-3.23.51-.32-.46-1.78-1.7-3.54-1.24-1.77-2.28-3.18-2.58-3-1.48.96-3.32,1.7-5.29,2.19-1.98.48-4.07.75-6.17.82-2.1.07-4.22-.04-6.23-.39l-1.47-.3-1.38-.4-.62-.24c-.21-.08-.43-.15-.58-.25-.17-.09-.34-.18-.52-.26-.1-.04-.15-.09-.21-.13l-.18-.12c-.18-.11-1.33,1.22-2.72,2.87-1.38,1.65-2.47,3.03-1.87,3.46l.55.38c.18.13.37.25.54.33l1.06.54c.36.19.7.31,1.04.44l1.03.39c.67.21,1.34.39,2.01.58l1.98.41c1.36.23,2.7.38,4.04.45v11.32s0,.03.02.04c0,.24,0,.48,0,.73,0,2.16.16,3.91,1.93,3.9l17.98-.08.13.19c.17.24.36.66.54,1.11.18.45.33.98.47,1.52l.26,1.2-5.01.18-5.55.22c-3.7.15-7.38.3-11.06.41-3.68.11-7.35.2-10.99.21-1.81,0-3.62-.02-5.38-.1-.44-.01-.86-.05-1.3-.07l-.98-.08.07-.32c.1-.38.21-.77.34-1.14.27-.75.61-1.48.98-2.05.37-.58.79-1.02,1.03-1.16.12-.08.19-.11.2-.11.06,0-.13,0,.61,0h3.21s6.42.04,6.42.04c1.77,0,1.93-1.74,1.94-3.9,0-2.16-.13-3.91-1.88-3.92l-6.35-.03h-3.18s-.4-.01-.4-.01h-.64c-.24.01-.49.03-.76.07-.26.04-.52.07-.77.14-1.03.23-1.93.68-2.7,1.18-.77.51-1.41,1.08-1.94,1.66-.54.59-.99,1.19-1.37,1.79-.78,1.21-1.34,2.43-1.79,3.68-.22.63-.41,1.26-.57,1.91l-.11.49c-.02.06-.04.23-.07.35l-.07.39c-.05.26-.08.52-.11.79-.03.26-.07.53-.07.78-.14,2.1.31,4.09,1.75,5.4.36.22.67.46,1.04.65l.57.27c.19.09.37.19.6.23.43.11.86.22,1.3.32l1.37.19c.22.03.48.07.64.08l.38.03h0c-.01,8.9,0,17.8.06,26.71.04,4.71.09,9.43.18,14.16.05,2.37.1,4.73.18,7.12.04,1.19.09,2.39.15,3.6l.05.92.05.75.08.88c.02.29.06.58.11.86.04.29.08.57.15.84l.1.41c.04.13.1.24.15.36l.32.71c.09.13.18.27.29.4l.08.1.02.02s.05-.03.05-.02h.01s.04.06.04.06l.17.2c.11.13.23.25.36.36.14.1.27.2.42.29.58.36,1.27.6,2.01.78.73.16,1.53.29,2.25.37l.78.09.63.06c1.65.14,3.25.21,4.84.27,2.3.08,4.58.1,6.86.1l.35,14.48h0s.29.34.71.9c.43.57,1.02,1.34,1.67,2.2,1.31,1.71,2.41,3.08,2.99,2.63l2.54-1.96-.44-18.4c1.42-.05,2.84-.11,4.27-.2,1.59-.1,3.19-.22,4.84-.4.41-.05.83-.1,1.26-.16l.53-.08.57-.1c.38-.06.75-.15,1.13-.23.73-.19,1.44-.43,2.04-.79.3-.18.59-.37.81-.63l.35-.39c.17-.09.23-.26.34-.38.21-.46.46-.9.6-1.43.14-.52.2-1.09.27-1.66.04-.56.1-1.17.12-1.7l.04-.92c.04-1.21.06-2.39.07-3.56.02-2.35.01-4.68,0-7.01-.04-4.65-.13-9.29-.23-13.92-.21-9.26-.49-18.51-.81-27.76,0-.08-.01-.16-.02-.23.45-.18.87-.41,1.26-.69,1.06-.73,1.91-1.77,2.4-2.96.25-.59.41-1.23.48-1.87l.04-.49-.03-.5c-.03-.33-.02-.67-.08-1ZM63.37,101.84c-.01,1.13-.03,2.27-.07,3.37l-.03.84-1.09.14c-1.43.16-2.92.27-4.42.37-3.01.18-6.05.27-9.1.31-3.04.04-6.1.02-9.11-.08-1.5-.05-3-.12-4.44-.25l-.93-.09-.06-.97c-.06-1.13-.11-2.29-.15-3.45-.08-2.32-.13-4.66-.18-7-.09-4.68-.14-9.37-.18-14.07-.07-8.8-.08-17.6-.06-26.41.05,0,.09,0,.14,0,3.77,0,7.5-.1,11.23-.21,3.72-.12,7.43-.26,11.14-.41l5.54-.22.73-.03c.12,3.53.23,7.07.34,10.6l-6.25.17-4.93.15-2.48.09c-.84.03-1.64.06-2.56.12-.38.02-.28,1.77-.11,3.92.17,2.15.33,3.9.61,3.88.72-.04,1.56-.07,2.36-.11l2.44-.09,4.9-.15,6.24-.17c.08,3.03.17,6.05.24,9.07.01.6.02,1.2.04,1.8-2.4.02-4.79.04-7.19.08l-4.53.1c-1.53.05-3.02.1-4.66.21-.33.02-.21,1.77-.03,3.92.18,2.15.36,3.89.62,3.87,1.35-.1,2.83-.15,4.29-.19l4.43-.1c2.39-.04,4.8-.06,7.2-.08.02,1.4.04,2.79.06,4.19.02,2.29.03,4.59,0,6.86Z"/>
  <path class="cls-1" d="M131.94,123.99v-1.73s-.03-3.45-.03-3.45l-.14-27.61-.02-3.45v-1.73s-.01-.43-.01-.43v-.22s-.01-.35-.01-.35c0-.48-.08-.97-.16-1.45-.19-.96-.53-1.86-.92-2.63-.39-.78-.82-1.42-1.24-2-.84-1.16-1.62-2.02-2.31-2.87-1.37-1.66-2.41-3.18-3.15-4.89-.72-1.65-1.17-3.44-1.4-5.35h1.7c.62,0,.67-1.75.67-3.91s-.05-3.91-.67-3.91h-36.71c-.62,0-.67,1.75-.67,3.91s.05,3.91.67,3.91h2.49c-.28,1.97-.93,3.91-1.9,5.82-.97,1.93-2.25,3.81-3.69,5.75l-1.11,1.49c-.39.54-.77,1.02-1.17,1.61-.2.29-.4.56-.6.87l-.61.98c-.41.73-.83,1.48-1.16,2.6l-.12.39-.06.34-.11.68c-.09.5-.09.79-.13,1.16l-.08,1.05-.05.99c-.04.66-.06,1.31-.07,1.95l-.04,1.92c-.08,5.09-.02,10.11.05,15.14l.14,7.53.2,7.83c.05,2.28,1.31,4.48,3.27,5.59l2,1.12c.29.17.59.31.89.44l.9.39c2.41,1.08,4.89,1.73,7.36,2.28,4.95.97,9.88,1.16,14.73.93,4.85-.28,9.63-.97,14.37-2.11l1.77-.46c.3-.07.59-.17.89-.25l1.06-.32c2.22-.54,4.05-2.19,4.79-4.31.19-.53.31-1.08.36-1.64.02-.28.03-.57.03-.86v-.73ZM87.04,110.91l-.05-2.47c-.06-3.62-.1-7.23-.09-10.83h37.09l.07,13.3h-37.02ZM87.15,88.2c.02-.26.04-.59.07-.71l.03-.24v-.12s.04-.05.04-.05c.01-.08.19-.44.39-.8l.39-.62c.14-.21.31-.45.47-.67.3-.44.7-.95,1.04-1.42l1.14-1.52c1.54-2.07,3.11-4.34,4.39-6.88,1.29-2.53,2.27-5.37,2.68-8.33.05-.37.07-.71.07-1.01h16.87c0,.22,0,.45.04.71.28,2.6.93,5.26,2.03,7.79,1.09,2.53,2.71,4.83,4.27,6.71.76.93,1.51,1.79,2.02,2.5.54.73.74,1.22.81,1.54,0,.08.03.16.02.26v.08s0,.22,0,.22v.43s.01,1.73.01,1.73v2.02s-36.89,0-36.89,0l.04-.76.07-.82ZM123.52,124.34c-.26.07-.51.16-.77.22l-1.57.4c-4.22,1.02-8.58,1.65-12.92,1.89-4.34.21-8.67.02-12.77-.79-2.02-.45-4.02-.97-5.81-1.79l-.68-.29c-.23-.09-.45-.19-.66-.32l-.63-.35-.32-.18-.07-.04s-.02,0-.02,0l-.11-4.37h36.9v.13s.03,5.31.03,5.31c0,0,0,0,0,0l-.59.18Z"/>
</svg>