<?xml version="1.0" encoding="UTF-8"?>
<svg id="Layer_1_copy_3" data-name="Layer 1 copy 3" xmlns="http://www.w3.org/2000/svg" viewBox="0 0 150 150">
  <defs>
    <style>
      .cls-1 {
        fill: #191919;
      }
    </style>
  </defs>
  <path class="cls-1" d="M137.29,65.15c-.25-4.58-.65-9.17-1.56-13.82l-.17-.87-.2-.88c-.13-.58-.27-1.17-.45-1.76l-.25-.88c-.09-.3-.19-.59-.29-.89l-.19-.58c-.08-.25-.18-.51-.29-.77l-.63-1.54-.32-.77-.08-.19s-.02-.07-.05-.09l-.1-.02-.41-.08-1.64-.33-.81-.16-.84-.11-.51-.07c-.16-.02-.31-.03-.46-.05-1.21-.12-2.39-.19-3.55-.24-4.65-.17-9.17-.06-13.72.13l-.99.05c-.56.04-1.12.04-1.67.11l-2.14,1.51-2.74,1.95-5.48,3.89-9.64,6.85v-.26c-.12-6.2-.23-12.38-.47-18.62-.09-2.2-.53-3.4-1.17-4.02-.64-.62-1.46-.64-2.36-.57,0,0-.01,0-.02,0-.03,0-.05,0-.08,0-2.22,0-4.31.06-6.45.1l-6.38.15-5.07.13-10.5.22-12.8.27-6.4.13-1.6.03-.72.02c-.25,0-.5,0-.76.03-.52.05-1.01.16-1.47.35-.93.37-1.75,1.01-2.34,1.82-.58.8-.91,1.72-1,2.76-1.04-.58-2.1-1.17-3.22-1.76-1.14-.59-2.33-1.19-3.69-1.69l-.63-.23c-.28-.1-.58-.16-.86-.23-.58-.14-1.16-.31-1.73-.34l-.86-.1c-.28,0-.55.01-.82.02h-.41c-.14.02-.28.02-.38.07l-.7.23c-.12.04-.23.08-.35.12-.11.05-.21.11-.32.18-.21.13-.43.29-.62.47-.38.35-.68.77-.89,1.15-.21.39-.38.87-.47,1.42-.1.55-.04,1.19-.04,1.79l.05,4.43.08,7.28.08,7.28.04,3.94c.02,1.21,0,2.44.06,3.62.06.57.22,1.05.4,1.45.19.41.4.69.63.98.24.29.58.6.99.86.2.13.42.24.64.33l.22.08.24.07c.15.05.34.08.52.11.08.03.22-.02.33-.03l.35-.06.71-.13.35-.06c.12-.03.23-.02.37-.11l5.11-2.64,3.41-1.77c-.12,2.45-.23,4.9-.34,7.35-.25,5.57-.47,11.15-.65,16.74-.17,5.59-.32,11.17-.31,16.83,0,1.42.03,2.84.08,4.29l.05,1.1.03.56.07.89c.12,1.37.33,2.8,1.02,3.75.17.24.36.46.6.66.22.19.44.34.7.47.51.27,1.18.38,1.86.43.69.05,1.38.07,2.08.09l1.1.02c1.42.03,2.82.04,4.22.04,5.61.02,11.19-.04,16.78-.12,5.59-.09,11.17-.22,16.77-.43,2.8-.11,5.6-.23,8.44-.42l2.14-.16,1.09-.1.89-.1c.34-.04.69-.08,1.03-.14.68-.1,1.35-.23,1.94-.46.58-.23,1.06-.54,1.44-.94.09-.1.2-.22.28-.34.07-.09.12-.2.19-.29.07-.08.11-.22.15-.36l.13-.41.13-.41c0-.16-.03-.35-.04-.52l-.09-1.05-.23-15.46.7.52,5.24,3.86c1.75,1.28,3.52,2.55,5.3,3.82.89.63,1.8,1.26,2.72,1.89.48.31.92.62,1.43.94l.77.48c.28.17.69.39,1.12.6.23.08.47.17.7.24.24.07.51.12.69.16.33.05.68.11.96.13.3.04.58.06.86.08.28.02.55.04.82.05,1.07.06,2.1.08,3.12.09,2.04.02,4.06,0,6.07-.05,2.01-.04,4.01-.11,6.01-.18l3-.12,5.28-.26c.35-1.05.7-2.1,1.02-3.15.16-.52.33-1.06.44-1.59l.21-.93c.24-1.17.46-2.33.63-3.48.36-2.3.63-4.58.86-6.86.44-4.56.71-9.1.82-13.66.12-4.55.09-9.12-.14-13.7ZM27.12,57.37l-7.81,4.04-.11-10.61-.11-10.12.23.08c.92.34,1.91.82,2.92,1.35,1.85.98,3.8,2.12,5.87,3.19l-.55,10.1c-.03.62-.06,1.25-.09,1.87-.11,0-.22.03-.33.09ZM81.19,110.3l-2.02.15c-2.72.18-5.49.3-8.25.41-5.53.21-11.08.33-16.63.43-5.55.09-11.11.14-16.64.12-1.38,0-2.76-.02-4.13-.04l-.99-.02-.04-.64-.05-.99c-.05-1.33-.07-2.7-.08-4.07-.02-5.49.13-11.04.3-16.59.18-5.55.4-11.1.64-16.66.25-5.56.51-11.11.8-16.67l.86-15.93,23.63-.62,7.81-.2,14.73-.31c.19,5.54.3,11.12.4,16.7l.27,18.53.23,18.55.13,9.28.08,4.65.09,3.8-1.15.11ZM103.68,99.1c-1.74-1.23-3.48-2.49-5.22-3.76l-5.2-3.83-4.03-3v-24.09c0-.75-.09-1.33-.24-1.78.46-.13.98-.4,1.59-.83l10.96-7.79,4.97-3.53c.04,1.16.07,2.33.09,3.51.04,2.37.05,4.75.05,7.13,0,4.77-.04,9.55-.1,14.33-.11,8.43-.28,16.86-.48,25.29-.8-.55-1.6-1.1-2.4-1.67ZM130.87,78.68c-.11,4.41-.37,8.82-.79,13.18-.22,2.18-.48,4.35-.81,6.48-.16,1.07-.36,2.11-.57,3.13l-.16.72-3.62.15c-1.97.07-3.94.13-5.91.18-1.96.04-3.92.07-5.85.05-.18,0-.37,0-.55-.01.22-9,.4-17.99.51-27,.06-4.8.11-9.61.1-14.42,0-2.41-.01-4.82-.06-7.24-.02-1.21-.05-2.43-.1-3.66-.02-.62-.05-1.24-.09-1.87-.02-.23-.03-.47-.05-.7,3.79-.14,7.59-.2,11.29-.06,1.07.04,2.13.11,3.15.21.13.01.26.02.38.04l.32.04.07.23c.08.24.16.47.23.71l.2.74c.14.49.27.99.38,1.5l.18.76.15.78c.82,4.15,1.21,8.51,1.45,12.88.22,4.38.25,8.79.13,13.19Z"/>
</svg>