<?xml version="1.0" encoding="UTF-8"?>
<svg id="Layer_1_copy_3" data-name="Layer 1 copy 3" xmlns="http://www.w3.org/2000/svg" viewBox="0 0 150 150">
  <defs>
    <style>
      .cls-1 {
        fill: #191919;
      }
    </style>
  </defs>
  <path class="cls-1" d="M137.5,80.87v-20.35c0-.22,0-.52,0-.78-.01-.53-.1-1.05-.25-1.54-.31-.99-.87-1.89-1.64-2.59-.77-.7-1.71-1.18-2.76-1.4l-1.65-.44-3.09-.82-4.5-1.2-.04-.27c0-.07-.05-.39-.1-.6-.09-.47-.16-.95-.28-1.4-.14-.44-.34-.86-.6-1.25-.5-.78-1.2-1.43-2.01-1.87-.82-.44-1.72-.67-2.69-.68l-64.82.35c-.26,0-.5,0-.74.02l-8.42.02h-6.98s-1.74.02-1.74.02h-1.13c-.58,0-1.16.02-1.7.16-2.18.52-3.91,2.41-4.18,4.69l-.16,1.39-11.37,1.85c-.46.06-.87.21-1.26.37-.37.17-.73.38-1.06.65-.66.52-1.19,1.24-1.49,2.01-.15.39-.26.78-.31,1.22-.05.44-.04.9-.04,1.36v23.68c0,.45,0,.91,0,1.37.02.45.1.88.23,1.27.26.8.74,1.55,1.37,2.12.64.57,1.37.96,2.28,1.16l1.9.46,9.76,2.36.24.62c.06.15.12.31.19.45l.23.43c1.2,2.32,3.03,4.13,4.97,5.44,1.96,1.32,4.04,2.21,6.14,2.85,2.1.63,4.23,1.01,6.35,1.21,4.24.38,8.49.07,12.62-.95,4.12-1,8.17-2.72,11.7-5.48l.66-.52c.22-.18.42-.38.63-.56.41-.39.84-.75,1.22-1.19l.58-.63.29-.32.27-.34.53-.68.26-.34.07-.09.03-.04h0s0,0,.01-.01c.04-.05.06-.06.14-.07.08,0,.14.02.2.08,0,0,0,0,.01.01,0,0,0,0,.06.06l.27.29.55.58c.37.38.76.75,1.14,1.12l1.19,1.07c.41.34.81.69,1.23,1.01,1.66,1.31,3.43,2.49,5.28,3.51,3.7,2.04,7.73,3.52,11.97,4.21,2.12.35,4.29.49,6.48.39,2.19-.11,4.4-.48,6.54-1.16,2.15-.66,4.21-1.69,6.08-2.99.45-.29.98-.75,1.47-1.16.26-.21.46-.44.68-.67l.64-.69c.37-.48.75-.97,1.08-1.46.3-.5.64-1,.89-1.51.78-1.46,1.35-2.93,1.82-4.41l5.86-1.74,3.06-.91.77-.23.4-.12c.25-.08.51-.14.76-.24.98-.38,1.86-1.01,2.52-1.82.66-.81,1.11-1.79,1.28-2.83.05-.26.07-.52.08-.79,0-.13.01-.26,0-.4v-.3ZM19.07,83.26v-22.82l8.26-1.35c-.12,1.34-.23,2.68-.33,4.02-.28,3.92-.47,7.86-.51,11.82-.02,3.37.05,6.77.36,10.2l-7.02-1.69-.76-.18ZM117.89,81.55c-.23,1.81-.54,3.6-.98,5.3-.44,1.69-1.01,3.31-1.76,4.7-.17.36-.4.65-.58.99-.2.31-.43.58-.64.88l-.35.37c-.12.12-.22.26-.35.35-.26.2-.44.41-.81.64-1.31.91-2.75,1.64-4.31,2.11-1.55.49-3.19.77-4.87.86-1.68.07-3.4-.04-5.1-.32-3.41-.55-6.77-1.78-9.85-3.48-1.54-.85-3.01-1.83-4.39-2.91-.35-.27-.68-.56-1.01-.84l-.97-.88c-.31-.31-.63-.61-.93-.92l-.45-.47-.22-.24-.19-.2-.24-.24c-1.34-1.28-3.24-1.98-5.1-1.85-1.86.09-3.71,1.05-4.87,2.52l-.88,1.14-.18.24-.2.22-.4.44c-.25.31-.57.56-.86.84-.15.13-.29.28-.45.41l-.48.38c-1.29,1.01-2.74,1.88-4.29,2.59-1.55.71-3.21,1.26-4.91,1.68-3.39.84-6.98,1.1-10.45.79-1.73-.16-3.44-.47-5.05-.95-1.61-.48-3.12-1.15-4.37-2.01-1.26-.85-2.23-1.88-2.82-3.01l-.12-.21c-.03-.07-.05-.15-.08-.22-.05-.15-.11-.29-.17-.44-.11-.3-.15-.62-.24-.92-.12-.9-.28-1.78-.37-2.7-.41-3.65-.52-7.42-.49-11.2.03-3.78.22-7.59.49-11.4.14-1.9.3-3.81.49-5.71l.29-2.85.27-2.39,23.29-.04c.42,0,.8-.02,1.15-.04l58-.31.15,1.17c.24,1.88.45,3.77.62,5.66.35,3.78.57,7.57.62,11.34.04,3.76-.09,7.52-.55,11.15ZM130.93,70.49v10.48s-6.6,1.96-6.6,1.96c.02-.18.05-.36.08-.54.52-4.06.64-8.07.6-12.05-.05-3.89-.27-7.75-.62-11.59l6.54,1.74v10Z"/>
</svg>