<?xml version="1.0" encoding="UTF-8"?>
<svg id="Layer_1_copy_3" data-name="Layer 1 copy 3" xmlns="http://www.w3.org/2000/svg" viewBox="0 0 150 150">
  <defs>
    <style>
      .cls-1 {
        fill: #191919;
      }
    </style>
  </defs>
  <path class="cls-1" d="M132.06,129.64c-.08-.98-.24-1.88-.74-2.54l-40.12-57.74,40.44-45.17c.7-.78-.55-2.02-2.15-3.46s-2.98-2.54-3.67-1.76l-39.16,43.74-16.12-23.2-8.34-12-4.17-6-2.09-3-.44-.63c-.17-.25-.35-.5-.54-.73-.38-.46-.82-.85-1.32-1.17-1-.65-2.15-.99-3.36-.97l-16.48.41-9.62.24c-.32.02-.66,0-.97.05l-.47.05c-.15.02-.28.07-.42.1-.14.04-.28.07-.41.11l-.36.15c-.12.05-.24.1-.35.15l-.29.17c-.2.12-.39.22-.56.36-.17.13-.36.28-.53.46-.36.34-.69.76-.96,1.23-.54.93-.78,2.05-.75,2.89.03.85.23,1.92.95,3.04l36.87,55.07,4.95,7.4-42.76,42.32c-.73.73.44,2.03,1.96,3.57,1.52,1.54,2.82,2.72,3.55,1.99l41.69-41.26,8.49,12.69,8.94,13.35,4.47,6.68,2.23,3.34.83,1.23c.39.54.85,1.01,1.37,1.4,1.05.79,2.34,1.23,3.67,1.26l8.32.16,7.95.11c5.3.05,10.59.09,15.97,0,1.07-.02,1.91-.15,2.55-.38.63-.22,1.1-.53,1.41-.91.61-.75.62-1.73.53-2.8ZM111.68,125.91l-7.9-.11-7.52-.14L27.79,23.39l21.64-.54,24.75,35.62c.04.13.1.26.2.39l46.62,67.09c-3.1,0-6.21-.02-9.32-.05Z"/>
</svg>