<?xml version="1.0" encoding="UTF-8"?>
<svg id="Layer_1_copy_3" data-name="Layer 1 copy 3" xmlns="http://www.w3.org/2000/svg" viewBox="0 0 150 150">
  <defs>
    <style>
      .cls-1 {
        fill: #191919;
      }
    </style>
  </defs>
  <path class="cls-1" d="M22.3,43.17l.27-19.76,21.74-.28c.81-.01.86-1.6.84-3.55s-.12-3.54-.93-3.53l-28.65.36-.37,26.66c-.01.81,1.57.91,3.53.93,1.96.03,3.54-.02,3.56-.84Z"/>
  <path class="cls-1" d="M105.22,22.45l22.16-.27-.27,22.16c-.01.87,1.58.96,3.53.99s3.54-.03,3.56-.9l.36-29.43-29.43.36c-.87.01-.92,1.6-.9,3.56.02,1.96.12,3.54.99,3.53Z"/>
  <path class="cls-1" d="M131.3,108.7c-1.95-.12-3.54-.15-3.58.58l-1.08,18.09-18.74.54c-.73.02-.75,1.61-.69,3.57.06,1.96.17,3.54.89,3.52l25.23-.73,1.47-24.56c.04-.73-1.54-.88-3.49-1Z"/>
  <path class="cls-1" d="M45.9,127.57l-22.59-.83.28-26.88c0-.95-1.58-1.05-3.53-1.07-1.96-.02-3.54.04-3.55.99l-.36,33.78,29.49,1.08c.95.03,1.09-1.55,1.16-3.5.07-1.96.05-3.54-.9-3.58Z"/>
  <path class="cls-1" d="M116.98,50.05c0-.34-.04-.64-.09-.91,0-.05.02-.11.02-.16.01-.14.02-.51-.02-.78-.03-.29-.06-.35-.1-.49-.13-.49-.35-1.14-1.09-1.87-.39-.36-.92-.73-1.75-.99l-2.47-.78-7.54-2.37-9.89-3.11-21.06-6.62-32.01,14.26c-2.35,1.05-1.91,2.59-1.12,4.38-1.96.03-3.54.3-3.5,3.11l.65,42.38,42.13,20.16,38.92-18.55-1.08-47.66ZM73.42,39.54l30.74,9.67-27.73,12.4-27.52-11.16,24.5-10.92ZM43.49,55.9l29.6,12,2.18,38.65-31.24-14.95-.55-35.7ZM82.39,106.86l-2.21-39.16,16.7-7.47,9.46-4.23,3.64-1.63.88,38.92-28.48,13.58Z"/>
</svg>