<?xml version="1.0" encoding="UTF-8"?>
<svg id="Layer_1_copy_3" data-name="Layer 1 copy 3" xmlns="http://www.w3.org/2000/svg" viewBox="0 0 150 150">
  <defs>
    <style>
      .cls-1 {
        fill: #191919;
      }
    </style>
  </defs>
  <path class="cls-1" d="M74.32,48.37l.6-16.57.29-8.29.06-1.64c.01-.68.08-1.39.03-2.05-.06-.65-.25-1.21-.49-1.67-.23-.46-.62-.98-1.08-1.36-.46-.39-.86-.62-1.43-.83-.55-.21-1.25-.28-1.93-.29l-3.11-.12-8.32-.33-5.34-.21c-.68-.03-1.33.08-1.85.27-.26.1-.49.2-.73.34-.24.14-.49.32-.72.52-.23.2-.44.43-.61.65-.17.23-.3.44-.43.69-.25.49-.45,1.1-.49,1.79l-3.44,55.58c-.01.18-.02.35-.01.52-.73,11.89-1.56,23.78-2.25,35.74-.18,3.3-.36,6.6-.47,9.93-.06,1.67-.1,3.34-.09,5.06l.02,1.3.02.73c.02.41.03.81.07,1.22.11,1.64.44,3.21,1.44,4.19.28.24.59.41.86.61.14.1.29.18.45.26l.23.12c.08.03.18.05.27.08.18.05.36.1.55.14l.59.09c.38.07.8.07,1.2.11.41.03.82.03,1.23.04h.79s1.3,0,1.3,0c1.71-.03,3.39-.1,5.07-.19,1.68-.09,3.35-.21,5.02-.35,1.53-.13,3.05-.28,4.63-.48.09,0,.17-.02.25-.03.07,0,.14-.02.21-.03.2-.03.37-.09.52-.18.82-.36,1.38-1.18,1.5-2.92l4.47-65.95,1.12-16.49ZM67.67,31.48l-.59,16.45-1.12,16.48-4.26,62.75c-1.83.16-3.68.29-5.52.4-1.61.09-3.21.16-4.79.18h-1.17s-.44,0-.44,0v-.51s-.03-1.16-.03-1.16c0-1.57.04-3.18.09-4.8.11-3.24.28-6.5.46-9.77.75-13.08,1.7-26.21,2.48-39.36,0-.07,0-.14,0-.21l3.07-49.58,11.11.44,1.02.04v.42s-.31,8.22-.31,8.22Z"/>
  <path class="cls-1" d="M101.35,45.56c-.26-.35-.67-.73-.99-.94-.61-.41-1.5-.79-2.64-.74l-9.44.44-4.92.23-1,.05c-.32.04-.62.1-.89.19-.27.09-.53.2-.75.33-.22.13-.42.25-.64.44-.22.18-.43.4-.6.61-.16.21-.29.4-.42.64-.25.47-.45,1.04-.5,1.7l-3.14,41.81-1.52,20.25-.76,10.12-.43,5.68c-.06.84-.17,1.72-.01,2.45.07.37.17.7.3,1.01.13.31.31.64.53.94.43.61,1.04,1.12,1.63,1.45.59.31,1.32.56,2.17.6l12.47.5,1.68.07,1.41.06c.47.03.93.02,1.36-.05.85-.16,1.5-.43,2.19-.95.67-.51,1.2-1.21,1.49-1.89.16-.35.29-.76.36-1.2.07-.45.08-.92.1-1.39l.1-2.16.13-2.81,1.05-22.51c.03-.24.06-.49.08-.77l1.3-27.05.65-13.53.32-6.76.13-2.62c.02-.56.07-1.13.07-1.68,0-.55-.11-1.04-.27-1.46-.17-.42-.34-.74-.59-1.07ZM91.38,122.67l-.16,3.46-1.13-.05-10.05-.41,5.56-73.97.94-.04,1.98-.09,6.29-.29-2.3,48.1c-.03.24-.06.49-.08.78l-1.05,22.51Z"/>
  <path class="cls-1" d="M135.81,29.01c-.02-.3,0-.64-.06-.91l-.2-.83c-.1-.24-.17-.5-.29-.73-.13-.21-.25-.42-.44-.61-.36-.43-.76-.71-1.24-.96-.48-.24-1.05-.4-1.65-.5-.6-.1-1.24-.15-1.87-.19l-.95-.04-.7-.02c-1.35-.03-2.67-.02-3.98,0-2.62.04-5.2.13-7.78.24l-1.93.09-1.28.06c-.64.04-1.29.04-1.91.13-.62.1-1.14.29-1.62.55-.49.27-.97.64-1.36,1.07-.78.9-1.22,1.87-1.3,3.18l-2.39,51.05c-.03.71,0,1.3.06,1.8l-1.17,23.56-.65,13.08-.33,6.54-.13,2.7-.08,1.63c-.01.54.08,1.02.23,1.42.15.4.34.75.55,1.01.05.07.1.14.16.21.06.07.14.16.23.24.18.17.29.26.44.37.55.41,1.39.79,2.48.75l10.13-.44,4.76-.21c.69-.04,1.39-.04,2.07-.11.66-.1,1.21-.34,1.63-.63.11-.07.21-.14.31-.22.1-.08.22-.2.33-.3.1-.1.17-.19.25-.3.08-.1.16-.19.22-.32.13-.25.3-.46.37-.79l.14-.45.07-.23.03-.25,3.12-32.05,2.87-30.63c.92-10.22,1.85-20.42,2.56-30.72.09-1.29.17-2.58.23-3.9l.02-.5.03-.93c0-.63.05-1.29.01-1.9ZM128.5,31.98c-.06,1.24-.14,2.51-.23,3.77-.71,10.14-1.64,20.36-2.55,30.55l-2.87,30.59-2.84,29.15-10.02.44,2.31-46.35c.04-.75.01-1.37-.06-1.89l2.17-46.43c-2.27.11,5.68-.3,10.13-.35,1.25-.02,2.5-.02,3.71,0h.27s-.02.5-.02.5Z"/>
  <path class="cls-1" d="M38.34,77.32c-.47-.41-1.09-.69-1.65-.81-.14-.03-.29-.05-.42-.06-.15-.01-.28-.02-.24-.01h-.02s-.05,0-.05,0h-.39s-.77-.03-.77-.03c-.02,0-.03,0-.05,0-.26-.09-.57-.13-.93-.13l-7.18.04-1.8.02-1.47.02c-.55,0-1.15.03-1.74.06l-.44.02h-.22s-.19.06-.19.06l-.77.2c-.28.04-.45.19-.65.29-.1.06-.2.11-.29.17l-.25.2c-.19.15-.32.32-.45.47-.13.17-.26.35-.37.56-.22.42-.4.93-.44,1.53l-1.81,26.24-.85,12.33-.43,6.16-.18,2.6-.11,1.54c-.03.51.04.98.16,1.37.12.39.29.74.49,1,.17.26.44.56.69.75.51.42,1.27.83,2.3.87l9.73.23,5.33.13c.33,0,.66.02.98,0,.31-.02.61-.07.87-.16.53-.16.95-.42,1.28-.68l.13-.11.15-.14c.07-.08.15-.15.22-.24.14-.17.28-.36.4-.58.25-.44.44-1,.48-1.65l1.21-26.17.57-12.23.28-6.11.14-3.06.07-1.53v-.1s0-.31,0-.31c-.01-.42-.09-.89-.3-1.37-.2-.48-.54-.98-1.02-1.38ZM31.91,90.85l-.57,12.23-1.05,22.74-8.62-.2,2.9-42.03,7.68-.05-.06,1.19-.28,6.11Z"/>
</svg>