<svg width="42" height="42" viewBox="0 0 42 42" fill="none" xmlns="http://www.w3.org/2000/svg">
<rect width="42" height="42" fill="white"/>
<g clip-path="url(#clip0_13_1084)">
<path d="M30.2598 33C25.795 33 21.984 29.6474 21.5711 25.2055C21.5453 24.9521 21.5281 24.6819 21.5281 24.4201C21.5281 23.8459 21.5883 23.2716 21.7001 22.7058C21.7517 22.4778 21.812 22.2498 21.8722 22.0303C21.7087 21.8107 21.4937 21.6418 21.2442 21.5236C20.4871 21.1689 19.6011 21.3969 19.1193 22.0303C19.1881 22.2498 19.2484 22.4694 19.2914 22.6889C19.4118 23.2632 19.4634 23.8459 19.4634 24.4117C19.4634 24.6819 19.4548 24.9521 19.4204 25.2224C19.2828 26.6411 18.7752 28.026 17.9666 29.2083C15.2739 33.1267 9.82846 34.1654 5.83683 31.5137C1.85381 28.879 0.795679 23.5419 3.49691 19.6235L6.20675 14.7678C6.82614 13.7037 7.76383 12.8508 8.87357 12.3188C9.51016 11.0183 10.6285 9.97114 12.0049 9.43068C14.7836 8.32441 17.915 9.43068 19.3774 11.905C20.1258 11.7108 20.9087 11.7108 21.6571 11.905C22.3023 10.8156 23.2744 9.97114 24.4702 9.4729C27.3693 8.2653 30.7243 9.50668 32.1179 12.2428C33.3051 12.7579 34.2944 13.6277 34.9482 14.734L38.4409 21.4222C38.7162 22.14 38.8968 22.9001 38.9656 23.6601C39.4044 28.3638 35.8601 32.544 31.0598 32.9747C30.7931 33 30.5264 33.0084 30.2598 33.0084V33ZM20.5044 19.6742C21.0119 19.6742 21.5195 19.7839 22.0012 20.012C22.6894 20.3413 23.2486 20.8902 23.5841 21.5658L23.739 21.8867L23.6185 22.216C23.5239 22.4947 23.4379 22.7734 23.3776 23.0521C23.2916 23.4912 23.24 23.9557 23.24 24.4201C23.24 24.6312 23.2486 24.8339 23.2744 25.045C23.6271 28.8367 27.0424 31.6235 30.8964 31.2857C34.7503 30.9395 37.5978 27.5869 37.2451 23.8037C37.1935 23.1956 37.0559 22.6045 36.8408 22.0387L36.8064 21.9711L33.4341 15.5362C32.9438 14.7002 32.1351 14.0331 31.1802 13.6868L30.8361 13.5602L30.6899 13.2224C29.778 11.1196 27.2918 10.1316 25.1498 11.0267C24.1089 11.4574 23.3088 12.2597 22.8873 13.2815L22.5346 14.126L21.7001 13.7122C20.9603 13.349 20.0828 13.349 19.343 13.7122L18.5085 14.126L18.1558 13.2815C17.2784 11.1619 14.8094 10.14 12.6501 11.0014C11.6006 11.4236 10.7489 12.2512 10.3274 13.2815L10.1898 13.6108L9.85427 13.7459C8.95099 14.1091 8.19396 14.7678 7.71221 15.5953L4.96797 20.5102C2.76569 23.7192 3.60875 28.0091 6.80893 30.1372C10.0177 32.2653 14.3793 31.4293 16.5471 28.2878C17.2009 27.3336 17.6053 26.2273 17.7171 25.0873C17.7429 24.8677 17.7515 24.6566 17.7515 24.437C17.7515 23.9725 17.7085 23.5081 17.6139 23.0521C17.5536 22.7818 17.4762 22.5032 17.373 22.2329L17.2526 21.9036L17.4074 21.5827C18.001 20.3835 19.2312 19.6911 20.5044 19.6911V19.6742Z" fill="black"/>
<path d="M10.9982 30.5425C10.267 30.5425 9.54435 30.4243 8.86474 30.1963C8.21094 29.9767 7.66897 29.6896 7.22163 29.318C5.25163 27.6966 4.17629 24.1752 5.67316 21.8613C6.39578 20.3835 7.7636 19.387 9.62177 18.9816C11.0154 18.6776 12.5123 18.8719 13.8113 19.5474C15.3167 20.3244 16.3232 21.4729 16.7964 22.976C17.5534 25.3743 16.5813 28.1273 14.4909 29.5291C13.5102 30.1878 12.2714 30.551 10.9982 30.551V30.5425ZM10.9208 20.527C10.6111 20.527 10.3014 20.5608 9.99169 20.6284C8.63247 20.9239 7.69478 21.5995 7.20443 22.6298L7.14421 22.7311C6.11189 24.2765 6.94635 26.8859 8.33137 28.026C8.61526 28.2624 8.96797 28.4482 9.42391 28.6002C10.7917 29.0562 12.4176 28.8705 13.5274 28.1273C15.007 27.1393 15.6952 25.1801 15.1533 23.4743C14.8178 22.4018 14.1124 21.608 13.0112 21.0422C12.3574 20.7044 11.6348 20.5355 10.9208 20.5355V20.527Z" fill="black"/>
<path d="M30.277 30.5425C29.5458 30.5425 28.8232 30.4243 28.1435 30.1963C27.4897 29.9767 26.9478 29.6896 26.5004 29.3181C24.5304 27.6882 23.4551 24.1668 24.952 21.8529C25.6746 20.3751 27.0424 19.3786 28.9006 18.9732C30.3028 18.6692 31.7911 18.8634 33.0901 19.539C34.5955 20.3159 35.602 21.4644 36.0752 22.9676C36.8322 25.3659 35.8601 28.1189 33.7697 29.5207C32.789 30.1794 31.5502 30.5425 30.277 30.5425ZM30.1996 20.5271C29.8899 20.5271 29.5802 20.5608 29.2705 20.6284C27.9113 20.924 26.9736 21.5995 26.4832 22.6298L26.423 22.7311C25.3907 24.2765 26.2252 26.886 27.6102 28.026C27.8941 28.2625 28.2468 28.4482 28.7027 28.6002C30.0705 29.0563 31.6964 28.8705 32.8062 28.1273C34.2858 27.1393 34.9741 25.1801 34.4321 23.4743C34.088 22.4018 33.3912 21.5995 32.29 21.0422C31.6362 20.7044 30.9136 20.5355 30.1996 20.5355V20.5271Z" fill="black"/>
</g>
<defs>
<clipPath id="clip0_13_1084">
<rect width="37" height="24" fill="white" transform="translate(2 9)"/>
</clipPath>
</defs>
</svg>
