<?xml version="1.0" encoding="UTF-8"?>
<svg id="Layer_1_copy_3" data-name="Layer 1 copy 3" xmlns="http://www.w3.org/2000/svg" viewBox="0 0 150 150">
  <defs>
    <style>
      .cls-1 {
        fill: #191919;
      }
    </style>
  </defs>
  <path class="cls-1" d="M121.05,105.91V20.11c0-.45.01-.92-.03-1.35-.05-.43-.17-.8-.3-1.14-.15-.32-.31-.63-.5-.87-.09-.13-.18-.24-.28-.35-.05-.06-.09-.1-.16-.17l-.16-.15c-.43-.38-1.01-.75-1.78-.95-.38-.11-.82-.14-1.28-.14H52.43c-.44,0-.94,0-1.44.02l-1.48.03c-2,.12-4.01.29-6.08.73-2.06.44-4.18,1.07-6.26,2.15-2.07,1.07-4.14,2.69-5.62,4.86-1.5,2.16-2.28,4.72-2.51,7.09l-.09,1.76v1.38s0,2.73,0,2.73v94.96c0,.91.28,1.67.62,2.22.17.29.36.52.55.73.11.13.23.22.33.31.11.1.24.18.36.28.52.35,1.22.67,2.1.73.89.03,1.82,0,2.72.02h66.44c7.24,0,7.87-1.89,7.87-4.22,0-1.33-.21-2.52-1.74-3.3l4.5-14.75,4.11-.04c.91-.02,1.66-.3,2.21-.65.29-.17.51-.37.72-.56.14-.13.21-.23.31-.34.09-.12.19-.24.28-.37.34-.54.66-1.24.7-2.14.02-.9,0-1.82.01-2.73ZM95.27,23.44l.46,39.59.02,1.58-5.21-5.5-4.74-4.99c-.29-.3-.58-.63-.88-.9-.3-.27-.62-.48-.92-.64-.62-.31-1.21-.43-1.71-.46h-.19c-.05-.01-.17,0-.22,0-.13.01-.25.01-.38.03-.26.04-.54.1-.83.2-.58.2-1.23.57-1.8,1.19l-8.99,10.07V23.44h25.4ZM37.39,68.53V31.66c.03-.32.04-.64.05-.97.13-1.25.48-2.27,1.06-3.12.58-.85,1.44-1.58,2.59-2.17,1.15-.6,2.55-1.04,4.04-1.36,1.5-.32,3.12-.46,4.76-.56l1.25-.03c.41-.01.83-.02,1.3-.02h9v50.99c.02.36.03.75.12,1.01.04.14.07.29.11.43l.14.34c.09.25.2.41.31.59.06.08.11.19.17.26l.17.2c.11.13.23.28.34.36l.34.29.32.21c.22.16.4.22.59.31.05.02.07.04.21.09l.16.05.3.09c.46.09.96.19,1.7.06.16-.01.37-.07.57-.14.1-.03.2-.05.3-.1l.34-.16c.44-.19.96-.59,1.48-1.18l3.15-3.53,5.11-5.73,4.79-5.37,11.06,11.66,3.5,3.69c.58.62,1.16,1.04,1.63,1.21.26.13.47.17.69.23.23.08.41.07.61.1.74.06,1.32-.04,1.74-.19l.17-.05s.05-.02.13-.05c.06-.03.06-.03.1-.05l.31-.16c.1-.04.22-.14.33-.21.12-.09.22-.13.35-.25l.36-.33.37-.45c.12-.16.24-.38.35-.57.1-.24.21-.48.3-.76.19-.55.17-1.43.16-2.28l-.03-2.54-.1-8.6-.46-39.49h8.9v80.84l-38.65.38-20.36.2h-1.27s-.64.02-.64.02h-.32c-.14,0-.4.01-.59.03-1.65.12-3.27.73-4.59,1.73-.65.49-1.27,1.12-1.72,1.74l-.79,1.08c-.52.72-1.04,1.45-1.53,2.2-1.74,2.59-3.38,5.28-4.77,8.23v-51.36ZM99.65,126.56h-56.01s.03-.06.04-.09c.27-.55.52-1.18.85-1.92,1.19-2.75,2.83-5.52,4.62-8.17.45-.67.91-1.32,1.38-1.98l.71-.97c.05-.07.04-.04.06-.07.03-.02.06-.03.11-.04l2.27-.02,20.36-.2,29.8-.29-4.19,13.74Z"/>
</svg>