<?xml version="1.0" encoding="UTF-8"?>
<svg id="Layer_1_copy_3" data-name="Layer 1 copy 3" xmlns="http://www.w3.org/2000/svg" viewBox="0 0 150 150">
  <defs>
    <style>
      .cls-1 {
        fill: #191919;
      }
    </style>
  </defs>
  <path class="cls-1" d="M132.06,129.09l-.54-2.38c-.19-.79-.47-1.56-.7-2.34l-.37-1.16-.19-.58-.23-.57-.92-2.26c-.28-.76-.67-1.47-1.02-2.21-.37-.72-.69-1.47-1.1-2.16-.81-1.39-1.59-2.81-2.5-4.12-3.49-5.38-7.75-10-11.59-14.55-.98-1.14-1.88-2.28-2.8-3.42l-1.28-1.73c-.22-.29-.42-.58-.6-.87l-.58-.88c-.19-.29-.4-.58-.56-.88l-.49-.89c-.16-.3-.33-.59-.49-.89l-.42-.93-.43-.93-.36-.97-.37-.97-.31-1c-.82-2.66-1.34-5.45-1.61-8.28-.08-.71-.11-1.42-.16-2.13-.02-.71-.06-1.42-.06-2.13-.01-.71,0-1.42.03-2.13l.05-1v-.15s.06-.02.06-.02c.16-.05.32-.11.49-.16.34-.11.69-.21,1.06-.31,1.46-.39,3.02-.73,4.59-1.04l2.37-.45,1.19-.21.69-.12c.41-.06.8-.16,1.2-.24,1.55-.42,2.84-1.5,3.58-2.87.75-1.38.91-3.04.41-4.6l-.53-1.58-.42-1.19c-.28-.79-.57-1.57-.87-2.36-.6-1.56-1.23-3.12-1.91-4.65-1.35-3.07-2.83-6.1-4.52-9.03-1.68-2.94-3.55-5.8-5.69-8.51-2.12-2.71-4.56-5.26-7.34-7.49-1.41-1.1-2.88-2.14-4.49-3.01-.78-.46-1.63-.84-2.46-1.23-.42-.2-.86-.34-1.29-.51-.43-.16-.86-.34-1.31-.46l-1.34-.39c-.45-.12-.91-.2-1.37-.3-.92-.22-1.82-.29-2.73-.41-.87-.08-1.68-.14-2.53-.21-.84-.06-1.67-.15-2.52-.17l-2.56-.06c-.43,0-.85-.02-1.28-.02l-1.29.05-2.58.11-2.59.29c-3.45.47-6.92,1.2-10.26,2.59-3.32,1.37-6.5,3.31-9.19,5.81-2.7,2.49-4.88,5.52-6.47,8.75-1.59,3.24-2.62,6.66-3.28,10.08-.66,3.43-.94,6.87-.98,10.28-.04,3.41.18,6.79.54,10.13.19,1.67.41,3.33.66,4.95l.75,4.85c.51,3.23,1.06,6.46,1.63,9.68l.87,4.83.59,3.15-.57.6-1.71,1.86c-1.13,1.24-2.24,2.5-3.34,3.77-2.2,2.54-4.34,5.14-6.39,7.82-2.06,2.68-4.04,5.44-5.88,8.33-.92,1.45-1.81,2.92-2.64,4.46-.84,1.52-1.62,3.11-2.31,4.77-.13.31-.24.6-.34.87-.09.28-.17.55-.24.81-.14.51-.23.96-.26,1.38-.04.41-.04.77,0,1.08.04.31.12.59.22.81.4.91,1.19,1.15,2.07,1.32s1.72.21,2.43-.27c.18-.12.34-.27.52-.46.18-.19.36-.42.52-.7.16-.28.35-.61.53-.99.09-.19.18-.4.28-.62.1-.22.21-.46.31-.71.57-1.39,1.25-2.78,2.01-4.15.74-1.37,1.56-2.73,2.42-4.07,1.71-2.68,3.59-5.3,5.56-7.86,1.97-2.56,4.03-5.07,6.15-7.53,1.06-1.23,2.14-2.45,3.23-3.65l1.65-1.79,1.13-1.2,1.73-1.78-.79-4.05-.45-2.38-.86-4.77c-.56-3.18-1.1-6.37-1.61-9.56l-.74-4.79c-.24-1.59-.45-3.15-.63-4.72-.34-3.12-.54-6.25-.5-9.34.08-6.16,1.03-12.31,3.59-17.54,1.29-2.6,2.98-4.93,5.06-6.85,2.07-1.93,4.53-3.44,7.21-4.55,2.68-1.12,5.63-1.75,8.61-2.16l2.26-.25,2.29-.1,1.15-.05c.38,0,.77.01,1.16.02l2.32.05c.77.01,1.57.11,2.35.16.78.06,1.59.12,2.34.19.7.1,1.42.14,2.09.31.34.08.68.13,1.01.22l1,.3c.34.08.66.22.99.35.32.13.66.23.98.39.64.31,1.29.58,1.9.95,1.26.67,2.44,1.52,3.6,2.42,2.29,1.84,4.39,4.01,6.27,6.42,1.89,2.4,3.6,4.99,5.14,7.7,1.55,2.7,2.94,5.53,4.2,8.41.63,1.44,1.23,2.9,1.79,4.37.28.74.56,1.48.82,2.22l.39,1.11.25.73h0s-.53.09-.53.09l-1.24.22c-.83.15-1.65.3-2.48.47-1.66.33-3.32.68-5.03,1.15-.43.12-.86.24-1.31.38-.22.07-.45.14-.68.23-.12.04-.35.13-.53.2-.19.08-.39.14-.57.23-.75.32-1.45.73-2,1.27-.28.26-.52.58-.7.92-.09.16-.15.34-.23.51-.07.18-.11.37-.17.56-.13.77-.15,1.41-.23,2.11v.13s-.02.08-.02.08v.15s-.02.31-.02.31l-.03.61c-.02.81-.05,1.62-.03,2.43,0,.81.04,1.61.06,2.42.06.81.09,1.61.18,2.42.31,3.22.9,6.43,1.87,9.58l.37,1.18.44,1.17.44,1.16.52,1.14.52,1.14c.19.37.4.74.6,1.11l.61,1.11c.2.37.44.69.66,1.04l.67,1.03c.22.35.45.68.69,1l1.43,1.93c.98,1.23,1.97,2.47,2.97,3.63,1.99,2.36,4.01,4.62,5.88,6.91l.71.86.68.87c.45.58.92,1.15,1.35,1.73.85,1.18,1.73,2.34,2.5,3.55.83,1.19,1.5,2.44,2.22,3.67.36.62.64,1.27.96,1.9.31.64.65,1.26.9,1.92l.8,1.96.2.49.16.5.32,1.01c.2.68.45,1.34.61,2.02l.47,2.07c.29,1.09.46,1.94.72,2.59.26.64.56,1.09.91,1.39.68.6,1.51.63,2.41.54.9-.09,1.7-.27,2.18-1.08.24-.4.41-.96.46-1.75.05-.78.04-1.79-.28-3.05Z"/>
  <path class="cls-1" d="M83.16,47.96l.99-.71,4.94-3.53-4.69-8.13-5.52,2.71-1.05.52c-.71-.51-1.48-.95-2.28-1.31l-.11-1.09-.59-6.04h-9.39l-.42,6.14-.06.96c-.88.39-1.71.87-2.49,1.44l-.79-.36-5.53-2.51-4.69,8.13,5.11,3.43.69.46c-.1,1-.08,2,.04,3l-.64.46-4.94,3.53,4.69,8.13,5.52-2.71.83-.41c.77.54,1.61,1,2.52,1.36l.09.93.59,6.04h9.39l.42-6.14.09-1.27c.74-.36,1.45-.8,2.12-1.29l6.67,3.03,4.69-8.13-6.15-4.13c.07-.83.06-1.67-.03-2.5ZM74.88,53.76c-.62.61-1.33,1.11-2.11,1.45-.78.35-1.64.55-2.5.58-.86.03-1.72-.12-2.48-.42-.74-.28-1.49-.77-2.09-1.36-.61-.59-1.09-1.3-1.43-2.09-.68-1.57-.7-3.39-.06-4.96.64-1.59,1.91-2.88,3.48-3.54,1.57-.67,3.4-.69,4.96-.04,1.59.65,2.88,1.92,3.53,3.49.67,1.57.68,3.4.03,4.97,0,0,0,.01,0,.02-.37.71-.8,1.36-1.33,1.9Z"/>
</svg>