<?xml version="1.0" encoding="UTF-8"?>
<svg id="Layer_1_copy_3" data-name="Layer 1 copy 3" xmlns="http://www.w3.org/2000/svg" viewBox="0 0 150 150">
  <defs>
    <style>
      .cls-1 {
        fill: #191919;
      }
    </style>
  </defs>
  <path class="cls-1" d="M135.93,52.11c-.04-.51-.11-1.01-.16-1.51l-.09-.76-.12-.75c-.3-2.01-.8-3.99-1.41-5.93-1.24-3.88-3.07-7.56-5.41-10.88-4.66-6.66-11.36-11.86-18.99-14.71-3.8-1.44-7.84-2.28-11.89-2.5-2.02-.14-4.09-.04-6.06.1l-1.37.12-.69.06-.76.08c-1.01.1-2.02.26-3.02.44-4,.73-7.88,2.09-11.48,3.97-3.59,1.87-6.92,4.36-9.77,7.17l-15.85,15.34-15.85,15.34-3.96,3.84-1.98,1.92c-.33.32-.65.63-1.03,1.01-.36.36-.72.72-1.06,1.1-2.77,3-5.07,6.43-6.78,10.14-.85,1.85-1.56,3.78-2.11,5.74-.28.98-.51,1.98-.71,2.98l-.27,1.48-.22,1.36-.44,2.73c-.13,1.01-.3,2.02-.36,3.04-.19,2.03-.17,4.08-.02,6.12.6,8.16,3.91,16.07,9.23,22.26,5.29,6.21,12.6,10.7,20.57,12.55,3.98.94,8.09,1.24,12.16.9,4.07-.31,8.08-1.34,11.85-2.9,3.76-1.61,7.27-3.74,10.37-6.46l.58-.5.51-.47,1.02-.93,2.03-1.87,4.07-3.73,7.3-6.71c.79-.45,1.71-1.13,2.82-2.13l16.41-14.77,8.21-7.39,1.03-.92c.35-.32.67-.59,1.05-.96l1.1-1.07c.37-.36.7-.74,1.05-1.11.71-.73,1.33-1.54,1.98-2.31l.91-1.22.45-.61.42-.64c1.16-1.67,2.13-3.47,3.01-5.29.87-1.84,1.58-3.75,2.19-5.69,1.14-3.9,1.75-7.96,1.69-12.03.01-1.02-.07-2.03-.13-3.04ZM81.25,112.32l-4.06,3.73-2.03,1.87-1.02.93-.51.47-.47.4c-2.44,2.14-5.29,3.87-8.29,5.16-6.04,2.54-12.88,3.12-19.26,1.6-6.37-1.48-12.22-5.07-16.48-10.06-4.27-4.97-6.92-11.31-7.4-17.84-.12-1.63-.13-3.27.02-4.9.04-.82.19-1.63.29-2.44l.44-2.71.22-1.36.22-1.23c.16-.8.35-1.6.57-2.39.44-1.58,1.01-3.12,1.69-4.6,1.37-2.97,3.21-5.73,5.43-8.13,1.05-1.14,2.47-2.45,3.78-3.73l3.97-3.84,11.16-10.8.82.18c.33.07.66.14.98.25l1.94.58c.65.19,1.27.48,1.91.71l.95.36.93.43c2.5,1.09,4.87,2.53,7.15,4.09,2.3,1.56,4.44,3.39,6.5,5.31,2.07,1.91,3.99,4.02,5.83,6.2,1.85,2.17,3.57,4.48,5.2,6.84,1.64,2.37,3.19,4.81,4.63,7.31,2.89,5,5.48,10.26,7.59,15.57.04.1.09.18.15.25l-12.86,11.81ZM126.99,64.97c-.49,1.57-1.06,3.12-1.77,4.61-.72,1.48-1.5,2.93-2.44,4.29l-.34.52-.37.5-.74.99c-.53.63-1.03,1.28-1.61,1.87-.28.3-.55.61-.84.9l-.88.85c-.27.27-.65.6-.98.9l-1.02.92-8.2,7.38-6.94,6.25c-.2.09-.4.2-.62.33-2.1-5-4.51-9.78-7.2-14.45-1.54-2.67-3.2-5.28-4.96-7.83-1.76-2.55-3.62-5.04-5.64-7.42-2.02-2.38-4.13-4.7-6.45-6.85-2.31-2.15-4.73-4.21-7.38-6.02-2.63-1.81-5.4-3.49-8.38-4.79l-1.11-.51-1.14-.44c-.68-.25-1.35-.53-2.04-.76l14.15-13.7c1.21-1.19,2.44-2.25,3.78-3.23,1.33-.97,2.72-1.86,4.18-2.62,2.92-1.52,6.06-2.63,9.3-3.22.81-.14,1.62-.28,2.44-.35l.61-.07.68-.06,1.37-.12c.46-.04.84-.05,1.26-.08.41-.03.82-.05,1.24-.05h1.24s1.23.05,1.23.05c3.29.18,6.54.86,9.62,2.03,6.17,2.3,11.61,6.52,15.39,11.92,3.8,5.38,5.88,11.92,5.93,18.52.05,3.29-.45,6.58-1.37,9.74Z"/>
</svg>