<?xml version="1.0" encoding="UTF-8"?>
<svg id="Layer_1_copy_3" data-name="Layer 1 copy 3" xmlns="http://www.w3.org/2000/svg" viewBox="0 0 150 150">
  <defs>
    <style>
      .cls-1 {
        fill: #191919;
      }
    </style>
  </defs>
  <path class="cls-1" d="M110.08,44.1c-.47-.52-1.03-.98-1.78-1.32l-7.74-3.54-4-1.83c-.59-.27-1.17-.42-1.77-.46-.6-.05-1.21,0-1.8.15-.59.16-1.15.41-1.64.75-.5.34-.94.75-1.32,1.27l-32.98,45.18-6.74-5.48-3.87-3.15c-.6-.5-1.23-1-1.89-1.26-.67-.28-1.4-.42-2.13-.41-.73.01-1.46.17-2.12.47-.66.3-1.25.71-1.79,1.3l-4.85,5.41-2.2,2.46-.55.62c-.35.39-.74.81-1.09,1.23-.71.84-1.08,1.75-1.22,2.76-.13,1,.03,2.05.47,2.96.22.46.48.87.82,1.25.16.2.37.38.56.56.21.17.43.34.65.51l2.95,2.29,5.21,4.06,10.43,8.12,5.21,4.06,1.54,1.2c.44.33.86.7,1.33.95.46.25.92.43,1.42.54.99.23,2.05.15,3.01-.2.96-.36,1.77-.95,2.44-1.83l25.11-33.06c.26-.29.54-.63.83-1.03l.64-.9.21-.28c.21-.27.38-.53.54-.77l9.8-13.74,5.6-7.85,1.4-1.96.7-.98.68-.95c.24-.32.46-.66.66-.99.08-.17.17-.34.24-.51.06-.17.13-.34.17-.51.11-.34.17-.69.2-1.05.06-.72-.02-1.45-.25-2.14-.23-.69-.6-1.33-1.07-1.86ZM85.8,73.71l-25.71,33.85-16.71-13.01-7.48-5.83,6.73-7.52,11.3,9.19c.5.39,1.02.69,1.56.88.54.19,1.12.3,1.7.31,1.16.03,2.34-.35,3.26-1.03.46-.32.88-.78,1.26-1.29l.94-1.29,1.12-1.53,4.48-6.13,8.96-12.27,17.59-24.08,9.21,4.22-18.2,25.52Z"/>
  <path class="cls-1" d="M137.61,65.95c-.26-4.23-1.31-8.27-2.71-12.12-1.41-3.85-3.27-7.5-5.48-10.91-2.2-3.41-4.74-6.6-7.57-9.5-5.65-5.81-12.48-10.5-20-13.62-3.75-1.56-7.67-2.75-11.66-3.48-3.13-.59-7.56-1.15-9.77-1.26-.62-.03-3.29-.09-4.08-.02-7.84.44-15.72,1.57-23.41,3.77-.48.14-.96.26-1.44.41l-1.42.48c-.95.33-1.9.63-2.84.98-1.86.77-3.75,1.48-5.55,2.41-3.64,1.76-7.17,3.86-10.37,6.43-3.21,2.55-6.14,5.5-8.63,8.78-2.5,3.28-4.55,6.9-6.13,10.68-1.6,3.79-2.67,7.75-3.36,11.76-.2,1-.3,2.01-.45,3.01-.1,1.01-.22,2.02-.28,3.03-.15,2.02-.19,4.04-.14,6.06.02,1.01.07,2.03.15,3.01.08.99.13,1.98.24,2.97l.33,2.97.44,2.96c.66,3.93,1.58,7.84,2.83,11.66,2.49,7.63,6.33,14.98,11.76,21.14,2.71,3.08,5.8,5.84,9.19,8.17,3.39,2.33,7.07,4.24,10.91,5.66,7.7,2.86,15.9,3.83,23.9,3.57,4-.17,7.97-.6,11.89-1.28.98-.16,1.94-.38,2.91-.57.97-.21,1.94-.37,2.9-.61,1.92-.49,3.86-.91,5.75-1.52,3.82-1.08,7.58-2.52,11.23-4.21.9-.45,1.83-.85,2.72-1.34l2.66-1.48c.87-.53,1.72-1.09,2.58-1.63.44-.26.85-.57,1.26-.87l1.24-.9c3.27-2.46,6.28-5.33,8.85-8.56,2.57-3.23,4.73-6.81,6.34-10.59,1.63-3.78,2.77-7.71,3.56-11.67.75-3.96,1.18-7.95,1.38-11.87.11-1.96.17-3.91.24-5.82l.05-1.42c.02-.48.04-.9.04-1.47v-1.6c0-.53-.05-1.06-.07-1.59ZM130.97,68.95c0,.39-.02.93-.04,1.4l-.05,1.45c-.06,1.92-.12,3.81-.23,5.67-.19,3.73-.59,7.39-1.27,10.96-.71,3.56-1.72,7.02-3.13,10.29-2.8,6.55-7.34,12.18-13.06,16.46l-1.08.79c-.36.26-.72.53-1.1.76-.76.48-1.51.97-2.28,1.44l-2.37,1.31c-.79.43-1.63.8-2.44,1.2-3.3,1.52-6.73,2.84-10.28,3.85-1.75.57-3.57.95-5.36,1.42-.9.23-1.82.38-2.73.57-.91.18-1.82.39-2.73.53-3.64.63-7.3,1.02-10.96,1.18-7.3.24-14.61-.66-21.31-3.15-6.7-2.48-12.7-6.61-17.41-11.98-4.73-5.36-8.16-11.87-10.42-18.79-1.13-3.46-1.98-7.04-2.59-10.66l-.41-2.73-.31-2.75c-.1-.92-.14-1.84-.22-2.76-.08-.93-.12-1.83-.14-2.73-.17-7.24.97-14.53,3.71-21.11,1.37-3.28,3.14-6.39,5.28-9.21,2.14-2.82,4.65-5.36,7.44-7.57,2.78-2.24,5.88-4.08,9.14-5.66,1.6-.83,3.31-1.47,4.99-2.17.85-.32,1.73-.59,2.59-.89l1.3-.44c.44-.14.88-.25,1.32-.37,6.6-1.89,13.49-2.94,20.45-3.42.04,0,.07.01.12,0,4.38-.29,17.26,1.34,23.9,4.15,6.65,2.76,12.72,6.92,17.75,12.09,2.52,2.59,4.78,5.43,6.74,8.45,1.96,3.02,3.6,6.25,4.83,9.6,1.22,3.34,2.1,6.81,2.31,10.24.02.43.06.86.07,1.28v1.27Z"/>
</svg>