<?xml version="1.0" encoding="UTF-8"?>
<svg id="Layer_1_copy_3" data-name="Layer 1 copy 3" xmlns="http://www.w3.org/2000/svg" viewBox="0 0 150 150">
  <defs>
    <style>
      .cls-1 {
        fill: #191919;
      }
    </style>
  </defs>
  <path class="cls-1" d="M128.22,61.26c-.04-1.7-.12-3.08-.55-3.09-4.37.07-8.51-1.08-12.5-3.16-2.01-1.03-4-2.27-6.11-3.54-1.55-.93-3.19-1.88-4.95-2.72l6.24-8.85,6.67-9.46.59-.83c.07-.1.31-.64.31-.64l.2-.63c.09-.27.18-.55.24-.84.07-.29.15-.56.21-.86.25-1.16.37-2.41.28-3.72-.09-1.31-.41-2.72-1.18-4.07-.36-.68-.89-1.31-1.47-1.88-.62-.54-1.31-1.03-2.07-1.34-1.52-.68-3.11-.74-4.49-.55-1.39.2-2.61.66-3.71,1.22-1.09.56-2.07,1.22-2.94,1.94-.46.35-.85.74-1.27,1.11-.39.39-.8.77-1.15,1.17-.37.4-.73.8-1.07,1.22-.17.2-.35.42-.5.61l-.45.59c-.6.79-1.22,1.58-1.79,2.36-1.15,1.57-2.31,3.13-3.44,4.7-2.12,2.92-4.21,5.85-6.3,8.78-.1-.03-.2-.06-.3-.08-2.64-.63-5.3-1.19-8.05-1.61-1.38-.21-2.78-.38-4.27-.45-.75-.03-1.51-.05-2.37.03-.43.04-.88.09-1.39.2-.12.02-.25.05-.4.1l-.43.13c-.29.09-.6.25-.9.39-.51.26-1.2.58-1.87.88l-2.08.9-4.23,1.8c-2.83,1.21-5.67,2.43-8.49,3.72-2.83,1.29-5.65,2.63-8.46,4.18-.7.39-1.41.8-2.12,1.25-.71.46-1.42.92-2.17,1.52-.19.15-.37.29-.57.48l-.29.27c-.09.09-.19.18-.3.3-.44.46-.8.97-1.08,1.42l-.38.65-.31.61c-.21.41-.37.79-.55,1.18-.66,1.54-1.2,3.04-1.72,4.53-.51,1.49-.98,2.98-1.44,4.47-.91,2.97-1.76,5.94-2.6,8.9-1.66,5.92-3.26,11.84-4.93,17.7l-1.28,4.38-.66,2.17-.34,1.11-.35,1.2c-.43,1.62-.79,3.3-.89,5.16-.05.93-.03,1.92.14,2.98l.18.82c.08.28.18.58.28.86.11.29.27.61.42.91.17.31.4.64.62.95.95,1.21,2.36,2,3.88,2.21.37.04.77.06,1.13.05.33-.03.69-.05.99-.11.62-.11,1.18-.28,1.7-.48,1.03-.41,1.91-.93,2.69-1.5.78-.58,1.49-1.19,2.12-1.85.64-.65,1.22-1.34,1.75-2.05.53-.7,1.03-1.47,1.44-2.16.86-1.41,1.63-2.86,2.32-4.31,2.78-5.82,4.59-11.75,6.89-17.2,1.15-2.71,2.41-5.33,3.97-7.57,1.56-2.24,3.39-4.14,5.59-5.37.48-.28.85-.53,1.08-.83.25-.27.39-.57.45-.9.12-.65-.08-1.4-.37-2.2s-.6-1.5-1.22-1.85c-.31-.17-.7-.26-1.2-.22-.48.08-1.1.25-1.8.65-1.58.89-3.01,2-4.27,3.24-1.26,1.24-2.36,2.59-3.33,3.98-1.94,2.8-3.33,5.76-4.57,8.68-2.45,5.85-4.25,11.68-6.77,16.93-.62,1.31-1.3,2.58-2.03,3.78-.18.3-.37.61-.55.87-.18.28-.37.54-.56.8-.38.52-.8,1-1.23,1.44-.43.45-.89.83-1.34,1.17-.45.34-.91.6-1.31.75-.3.13-.6.17-.66.17-.02-.05-.15-.32-.2-.68-.06-.45-.1-1-.06-1.6.06-1.2.33-2.54.69-3.88l.29-1.01.33-1.09.68-2.23,1.3-4.45c1.69-5.93,3.29-11.85,4.94-17.73.83-2.94,1.67-5.87,2.55-8.75.45-1.44.9-2.88,1.38-4.29.48-1.4.99-2.79,1.54-4.07.14-.3.28-.63.42-.9l.21-.41.2-.35c.13-.2.21-.32.31-.41.01-.02.05-.06.1-.1l.13-.12c.07-.08.2-.17.31-.26.44-.36,1.02-.74,1.6-1.11.59-.37,1.21-.73,1.84-1.08,2.55-1.41,5.27-2.71,8.02-3.96,2.75-1.25,5.54-2.46,8.35-3.66l4.23-1.8,2.14-.93c.73-.33,1.43-.63,2.29-1.08.01,0-.01,0,.01,0,.01,0,.03,0,.05-.01,0,0,.04-.01.09-.02.13-.03.35-.06.57-.08.46-.04,1.03-.03,1.59-.01,1.15.05,2.39.2,3.63.39,1.79.27,3.6.63,5.41,1.02-1.1,1.55-2.2,3.11-3.3,4.66-8.91,12.61-17.77,25.24-26.61,37.89l-13.25,18.98-3.31,4.75-1.65,2.38-.41.59c-.05.07-.18.26-.28.42-.1.16-.2.33-.29.5-.36.68-.63,1.4-.79,2.15l-2.66,14.73c-.14,1,.11,1.64.35,2.09.25.45.54.75.8.94.04.03.06.05.11.09l.11.07.06.04.22.13c.08.04.18.08.26.12.09.04.18.08.3.11.42.12.97.23,1.74.02.38-.09.83-.35,1.28-.62l1.35-.8,2.69-1.59,3.25-1.92,2.69-1.59,1.35-.8.67-.4c.17-.1.6-.35.92-.59.38-.28.73-.6,1.06-.94.35.52.73,1.01,1.14,1.47,1.16,1.33,2.46,2.46,3.84,3.43,1.38.96,2.81,1.78,4.34,2.46.19.09.39.17.59.25l.35.14c.18.07.34.14.52.18l1.36.25c.39.08.8.13,1.21.19.41.05.81.12,1.25.14.85.07,1.73.1,2.7.02.5-.05.97-.09,1.53-.23l.4-.1.2-.05.24-.09c.32-.12.64-.25.95-.39,1.3-.66,2.37-1.77,2.87-3.14.14-.34.21-.7.29-1.05.04-.19.06-.39.08-.59.11.05.22.09.35.14.18.07.35.13.53.2l.52.11c.39.08.8.15,1.2.22.81.13,1.65.24,2.53.3.45.03.9.04,1.38.03.47-.02,1.01-.03,1.77-.19,1.47-.24,2.81-.94,3.7-2.04.9-1.1,1.27-2.56,1.11-4.01l-.07-.55-.12-.54c-.08-.36-.21-.74-.3-.99l-.08-.21-.07-.17c-.05-.11-.09-.23-.14-.34-.1-.22-.2-.44-.3-.64-.59-1.18-1.24-2.19-1.92-3.15,2.25-.54,4.48-1.12,6.71-1.74,5.5-1.54,10.94-3.32,16.28-5.49,2.67-1.09,5.32-2.27,7.92-3.62,2.6-1.36,5.16-2.87,7.6-4.75.99-.76,1.28-1.5,1.17-2.15-.11-.66-.6-1.25-1.18-1.87s-1.15-1.15-1.75-1.36c-.6-.21-1.22-.11-2.02.51-2.01,1.55-4.3,2.91-6.67,4.15-2.38,1.24-4.86,2.35-7.39,3.38-5.06,2.05-10.31,3.77-15.62,5.26-5.31,1.48-10.7,2.75-16.11,3.71-2.7.48-5.41.89-8.08,1.14-1.33.12-2.66.21-3.9.2-.61,0-1.21-.03-1.69-.1-.13-.01-.22-.03-.31-.05-.04,0-.06-.01-.08-.02,0,0,0,0,0,0,0,0,0,0,0,0,.01,0,0-.02,0-.03.01-.03.01-.06,0-.1.02-.05.03-.1.03-.16,0-.06.05-.13.06-.2.07-.18.16-.38.28-.6l.72-1.02c.18-.22.38-.43.59-.65.79-.8,1.76-1.56,2.8-2.26,1.03-.71,2.16-1.35,3.32-1.96,4.67-2.4,9.88-4.11,15.15-5.52,2.65-.69,5.33-1.31,8.03-1.85.67-.15,1.35-.26,2.03-.39l1.38-.26c.35-.06.68-.15,1.02-.22.19,0,.29-.17.42-.28l.38-.36.75-.72.36-.46.18-.23.13-.17c.18-.22.3-.51.45-.77.14-.27.28-.53.37-.82.1-.29.19-.57.27-.86.05-.29.1-.58.14-.87.05-.3.05-.57.05-.85,0-.27.01-.57-.03-.82-.22-2.13-.99-3.78-1.81-5.21-.84-1.44-1.78-2.69-2.77-3.86-1.98-2.33-4.13-4.35-6.39-6.25-.41-.34-.78-.55-1.12-.66l11.18-15.79c.58-.81.99-1.5,1.27-2.1l2.62-3.72c3.76,1.6,7.48,4.35,11.85,6.61,2.29,1.18,4.78,2.21,7.39,2.88.65.17,1.3.34,1.97.44l1,.17c.33.06.66.12,1,.14l2.01.19,2,.03c.54,0,.55-1.37.51-3.08ZM46.4,119.94l-.87,1.22c-.13.17-.28.32-.45.45-.05.06-.66.4-1.08.65l-1.35.8-2.69,1.59-2.14,1.26,1.45-8.05c.04-.19.11-.38.2-.55.02-.04.05-.09.07-.13l.12-.18.41-.59,1.65-2.37,3.31-4.75,13.24-18.98c8.84-12.64,17.69-25.28,26.59-37.86,4.45-6.29,8.91-12.58,13.42-18.81,1.12-1.57,2.26-3.09,3.4-4.64.57-.77,1.14-1.5,1.7-2.25l.43-.56c.14-.19.28-.34.41-.51.27-.34.55-.65.84-.96.28-.32.58-.59.87-.89.3-.26.6-.56.91-.79.61-.51,1.25-.92,1.87-1.24.62-.32,1.24-.53,1.76-.6.52-.07.93-.03,1.18.1.14.04.23.14.35.22.09.12.21.21.3.4.19.33.35.84.39,1.45.04.61-.01,1.31-.17,2.03-.03.18-.09.36-.13.55-.04.18-.43.96-.43.96l-6.67,9.46-13.33,18.92c-.56.79-.96,1.47-1.25,2.06l-28.07,39.64-7.87,11.11c-.19.24-.38.48-.56.75-.15.2-.29.42-.43.65l-5.59,7.9-1.81,2.55ZM62.18,127.61h0s0,0,0,0ZM73.76,118.82c1.11-.2,2.22-.41,3.32-.63.33.39.64.78.95,1.17.83,1.08,1.59,2.2,2.1,3.22.06.13.12.25.17.37.03.06.05.12.07.18l.04.09.02.05.03.07s-.18.02-.45.03c-.27,0-.55,0-.85-.02-.6-.04-1.25-.12-1.9-.23-.33-.05-.66-.11-1-.18-.03,0-.03,0-.03,0l-.41-.17c-1.16-.51-2.32-1.14-3.36-1.87-.69-.48-1.33-1-1.91-1.55,1.08-.16,2.15-.34,3.22-.53ZM58.61,113.92s-.01,0-.02,0c0,0,0,0,.02,0ZM56.49,119.72c.16.06.36.11.53.16.15.04.28.07.4.09.26.05.51.1.73.13.92.13,1.72.15,2.51.16.91,0,1.79-.03,2.65-.09.5.84,1.07,1.62,1.7,2.33.41.6.8,1.22,1.16,1.83.62,1.1,1.15,2.27,1.29,3.1.05.2.04.37.06.44-.01,0,.01,0,0,0,0,0-.7.14-.94.17-.5.04-1.08.03-1.69-.02-.29,0-.62-.07-.94-.11-.32-.04-.63-.08-.96-.15l-.8-.15s-.02,0-.05-.02l-.1-.04c-.14-.06-.28-.11-.42-.18-1.15-.51-2.27-1.15-3.3-1.87-2.05-1.44-3.7-3.24-4.43-5.25-.02-.04-.05-.07-.08-.09l1-1.41c.51.41,1.08.75,1.7.96ZM82.57,80.88c2.04,1.72,3.99,3.56,5.64,5.51.82.97,1.57,1.98,2.14,2.97.59.98.94,1.98,1.01,2.65.03.09,0,.15,0,.23,0,.07.01.15,0,.2-.01.06-.02.11-.02.17-.02.04-.04.09-.05.14,0,.05-.04.09-.06.13-.03.03-.03.08-.06.12-.11.02-.45.09-.68.13-.7.14-1.4.25-2.1.41-2.8.56-5.6,1.21-8.38,1.93-3.81,1.02-7.6,2.19-11.33,3.7l13.34-18.85c.15.19.33.38.56.57Z"/>
</svg>