<?xml version="1.0" encoding="UTF-8"?>
<svg id="Layer_1_copy_3" data-name="Layer 1 copy 3" xmlns="http://www.w3.org/2000/svg" viewBox="0 0 150 150">
  <defs>
    <style>
      .cls-1 {
        fill: #191919;
      }
    </style>
  </defs>
  <path class="cls-1" d="M93.11,77.82l3.16-4.26,3.42-4.66.3-.49.15-.24.11-.26.22-.51.15-.54c.17-.72.21-1.49.06-2.22-.1-.74-.38-1.46-.72-2.14l-.59-.99c-.05-.08-.11-.16-.17-.23l-.15-.2c-.08-.11-.17-.23-.25-.32-.67-.83-1.35-1.49-2.04-2.11-.69-.61-1.4-1.16-2.12-1.68-1.45-1.02-2.93-1.92-4.59-2.69-.42-.19-.84-.38-1.31-.55-.23-.09-.46-.17-.72-.25-.33-.12-.74-.2-1.1-.29-.37-.1-.76-.12-1.13-.18-.38-.02-.76-.03-1.13.02-.19.01-.37.04-.56.09l-.28.06-.26.11c-.09.03-.52.21-.52.21l-.5.26-.81.6-.62.49-.82.67-1.58,1.32-3.12,2.63-.8.68c-.13-.17-33.17-28.97-33.17-28.97-.37-.32-.78-.57-1.23-.75-.44-.19-.93-.26-1.41-.34l-1.59-.27-2.9-.49-5.8-.98-14.19-2.4c-1.04-.15-1.83.05-2.42.3l-.42.2-.34.22c-.12.07-.21.14-.32.23-.11.09-.25.22-.38.36-.27.28-.52.65-.66.93-.07.15-.12.23-.17.37l-.14.37c-.16.55-.27,1.24-.09,2.13.07.44.29.93.5,1.42l.62,1.46,1.21,2.85,1.23,2.91,5.07,11.97c.18.42.41.8.71,1.14.29.34.66.62,1,.91l1.06.89,2.09,1.75,4.18,3.5,8.36,6.99,15.95,13.34c-2.67,2.27-5.32,4.57-7.94,6.92-5.3,4.78-10.5,9.73-15.29,15.24-2.39,2.77-4.68,5.68-6.67,8.99-.99,1.66-1.9,3.43-2.6,5.42-.67,1.99-1.19,4.26-.88,6.83.16,1.27.56,2.59,1.2,3.76.65,1.19,1.47,2.19,2.45,3.04.98.85,2.09,1.52,3.22,1.99,1.13.47,2.28.76,3.39.93,1.12.18,2.22.22,3.28.19,1.07-.03,2.1-.14,3.11-.31,2.02-.33,3.93-.87,5.75-1.54,3.66-1.34,7.01-3.17,10.13-5.26,1.56-1.05,3.06-2.16,4.51-3.34.37-.28.72-.6,1.08-.93l1.07-.96c.35-.32.71-.64,1.06-.96l.97-.98,1.93-1.96,1.83-2c1.23-1.32,2.4-2.68,3.57-4.03,1.19-1.34,2.32-2.71,3.46-4.08,1.15-1.36,2.27-2.74,3.39-4.12,4.48-5.51,8.84-11.1,13.13-16.72,2.15-2.81,4.28-5.64,6.39-8.47ZM18.53,33.9l18.17,3.07-.22,8.87-2.71.57c-1.13.23-2.27.45-3.4.66-1.13.21-2.25.4-3.36.57-.55.08-1.09.16-1.61.21-.27.04-.87.08-.92.09l-5.95-14.04ZM31.69,54.15c1.18-.22,2.35-.45,3.51-.69l1.75-.36.87-.19.71-.15.86-.2.85-.2.73-.34.37-.17c.11-.06.21-.14.32-.22.21-.16.41-.33.6-.53.38-.39.69-.85.91-1.33.22-.46.37-.97.43-1.54.05-.58.04-1.17.06-1.76l.03-1.11.04-1.76.03-1.08,25.59,22.29-12.21,10.52s-.04.03-.06.05c-.04-.03-.07-.07-.11-.1l-25.28-21.14ZM68,98.47c-1.1,1.36-2.21,2.72-3.33,4.05-1.12,1.34-2.23,2.68-3.38,3.98-1.14,1.31-2.27,2.63-3.44,3.88l-1.74,1.9-1.78,1.81-.89.9-.9.82-.9.81c-.3.27-.59.55-.93.8-1.29,1.05-2.62,2.03-3.99,2.95-2.73,1.83-5.63,3.39-8.59,4.48-1.48.55-2.98.96-4.44,1.2-.73.12-1.46.2-2.15.21-.7.02-1.37,0-1.99-.11-1.25-.19-2.28-.61-2.96-1.23-.35-.3-.66-.69-.85-1.05-.2-.37-.33-.77-.39-1.24-.13-.95.08-2.22.54-3.56.47-1.34,1.17-2.73,1.98-4.1,1.65-2.74,3.72-5.4,5.93-7.97,4.46-5.13,9.49-9.94,14.66-14.59,5.18-4.65,17.14-14.67,17.45-15.14l8.23-7.09,6.15-5.26,3.08-2.6,1.54-1.28.93-.75h.02c.11.04.24.08.38.14.26.1.55.22.83.35,1.15.53,2.34,1.24,3.42,2.01,1.07.77,2.1,1.65,2.73,2.44l.13.17-2.84,3.87-3.14,4.23c-2.1,2.82-4.22,5.62-6.35,8.41-4.26,5.58-8.58,11.12-12.99,16.54Z"/>
  <path class="cls-1" d="M95.63,54.65c.19.15.39.29.6.42l.66.4c.06.04.14.07.21.11l.17.08.22.1.44.21,1.78.81c.2.09.4.15.58.19,2.09.75,4.3,1.27,6.6,1.43,2.6.18,5.28-.12,7.78-.93,2.5-.8,4.81-2.06,6.84-3.6,2.03-1.55,3.78-3.37,5.26-5.35,2.96-3.98,4.93-8.56,5.81-13.39.44-2.42.6-4.9.43-7.4l-.08-1.05c-.05-.51-.19-1.04-.28-1.56-.22-1.03-.34-2.15-.71-3.04l-.47-1.41-.24-.7-.29-.6c-.4-.79-.76-1.61-1.19-2.38l-.82-.88c-.14-.13-.27-.32-.41-.41l-.42-.18-.84-.36c-.07-.03-.14-.06-.21-.09l-.25-.04c-.2-.03-.43-.04-.64-.04-.21,0-.39.02-.47.03l-.14.02c-.06,0-.21.04-.33.07-.06.01-.18.05-.26.08-.1.04-.17.05-.29.1l-.4.2-.2.1s-.06.03-.1.06l-.13.12-.52.47-.26.24-.06.06-.03.03s-.02.05-.03.07l-.11.29c-.28.78-.59,1.57-.85,2.35-.25.76-.5,1.56-.76,2.3l-.92,1.4-.12.17s-.04.04-.06.07l-.11.12-.22.23c-.14.17-.32.3-.48.44-.31.3-.72.52-1.08.79-1.58.92-3.57,1.48-5.73,1.69l-.85.09-1.05.1c-.7.05-1.4.17-2.1.27-1.4.21-2.81.56-4.21.97-2.79.9-5.58,2.26-7.96,4.39-2.36,2.11-4.23,4.99-5.01,8.21-.78,3.21-.58,6.69.92,9.86.74,1.58,1.89,3.09,3.44,4.26ZM98.26,42.25c.42-1.73,1.42-3.31,2.83-4.58,1.41-1.28,3.27-2.22,5.31-2.88,1.04-.3,2.1-.57,3.21-.74.55-.08,1.11-.18,1.68-.22l1.89-.19c2.88-.28,5.92-1.03,8.73-2.69.68-.46,1.38-.89,2-1.45.32-.27.64-.53.92-.84l.43-.45.22-.23.1-.11.02-.03.17-.22.04.6c.13,1.84,0,3.74-.33,5.6-.67,3.74-2.25,7.37-4.49,10.37-2.24,3.01-5.21,5.36-8.52,6.41-3.3,1.09-6.9.73-10.33-.63l-1.18-.54-.67-.32s-.28-.18-.34-.23c-.47-.36-.95-.91-1.28-1.63-.68-1.43-.85-3.3-.42-5.02Z"/>
  <path class="cls-1" d="M140.32,117.62c-.18-1.12-.48-2.2-.88-3.23-.81-2.03-1.95-3.8-3.24-5.34-.65-.77-1.33-1.49-2.06-2.17-.73-.68-1.46-1.31-2.34-1.93l-29.33-23.67c-1.56-1.26-2.71-.12-3.96,1.43-1.25,1.55-2.12,2.91-.56,4.17l8.5,6.86-9.99,12.3-7.9-6.55c-1.55-1.29-2.71-.16-3.98,1.37-1.27,1.53-2.16,2.88-.62,4.16l15.72,13.03,7.86,6.51,3.93,3.26,1.96,1.63,1.08.89c.41.33.81.62,1.22.91,1.64,1.13,3.39,2.09,5.37,2.79,1.97.69,4.21,1.13,6.58.89,1.18-.12,2.37-.42,3.48-.88,1.13-.45,2.13-1.1,3.04-1.81l.66-.55c.21-.19.4-.39.6-.58.41-.39.74-.81,1.1-1.22.33-.41.62-.82.93-1.24.29-.43.57-.88.85-1.32,1.07-1.83,1.85-3.99,2.08-6.28.09-1.15.07-2.3-.11-3.43ZM104.33,112.56l-2.32-1.92,10.05-12.38,7.31,5.9-10.12,12.47-4.91-4.07ZM133.27,120.39c-.12,1.1-.49,2.22-1.14,3.34-.18.27-.34.55-.53.83-.2.27-.4.56-.61.81-.21.22-.39.49-.61.68l-.31.31-.32.27c-.87.69-1.76,1.05-2.78,1.17-2.05.23-4.79-.8-7.12-2.43-.29-.2-.58-.41-.83-.62l-.89-.74-1.97-1.63-1.36-1.13,10.18-12.54,2.42,1.95.12.09.12.09c.51.37,1.08.84,1.6,1.33.52.49,1.01,1,1.46,1.54.9,1.06,1.6,2.21,2.06,3.35.22.57.37,1.14.46,1.7.09.56.09,1.11.05,1.67Z"/>
</svg>