<?xml version="1.0" encoding="UTF-8"?>
<svg id="Layer_1_copy_3" data-name="Layer 1 copy 3" xmlns="http://www.w3.org/2000/svg" viewBox="0 0 150 150">
  <defs>
    <style>
      .cls-1 {
        fill: #191919;
      }
    </style>
  </defs>
  <path class="cls-1" d="M136.75,34.4c-.16-.46-.36-.93-.58-1.38-.21-.4-.42-.81-.66-1.19-.47-.78-1.02-1.51-1.62-2.2-1.21-1.38-2.71-2.55-4.41-3.4-1.7-.83-3.6-1.34-5.5-1.41-1.89-.07-3.78.23-5.56.9-3.55,1.33-6.47,4.15-7.95,7.64-1.48,3.5-1.48,7.55.04,11.03.78,1.82,1.97,3.45,3.43,4.79l-13.11,28.62c-1.07-.32-2.18-.51-3.29-.55-1.89-.07-3.78.23-5.56.9-.64.24-1.26.53-1.85.86-.01-.01-.02-.02-.03-.04l-20.72-20.72s-.02-.02-.03-.03c.45-1.18.73-2.41.84-3.64.16-1.89-.04-3.8-.7-5.66-.16-.46-.36-.93-.58-1.38-.21-.4-.42-.81-.66-1.19-.47-.78-1.02-1.51-1.62-2.21-1.21-1.38-2.71-2.55-4.41-3.4-1.7-.83-3.6-1.34-5.5-1.41-1.89-.07-3.78.23-5.56.9-3.55,1.33-6.47,4.15-7.95,7.64-1.48,3.5-1.48,7.55.04,11.03.67,1.55,1.62,2.97,2.79,4.17l-17.3,34.23c-.55-.09-1.11-.15-1.66-.17-1.89-.07-3.78.23-5.56.9-3.55,1.33-6.47,4.15-7.95,7.64-1.48,3.5-1.48,7.55.04,11.03,1.5,3.48,4.44,6.27,8,7.58,3.55,1.32,7.6,1.15,11.01-.52,1.7-.83,3.22-2,4.46-3.42.64-.74,1.2-1.54,1.67-2.4.02-.03.04-.05.06-.08,1-1.71,1.55-3.6,1.72-5.49.16-1.89-.04-3.8-.7-5.66-.16-.46-.36-.93-.58-1.38-.21-.4-.42-.81-.66-1.19-.47-.78-1.02-1.51-1.62-2.21-.17-.2-.37-.38-.55-.57l17.29-34.22c2.88.5,5.9.1,8.54-1.19.55-.27,1.09-.58,1.6-.92l20.08,20.08c.09.09.18.17.27.25-.06.14-.13.28-.19.42-1.48,3.5-1.48,7.55.04,11.03,1.5,3.48,4.44,6.27,8,7.58,3.55,1.32,7.6,1.15,11.01-.52,1.7-.83,3.22-2,4.46-3.42.64-.74,1.2-1.54,1.67-2.4.02-.03.04-.05.06-.08,1-1.71,1.55-3.6,1.72-5.49.16-1.89-.04-3.8-.7-5.66-.16-.46-.36-.93-.58-1.38-.21-.4-.42-.81-.66-1.19-.3-.51-.64-.99-1.01-1.46.09-.15.18-.29.25-.45l13.55-29.59c2.61.29,5.29-.15,7.66-1.31,1.7-.83,3.22-2,4.46-3.42.64-.74,1.2-1.54,1.67-2.4.02-.03.04-.05.06-.08,1-1.71,1.55-3.6,1.72-5.49.16-1.89-.04-3.8-.7-5.66ZM29.44,117.17c-1.6.79-3.56.87-5.23.24-1.68-.61-3.1-1.96-3.81-3.61-.72-1.63-.72-3.61-.02-5.25.7-1.65,2.11-3.01,3.79-3.63.83-.32,1.74-.46,2.64-.43.89.02,1.74.26,2.54.65.8.4,1.54.97,2.17,1.68.31.36.61.74.85,1.16.14.2.24.42.35.63.08.18.16.35.23.55.28.77.38,1.69.31,2.58-.04.44-.13.87-.25,1.27-.05.05-.1.11-.12.18-.28.85-.72,1.65-1.31,2.33-.6.68-1.33,1.23-2.13,1.63ZM59.07,59.36c-1.6.79-3.56.87-5.23.24-1.68-.61-3.1-1.96-3.81-3.61-.72-1.63-.72-3.61-.02-5.25.7-1.65,2.11-3.01,3.79-3.63.83-.32,1.74-.46,2.64-.43.89.02,1.74.26,2.54.65.8.4,1.54.97,2.17,1.68.31.36.61.74.85,1.16.14.2.24.42.35.63.08.18.16.35.23.55.28.77.38,1.69.31,2.58-.04.44-.13.87-.25,1.27-.05.05-.1.11-.12.18-.28.85-.72,1.65-1.31,2.33-.6.68-1.33,1.23-2.13,1.63ZM99.89,97.27c-1.6.79-3.56.87-5.23.24-1.68-.61-3.1-1.96-3.81-3.61-.72-1.63-.72-3.61-.02-5.25.7-1.65,2.11-3.01,3.79-3.63.83-.32,1.74-.46,2.64-.43.89.02,1.74.26,2.54.65.8.4,1.54.97,2.17,1.68.31.36.61.74.85,1.16.14.2.24.42.35.63.08.18.16.35.23.55.28.77.38,1.69.31,2.58-.04.44-.13.87-.25,1.27-.05.05-.1.11-.12.18-.28.85-.72,1.65-1.31,2.33-.6.68-1.33,1.23-2.13,1.63ZM126.32,44.84c-1.6.79-3.56.87-5.23.24-1.68-.61-3.1-1.96-3.81-3.61-.72-1.63-.72-3.61-.02-5.25.7-1.65,2.11-3.01,3.79-3.63.83-.32,1.74-.46,2.64-.43.89.02,1.74.26,2.54.65.8.4,1.54.97,2.17,1.68.31.36.61.74.85,1.16.14.2.24.42.35.63.08.18.16.35.23.55.28.77.38,1.69.31,2.58-.04.44-.13.87-.25,1.27-.05.05-.1.11-.12.18-.28.85-.72,1.65-1.31,2.33-.6.68-1.33,1.23-2.13,1.63Z"/>
</svg>