<?xml version="1.0" encoding="UTF-8"?>
<svg id="Layer_1_copy_3" data-name="Layer 1 copy 3" xmlns="http://www.w3.org/2000/svg" viewBox="0 0 150 150">
  <defs>
    <style>
      .cls-1 {
        fill: #191919;
      }
    </style>
  </defs>
  <path class="cls-1" d="M121,89.63s0-.01-.01-.02l-1.28-1.94,3.6-2.14,4.1-2.44,3.89-2.31c.33-.21.71-.4,1-.62.17-.1.29-.22.41-.33l.18-.17.14-.17c.21-.23.33-.46.47-.68.09-.21.21-.44.25-.63l.09-.29.05-.27c.03-.15.06-.47.04-.77,0-.15-.02-.3-.04-.41-.02-.11-.04-.19-.06-.28-.03-.17-.11-.37-.18-.57-.18-.4-.4-.85-.86-1.3-.43-.46-1.2-.82-1.89-1.2l-5.97-3.22-8.39-4.53-27.36-14.78s.05-.03.07-.05c.11-.08.2-.15.33-.27.13-.12.24-.25.32-.34.33-.4.65-.95.78-1.68.08-.36.06-.78.06-1.18v-17.77c0-.4.01-.82-.06-1.18-.07-.36-.18-.69-.32-.97-.07-.15-.15-.26-.22-.39-.08-.11-.16-.23-.25-.33-.09-.11-.23-.26-.35-.36-.1-.1-.22-.17-.32-.26-.46-.32-1.09-.63-1.89-.67l-4.01-.12s-.06,0-.08,0l-7.87-.22-6.46-.18c-.4,0-.77.05-1.11.14-.32.1-.62.22-.86.37-.13.07-.23.15-.34.23-.11.07-.21.16-.34.29-.13.13-.22.23-.3.33-.08.11-.16.21-.24.34-.16.23-.29.53-.4.85-.1.33-.16.7-.17,1.1v8.97c-5.46-.46-11.07-.09-16.47,1.41-5.88,1.62-11.52,4.68-15.95,9.09-2.21,2.2-4.12,4.71-5.64,7.41-1.53,2.7-2.68,5.6-3.48,8.55-.8,2.96-1.26,5.97-1.44,8.98-.03.75-.1,1.5-.09,2.25v2.25c.06,1.25.11,2.5.23,3.74l-1.94.05-2.07.06-1.57.04c-.52.02-1.07,0-1.52.11-.46.11-.83.3-1.14.5-.31.22-.53.4-.79.72-.4.5-.79,1.26-.77,2.3l.49,8.01.43,7.07.1,1.57c.04.52.18.98.37,1.35.19.38.42.67.66.91.05.06.16.16.22.2.07.05.13.11.21.16.14.1.31.2.48.29.36.17.78.31,1.28.36.5.03,1.04-.02,1.56-.02l2.57-.07,9.78-.28c.07,0,.13.01.21.01l4.37-.12c.49,0,.98-.03,1.38-.15.4-.12.76-.29,1.03-.49.28-.2.49-.38.72-.67.19-.24.37-.51.51-.87.14-.35.25-.75.26-1.21,0-.47-.05-.97-.07-1.45l-.16-2.59-.18-2.92-.36-5.83-.12-2-.09-1.46c-.03-.48-.05-.99-.18-1.4-.12-.41-.31-.77-.51-1.05-.1-.14-.21-.27-.32-.38-.05-.05-.11-.11-.19-.19-.08-.07-.13-.11-.19-.16-.51-.38-1.25-.75-2.23-.73l-5.4.15c-.14-1.24-.18-2.48-.25-3.72v-1.96c-.01-.66.06-1.3.08-1.95.16-2.59.55-5.15,1.22-7.61,1.32-4.92,3.81-9.43,7.36-12.93,3.53-3.52,8.06-6.01,12.98-7.37,4.69-1.31,9.7-1.6,14.66-1.13v3.2c.03.8.32,1.43.63,1.9.08.11.15.22.25.33.1.12.24.26.35.35.21.17.43.34.71.49.27.15.6.27.96.34.36.09.78.07,1.18.09l2.43.07,6.26.17-2.22,54.58c-.02.92.25,1.61.53,2.1.08.11.15.25.23.35l.24.29c.17.18.27.29.55.5.27.21.64.4.82.47.19.08.43.15.67.21.51.1,1.15.15,1.94-.09.19-.04.4-.16.6-.24l.62-.31,1.25-.63,2.5-1.26,2.54-1.28,8.82-4.46,16.13,24.22,24.35-10.8-16.5-24.98ZM32.13,97.39l-12.04.34-.61-9.99,12.04-.33.61,9.97ZM71.93,31.46l12.04.33v12.55l-12.04-.33v-12.55ZM108.67,106.45l-4.27-6.41-2.53-3.8c-.36-.52-.69-1.11-1.11-1.54-.42-.42-.87-.69-1.3-.87-.23-.09-.53-.18-.79-.23-.26-.05-.48-.05-.73-.06-.51.01-1.09.13-1.66.41l-13.59,6.87,1.84-45.09,28.8,15.56,10.82,5.84-4.31,2.56-4.6,2.74-1.03.61c-.34.2-.69.4-1,.63-.59.46-.96,1.01-1.17,1.5-.1.22-.21.55-.27.89-.06.34-.06.56-.05.86.02.57.21,1.26.63,1.92l2.8,4.24s0,.01.01.02l12.26,18.56-11.8,5.23-6.96-10.44Z"/>
</svg>