<?xml version="1.0" encoding="UTF-8"?>
<svg id="Layer_1_copy_3" data-name="Layer 1 copy 3" xmlns="http://www.w3.org/2000/svg" viewBox="0 0 150 150">
  <defs>
    <style>
      .cls-1 {
        fill: #191919;
      }
    </style>
  </defs>
  <path class="cls-1" d="M137.2,37.52c-.03-.48-.07-.97-.11-1.46l-.07-.75-.04-.4c-.03-.24-.06-.47-.09-.7-.13-.91-.31-1.82-.65-2.61-.18-.38-.39-.73-.64-1.04-.25-.3-.59-.6-.93-.75l-.51-.28c-.21-.04-.43-.07-.65-.1l-1.31-.2c-.45-.05-.92-.05-1.37-.07l-.8-.02-2.82-.04c-7.46-.06-14.87,0-22.29.05l-22.25.21-44.48.57c-8.5.12-9.21,1.61-9.18,3.42.03,1.81.78,3.27,9.28,3.14l44.45-.57,22.22-.21c7.4-.05,14.82-.1,22.18-.05l2.74.04h.59s.03.3.03.3l.06.64c.04.43.07.87.1,1.31.22,3.55.27,7.24.29,10.91.02,7.35-.14,14.74-.36,22.12-.23,7.38-.55,14.76-.96,22.13-.21,3.68-.45,7.36-.74,11.02-.14,1.7-.29,3.4-.46,5.07l-38.14-35.51,4.71-3.93,25.25-21.04c6.53-5.44,6.15-7.04,4.99-8.43s-2.66-2.05-9.19,3.39l-25.25,21.04-12.63,10.52-6.31,5.26-1.93,1.61-.36-.34L19.15,34.97c-.64-.59-1.25-.8-1.75-.93-.12-.02-.26-.07-.37-.08l-.33-.03h-.17s-.14,0-.14,0l-.28.02c-.21.01-.3.04-.54.09-.23.06-.56.17-.83.31-.28.14-.48.28-.59.37-.13.09-.27.22-.4.35-.27.28-.57.64-.8,1.19-.24.53-.37,1.29-.34,2.2l-.04,5.2-.05,10.52c-.02,6.95-.02,13.89,0,20.84.03,6.95.09,13.9.23,20.87.07,3.48.16,6.97.32,10.48.08,1.76.17,3.51.31,5.31l.12,1.37.11.99c.06.43.12.86.2,1.28.16.84.41,1.63.84,2.23.1.16.23.29.35.43.13.13.29.28.42.37.28.21.6.38.97.51.51.16,1.1.21,1.68.27l1.67.12,1.79.1,3.56.16,7.08.27c4.72.16,9.43.3,14.15.42,9.43.25,18.86.44,28.29.57,9.43.13,18.87.2,28.32.13,4.73-.04,9.46-.11,14.22-.28,2.38-.09,4.76-.19,7.18-.38,1.21-.09,2.43-.2,3.71-.38l.49-.07.54-.09c.58-.1,1.15-.23,1.71-.4.55-.17,1.07-.4,1.52-.71.23-.15.44-.33.61-.54.22-.18.36-.41.51-.63.44-.74.66-1.65.83-2.56l.11-.6.06-.38.11-.74c.14-.97.25-1.92.35-2.87.2-1.89.37-3.76.52-5.63.3-3.73.54-7.45.75-11.17.42-7.43.73-14.86.97-22.3.23-7.44.39-14.87.37-22.34-.02-3.74-.06-7.47-.3-11.32ZM19.08,54.2l.05-10.29,35.88,33.31-35.21,31.95c-.06-1.03-.12-2.06-.16-3.1-.15-3.42-.24-6.87-.31-10.33-.14-6.91-.2-13.83-.23-20.76-.03-6.93-.03-13.86,0-20.79ZM116.93,114.05c-4.66.16-9.34.23-14.03.27-9.38.07-18.78,0-28.18-.13-9.4-.13-18.8-.32-28.2-.57-4.7-.12-9.4-.26-14.09-.42l-7.01-.27,34.43-31.24,5.25,4.88,1.14,1.06c.5.48,1.04.86,1.61,1.1,1.15.51,2.54.57,3.73.13.59-.2,1.15-.54,1.68-.99l1.23-1.02,1.58-1.32,6.31-5.26,2.83-2.36,38.43,35.78c-2.2.16-4.44.27-6.69.35Z"/>
</svg>