<?xml version="1.0" encoding="UTF-8"?>
<svg id="Layer_1_copy_3" data-name="Layer 1 copy 3" xmlns="http://www.w3.org/2000/svg" viewBox="0 0 150 150">
  <defs>
    <style>
      .cls-1 {
        fill: #191919;
      }
    </style>
  </defs>
  <path class="cls-1" d="M108.71,47.11h0s0,0,0,0Z"/>
  <path class="cls-1" d="M123.1,112.42v-57.21c-.02-1.04-.13-2.11-.32-3.19-.21-1.08-.52-2.16-.97-3.22-.89-2.12-2.38-4.08-4.19-5.5-1.81-1.44-3.86-2.38-5.95-2.94-.53-.14-1.06-.26-1.62-.35l-.44-.06c-.2-.02-.43-.05-.64-.06h-.82s-2.6.04-2.6.04l-5.19.06-41.55.51c-.24,0-.46,0-.68.02-.44-.02-.92-.03-1.45-.03l-10.37.1-2.59.02h-1.3s-1.48.05-1.48.05c-2.02.11-4.19.42-6.36,1.42-.54.27-1.08.51-1.59.87-.26.17-.51.34-.77.52l-.71.6c-.49.39-.88.88-1.3,1.34-.39.48-.72.99-1.06,1.5-1.22,2.08-1.77,4.26-2.05,6.29l-.15,1.52c-.03.5-.04.99-.05,1.48-.02.52-.01.91-.01,1.36v61.69l.03.76.08,1.54c.25,2.09.75,4.26,1.85,6.31,1.08,2.05,2.79,3.86,4.78,5.09.99.63,2.05,1.11,3.15,1.46.27.09.55.18.84.24.28.08.57.14.88.2.15.03.29.05.55.09.22.03.43.05.65.05h.74s10.39,0,10.39,0h54.54c.92-.02,1.93-.07,2.89-.11,1.98-.23,3.99-.49,6.03-1.29,2.02-.75,4.07-1.93,5.72-3.72.43-.42.77-.94,1.14-1.43.32-.53.66-1.04.91-1.62.27-.56.49-1.15.67-1.77.09-.31.17-.63.23-.97.03-.16.06-.38.09-.6.03-.21.04-.43.04-.65v-10.42ZM115.89,70.87v51.91s0,0,0,0c0,0,0-.01,0,.04-.01.08-.04.18-.07.29-.06.21-.14.44-.25.65-.08.23-.24.43-.36.64-.17.19-.28.42-.48.59-.7.76-1.71,1.39-2.93,1.84-1.19.49-2.66.68-4.1.86l-2.3.08H39.89s-.05,0-.09-.02c-.12-.02-.25-.05-.39-.09-.13-.03-.27-.07-.41-.12-.55-.18-1.08-.41-1.55-.72-.95-.6-1.71-1.38-2.24-2.4-.54-1.01-.85-2.26-1.02-3.6l-.05-1.05-.03-.53v-61.69c0-.42,0-.9.01-1.24l.04-1.11.11-1.07c.18-1.39.55-2.62,1.09-3.54.55-.9,1.24-1.49,2.22-1.97.97-.47,2.3-.71,3.72-.78l1.12-.03h1.3s2.6-.04,2.6-.04l10.41-.1c.23,0,.46,0,.67-.02.45.02.94.03,1.48.03l41.56-.51,5.19-.06,2.6-.03h.32s.15,0,.15,0h0s0,0,0,0l.2.03c.29.05.61.11.92.2,1.25.33,2.41.88,3.31,1.61.91.72,1.58,1.61,2.04,2.68.22.54.39,1.13.52,1.74.1.63.18,1.28.19,1.98v5.13s0,10.39,0,10.39Z"/>
  <path class="cls-1" d="M37.65,35.83c.61.37,1.46.66,2.44.66h20.48c.17,0,.32,0,.47-.02h28.95s15.58.02,15.58.02h3.2c.65,0,1.26-.11,1.76-.3.5-.19.91-.41,1.36-.79.44-.36.81-.83,1.06-1.28.24-.44.43-.92.53-1.51.11-.59.05-1.26.04-1.91l-.05-1.78-.24-9.03c-.02-.72-.21-1.37-.46-1.89-.23-.5-.62-1.03-1.1-1.46-.24-.21-.5-.4-.75-.55-.25-.14-.5-.26-.8-.36-.58-.22-1.29-.29-2.02-.27l-5.33-.03-8.69-.05-17.39-.09-36-.19c-.57,0-1.1.1-1.55.26-.46.16-.83.35-1.25.65-.4.3-.77.68-1.04,1.07-.27.39-.46.78-.62,1.27-.16.48-.22,1.04-.24,1.62l-.09,1.71-.09,1.84-.42,8.17c-.04.99.21,1.83.56,2.46.35.69,1.04,1.4,1.71,1.78ZM43.09,22.23l63.01.33.17,6.55v.17s-.69,0-.69,0h-15.58s-31.16-.02-31.16-.02c-.17,0-.34,0-.49.02h-15.61l.36-7.05Z"/>
  <path class="cls-1" d="M104.79,84.23v-7.54c.02-.7-.07-1.36-.28-1.89-.1-.27-.22-.5-.35-.71-.12-.21-.27-.4-.48-.63-.2-.22-.44-.42-.64-.56-.2-.13-.41-.27-.66-.38-.49-.23-1.1-.4-1.79-.39h-10.81v-9.73c0-.69,0-1.4-.18-1.96l-.15-.41-.17-.36c-.13-.22-.24-.42-.42-.63-.17-.22-.4-.45-.62-.62-.11-.09-.21-.16-.31-.23l-.32-.19c-.45-.25-1.02-.45-1.69-.5-.68-.03-1.38,0-2.06-.02h-18.25c-.26,0-.49.01-.71.03-.36,0-.73.05-1.06.17-.43.13-.77.33-1.09.53-.31.2-.7.57-.93.89-.44.57-.83,1.39-.87,2.44l-.27,10.95h-9.01c-.64,0-1.22.12-1.69.32-.23.1-.45.21-.64.34-.19.11-.37.25-.58.44-.2.18-.39.4-.53.59-.13.18-.25.37-.36.59-.22.43-.4.96-.44,1.57-.03.62,0,1.27-.02,1.9v16.38c-.01.64.06,1.25.25,1.74.09.25.2.47.31.68.12.21.23.37.4.58.17.2.38.41.58.57.2.16.37.27.58.39.41.23.91.43,1.51.5.6.07,1.26.03,1.88.04h8.86l.16,6.8.06,2.6c.02.69.03,1.38.06,2.07.04.68.24,1.27.49,1.73.13.23.25.43.42.64.17.21.4.44.62.62.11.09.22.16.31.23l.33.19.37.17.41.15c.57.19,1.28.19,1.97.18h19.64c.68-.01,1.41.04,2.03-.08.61-.13,1.12-.37,1.51-.64.39-.25.92-.79,1.14-1.17.27-.41.5-.92.61-1.55.11-.63.05-1.35.07-2.04v-10.27h7.23c.68-.01,1.4.04,2.04-.05.64-.09,1.17-.33,1.59-.59.21-.12.4-.27.63-.48.22-.2.42-.44.56-.64.27-.39.52-.88.66-1.48.16-.6.1-1.33.11-2.01v-9.27ZM97.58,91.53h-7.27c-.68.01-1.4-.04-2.04.06-.63.1-1.16.33-1.57.6-.38.21-.92.73-1.18,1.13-.27.4-.52.89-.65,1.5-.15.6-.08,1.34-.1,2.02v10.45h-15.58l-.27-11.31c-.02-.63-.18-1.2-.39-1.66-.23-.47-.43-.79-.85-1.21-.43-.41-.75-.62-1.22-.83-.46-.21-1.02-.36-1.65-.37h-5.33s-4.86,0-4.86,0v-12.2h8.13c.63,0,1.29.03,1.84-.11.55-.13,1.01-.35,1.39-.6.37-.23.86-.72,1.09-1.07.25-.37.49-.83.63-1.39.15-.55.12-1.22.15-1.85l.05-1.9.05-1.96.15-6.13h14.48v9.95c0,.35,0,.69.03,1.02.08.65.3,1.2.55,1.63.13.22.25.4.45.63.19.22.43.44.64.59.39.28.85.53,1.44.69.58.17,1.3.14,1.99.14h9.91,0s0,12.2,0,12.2Z"/>
</svg>