<?xml version="1.0" encoding="UTF-8"?>
<svg id="Layer_1_copy_3" data-name="Layer 1 copy 3" xmlns="http://www.w3.org/2000/svg" viewBox="0 0 150 150">
  <defs>
    <style>
      .cls-1 {
        fill: #191919;
      }
    </style>
  </defs>
  <path class="cls-1" d="M137.48,85.96l-.14-5.52-.22-9.04-.45-18.08c-.03-1.17-.1-2.16-.21-3v-13.4c-.05-.74-.26-1.39-.53-1.89-.15-.25-.27-.46-.46-.7-.19-.24-.44-.49-.68-.69-.24-.2-.45-.32-.69-.46l-.4-.19c-.15-.05-.29-.11-.45-.16-.62-.21-1.4-.2-2.16-.19h-45.09c-.76,0-1.52,0-2.28,0-.75.03-1.4.23-1.91.5-.26.14-.47.27-.7.45-.24.18-.49.43-.69.67-.21.24-.33.45-.48.7-.14.25-.26.53-.36.83-.22.61-.22,1.39-.21,2.15v14.14c-.02.77.11,1.48.36,2.04.26.57.49.95.99,1.45.24.24.48.43.7.56.23.15.48.28.76.4.57.24,1.29.36,2.05.34h13.78l-9.96,8.71-.86.75c-.28.25-.6.53-.77.65-.2.17-.4.34-.61.46l-.31.21-.33.18c-.88.48-1.85.77-2.85.88-1,.1-2.02-.02-2.97-.32l-.36-.11-.34-.15c-.24-.08-.45-.21-.67-.33-.23-.1-.43-.26-.64-.39-.11-.06-.21-.13-.3-.22l-.42-.34-.54-.39c-.18-.13-.37-.24-.57-.34l-.44-.22-.38-.18c-.51-.23-1-.43-1.5-.61-1-.37-2-.66-3.01-.9-2.02-.47-4.08-.73-6.14-.74-4.12-.06-8.19.78-11.91,2.25-3.74,1.46-7.12,3.54-10.19,5.89-1.51,1.2-2.99,2.44-4.34,3.77l-1.02.99-.95.95-1.89,1.89-15.13,15.13-1.89,1.89-1.38,1.38-.95.95c-.31.32-.64.63-.91.96-.52.67-.78,1.36-.89,1.97-.05.29-.09.69-.07,1.07.02.4.08.68.17.99.17.62.54,1.33,1.16,1.96l1.92,1.85,9.1,8.75c.45.43.94.73,1.41.92.23.09.47.17.68.22.22.06.43.09.7.11.26.02.54.02.8-.01.25-.02.45-.07.68-.13.45-.12.93-.31,1.4-.64.48-.32.91-.79,1.36-1.21l1.34-1.28,1.42-1.36,5.35-5.14,10.7-10.27,5.35-5.14,1.31-1.26c.35-.31.68-.65,1.05-.89.7-.55,1.49-.97,2.32-1.3,1.65-.67,3.49-.86,5.25-.6.89.12,1.73.41,2.56.74.39.21.81.37,1.17.63.18.12.39.21.56.36l.27.2c.06.05.06.04.06.05h.02s0,.02,0,.02c.22.31.45.59.68.86.47.54.96,1.05,1.5,1.52,1.07.94,2.28,1.76,3.62,2.37,1.34.62,2.8,1.02,4.27,1.18,1.47.16,2.93.08,4.3-.17,1.37-.25,2.67-.65,3.86-1.16,1.21-.49,2.31-1.11,3.38-1.74,2.1-1.3,3.94-2.8,5.65-4.37l1.21-1.16,1.17-1.1,2.33-2.17,4.67-4.35,4.67-4.35,1.92-1.79h-.01v14.47c0,.44,0,.88.06,1.28.12.8.43,1.43.76,1.91.08.13.16.23.27.35.1.12.23.25.36.38.27.25.58.47.82.6l.4.19c.13.06.25.13.44.16l.51.12.26.06c.08.02.17.05.28.03l1.26-.08c.42-.02.87-.11,1.3-.16l1.31-.17.98-.12,1.29-.15,2.59-.28,2.59-.27,4.1-.4.54-.09c.19-.02.32-.11.48-.16l.46-.18c.15-.06.32-.11.42-.2.23-.17.49-.3.7-.5.23-.2.47-.47.65-.72.18-.25.3-.47.43-.74.12-.27.23-.56.3-.89.18-.64.11-1.44.09-2.18ZM125.88,84.55l-4.28.48v-18.36c0-.44-.02-.86-.07-1.24l-.12-.51c-.04-.17-.11-.29-.16-.43-.47-1.11-1.09-1.61-1.58-1.99-.2-.17-1-.58-1.44-.67-.2-.05-.33-.07-.49-.1l-.55-.04c-.18-.02-.43.02-.64.03-.22.01-.5.1-.74.15-.55.19-1.14.44-1.79,1.02l-12.14,11.3-4.69,4.37-2.35,2.18-1.16,1.09-1.1,1.06c-1.43,1.32-2.92,2.51-4.44,3.46-.76.45-1.53.88-2.3,1.19-.76.33-1.52.55-2.24.69-1.46.27-2.75.12-3.94-.42-.6-.27-1.17-.65-1.7-1.12-.26-.24-.52-.49-.74-.76-.11-.13-.22-.27-.31-.39-.31-.4-.68-.79-1.02-1.19l-1.13-.86c-.31-.25-.66-.43-.99-.64-.66-.44-1.38-.76-2.09-1.11-1.46-.61-2.97-1.09-4.54-1.31-3.12-.46-6.36-.11-9.29,1.07l-.55.22-.53.26c-.35.18-.71.34-1.06.54-.68.41-1.36.81-1.98,1.3-.65.46-1.2.99-1.77,1.51l-1.36,1.3-5.34,5.12-17.26,16.58-6.32-6.07,2.41-2.41,15.13-15.13,1.89-1.89.95-.95.9-.87c1.18-1.17,2.45-2.22,3.72-3.24,2.58-1.99,5.35-3.66,8.26-4.8,2.91-1.14,5.95-1.75,8.97-1.71,1.51.01,3.01.2,4.46.54.72.17,1.43.38,2.11.63.34.12.67.26.97.4l.85.56c.2.16.4.31.62.45.43.28.84.57,1.3.8.45.25.9.48,1.37.67l.71.29.73.24c1.94.61,4.01.83,6.03.64,2.03-.2,4.01-.8,5.81-1.78l.67-.37.64-.42c.43-.28.82-.59,1.21-.91.43-.35.68-.57.97-.82l.86-.75,6.85-5.99,3.78-3.31,3.43-3,1.72-1.5c.28-.25.6-.5.83-.75l.36-.37.25-.36c.64-.96.73-1.72.78-2.33,0-.28,0-.59-.04-.81-.02-.13-.02-.21-.07-.43-.05-.2-.13-.47-.23-.71-.1-.24-.22-.45-.28-.56l-.2-.3c-.06-.1-.17-.21-.26-.32-.1-.11-.17-.21-.3-.33-.47-.44-1.15-.95-2.36-1.19-.65-.09-1.44-.06-2.2-.07h-18.13v-8.66h41.53v11.92c0,1.7.1,3.02.29,4.06l.68,27.75-3.76.39Z"/>
</svg>