<svg width="42" height="42" viewBox="0 0 42 42" fill="none" xmlns="http://www.w3.org/2000/svg">
<rect width="42" height="42" fill="white"/>
<g clip-path="url(#clip0_13_534)">
<path d="M23.0294 31C14.6308 31 5.75279 30.9504 4.32272 30.818C3.70274 30.76 3.1985 30.3132 3.06624 29.7009C2.77692 28.3521 3.38862 23.8755 5.54613 20.4911C9.03451 14.9967 10.7374 14.2685 14.8457 12.5226C15.3169 12.324 15.8212 12.1088 16.3667 11.8689C17.028 11.5792 19.541 11.1076 21.5249 11.0745C21.6985 11.0745 21.9052 11.0579 22.1283 11.0497C24.1453 10.9421 28.3198 10.7187 32.7092 14.8478L32.9242 15.0546C34.875 16.8833 36.5531 18.4638 38.5039 22.7667C38.6362 23.0646 39.8431 26.2007 39.9836 28.1701C40.0332 28.9231 39.9257 29.5519 39.6695 29.9988L39.3223 30.4291L38.9172 30.7187L38.446 30.8924L38.0741 30.9421C35.8918 30.9835 29.6011 31.0083 23.0294 31.0083V31ZM4.66164 29.1796C8.02602 29.403 33.0151 29.3616 37.9997 29.2706L38.2063 29.1961L38.2642 29.1216C38.3138 29.0058 38.3799 28.7245 38.3468 28.2694C38.2311 26.6641 37.1813 23.8176 37.0077 23.4286C35.1974 19.432 33.7012 18.0252 31.8082 16.2462L31.585 16.0393C27.6998 12.3984 24.1371 12.5888 22.2193 12.6963C21.9713 12.7129 21.7481 12.7212 21.558 12.7212C19.6485 12.7543 17.3835 13.2259 17.0363 13.3749C16.4825 13.6148 15.9782 13.83 15.4988 14.0368C11.5061 15.7414 10.167 16.3124 6.9514 21.3682C5.12455 24.2478 4.54591 27.9797 4.6699 29.1713L4.66164 29.1796ZM21.3761 28.2859C20.8884 28.2859 20.4007 28.1618 19.9708 27.9135C18.4416 27.0281 18.0613 25.2077 18.4746 23.8672C18.9128 22.477 20.3842 21.6744 21.839 21.9971L22.831 22.2619C23.9221 22.9156 24.5504 23.8589 24.6082 24.9264C24.6661 25.9855 24.1205 27.053 23.1782 27.7067C22.6243 28.0873 21.9961 28.2859 21.3761 28.2859ZM21.186 23.5859C20.6735 23.5859 20.194 23.892 20.0535 24.3389C19.8303 25.067 20.0122 26.0269 20.7975 26.4737C21.2273 26.722 21.7646 26.6723 22.2358 26.3413C22.6987 26.0186 22.9798 25.4973 22.955 25.0174C22.9302 24.5375 22.6409 24.1072 22.087 23.7514L21.4753 23.6107C21.3761 23.5859 21.2852 23.5776 21.1943 23.5776L21.186 23.5859Z" fill="black"/>
<path d="M20.9132 23.048C20.8966 21.6578 20.8966 16.5275 20.938 15.6504L22.5912 15.7249C22.5582 16.5275 22.5499 21.4923 22.5664 23.0232L20.9132 23.048Z" fill="black"/>
</g>
<defs>
<clipPath id="clip0_13_534">
<rect width="37" height="20" fill="white" transform="translate(3 11)"/>
</clipPath>
</defs>
</svg>
