<svg width="42" height="42" viewBox="0 0 42 42" fill="none" xmlns="http://www.w3.org/2000/svg">
<rect width="42" height="42" fill="white"/>
<g clip-path="url(#clip0_13_1040)">
<path d="M29.0717 36C26.648 36 24.6225 34.2252 24.1637 31.8736C20.6841 31.7849 17.741 29.0872 17.2736 25.5288L16.3734 18.616C16.2695 17.8084 15.5944 17.205 14.798 17.205H12.2532V18.9088H3V9.42258H12.2532V11.5168H29.0284C29.3227 8.97889 31.4434 7 33.9969 7C36.7581 7 39 9.29835 39 12.1291C39 14.9599 36.7581 17.2583 33.9969 17.2583C31.6252 17.2583 29.6429 15.5633 29.1236 13.2916H12.2532V15.4302H14.798C16.4513 15.4302 17.8622 16.6992 18.0873 18.3764L18.9875 25.2892C19.3337 27.9513 21.5237 29.9746 24.1205 30.09C24.484 27.623 26.5614 25.7329 29.0717 25.7329C31.8329 25.7329 34.0748 28.0312 34.0748 30.862C34.0748 33.6928 31.8329 35.9911 29.0717 35.9911V36ZM29.0717 27.5076C27.2626 27.5076 25.7997 29.0162 25.7997 30.862C25.7997 32.7078 27.2712 34.2163 29.0717 34.2163C30.8721 34.2163 32.3436 32.7078 32.3436 30.862C32.3436 29.0162 30.8721 27.5076 29.0717 27.5076ZM4.73119 17.134H10.522V11.1974H4.73119V17.134ZM33.9882 8.77479C32.1878 8.77479 30.7163 10.2834 30.7163 12.1291C30.7163 13.9749 32.1878 15.4835 33.9882 15.4835C35.7886 15.4835 37.2602 13.9749 37.2602 12.1291C37.2602 10.2834 35.7886 8.77479 33.9882 8.77479Z" fill="black"/>
</g>
<defs>
<clipPath id="clip0_13_1040">
<rect width="36" height="29" fill="white" transform="translate(3 7)"/>
</clipPath>
</defs>
</svg>
