<?xml version="1.0" encoding="UTF-8"?>
<svg id="Layer_1_copy_3" data-name="Layer 1 copy 3" xmlns="http://www.w3.org/2000/svg" viewBox="0 0 150 150">
  <defs>
    <style>
      .cls-1 {
        fill: #191919;
      }
    </style>
  </defs>
  <path class="cls-1" d="M134.3,60.52c-2.47-7.48-6.06-14.55-10.54-21-4.49-6.44-9.88-12.29-16.16-17.13-2.54-1.95-4.25-2.56-5.35-2.54-1.11.02-1.65.67-2.14,1.47.4-.84.64-1.66.05-2.59-.29-.47-.8-.96-1.6-1.5-.8-.52-1.92-1.04-3.41-1.62-7.44-2.66-15.38-4.11-23.36-3.97-7.97.12-15.98,1.87-23.24,5.27-7.28,3.37-13.77,8.32-19.09,14.23-5.28,5.95-9.46,12.78-12.53,20l-1.13,2.72-1.01,2.76c-.35.89-.64,1.89-.93,2.87-.32.98-.53,1.98-.75,2.97-.85,3.99-1.14,8.07-.97,12.08.35,8.05,2.45,15.83,5.61,23.05,3.19,7.22,7.47,13.91,12.64,19.85,5.19,5.92,11.31,11.16,18.46,14.9,3.56,1.85,7.45,3.34,11.42,4.16l5.8,1.09,5.88.6c7.87.51,15.86-.21,23.51-2.32,7.64-2.11,14.99-5.56,21.32-10.46,6.34-4.87,11.71-11.11,15.37-18.32,3.7-7.23,5.48-15.22,5.71-23.19.23-7.98-1.11-15.9-3.58-23.38ZM127.88,62.64c.96,2.92,1.72,5.91,2.27,8.92-1.81.15-19.89-.04-23.57,0,.12-7.9-.33-15.86-1.92-23.75,4.38-1.55,8.68-3.32,12.88-5.35.22.31.45.61.67.93,4.12,5.92,7.42,12.43,9.67,19.26ZM95.15,104.35c-6.1-.97-12.24-1.78-18.44-2.31-.48-.04-.96-.07-1.44-.11v-22.99c4.63-.22,9.24-.39,13.84-.43,3.44,0,6.94-.04,10.42-.09-.58,8.22-1.96,16.38-3.98,24.41-.13.51-.27,1.01-.4,1.52ZM91.78,29.75c.99,2.17,1.85,4.47,2.66,6.84.74,2.2,1.54,4.58,2.19,6.72-.86.26-1.72.5-2.58.74-3.55.97-7.14,1.78-10.75,2.38-1.8.29-3.61.56-5.42.74-.89.1-1.75.18-2.62.23v-28.94c2.62.12,5.23.42,7.82.89,3.92,2.04,6.72,6.07,8.69,10.4ZM99.82,71.65c-3.58.05-7.14.1-10.76.1-4.62.03-9.21.2-13.79.42v-17.99c1.12-.06,2.24-.15,3.32-.28,1.96-.2,3.9-.48,5.83-.79,3.86-.64,7.67-1.5,11.42-2.53.79-.22,1.57-.44,2.35-.68,1.35,7.07,1.75,14.42,1.63,21.75ZM50.07,73.33c-.38-7.01-.24-14.06.45-21.05,5.96,1.17,11.94,1.82,17.99,1.96v18.27l-8.1.43-7.07.32c-1.09.04-2.18.06-3.27.07ZM68.51,47.49c-5.75-.14-11.55-.79-17.15-1.93.03-.18.05-.36.08-.54l.27-1.7c.1-.51.19-1.02.32-1.58.48-2.19,1.09-4.47,1.69-6.73,1.21-4.57,2.51-9.08,3.59-13.9.03-.13.03-.24.04-.36,3.62-1.14,7.37-1.87,11.17-2.17v28.91ZM54.97,101.51c-1.09-3.92-2.09-7.86-2.87-11.78-.63-3.18-1.12-6.41-1.48-9.65.99-.01,1.97-.03,2.96-.06l7.18-.32,7.75-.41v22.23c-4.5-.19-9.02-.21-13.54,0ZM98.18,23.09c.77-.16,1.24-.59,1.59-1.15-.27.6-.38,1.23-.08,1.96.4.98,1.51,2.1,3.79,3.86,3.54,2.73,6.81,5.85,9.77,9.25-3.32,1.55-6.73,2.95-10.19,4.19-.72-2.38-1.45-4.5-2.22-6.79-.85-2.47-1.77-4.99-2.91-7.48-.62-1.35-1.32-2.7-2.11-4.03.11.02.23.05.33.08.86.19,1.51.21,2.03.11ZM49.68,23.89c-.79,3.09-1.66,6.23-2.49,9.37-.61,2.3-1.23,4.6-1.77,7.03-.14.6-.26,1.25-.38,1.9l-.27,1.69c-1.47-.46-2.91-.96-4.31-1.54-2.92-1.23-5.66-2.8-7.62-4.75.53-.65,1.08-1.3,1.64-1.93,4.33-4.81,9.48-8.84,15.19-11.76ZM19.73,63.87c.19-.84.36-1.69.63-2.5.25-.82.47-1.64.81-2.5l.93-2.55,1.04-2.5c1.59-3.75,3.51-7.34,5.71-10.72,2.76,2.5,5.89,4.15,9,5.48,2,.83,4.02,1.52,6.05,2.11-.79,7.5-.99,15.04-.6,22.58-3.66-.1-7.34-.28-11.05-.46-4.57-.23-9.06-.4-13.38-.92.03-2.71.3-5.39.86-8ZM19.32,78.72c4.28.45,8.49.62,12.6.83,3.94.19,7.9.39,11.9.48.38,3.69.93,7.36,1.66,11.02.74,3.72,1.64,7.35,2.62,10.95-6.19.61-12.37,1.68-18.41,3.33-2.19-3.32-4.13-6.82-5.73-10.46-2.26-5.18-3.89-10.63-4.63-16.15ZM35.5,113c-.52-.59-1.02-1.2-1.52-1.81,5.25-1.28,10.6-2.12,16.01-2.59,1.95,6.59,4.03,13.08,5.98,19.55-1.34-.53-2.67-1.12-3.98-1.8-6.22-3.25-11.77-7.96-16.49-13.35ZM63.65,130.26c-2.15-7.46-4.54-14.77-6.73-22.06,3.85-.13,7.73-.09,11.6.08v22.78l-1.46-.15-3.4-.64ZM75.27,131.57v-22.87c.29.02.58.04.86.07,5.73.49,11.45,1.23,17.17,2.13-2.08,6.82-4.57,13.52-7.41,20.07-3.51.49-7.06.69-10.62.61ZM112.69,120.04c-5.53,4.29-12,7.34-18.77,9.24,2.3-5.65,4.36-11.4,6.11-17.26,5.93,1.05,11.86,2.24,17.78,3.47-1.6,1.62-3.31,3.15-5.12,4.55ZM131.12,83.71c-.19,7.07-1.8,14.14-4.98,20.33-.99,1.94-2.14,3.8-3.4,5.58-6.93-1.45-13.89-2.88-20.9-4.13.09-.34.18-.68.27-1.01,2.15-8.54,3.62-17.31,4.2-26.15,3.76-.04,7.5-.05,11.21.04,0,0,11.41.08,13.49-.09.12,1.81.17,3.63.12,5.44Z"/>
</svg>