<?xml version="1.0" encoding="UTF-8"?>
<svg id="Layer_1_copy_3" data-name="Layer 1 copy 3" xmlns="http://www.w3.org/2000/svg" viewBox="0 0 150 150">
  <defs>
    <style>
      .cls-1 {
        fill: #191919;
      }
    </style>
  </defs>
  <path class="cls-1" d="M128.43,103.87c0-.39-.09-.77-.14-1.15-.27-1.53-.87-2.98-1.64-4.2-.77-1.23-1.69-2.26-2.66-3.15-.96-.89-1.97-1.66-3-2.32-1.03-.67-2.07-1.27-3.12-1.79-2.1-1.07-4.22-1.92-6.36-2.67-4.27-1.5-8.57-2.56-12.87-3.47-8.61-1.77-17.25-2.85-25.89-3.63-8.64-.77-17.29-1.22-25.95-1.41l-3.25-.06c-.56,0-1.01-.03-1.52-.05-.49-.03-.99-.02-1.48-.08-1.96-.13-3.86-.46-5.64-.96-1.77-.5-3.4-1.24-4.59-2.16-.33-.22-.53-.48-.8-.71-.12-.12-.2-.25-.3-.37l-.15-.18c-.04-.06-.07-.13-.11-.19-.34-.49-.44-.95-.48-1.41-.05-.23.02-.46.04-.71.04-.12.08-.25.11-.38.02-.13.12-.26.16-.39l.08-.2c.04-.07.09-.14.13-.2l.25-.42c.12-.14.23-.27.34-.41l.16-.21.21-.2c1.06-1.09,2.57-2.05,4.25-2.78,1.68-.74,3.52-1.3,5.43-1.7.47-.11.97-.17,1.45-.26.48-.09.97-.17,1.47-.22l.99-.12c.66.97,1.51,1.82,2.49,2.45,1.86,1.23,4.23,1.7,6.41,1.29,2.2-.38,4.24-1.66,5.55-3.46,1.33-1.79,1.94-4.12,1.65-6.33-.27-2.21-1.43-4.33-3.16-5.73-.68-.57-1.46-1.02-2.29-1.36v-10.17l10.7-3.17,5.41-1.6,5.05-1.49c.88-.27,1.9-.5,2.51-.89l.24-.14.19-.15c.12-.1.26-.2.37-.3l.27-.3c.1-.1.18-.2.24-.29.28-.4.43-.7.57-1.07.17-.42.31-1.24.24-1.83-.01-.15-.03-.28-.05-.39-.02-.1-.04-.19-.06-.28-.06-.19-.07-.34-.18-.57-.1-.21-.15-.4-.32-.64l-.22-.34-.31-.36c-.09-.12-.24-.24-.38-.36-.14-.12-.28-.24-.48-.35-.35-.23-.8-.44-1.21-.65l-2.52-1.27-3.73-1.89-10.08-5.09-6.95-3.51c-.84-.39-1.61-.46-2.22-.42l-.44.05c-.13.03-.26.05-.39.09-.26.07-.61.2-.93.38-.33.18-.64.41-.88.64-.24.23-.39.4-.56.64-.33.45-.65,1.09-.78,1.94-.01.23-.04.45-.04.68v33.23c-1.1.49-2.11,1.19-2.91,2.08-1.06,1.15-1.8,2.59-2.13,4.13-3.62.42-7.27,1.23-10.83,2.79-2.24,1-4.46,2.32-6.41,4.3l-.36.37-.34.41-.67.84c-.21.31-.4.63-.6.95-.1.16-.2.32-.28.49l-.24.53c-.15.37-.33.7-.44,1.1-.11.39-.22.78-.32,1.18-.13.82-.24,1.65-.16,2.5.1,1.68.66,3.34,1.51,4.64.1.17.2.34.31.5l.35.45c.24.29.47.6.72.87.52.5,1.03,1.04,1.59,1.43,2.21,1.7,4.6,2.69,6.94,3.37,2.36.66,4.71,1.05,7.03,1.21.58.07,1.16.06,1.74.09.56.02,1.19.05,1.7.05l3.19.05c8.51.19,17.02.63,25.48,1.38,8.46.76,16.89,1.82,25.1,3.51,4.1.86,8.15,1.87,11.99,3.22,1.91.68,3.78,1.42,5.51,2.31,1.72.88,3.33,1.89,4.55,3.02.61.57,1.12,1.16,1.49,1.75.37.59.6,1.16.7,1.75.01.15.06.29.06.44,0,.16.03.26.01.5-.03.41-.01.84-.09,1.24l-.08.6-.13.58c-.06.4-.23.75-.34,1.12-.56,1.45-1.5,2.75-2.75,3.91-1.25,1.17-2.83,2.15-4.54,3.01-3.45,1.68-7.39,2.83-11.41,3.68-4.03.85-8.18,1.45-12.36,1.88-7.52.78-15.14,1.09-22.78,1.21-.57-1.59-1.56-3.04-2.85-4.12-1.85-1.58-4.35-2.41-6.77-2.27-2.43.12-4.81,1.23-6.47,3-1.68,1.75-2.65,4.2-2.65,6.63,0,2.43.96,4.87,2.65,6.63,1.66,1.77,4.04,2.88,6.47,3,2.42.15,4.92-.68,6.77-2.27,1.17-.98,2.09-2.26,2.68-3.68,7.86-.12,15.75-.43,23.66-1.25,4.36-.46,8.72-1.08,13.09-2,2.18-.48,4.37-1,6.55-1.7,2.18-.69,4.35-1.5,6.49-2.55,2.13-1.07,4.24-2.35,6.15-4.11,1.89-1.74,3.56-3.98,4.54-6.55.21-.65.47-1.29.6-1.95l.22-.99.14-.99c.11-.67.11-1.32.14-1.97.02-.3-.01-.74-.03-1.11ZM52.39,61.87c-.29.4-.72.66-1.2.75-.49.09-.98,0-1.39-.28-.36-.24-.63-.59-.76-.99-.07-.27-.13-.51-.09-.78.03-.41.21-.81.49-1.13.34-.36.78-.57,1.28-.61.49-.04.96.12,1.35.43.38.32.62.75.69,1.24.06.49-.07.97-.36,1.37ZM54.18,23.53l3.13,1.58,11.38,5.76-14.51,4.29v-11.63ZM60.68,125.66c-.07.68-.42,1.32-.95,1.77-.53.45-1.21.67-1.91.63-.69-.03-1.34-.34-1.82-.84-.48-.51-.74-1.17-.75-1.87,0-.7.27-1.36.75-1.87.48-.51,1.13-.81,1.82-.84.7-.04,1.38.18,1.91.63.53.45.88,1.09.95,1.77,0,.02.02.04.05.06,0,.16-.01.32-.01.49-.02.02-.03.04-.04.06Z"/>
</svg>