<?xml version="1.0" encoding="UTF-8"?>
<svg id="Layer_1_copy_3" data-name="Layer 1 copy 3" xmlns="http://www.w3.org/2000/svg" viewBox="0 0 150 150">
  <defs>
    <style>
      .cls-1 {
        fill: #191919;
      }
    </style>
  </defs>
  <path class="cls-1" d="M109.74,36.76c-.91-2.37-2.15-4.61-3.64-6.63-1.49-2.02-3.23-3.84-5.12-5.43-3.78-3.19-8.14-5.48-12.67-7.09-4.54-1.59-9.3-2.52-14.18-2.61-2.44-.04-4.91.14-7.41.67-.62.14-1.25.3-1.87.48-.62.21-1.27.4-1.83.64-1.17.45-2.26.98-3.35,1.53-4.29,2.24-8.2,5.09-11.6,8.57-3.38,3.47-6.25,7.64-7.91,12.39-.84,2.36-1.38,4.84-1.62,7.34-.22,2.51-.08,5.02.27,7.47l.33,1.82c.11.61.29,1.19.44,1.79.27,1.2.72,2.33,1.1,3.49.2.57.45,1.12.68,1.68.24.55.44,1.13.72,1.66l.8,1.61.4.8.44.78c.59,1.03,1.16,2.08,1.83,3.05l.97,1.49.16.24c.06.08.13.22.23.32l.49.51.51.53c1.33,1.46,2.51,3.15,3.59,4.93,2.14,3.58,3.84,7.55,5.27,11.64,1.33,3.82,2.41,7.76,3.3,11.73-.15.16-.3.33-.45.5-.49.61-.97,1.28-1.37,2.32-.37,1-.5,2.09-.33,3.15.17,1.04.66,2.07,1.29,2.87.11.13.22.26.33.39-.42.46-.78.99-1.03,1.56-.29.63-.46,1.33-.53,2-.07.69-.03,1.28.05,1.83.04.28.09.54.15.79.03.13.06.25.09.36l.04.13s-.01,0,0,0l.05.19.04.12h0s0-.02,0-.02l-.02-.08h0s0-.01,0-.02c0,.05.02.1.03.15h0s0,0,0,0c0,0,0,.02,0,.03.03.11.06.22.09.33l.03.08.02.05.03.09c.05.12.1.23.15.35.06.13.09.18.14.27.09.16.18.33.26.44.34.53.67.9,1.01,1.27.34.36.7.69,1.07.99.49.4,1.01.75,1.54,1.06-.01.35,0,.68.04.95.02.22.06.43.1.62.04.2.08.39.13.56.2.72.46,1.35.76,1.94.6,1.18,1.36,2.19,2.23,3.1,1.74,1.8,3.96,3.07,6.26,3.75,1.15.35,2.32.55,3.48.65,1.16.1,2.29.07,3.42-.02,1.15-.1,2.35-.32,3.56-.73,1.21-.41,2.46-1.05,3.54-1.98,1.1-.92,1.96-2.13,2.52-3.36.58-1.24.87-2.47,1.05-3.64.08-.58.14-1.14.17-1.69l.06-1.16.14-.06c.32-.16.64-.33.95-.53.13-.08.26-.17.39-.26.07-.03.13-.06.21-.09.06-.02.18-.11.23-.19.02-.03.04-.06.06-.09.3-.25.59-.53.87-.82,1.07-1.15,1.83-2.72,1.99-4.41.17-1.68-.28-3.53-1.45-4.99-.02-.02-.04-.04-.05-.06.38-.66.59-1.45.59-2.13,0-.74-.15-1.34-.33-1.83-.37-.97-.84-1.6-1.3-2.16-.47-.55-.95-1-1.47-1.41-.14-.11-.3-.22-.45-.32.1-.23.19-.49.27-.79.08-.3.11-.65.19-1.04.59-3.93,2.17-7.93,3.98-11.86,1.84-3.94,3.96-7.83,6.08-11.8,2.12-3.97,4.25-8.01,6.09-12.28.93-2.13,1.78-4.32,2.49-6.59.71-2.27,1.32-4.61,1.65-7.04.7-4.84.4-10.09-1.47-14.82ZM51.84,68.8h0s-.02,0-.02,0c-.02-.02,0,0,0,0ZM65.02,117.21c-.1-.09-.19-.17-.27-.26-.09-.1-.18-.2-.24-.28l-.03-.09-.04-.13-.05-.19c-.02-.06-.03-.11-.04-.15-.02-.09-.04-.17-.05-.24-.03-.14-.02-.26-.02-.26h0s0-.01,0-.01c.01,0,.06,0,.07-.04.04-.02.13-.04.18-.07.07-.03.1-.07.22-.09.1-.02.19-.05.29-.08.1-.03.18-.06.32-.07l.74-.11.68-.03c1.7.32,3.32.44,4.92.52,1.04.07,2.06.06,3.09.07,1.02-.02,2.04-.02,3.05-.07,3.48-.13,6.89-.45,10.32-.88.26.05.29.09.33.13.04.04.11.19.09.41-.02.2-.11.45-.32.68-.1.03-.2.07-.3.1-.43.14-.88.27-1.34.41-.92.26-1.86.5-2.81.72-1.9.44-3.83.81-5.75,1.1-1.92.29-3.84.5-5.7.56-.93.04-1.84.02-2.71-.04-.86-.06-2.37-.35-2.41-.36-.76-.24-1.46-.62-2.04-1.09l-.2-.17ZM64.44,116.57h0s0,0,0,0h0s0,0,0,0ZM83.04,126.17c-.24.51-.52.9-.9,1.22-.73.64-2,1.07-3.53,1.2-.78.06-1.58.08-2.33.01-.76-.07-1.49-.2-2.18-.41-1.38-.41-2.59-1.13-3.53-2.09-.28-.28-.52-.59-.74-.91.94.05,1.86.05,2.75.02,2.21-.08,4.34-.31,6.44-.63,1.55-.23,3.08-.51,4.6-.84-.02.18-.04.36-.06.53-.11.73-.28,1.38-.52,1.88ZM104.92,50.68c-.27,2.01-.8,4.03-1.42,6.04-.63,2.01-1.4,4-2.26,5.98-1.71,3.97-3.77,7.87-5.87,11.81-2.1,3.94-4.28,7.92-6.23,12.12-.97,2.1-1.89,4.26-2.68,6.51-.79,2.24-1.44,4.6-1.82,7.08-.05.25-.07.48-.09.71-.2-.02-.4-.05-.59-.06-2.11-.18-3.99-.18-5.9-.21l-5.68-.02c-.38,0-.41,1.42-.41,3.18s.03,3.18.41,3.18l5.62.02c1.85.02,3.75.04,5.39.18.41.03.78.08,1.13.15.35.06.69.14,1.11.26l.14.04.05.02s.09.03.13.05c.1.04.21.09.32.15.23.12.48.28.7.46.07.06.14.12.2.17-3.17.4-6.39.69-9.56.81-.95.05-1.88.05-2.82.07-.93-.02-1.86,0-2.77-.07-.92-.03-1.8-.13-2.69-.21l-1.28-.19c-.43-.06-.8-.18-1.2-.26-.04,0-.09,0-.13.05-.76-.32-1.45-.69-1.94-1.05l-.18-.14c-.07-.05-.12-.09-.16-.14l-.13-.12s-.04-.05-.06-.08l-.02-.02s.13-.23.29-.42c.22-.27.55-.58.91-.87.24-.12.46-.27.65-.47.04-.02.07-.05.11-.07.01,0,.01-.03,0-.06.49-.64.66-1.71.27-3.56-.98-4.51-2.19-8.95-3.71-13.33-1.53-4.38-3.36-8.7-5.83-12.82-1.24-2.05-2.64-4.06-4.33-5.92l-.65-.69-.08-.09h-.01s-.08-.14-.08-.14l-.87-1.33c-.6-.88-1.1-1.8-1.63-2.71l-.39-.68-.35-.7-.69-1.4c-.25-.46-.41-.95-.62-1.43-.19-.48-.41-.95-.58-1.44-.31-.97-.7-1.93-.91-2.92-.12-.49-.28-.98-.37-1.47l-.27-1.48c-.28-1.98-.4-3.97-.22-5.94.19-1.96.61-3.9,1.27-5.76,1.3-3.74,3.63-7.15,6.48-10.09,2.86-2.94,6.29-5.45,9.95-7.35.92-.46,1.84-.91,2.77-1.26.47-.2.9-.32,1.34-.47.45-.13.91-.25,1.38-.35,1.89-.4,3.92-.56,5.96-.52,4.09.07,8.25.87,12.17,2.25,3.91,1.38,7.61,3.35,10.69,5.96,3.09,2.59,5.52,5.82,6.91,9.46,1.43,3.64,1.68,7.64,1.12,11.65Z"/>
  <path class="cls-1" d="M91.01,53.97c-.13-.21-.24-.4-.38-.61l-.49-.66c-.32-.39-.65-.77-.98-1.09-.66-.67-1.33-1.22-2.01-1.76-1.36-1.04-2.77-1.92-4.23-2.71-1.47-.78-2.99-1.46-4.6-2-1.61-.54-3.32-.96-5.22-1.07-.93-.08-1.96,0-3,.16-1.06.23-2.17.56-3.21,1.24-1.02.66-1.97,1.58-2.56,2.61-.35.51-.53,1.03-.76,1.55-.19.52-.31,1.02-.45,1.54-.42,2.02-.3,3.83-.11,5.52.1.81.24,1.63.44,2.44-.36.57-.66,1.15-.89,1.73-.75,1.81-1.08,3.57-1.26,5.26-.18,1.73-.16,3.43-.03,5.07.26,3.29.95,6.41,1.8,9.44,1.74,6.04,4.14,11.72,6.91,17.24,1.14,2.23,2.54,1.75,4.06.89,1.53-.87,2.67-1.68,1.61-3.76-2.61-5.19-4.89-10.61-6.47-16.1-.77-2.74-1.37-5.51-1.57-8.2-.1-1.31-.11-2.59,0-3.81.59.6,1.25,1.15,1.96,1.63.82.56,1.71,1.03,2.66,1.38.95.35,1.95.6,3.01.69l.4.03c.19,0,.37.01.56,0,.38,0,.74-.03,1.11-.08.37-.02.73-.11,1.08-.19.37-.06.68-.21,1.02-.32.66-.26,1.25-.62,1.76-1.05.53-.42.93-.96,1.26-1.54.17-.29.28-.61.39-.92.07-.33.16-.65.18-.98.05-.33.02-.66,0-.99,0-.17-.06-.33-.08-.5-.04-.16-.05-.33-.11-.49l-.17-.49c-.05-.16-.11-.33-.2-.48-.18-.31-.32-.64-.52-.95l-.64-.91c-.2-.25-.39-.49-.6-.73-.11-.13-.18-.2-.26-.29l-.24-.26c-.16-.17-.33-.33-.5-.49-.33-.33-.69-.63-1.05-.92-1.45-1.16-3.1-2.11-5.08-2.68-.99-.28-2.07-.44-3.23-.39-.35.02-.72.06-1.08.13-.02-.35-.03-.7-.05-1.04.02-.28.03-.56.04-.84.04-.26.08-.5.11-.75.07-.2.11-.43.18-.62.09-.15.13-.36.23-.46.14-.29.33-.41.55-.57.21-.16.57-.25.96-.35.44-.05.92-.11,1.48-.06,1.1.06,2.34.34,3.56.75,1.23.41,2.46.96,3.64,1.59,1.18.63,2.32,1.35,3.34,2.13.5.39.99.8,1.37,1.2.21.2.36.39.52.57.06.08.12.16.18.24.07.1.14.23.21.35,1.15,1.87,1.49,4.21,1.29,6.79-.21,2.57-.93,5.3-1.82,8-1.82,5.44-4.31,10.89-6.59,16.5-.92,2.27.33,3,1.96,3.64,1.63.64,3.02.98,3.92-1.23l3.46-8.29c1.15-2.8,2.3-5.64,3.29-8.62.98-2.98,1.84-6.09,2.12-9.5.13-1.7.11-3.49-.22-5.3-.31-1.81-.98-3.63-1.95-5.26ZM74.65,63c.22.18.44.36.64.56.1.1.21.19.3.3l.26.28.11.13-.16-.02c-.43-.04-.9-.15-1.36-.32-1.25-.47-2.36-1.38-3.21-2.59.19.03.39.07.6.13.91.26,1.92.8,2.81,1.52Z"/>
  <path class="cls-1" d="M58.4,118.39h0s0,.03,0,.02h0v-.02Z"/>
  <path class="cls-1" d="M64.29,115.61h0s0,0,0,0Z"/>
  <path class="cls-1" d="M64.3,115.62s-.01,0,0,0c0,0,0,0,0,0h.01Z"/>
</svg>