<?xml version="1.0" encoding="UTF-8"?>
<svg id="Layer_1_copy_3" data-name="Layer 1 copy 3" xmlns="http://www.w3.org/2000/svg" viewBox="0 0 150 150">
  <defs>
    <style>
      .cls-1 {
        fill: #191919;
      }
    </style>
  </defs>
  <path class="cls-1" d="M135.49,31.91l-.02-.53c0-.35-.05-.71-.09-1.07-.16-1.44-.51-2.91-1.11-4.31-.59-1.4-1.41-2.72-2.38-3.85-1.95-2.29-4.38-3.82-6.8-4.87-2.43-1.05-4.89-1.65-7.36-1.99-1.24-.17-2.48-.27-3.77-.28l-3.28.02-6.49.04-12.97.08-25.94.17-25.94.17-3.24.02h-.42s-.53.03-.53.03l-1.05.07c-.71.02-1.39.18-2.08.31-2.75.57-5.31,1.77-7.49,3.33-2.18,1.56-4.03,3.47-5.53,5.57-1.5,2.11-2.69,4.43-3.5,6.95-.22.62-.36,1.29-.53,1.94-.15.66-.24,1.35-.35,2.03-.07.69-.1,1.47-.13,2.14l.02,1.62.07,6.49.14,12.97.26,24.79c-.08.78-.12,1.69-.11,2.74l.07,12.96.04,6.48v1.62s.02.82.02.82l.04.93.09,1.85.23,1.85c.04.31.07.62.13.92l.19.92c.14.61.24,1.23.42,1.83l.55,1.8c.17.6.44,1.18.67,1.77.96,2.33,2.18,4.6,3.8,6.62,1.6,2.03,3.51,3.88,5.81,5.35,2.29,1.46,5.02,2.58,8.13,2.75l.58.03c.11,0,.18,0,.24,0h74.79l.91-.03,1.84-.08c.61,0,1.23-.12,1.85-.2.62-.09,1.24-.16,1.86-.27l1.87-.45c.31-.08.62-.14.93-.24l.92-.33c2.47-.81,4.87-2.15,6.95-3.89,2.09-1.73,3.84-3.9,5.09-6.28,1.26-2.38,2.06-4.94,2.42-7.57.08-.66.17-1.32.18-2l.03-.99V31.91ZM126.98,34.02v78.64l-.03.63c0,.4-.06.82-.11,1.23-.22,1.65-.73,3.28-1.5,4.72-.77,1.44-1.79,2.7-3.02,3.72-1.23,1.03-2.66,1.86-4.31,2.39l-.6.22c-.21.07-.43.1-.64.16l-1.28.32c-.44.07-.9.12-1.35.19-.45.06-.89.15-1.37.15l-1.4.06c-.24,0-.46.03-.71.03h-23.51l-51.67-.03c-1.21-.06-2.65-.57-3.98-1.43-1.34-.86-2.6-2.04-3.67-3.4-1.09-1.35-1.94-2.94-2.62-4.6-.15-.42-.36-.82-.48-1.26l-.39-1.3c-.13-.43-.19-.89-.3-1.33l-.15-.67c-.04-.22-.06-.45-.09-.68l-.18-1.37-.06-1.39-.03-.69v-.8s-.02-1.62-.02-1.62l-.04-6.49-.07-11.67c.09-.82.13-1.79.12-2.92l-.27-25.94-.14-12.97-.07-6.48-.02-1.62.07-1.1c.08-.39.11-.77.2-1.16.12-.4.18-.79.33-1.19,1.02-3.2,3.2-6.31,5.88-8.19,1.33-.95,2.78-1.61,4.26-1.91.37-.07.74-.18,1.12-.17l.56-.04.28-.02c.1,0,.26,0,.39,0l3.24-.02,25.94-.17,25.94-.17,12.97-.08,6.49-.04,3.21-.02c.88,0,1.79.08,2.7.2,1.81.25,3.58.7,5.12,1.37,1.54.67,2.83,1.55,3.69,2.57.86,1.02,1.35,2.16,1.51,3.59.02.18.05.35.04.54v.28c.01.1.02.17.02.32v1.62Z"/>
  <path class="cls-1" d="M112.27,64.59c-1.75-4.75-4.54-8.93-7.98-12.49-3.44-3.54-7.62-6.41-12.21-8.31-4.41-1.86-14.94-2.91-15.61-2.89-4.62.12-9.29.92-13.9,2.24-.58.15-1.15.34-1.72.54-.57.2-1.15.38-1.72.59-1.13.46-2.27.9-3.37,1.46-2.22,1.07-4.38,2.36-6.36,3.95-1.98,1.57-3.8,3.4-5.35,5.44-1.55,2.04-2.82,4.28-3.8,6.62-1.95,4.7-2.7,9.7-2.59,14.6.03,1.25.13,2.4.23,3.59l.2,1.77.27,1.77c.39,2.36.95,4.7,1.71,7.01,1.5,4.61,3.84,9.1,7.19,12.9,3.33,3.81,7.69,6.81,12.43,8.55,4.75,1.76,9.75,2.34,14.56,2.19,2.41-.1,4.79-.36,7.12-.77,1.16-.22,2.3-.44,3.44-.7,1.14-.29,2.29-.54,3.43-.9,2.28-.65,4.54-1.51,6.75-2.53,2.21-1.02,4.37-2.28,6.39-3.8,2.02-1.51,3.89-3.3,5.49-5.31,1.6-2.01,2.94-4.24,3.94-6.58,1.01-2.34,1.71-4.75,2.18-7.16.46-2.4.71-4.8.83-7.1.07-1.16.1-2.29.14-3.38l.03-.81c0-.28.02-.48.02-.86v-1.03c0-.34-.03-.68-.05-1.01-.17-2.7-.82-5.2-1.69-7.58ZM105.46,74.77l-.03.84c-.04,1.1-.07,2.16-.13,3.19-.11,2.07-.33,4.04-.69,5.95-.38,1.89-.91,3.71-1.64,5.4-1.45,3.38-3.75,6.23-6.73,8.47-1.48,1.12-3.13,2.09-4.89,2.9-1.76.81-3.61,1.53-5.54,2.07-.95.31-1.95.52-2.93.77-.99.22-2,.42-3,.61-1.99.35-3.97.56-5.94.64-3.93.13-7.79-.36-11.28-1.65-3.49-1.29-6.57-3.41-9.02-6.2-4.94-5.58-7.2-13.67-7.47-21.62-.09-3.85.52-7.71,1.94-11.11,1.42-3.41,3.66-6.36,6.57-8.65,1.44-1.16,3.07-2.13,4.79-2.97.85-.44,1.76-.78,2.66-1.15.46-.17.93-.32,1.39-.48.46-.16.93-.32,1.41-.44,3.67-1.05,7.37-1.91,11.54-1.89.39-.02,8.83.75,12.33,2.23,3.5,1.45,6.7,3.64,9.37,6.38,2.65,2.73,4.82,6.01,6.09,9.5.63,1.73,1.08,3.52,1.18,5.2,0,.21.03.42.04.63v.61c0,.17-.02.51-.03.78Z"/>
  <path class="cls-1" d="M114.91,36.81c-.02-.15-.05-.3-.08-.45-.06-.3-.21-.73-.36-1.06-.2-.4-.43-.79-.75-1.14-.16-.18-.33-.35-.51-.51-.18-.15-.36-.28-.55-.4-.2-.13-.38-.23-.55-.31-.18-.08-.36-.16-.54-.22-.16-.05-.31-.09-.46-.13-.16-.04-.32-.07-.44-.09-1.07-.15-1.71-.03-2.25.06-.54.11-.97.24-1.36.38-.2.07-.39.14-.57.22l-.14.06c-.06.02-.12.04-.18.07-.52.17-1.13.46-1.8,1.02-.13.11-.25.23-.37.35-.12.13-.24.28-.36.43-.23.29-.42.62-.57.97-.16.35-.25.68-.33,1.03-.07.34-.09.63-.11.94,0,1.16.27,1.89.51,2.47.18.41.38.75.59,1.05.07.14.15.29.24.44.22.38.49.81.92,1.32.12.14.25.27.38.4.15.15.35.31.53.46.08.07.21.16.34.24.13.08.26.16.4.24.27.15.69.32,1.04.42.44.11.88.19,1.36.18.24,0,.48-.02.72-.05.23-.03.44-.09.66-.15.22-.06.43-.14.59-.21.18-.08.35-.17.52-.26.14-.08.27-.17.41-.26.13-.09.26-.19.35-.27.82-.71,1.14-1.27,1.44-1.74.27-.48.46-.88.61-1.27.08-.19.15-.39.21-.58l.07-.21c.23-.52.44-1.19.46-2.14,0-.02,0-.05,0-.07,0-.03,0-.07,0-.1.01-.21,0-.47,0-.7,0-.1-.02-.27-.04-.42Z"/>
</svg>