<?xml version="1.0" encoding="UTF-8"?>
<svg id="Layer_1_copy_3" data-name="Layer 1 copy 3" xmlns="http://www.w3.org/2000/svg" viewBox="0 0 150 150">
  <defs>
    <style>
      .cls-1 {
        fill: #191919;
      }
    </style>
  </defs>
  <path class="cls-1" d="M137.43,77.05c-.16-.84-.49-1.57-1.1-2.26l-11.47-12.83-.54-.61c-.23-.26-.48-.48-.76-.68-.55-.4-1.18-.68-1.84-.82-.33-.07-.67-.11-1.01-.11h-.8s-1.03,0-1.03,0h-44.29l-10.48-12.4c-.81-.96-1.95-1.61-3.18-1.82-.31-.05-.62-.08-.93-.08h-.64s-.94,0-.94,0h-26.78c-1.25.05-2.46.54-3.37,1.37-.46.41-.84.91-1.15,1.46l-.54.94-1.89,3.27-3.78,6.55-7.68,13.29c-.79,1.37-.93,3.05-.38,4.52.13.37.32.72.52,1.06l.34.6.6,1.03,2.38,4.12,4.76,8.25,4.76,8.25.6,1.03.43.74c.2.34.44.65.7.94,1.07,1.15,2.63,1.77,4.22,1.69h27.63c.79,0,1.57-.15,2.28-.48.71-.32,1.35-.8,1.86-1.4.25-.29.48-.65.67-.95l.32-.5,1.29-2,5.18-7.99c.3-.46.48-.86.58-1.22l3.14,4.03.17.21c.09.11.18.23.26.35.16.25.35.44.56.64.41.38.89.7,1.41.92.52.22,1.07.35,1.64.37.29.01.58,0,.87,0h18.12c.57-.05,1.14-.19,1.67-.41.26-.11.52-.24.76-.4.12-.08.24-.16.36-.24l.21-.15,1.42-.99,2.84-1.99.87-.61,1.33,1.03,2.74,2.13,1.49,1.16c.88.76,1.99,1.15,3.15,1.1h5.13c.29,0,.58,0,.86-.02,1.12-.1,2.18-.64,2.91-1.51l7.33-8.66,3.53-4.17.95-1.12c.29-.35.6-.69.87-1.05.28-.36.48-.73.63-1.11.3-.77.39-1.65.25-2.48ZM59.75,97.89l-.33.52h-27.13l-.76-1.32-4.76-8.25-7.99-13.84,13.51-23.41h27.38l10.87,12.86c.32.38.63.66.92.86.39.36.99.58,1.94.58h46.76l.14.16,10.58,11.84-.25.29h-58.62l-11.77,18.94c-.03.05-.06.1-.08.15l-.4.62ZM119.74,91.02h-4.4l-3.98-3.09-1.41-1.1c-.46-.34-.9-.74-1.39-1-.48-.25-1-.44-1.54-.51-1.1-.16-2.21.06-3.16.64-.24.15-.48.32-.72.49l-.55.38-.71.5-4.41,3.08h-17.43l-.1-.13-4.57-5.87.05-.08h50l-5.67,6.7Z"/>
  <path class="cls-1" d="M51.48,73.33l-.05-.39-.09-.78-.19-1.57c0-.06-.02-.12-.05-.17-.65-2.91-2.63-5.48-5.27-6.85-2.64-1.41-5.86-1.57-8.63-.46-2.78,1.08-5,3.43-5.97,6.25-.13.35-.21.71-.31,1.07-.08.36-.13.73-.19,1.1l-.18,1.57-.04.4-.04.55c0,.18-.02.37-.03.55l.02.56c0,.37.06.74.11,1.11.04.37.14.73.23,1.09.39,1.44,1.09,2.79,2.04,3.92.95,1.14,2.15,2.07,3.5,2.7.34.16.68.31,1.03.42l.53.18c.18.05.36.09.54.13l.54.12.55.07.55.06.39.03c1.46.1,2.98-.12,4.37-.65,2.8-1.05,5.06-3.34,6.07-6.15.51-1.41.71-2.9.58-4.42,0-.22-.03-.31-.04-.45ZM45.17,76.09c-.4,1.13-1.35,2.09-2.48,2.51-.56.21-1.16.3-1.79.26l-.39-.03-.23-.03-.23-.02-.22-.05c-.07-.02-.15-.03-.22-.05l-.21-.08c-.15-.04-.28-.11-.42-.17-.54-.26-1.03-.63-1.43-1.1-.39-.47-.67-1.02-.83-1.6-.03-.15-.08-.29-.09-.44-.02-.15-.05-.3-.05-.45v-.23c-.01-.08,0-.15,0-.23v-.23s.05-.38.05-.38l.18-1.55c.03-.15.05-.3.08-.45.05-.14.07-.3.13-.43.39-1.13,1.29-2.11,2.43-2.54,1.11-.45,2.45-.39,3.51.19,1.06.55,1.86,1.57,2.13,2.73l.13,1.12.09.77.05.39c.01.12.04.29.03.33.05.56-.03,1.2-.23,1.76Z"/>
</svg>