<?xml version="1.0" encoding="UTF-8"?>
<svg id="Layer_1_copy_3" data-name="Layer 1 copy 3" xmlns="http://www.w3.org/2000/svg" viewBox="0 0 150 150">
  <path d="M130.24,108.59s0,0,0,0c0,0,0,0,0,0Z"/>
  <path d="M136.76,103.04c-.39-.94-.94-1.89-1.76-2.72-.81-.83-1.89-1.51-3.04-1.87-.29-.09-.57-.17-.86-.22l-.43-.07c-.15-.02-.21-.02-.32-.03l-1.2-.05c-.43-.02-.7-.02-1.05-.03l-.98-.02-1.9-.03-.52-30.84-.26-15.48-.13-7.74-.1-5.08c-.04-.63-.22-1.19-.44-1.66-.22-.46-.57-.95-.99-1.34-.42-.4-.91-.7-1.38-.89-.49-.2-1.08-.34-1.73-.34l-46.63.11-22.77.06-11.38.03h-5.69s-2.29.02-2.29.02c-.48,0-.95.01-1.38.1-.42.1-.81.23-1.14.4-.69.34-1.39.96-1.8,1.66-.22.34-.35.68-.49,1.07-.12.4-.19.84-.2,1.32l-.04,57.87-4.12-.02h-.98s-.24,0-.24,0h-.42c-.28.02-.56.05-.84.09-1.12.17-2.2.59-3.14,1.21-1.89,1.22-3.22,3.3-3.53,5.53-.08.56-.1,1.12-.07,1.68.02.28.05.56.1.84.02.14.05.28.08.41l.08.32c.16.67.49,1.81,1.15,2.81.65,1.02,1.58,1.84,2.49,2.38.23.13.45.26.68.38.22.1.44.2.67.29l.34.14.32.1.64.2c1.69.46,3.21.56,4.68.6l3.97.05s14.19.21,14.7.21l62.44.62,15.61.15,7.8.08,2,.02c1.24,0,2.57-.38,3.65-1.1,1.1-.72,1.89-1.68,2.41-2.63.53-.96.83-1.93,1-2.88.32-1.91.18-3.8-.57-5.7ZM117.5,41.41l.96,56.52-10.88-.11-62.43-.43-12.53-.07.04-55.7,84.84-.21ZM130.68,107.56c-.06.32-.16.61-.26.79-.1.19-.18.24-.18.24,0,0,0,0-.04,0l-1.9-.02-7.8-.08-15.6-.15-60.19-.59c-.4-.05-16.98-.24-16.98-.24l-1.95-.02h-.98s-.9-.03-.9-.03c-1.12-.02-2.22-.12-3.04-.36l-.29-.09-.26-.09s-.34-.16-.4-.19c-.2-.13-.26-.2-.32-.27-.06-.09-.13-.21-.27-.8l-.03-.11v-.04s-.02-.04-.02-.07c0-.04-.01-.09-.02-.13,0-.09,0-.18,0-.26.06-.35.25-.66.55-.85.15-.09.31-.16.47-.18.04,0,.08,0,.13-.01h.31s.98,0,.98,0l23.41.13,62.41.43,15.59.16,3.88.06,1.87.04.75.02s.25.02.3.04c.1.03.15.06.25.16.1.09.22.28.33.54.22.52.3,1.32.18,1.96Z"/>
  <path d="M73.89,50.41c1.6,0,2.53-1.29,2.53-2.89s-1.29-2.89-2.89-2.89-2.89,1.29-2.89,2.89,1.65,2.89,3.25,2.89Z"/>
</svg>