<?xml version="1.0" encoding="UTF-8"?>
<svg id="Layer_1_copy_3" data-name="Layer 1 copy 3" xmlns="http://www.w3.org/2000/svg" viewBox="0 0 150 150">
  <defs>
    <style>
      .cls-1 {
        fill: #191919;
      }
    </style>
  </defs>
  <path class="cls-1" d="M50.49,53.27c-.18-.4-.35-.67-.63-1.02-.28-.35-.65-.68-.95-.88-.61-.42-1.46-.79-2.52-.84l-12.45-.41-7.06-.24c-.92-.05-1.71.17-2.33.46-.31.16-.55.29-.85.52-.29.22-.59.52-.81.8-.39.51-.71,1.1-.89,1.9-.08.4-.12.84-.11,1.3v74.77c0,.45-.01.91.05,1.33.12.85.44,1.52.79,2.03.18.27.46.59.75.84.3.27.55.42.84.59.59.32,1.38.57,2.28.57h19.53c.91,0,1.7-.24,2.3-.56.29-.17.55-.32.84-.58.29-.25.57-.57.76-.84.36-.51.69-1.17.81-2.02.07-.41.06-.88.06-1.33V56.12c0-.52.02-1.06-.05-1.55-.06-.49-.21-.93-.38-1.3ZM42.93,116.82v10.2h-13.03V57.98l13.03.43v58.4Z"/>
  <path class="cls-1" d="M127.85,119.99l-.8-30.92-.2-7.73-.1-3.87c-.02-.65-.02-1.24-.07-2.07l-.06-1.16c-.03-.39-.11-.8-.17-1.2-.21-1.6-.73-3.18-1.35-4.7-.69-1.49-1.52-2.93-2.55-4.17-.99-1.29-2.17-2.36-3.37-3.36-1.23-.95-2.51-1.81-3.85-2.5-5.35-2.81-11.11-3.88-16.8-3.93-2.85-.01-5.71.26-8.55.86-.71.17-1.42.33-2.12.53-.7.22-1.41.4-2.11.68l-1.05.39c-.35.14-.69.3-1.04.45l-.11.05h0s-.02-.3-.02-.3l-.22-2.87c-.08-.85-.36-1.58-.71-2.14-.18-.27-.34-.51-.61-.77-.26-.26-.57-.51-.84-.68-.52-.32-1.16-.6-1.96-.69-.39-.06-.83-.03-1.26-.01l-1.29.05-5.83.23-5.15.21-2.41.1c-.85.03-1.75.04-2.42.33-.34.13-.65.28-.91.46-.26.16-.51.36-.79.63-.56.58-.82,1.04-1.08,1.72-.12.33-.21.71-.25,1.11-.04.41-.02.84-.01,1.27l.05,2.55.05,2.57.09,5.15.19,10.3c.02.88.07,1.62.16,2.28l.42,26.24.22,13.38.11,6.69.08,4.81c-.04,1.15.31,2.11.75,2.78.19.32.52.71.89,1.03.38.32.66.49,1.07.69.39.18.85.34,1.38.4.52.06,1.1.04,1.65.04h2.79s3.35-.02,3.35-.02l6.69-.02h3.2c.56,0,1.1-.06,1.56-.21.45-.15.86-.33,1.19-.55.32-.19.72-.53,1.03-.89.3-.37.49-.65.68-1.07.18-.4.34-.86.4-1.39.06-.53.04-1.1.04-1.65l.04-7.79.13-26.82v-.16s-.01-.16-.01-.16c0-.19,0-.56.02-.86.02-.32.05-.64.1-.96.09-.64.24-1.25.43-1.81.39-1.14.96-2.04,1.68-2.71.36-.34.77-.62,1.23-.85.46-.23.98-.43,1.56-.56.57-.15,1.21-.22,1.86-.27.32,0,.7-.04.98-.02.28.02.57.01.82.07,1.06.14,1.85.51,2.58,1.14.72.63,1.39,1.59,1.89,2.8.52,1.19.87,2.6,1.11,4.05.23,1.45.34,3.02.3,4.43v.14s0,.14,0,.14l.51,30.99c.01.65.15,1.23.36,1.71.1.24.21.47.34.66.12.2.25.38.42.59.36.42.82.79,1.2.99.4.23.88.45,1.46.56.57.12,1.24.08,1.88.07l1.94-.03,2.17-.03,7.74-.12,2.26-.04,1.94-.03c.64,0,1.3,0,1.85-.16.56-.14,1.03-.37,1.41-.62.36-.22.83-.64,1.15-1.06.3-.4.5-.78.69-1.29.18-.5.29-1.09.27-1.74l-.24-9.37ZM118.42,126.32l-9.44.15-.45-27.57c.05-2.06-.09-3.95-.39-5.93-.32-1.96-.8-3.95-1.65-5.94-.42-.99-.94-1.99-1.59-2.95-.65-.96-1.42-1.9-2.38-2.72-.94-.81-2.01-1.55-3.19-2.04-1.16-.5-2.38-.86-3.57-1-.6-.1-1.18-.11-1.76-.14-.59-.02-1.07.02-1.61.03-1.07.08-2.16.2-3.27.48-2.2.51-4.51,1.61-6.33,3.31-1.83,1.69-3.09,3.85-3.82,5.99-.37,1.07-.62,2.15-.78,3.23-.08.54-.13,1.08-.17,1.63-.03.56-.05,1.07-.02,1.74l-.13,26.71-.03,5.6h-.15s-10.6.03-10.6.03l-.78-48.71c-.01-.9-.07-1.67-.16-2.33l-.32-17.5,9.76-.39h0s.2,2.55.2,2.55l.22,2.87c.09.94.42,1.67.77,2.18.09.15.18.26.27.37.09.11.19.23.28.32.19.17.35.34.58.5.24.18.6.39.93.53.17.07.33.13.45.17l.35.07.74.08.86-.06,1.17-.4,1.21-.55,1.72-1.12c.29-.18.57-.39.86-.53.15-.08.28-.16.46-.23l.3-.14.73-.32.77-.28c.5-.21,1.05-.34,1.57-.51.54-.15,1.09-.28,1.63-.41,2.21-.47,4.52-.69,6.82-.68,2.31.01,4.62.25,6.84.74,2.22.5,4.34,1.24,6.24,2.25.96.49,1.82,1.09,2.64,1.7.77.66,1.52,1.32,2.1,2.09.63.74,1.07,1.57,1.48,2.41.34.87.66,1.76.77,2.72.03.24.09.47.11.72l.03.77c.03.46.05,1.16.06,1.8l.1,3.87.2,7.75.8,30.99.16,6.1-1.61.03Z"/>
  <path class="cls-1" d="M51.7,28.08c-.44-3.96-2.59-7.68-5.75-10.06-1.58-1.2-3.4-2.08-5.33-2.57-1.93-.49-3.94-.58-5.9-.28-3.94.59-7.58,2.85-9.85,6.1-1.15,1.62-1.97,3.48-2.38,5.42-.42,1.95-.44,3.95-.07,5.91.73,3.92,3.12,7.47,6.46,9.63,1.66,1.09,3.55,1.83,5.51,2.18.97.18,1.99.24,2.93.23.92-.02,1.85-.11,2.77-.26,1.84-.32,3.72-.93,5.47-2,1.75-1.06,3.33-2.62,4.39-4.46,1.06-1.83,1.63-3.86,1.8-5.75.1-1.29.08-2.54-.04-3.75,0-.1.01-.21,0-.33ZM43.82,30.62c-.02.25.02.54-.03.77-.09.99-.37,1.81-.75,2.49-.39.68-.92,1.22-1.65,1.67-.73.45-1.66.77-2.67.95-.51.08-1.03.14-1.56.14-.51,0-.94-.02-1.4-.11-.9-.16-1.76-.5-2.53-1-1.55-.99-2.65-2.64-2.98-4.43-.35-1.81.06-3.74,1.13-5.23,1.06-1.5,2.74-2.55,4.54-2.81,1.83-.28,3.72.19,5.18,1.31,1.25.94,2.14,2.32,2.51,3.83.12.56.13,1.08.19,1.62.05.29,0,.54,0,.8Z"/>
</svg>