<?xml version="1.0" encoding="UTF-8"?>
<svg id="Layer_1_copy" data-name="Layer 1 copy" xmlns="http://www.w3.org/2000/svg" viewBox="0 0 150 150">
  <defs>
    <style>
      .cls-1 {
        fill: #191919;
      }
    </style>
  </defs>
  <path class="cls-1" d="M107.01,98.38c-5.1-9.8-11.62-18.85-19.36-26.75l-2.98-2.89c-.5-.5-1-.93-1.32-1.27-.34-.34-.53-.61-.58-.72-.05-.13-.03,0-.05-.27,0-.25.05-.75.16-1.41.18-1.25.42-2.52.66-3.8.49-2.57,1.06-5.22,1.49-7.99.43-2.77.75-5.67.63-8.68-.04-1.5-.22-3.02-.51-4.55-.29-1.54-.76-3.03-1.31-4.48-.57-1.45-1.28-2.83-2.08-4.16-.82-1.31-1.75-2.56-2.78-3.73-1.05-1.15-2.18-2.23-3.43-3.18-1.26-.94-2.58-1.8-4.02-2.5-2.85-1.4-6.05-2.19-9.2-2.29-1.58-.05-3.16.03-4.72.31-.78.11-1.55.32-2.32.5-.76.23-1.52.45-2.26.75-.75.27-1.47.63-2.19.97-.7.4-1.41.76-2.07,1.24-.68.43-1.31.95-1.94,1.46-.31.26-.6.55-.9.83l-.44.42-.41.45c-2.21,2.36-3.77,5.2-4.82,8.1-1.02,2.92-1.55,5.93-1.67,8.92-.24,6.04,1.14,11.72,2.8,16.98l.64,1.96.6,1.75c-.63.38-1.27.74-1.88,1.14l-1.82,1.26c-.59.44-1.15.91-1.73,1.37-2.25,1.88-4.29,3.97-6.12,6.19-1.83,2.23-3.42,4.61-4.87,7.05-.73,1.22-1.38,2.47-2.04,3.72-.61,1.27-1.23,2.53-1.77,3.83-1.11,2.57-2.09,5.22-2.92,7.84-3.36,10.54-5.07,21.16-7.95,31.14-.59,2.01-.54,3.2-.1,3.99.44.79,1.28,1.17,2.25,1.49.96.32,1.86.52,2.69.11.83-.41,1.6-1.44,2.22-3.57,3.03-10.55,4.74-21.11,7.89-30.94.78-2.47,1.66-4.83,2.67-7.17.49-1.17,1.05-2.3,1.59-3.44.59-1.11,1.16-2.23,1.81-3.3,1.27-2.15,2.66-4.22,4.22-6.12,1.56-1.9,3.27-3.64,5.12-5.19.47-.37.93-.76,1.41-1.12l1.47-1.02c.5-.33,1.02-.61,1.53-.92l.44-.26.46-.23.89-.46,1.78-.91,1.78-.91c.06-.01.03-.06.02-.1l-.04-.12-.08-.24-.17-.47-.34-.94-1.34-3.78-.7-2.03-.6-1.84c-.78-2.45-1.44-4.89-1.89-7.31-.23-1.21-.39-2.41-.49-3.61-.11-1.2-.14-2.36-.08-3.54.09-2.34.51-4.65,1.25-6.77.77-2.11,1.84-4.04,3.3-5.58,2.8-3.07,7.25-4.73,11.61-4.57,2.19.07,4.29.59,6.23,1.54.98.47,1.89,1.07,2.78,1.73.87.67,1.68,1.44,2.43,2.26.74.84,1.41,1.74,2,2.69.57.96,1.09,1.96,1.5,3,.39,1.04.74,2.11.93,3.2.2,1.1.35,2.24.38,3.41.19,4.68-.98,9.7-2,15.03-.25,1.34-.5,2.7-.71,4.09-.1.66-.24,1.48-.24,2.57,0,.54.06,1.15.21,1.79.15.64.39,1.26.67,1.79.56,1.07,1.24,1.84,1.83,2.45.61.62,1.12,1.06,1.56,1.5l2.77,2.69c7.21,7.36,13.3,15.82,18.07,24.97,4.71,9.18,8.09,19.04,9.92,29.18.64,4.09,2.32,4.24,4.33,3.98,2.01-.26,3.59-.85,2.9-5.27-1.96-10.89-5.59-21.44-10.63-31.27Z"/>
  <path class="cls-1" d="M98.5,42.44c4.15,1.71,7.87,4.98,9.68,8.86.91,1.94,1.34,4.01,1.23,6.11-.11,2.09-.7,4.22-1.74,6.25-.2.4,1.23,1.22,3.02,2.17,1.79.95,3.26,1.68,3.54,1.12,1.41-2.75,2.35-5.92,2.51-9.2.17-3.28-.53-6.63-1.92-9.56-1.38-2.94-3.37-5.48-5.68-7.57-2.32-2.09-4.96-3.77-7.86-4.96-.6-.24-1.22,1.28-1.94,3.17s-1.26,3.45-.85,3.62Z"/>
  <path class="cls-1" d="M138.77,56.21c-.46-6.1-2.03-12.1-4.63-17.64-2.6-5.54-6.25-10.65-10.89-14.79-4.63-4.14-10.3-7.25-16.41-8.75-1.24-.3-1.68,1.28-2.09,3.27-.41,1.98-.65,3.62.32,3.86,4.91,1.21,9.48,3.69,13.3,7.1,3.83,3.41,6.92,7.7,9.13,12.42,2.21,4.72,3.57,9.87,3.96,15.08.39,5.21-.18,10.48-1.75,15.41-.31.99,1.21,1.62,3.12,2.29,1.91.67,3.5,1.12,3.88-.08,1.86-5.87,2.52-12.08,2.07-18.18Z"/>
</svg>