<?xml version="1.0" encoding="UTF-8"?>
<svg id="Layer_1_copy_3" data-name="Layer 1 copy 3" xmlns="http://www.w3.org/2000/svg" viewBox="0 0 150 150">
  <defs>
    <style>
      .cls-1 {
        fill: #191919;
      }
    </style>
  </defs>
  <polygon class="cls-1" points="39.75 126.89 39.75 126.89 39.75 126.89 39.75 126.89"/>
  <path class="cls-1" d="M119.59,125.2l-.02-.33-.06-.34c-.04-.3-.09-.59-.11-.89l-.05-.7-.04-.82-.06-1.69c-.03-1.14-.05-2.3-.05-3.47-.02-2.33,0-4.68,0-7.04l.07-14.2c0-4.75-.03-9.51-.2-14.33-.09-2.41-.22-4.83-.47-7.34-.07-.63-.14-1.26-.23-1.91-.05-.32-.09-.65-.15-.99l-.09-.5-.11-.58c-.26-1.15-.58-2.29-1.12-3.28-.13-.25-.28-.48-.45-.7-.15-.23-.34-.43-.53-.63-.2-.18-.41-.37-.65-.51l-.09-.06s-.05,0-.02-.06l-.04-.03-.17-.11c-.11-.07-.23-.14-.34-.2-.87-.32-1.83-.57-2.84-.63l-.75-.08-.56-.04-.8-.05c-.38-.02-.74-.03-1.11-.05l-.08-12.93-.05-8.21-.03-4.1v-.51c0-.17,0-.33-.02-.55l-.07-1.25c-.02-.84-.19-1.65-.32-2.47-.6-3.27-1.93-6.42-3.89-9.1-1.95-2.69-4.47-4.96-7.37-6.59-.35-.22-.73-.4-1.1-.58l-1.13-.53c-.77-.32-1.56-.58-2.34-.86-.81-.2-1.61-.43-2.43-.58l-1.23-.18c-.41-.06-.82-.12-1.24-.13l-1.24-.05-.62-.02h-.51s-2.05.02-2.05.02l-4.1.03-8.2.06h-2.05s-1.03.02-1.03.02c-.15,0-.38.01-.59.02l-.62.03-1.24.08-1.23.19c-.41.07-.82.12-1.23.22l-1.21.31c-3.21.88-6.23,2.47-8.73,4.65-2.52,2.17-4.56,4.88-5.94,7.91-.19.37-.33.76-.48,1.15l-.43,1.17c-.24.79-.45,1.6-.65,2.41-.13.82-.3,1.64-.37,2.46l-.08,1.24-.03.62c-.01.21,0,.35-.01.53l-.1,8.2-.2,16.41c0,.2,0,.38.01.56l-1.77.02-2.7.03-2.13.03c-.91,0-1.74.17-2.49.48-1.53.61-2.8,1.91-3.41,3.43-.16.37-.24.79-.34,1.2-.06.2-.07.43-.09.65l-.05.67-.1,1.99c-.17,3.61-.31,7.21-.43,10.82-.24,7.22-.41,14.44-.42,21.69,0,3.63.04,7.26.17,10.92.06,1.83.15,3.67.28,5.53.13,1.86.3,3.73.6,5.68.07.49.16.99.26,1.5.05.26.1.5.17.79.1.46.22.88.35,1.31.52,1.71,1.33,3.27,2.75,4.17.37.23.7.39,1.07.52.38.13.79.21,1.23.24.44.02.89.02,1.34.02h1.23s2.7.01,2.7.01h10.81c7.21-.05,14.42-.14,21.64-.33,7.22-.19,14.45-.46,21.72-.97,3.64-.27,7.28-.58,11.01-1.11.93-.13,1.87-.29,2.83-.47.48-.09.96-.19,1.46-.3l.75-.18.38-.1.46-.13c1.72-.5,3.43-1.18,4.56-2.36.28-.29.54-.61.75-.97.21-.35.39-.75.49-1.09l.14-.54.07-.61c.02-.2-.01-.44-.02-.66ZM66.02,62.96s0-.06,0-.09l.37-21.42v-.67s.05-.31.05-.31c0-.09.04-.21.06-.33.03-.12.04-.24.09-.34.12-.46.34-.88.61-1.27.53-.8,1.34-1.39,2.22-1.73.45-.16.92-.24,1.39-.26h.38s.67.02.67.02l1.34.05,5.37.21,2.69.1,1.34.05c.13,0,.17.01.23.02l.18.02c.12,0,.24.03.35.05.94.15,1.81.64,2.47,1.32.68.68,1.09,1.59,1.24,2.51,0,.1.02.2.04.3,0,.01,0,.07,0,.13v.17s.01.33.01.33l.03,1.34.06,2.68.39,17.32c-7.21-.1-14.41-.15-21.61-.18ZM52.39,62.82l.2-16.41.1-8.2c0-.16,0-.36.01-.49l.03-.4.05-.81c.04-.54.17-1.06.24-1.59.14-.52.27-1.04.42-1.55l.28-.75c.09-.25.17-.51.31-.74,1.77-3.89,5.31-7.01,9.46-8.1l.78-.21c.26-.07.53-.09.79-.13l.79-.13.81-.04.4-.02c.14,0,.25-.02.44-.02h1.03s2.05-.02,2.05-.02l8.2-.06,4.1-.03h2.05s.51-.02.51-.02l.41.02.81.03c.27,0,.53.05.8.09l.8.11c.53.09,1.04.26,1.56.37.5.19,1.01.35,1.51.55l.73.34c.24.11.49.22.71.37,3.73,2.1,6.54,5.88,7.26,10.12.08.53.2,1.05.2,1.59l.05.8c.01.12.01.3.01.47v.51s.03,4.1.03,4.1l.05,8.2.08,12.32h-4.69l-.4-17.6-.06-2.7-.03-1.35v-.34s-.01-.17-.01-.17c0-.05,0-.11-.01-.21-.03-.35-.07-.69-.11-1.04-.4-2.61-1.59-5.1-3.44-6.98-1.82-1.89-4.25-3.21-6.85-3.66-.32-.06-.65-.12-.98-.14l-.49-.04c-.16-.01-.35-.03-.44-.03l-1.34-.05-2.69-.1-5.37-.21-1.34-.05-.67-.03h-.97c-1.31.06-2.62.29-3.87.75-2.47.91-4.66,2.57-6.14,4.75-.75,1.08-1.34,2.28-1.7,3.55-.11.31-.17.63-.24.96-.07.32-.14.64-.18,1-.04.34-.08.72-.1,1.03v.67s-.39,21.57-.39,21.57c0,.15,0,.29,0,.43l-5.56.07c0-.12.01-.24.02-.37ZM110.24,123.91c-.38.09-.78.17-1.18.24-.81.15-1.64.29-2.49.41-3.39.48-6.91.79-10.44,1.05-7.07.5-14.21.77-21.35.96-7.15.18-14.31.28-21.47.31h-10.75s-2.8,0-2.8,0c0,0,0,0,0,.01,0,0,0-.01,0-.01h0s0,0,0,0c-.04-.15-.07-.34-.11-.52-.07-.37-.14-.76-.2-1.16-.47-3.23-.66-6.77-.79-10.28-.12-3.52-.16-7.07-.16-10.63,0-7.12.17-14.27.41-21.42.12-3.57.26-7.15.43-10.72l.03-.7,3.26-.04,21.54-.26c.54,0,16.44,0,23.93.1,4.04.06,8.08.12,12.11.22,2.01.05,4.02.11,6.01.19l2.96.14.92.06h0l.06.29.06.37c.04.25.08.51.12.77.07.52.14,1.06.19,1.61.22,2.2.34,4.51.43,6.81.17,4.63.2,9.32.2,14.02l-.07,14.16c-.01,2.37-.02,4.75,0,7.14,0,1.2.02,2.4.06,3.62l.07,1.86.07,1.14-.46.12-.56.13Z"/>
</svg>