<?xml version="1.0" encoding="UTF-8"?>
<svg id="Layer_1_copy_3" data-name="Layer 1 copy 3" xmlns="http://www.w3.org/2000/svg" viewBox="0 0 150 150">
  <defs>
    <style>
      .cls-1 {
        fill: #191919;
      }
    </style>
  </defs>
  <path class="cls-1" d="M139.09,96.94c-.42-3.06-1-6.08-1.73-9.06l-2.19-8.61-4.35-17.12-8.71-34.24-.54-2.12c-.2-.71-.55-1.29-.96-1.74-.21-.24-.48-.48-.75-.67-.26-.18-.53-.33-.84-.46-.6-.28-1.38-.33-2.1-.42l-4.93-.61-8.77-1.08-17.54-2.16-17.54-2.16-8.77-1.08-2.98-.37c-.73-.07-1.43-.04-2.07.1-.65.15-1.28.39-1.86.73-.57.34-1.1.77-1.55,1.27-.44.5-.8,1.08-1.06,1.69-.26.61-.42,1.27-.49,1.94-.06.66,0,1.36.16,2.08l6.23,25.51,1.51,6.19c-1.3-.53-3.12-.98-5.6-1.23-2.29-.2-4.58-.25-6.86-.18-2.29.08-4.57.34-6.84.71-4.53.79-9.04,2.18-13.22,4.53-.52.31-1.05.57-1.55.91l-1.5,1.01c-.96.74-1.94,1.46-2.82,2.33-1.79,1.67-3.42,3.58-4.68,5.73-1.26,2.14-2.29,4.43-2.88,6.82-.08.3-.17.59-.24.89l-.17.9c-.11.6-.24,1.2-.32,1.8l-.18,1.8c-.03.3-.06.6-.08.9v.89s-.04,1.78-.04,1.78c.02.59.07,1.17.1,1.76.05.58.05,1.18.14,1.75l.24,1.72c.31,2.3.88,4.63,1.66,6.87.78,2.24,1.79,4.43,3.06,6.49,1.27,2.06,2.78,4,4.57,5.7,1.77,1.7,3.78,3.18,5.95,4.35,2.16,1.18,4.47,2.04,6.81,2.63,4.69,1.18,9.45,1.23,14,.75.57-.06,1.13-.15,1.7-.22.57-.07,1.13-.16,1.69-.27.56-.1,1.11-.19,1.69-.31l1.83-.47c.61-.13,1.21-.39,1.81-.61.6-.24,1.21-.43,1.78-.77.58-.31,1.16-.61,1.72-.93l1.61-1.13c2.08-1.62,3.8-3.64,5.1-5.82l.91-1.66.75-1.7.18-.43.15-.43.3-.86.29-.86.23-.87c.65-2.31,1.01-4.62,1.23-6.91.23-2.29.27-4.56.23-6.81-.09-4.5-.6-8.9-1.32-13.24-.36-2.17-.78-4.32-1.24-6.45-.23-1.07-.47-2.13-.72-3.18l-.73-3.06-3.03-12.42-.13-.52c1.31.3,2.6.56,3.89.81,2.66.5,5.3.9,7.95,1.27,5.28.74,10.54,1.3,15.81,1.81,10.07.96,20.12,1.67,30.19,2.24l2.96,11.64,3,11.8c-1.32-.57-3.29-1.08-6.21-1.31-6.25-.44-12.66.01-18.88,2.02-3.1,1.02-6.15,2.43-8.9,4.45-1.39.98-2.66,2.14-3.85,3.39-.57.65-1.16,1.28-1.66,1.99-.25.35-.53.69-.76,1.05l-.69,1.1c-1.81,2.96-2.87,6.28-3.43,9.55-.07.41-.15.82-.2,1.23l-.12,1.23c-.1.83-.12,1.63-.15,2.42-.06,1.6-.02,3.21.11,4.83.24,3.24.96,6.52,2.2,9.66.14.4.32.78.5,1.17.18.38.35.77.54,1.15.41.75.8,1.51,1.27,2.22.9,1.45,1.98,2.8,3.16,4.05,2.36,2.5,5.22,4.47,8.27,5.89,1.52.73,3.1,1.27,4.69,1.74,1.6.45,3.21.78,4.83,1,3.24.43,6.5.46,9.69.13.8-.09,1.59-.17,2.38-.31.77-.1,1.62-.29,2.46-.47,1.67-.42,3.35-.96,4.94-1.78,3.21-1.55,6.02-4.1,7.97-7.02,1.97-2.94,3.16-6.17,3.88-9.37,1.41-6.43,1.18-12.77.39-18.89ZM62.41,91.19c-.19,1.95-.48,3.86-1,5.65l-.18.68-.23.65-.22.65-.11.33-.14.31-.54,1.23-.63,1.14c-.89,1.47-1.98,2.73-3.26,3.74-.34.23-.67.47-1,.71l-1.09.58c-.35.22-.77.33-1.16.49-.4.15-.78.33-1.21.41l-1.26.33c-.46.1-.97.18-1.45.27-.49.1-.98.17-1.47.23-.49.06-.98.14-1.47.19-3.9.41-7.8.34-11.39-.57-3.6-.88-6.83-2.63-9.42-5.13-1.31-1.24-2.43-2.68-3.4-4.25-.97-1.56-1.76-3.27-2.38-5.05-.62-1.78-1.08-3.62-1.33-5.54l-.2-1.44c-.08-.48-.07-.96-.12-1.43-.03-.48-.07-.95-.09-1.43l.02-1.41v-.71c.02-.23.05-.46.07-.69l.13-1.38c.07-.45.17-.9.25-1.35l.12-.67c.05-.22.12-.43.18-.65.42-1.76,1.18-3.38,2.07-4.91.88-1.54,2.06-2.9,3.38-4.13.64-.64,1.38-1.17,2.1-1.74l1.15-.77c.38-.26.8-.47,1.2-.71,3.26-1.84,7-3.02,10.86-3.69,1.93-.32,3.89-.54,5.86-.61,1.97-.07,3.95-.02,5.9.15,3.75.38,5.75.53,7.01.17.28-.07.52-.18.73-.3l.05.22.75,3.16c.24,1.02.47,2.03.69,3.05.44,2.03.84,4.06,1.17,6.1.68,4.07,1.14,8.15,1.22,12.17.04,2.01,0,4.01-.2,5.96ZM91.2,42.75c-5.19-.5-10.37-1.06-15.49-1.78-2.56-.36-5.11-.75-7.61-1.22-1.25-.24-2.48-.49-3.69-.77-.61-.14-1.19-.3-1.78-.45-.56-.17-1.15-.33-1.68-.51-.04-.01-.07-.02-.11-.02l-3.77-15.43,57.86,7.16,3.84,15.09c-9.2-.54-18.41-1.21-27.57-2.08ZM131.48,114.2c-.57,2.54-1.49,4.91-2.81,6.87-.64,1-1.43,1.85-2.28,2.62-.84.77-1.81,1.39-2.85,1.91-1.03.54-2.18.9-3.36,1.2-.6.13-1.19.27-1.88.36-.66.11-1.33.19-2,.26-2.67.28-5.34.24-7.94-.1-5.19-.69-10.05-2.83-13.43-6.41-3.42-3.55-5.26-8.48-5.66-13.74-.2-2.61-.13-5.41.28-7.89.43-2.51,1.21-4.91,2.48-6.98,2.47-4.2,6.8-7.15,11.8-8.75,5.01-1.63,10.57-2.06,16.05-1.67,3.81.3,5.9.36,7.16-.08.41-.13.73-.32.98-.54l2.13,8.39c.67,2.75,1.2,5.52,1.58,8.29.73,5.53.87,11.16-.27,16.27Z"/>
</svg>