<?xml version="1.0" encoding="UTF-8"?>
<svg id="Layer_1_copy_2" data-name="Layer 1 copy 2" xmlns="http://www.w3.org/2000/svg" viewBox="0 0 150 150">
  <defs>
    <style>
      .cls-1 {
        fill: #191919;
      }
    </style>
  </defs>
  <path class="cls-1" d="M126.93,58.48c-.11-3.5-.5-7.03-1.3-10.52-.8-3.48-2.02-6.92-3.71-10.14-1.69-3.22-3.86-6.22-6.4-8.83-2.53-2.63-5.46-4.83-8.56-6.65-3.1-1.81-6.39-3.25-9.75-4.33-6.73-2.15-13.73-3.05-20.64-3-6.84.03-13.72.72-20.48,2.4-3.38.84-6.72,1.95-9.97,3.4-3.24,1.45-6.37,3.28-9.23,5.54-2.86,2.25-5.43,4.95-7.51,8-2.09,3.05-3.64,6.45-4.66,9.95-1.03,3.5-1.52,7.09-1.65,10.64-.02.44-.03,4.42.05,5.3.06.89.11,1.77.23,2.65.1.88.2,1.75.35,2.62,1.11,6.94,3.34,13.51,6.09,19.76,2.76,6.25,6.09,12.18,9.77,17.86,3.68,5.68,7.76,11.08,12.18,16.2,2.21,2.56,4.51,5.05,6.92,7.45,1.2,1.2,2.43,2.38,3.69,3.53.63.57,1.26,1.15,1.91,1.71l.97.84.25.22.4.32c.27.21.56.39.85.57,1.94,1.11,3.74,1.19,4.97.97.66-.12,3.07-1.07,4.93-2.59,10.35-8.42,20.34-17.38,29.27-27.5,2.24-2.52,4.37-5.15,6.44-7.85,2.07-2.7,4.01-5.51,5.81-8.44,1.8-2.93,3.47-5.97,4.85-9.21,1.38-3.23,2.52-6.62,3.2-10.19.16-.89.34-1.78.41-2.7.09-.91.22-1.85.22-2.7l.1-2.61-.03-2.62ZM119.05,67.76c-1.13,5.84-3.79,11.57-7.1,16.93-1.65,2.69-3.46,5.31-5.4,7.85-1.94,2.54-3.97,5.04-6.11,7.45-8.53,9.68-18.22,18.45-28.36,26.63-.52.41-.96.8-1.34,1.16-.32-.07-1.68-1.3-1.68-1.3-.61-.51-1.19-1.06-1.78-1.59-1.18-1.07-2.33-2.18-3.46-3.31-2.26-2.26-4.45-4.62-6.55-7.05-4.2-4.87-8.09-10.02-11.59-15.41-3.49-5.39-6.65-11-9.21-16.82-2.56-5.82-4.58-11.85-5.55-17.95-.14-.76-.23-1.52-.31-2.28-.1-.76-.15-1.52-.2-2.28-.07-.76-.09-3.44-.09-3.44,0-.38.03-.76.04-1.14.11-3.04.52-6.04,1.36-8.87.83-2.83,2.05-5.51,3.69-7.91,1.63-2.4,3.66-4.53,5.98-6.36,4.64-3.68,10.41-6.08,16.44-7.58,6.05-1.5,12.39-2.15,18.74-2.18,6.28-.05,12.52.79,18.37,2.65,5.82,1.89,11.21,4.89,15.32,9.13,2.05,2.12,3.79,4.52,5.17,7.13,1.38,2.62,2.39,5.44,3.06,8.39.68,2.94,1.02,6,1.12,9.08,0,0,.06,2.09-.07,4.27s-.45,4.44-.51,4.81Z"/>
  <path class="cls-1" d="M93.5,56.38c-.29-2.41-.95-4.79-1.99-7.03-1.04-2.24-2.47-4.35-4.33-6.13-1.85-1.78-4.15-3.21-6.67-4.01-2.52-.82-5.22-.96-7.69-.65-5.04.61-9.78,3.3-12.92,7.27-1.58,1.98-2.77,4.27-3.49,6.7-.72,2.44-.97,5-.72,7.51.25,2.52.99,5,2.17,7.24,1.18,2.24,2.79,4.25,4.72,5.89,1.93,1.64,4.18,2.9,6.59,3.69.6.21,1.22.34,1.83.5.61.16,1.25.22,1.87.32,1.25.15,2.55.19,3.71.12,2.39-.12,4.86-.56,7.26-1.56,2.39-.99,4.7-2.64,6.36-4.83,1.68-2.18,2.63-4.75,3.07-7.21.27-1.25.3-2.45.37-3.67,0-.6-.1-3.45-.18-4.16ZM86.12,62.88c-.29,1.59-.84,2.98-1.69,4.08-.84,1.1-1.99,1.95-3.4,2.54-1.41.59-3.06.91-4.78,1-.89.05-1.67.01-2.47-.07-.39-.08-.79-.09-1.18-.2-.38-.11-.78-.18-1.15-.31-1.51-.49-2.93-1.29-4.15-2.32-2.45-2.06-4.04-5.08-4.35-8.26-.32-3.2.65-6.46,2.65-8.95,1.99-2.51,4.96-4.2,8.13-4.58,1.62-.2,3.13-.1,4.54.36,1.41.45,2.71,1.24,3.84,2.32,2.26,2.16,3.73,5.42,4.13,8.78,0,0,.13,2.7.13,3.14-.07.84-.07,1.71-.26,2.49Z"/>
</svg>