<?xml version="1.0" encoding="UTF-8"?>
<svg id="Layer_1_copy_3" data-name="Layer 1 copy 3" xmlns="http://www.w3.org/2000/svg" viewBox="0 0 150 150">
  <defs>
    <style>
      .cls-1 {
        fill: #191919;
      }
    </style>
  </defs>
  <path class="cls-1" d="M130.64,72.58c-.09-3.64-.33-7.29-.79-10.95-.92-7.29-2.67-14.65-6.05-21.51-1.69-3.42-3.79-6.69-6.34-9.62-.3-.38-.64-.73-.98-1.08l-1.01-1.06c-.69-.68-1.42-1.33-2.13-1.99-.76-.61-1.5-1.24-2.28-1.82l-1.19-.84c-.4-.28-.79-.56-1.21-.81-3.27-2.09-6.8-3.71-10.42-4.89-3.62-1.19-7.33-1.96-11.03-2.45-1.12-.15-5.19-.58-6.64-.54l-.38-.02h-.44c-.28-.01-.48,0-.73,0l-1.42.03c-.95.02-1.89.12-2.83.17-.94.08-1.87.21-2.81.31-3.73.51-7.41,1.37-10.98,2.54-7.13,2.34-13.85,5.95-19.72,10.67-5.87,4.72-10.86,10.59-14.49,17.23-3.62,6.64-5.92,13.96-6.87,21.38-.16.92-.2,1.86-.3,2.79l-.13,1.39c-.04.47-.04.93-.07,1.4-.03.93-.09,1.86-.1,2.79l.03,2.81c.13,3.74.55,7.49,1.34,11.19,1.62,7.39,4.78,14.5,9.32,20.6,4.52,6.11,10.31,11.18,16.72,15.06,6.42,3.89,13.45,6.66,20.76,8.25,3.67.79,7.38,1.3,11.24,1.35,1.95.05,3.89-.11,5.82-.33,1.91-.27,3.81-.62,5.67-1.13,3.71-.99,7.29-2.4,10.64-4.2,3.35-1.8,6.5-3.95,9.4-6.4,5.79-4.89,10.55-10.97,13.94-17.72,3.41-6.75,5.43-14.14,6.15-21.59.07-.93.19-1.86.22-2.8l.11-2.8v-2.72c.02-.91-.02-1.82-.03-2.73ZM123.3,77.92l-.1,2.5c-.02.83-.13,1.66-.19,2.49-.65,6.62-2.43,13.1-5.4,18.99-2.96,5.89-7.1,11.17-12.12,15.41-2.51,2.12-5.23,3.98-8.11,5.52-2.88,1.54-5.93,2.74-9.05,3.57-1.56.43-3.15.71-4.73.94-1.59.17-3.18.32-4.77.27-1.58,0-3.26-.17-4.89-.34-1.64-.22-3.28-.48-4.9-.84-6.5-1.42-12.81-3.9-18.49-7.35-5.68-3.44-10.73-7.88-14.62-13.15-3.91-5.26-6.62-11.35-8.04-17.78-.68-3.22-1.05-6.52-1.17-9.85l-.03-2.5c0-.83.06-1.67.09-2.51.02-.42.02-.84.06-1.25l.12-1.25c.09-.83.12-1.67.27-2.49.85-6.61,2.88-13.01,6.03-18.79,3.16-5.78,7.51-10.89,12.65-15.04,5.15-4.15,11.09-7.34,17.4-9.41,3.15-1.03,6.39-1.79,9.67-2.24.82-.09,1.64-.2,2.46-.27.82-.05,1.64-.13,2.46-.15l2.33-.02c1.99-.06,5.59.44,6.09.49,6.61.85,13.01,2.77,18.39,6.23,5.42,3.41,9.62,8.44,12.5,14.28,2.89,5.85,4.51,12.44,5.34,19.16.42,3.37.65,6.78.73,10.21.01.86.04,1.72.04,2.58v2.58Z"/>
  <path class="cls-1" d="M120.18,72.16c-.1-.52-.3-1.19-.9-1.94-.35-.37-.73-.77-1.43-1.08l-2.09-.91-10.66-4.61-16.78-7.27-34.91-15.11c-.57-.22-1.14-.39-1.65-.42l-.38-.03h-.36c-.24.01-.46.04-.71.08-.96.15-1.98.62-2.75,1.33-.39.35-.72.75-.97,1.16-.26.41-.43.82-.6,1.32-.07.25-.12.53-.18.8-.02.3-.07.59-.05.89l.02,1.79.1,7.94.2,14.93.24,17.85.05,4.23.08,6.81.04,3.36c0,.28,0,.57.02.83l.03.4c.02.13.05.24.08.37.04.26.13.46.2.67.07.23.17.38.26.57.09.19.2.32.3.47.1.15.2.28.33.42.25.28.59.59.98.84.38.25.81.44,1.2.56.2.06.37.1.54.14l.54.07c.18.02.4,0,.6,0,.21,0,.45-.05.67-.08.24-.06.48-.11.73-.21.25-.1.5-.2.76-.33l3.04-1.49,3.19-1.57,6.09-2.99,51.92-25.47c.68-.34,1.07-.75,1.41-1.14.12-.19.28-.39.37-.56.08-.17.19-.37.24-.52.05-.16.11-.33.15-.48l.08-.42c.02-.08.02-.12.03-.23,0-.1.01-.24.01-.37,0-.14-.01-.28-.03-.38-.01-.11-.02-.16-.04-.24ZM62.8,95.35l-8.96,4.4-.14-10.66-.27-23.23c0-.37-.03-.69-.06-1l-.21-15.69,55.13,23.87-45.49,22.31Z"/>
</svg>