<?xml version="1.0" encoding="UTF-8"?>
<svg id="Layer_1_copy_3" data-name="Layer 1 copy 3" xmlns="http://www.w3.org/2000/svg" viewBox="0 0 150 150">
  <defs>
    <style>
      .cls-1 {
        fill: #191919;
      }
    </style>
  </defs>
  <path class="cls-1" d="M136.48,62.58c-.08-.08-.16-.15-.24-.21,0,0-.02-.01-.03-.02l.13-.08-19.93-22.03c-.54-.6-1.03-.96-1.47-1.15v-14.72c0-.41,0-.83,0-1.23-.02-.4-.1-.77-.23-1.07-.12-.31-.27-.58-.44-.8-.08-.11-.15-.21-.28-.34-.12-.13-.26-.25-.36-.33-.42-.33-1-.64-1.77-.73-.39-.04-.81-.02-1.22-.02h-1.23s-5.41.07-5.41.07l-9.86.1-19.73.21-19.73.21-9.86.1-1.57.02c-.82.01-1.65,0-2.46.04-.8.07-1.41.39-1.84.72-.11.08-.23.19-.36.32-.13.13-.21.24-.29.35-.17.22-.33.49-.45.81-.13.31-.21.68-.23,1.08-.02.4-.02.82-.03,1.23l-.03,2.12-.04,2.47-.58,37.12-11.27-6.91,6.94-4.63c2.38-1.58,1.78-2.92.8-4.4-.98-1.48-1.99-2.54-4.36-.96l-14.75,9.83c-1.06.34-1.79,1.34-1.77,4.19l.29,44.82.07,11.2.02,3.54c.02.91-.08,1.94.25,2.64.14.35.32.66.51.9.08.11.23.28.38.41.13.13.25.2.38.3.28.18.61.35,1,.47.39.12.85.15,1.32.15l2.64.04,2.8.04,22.41.35,44.81.69,22.41.35,11.2.17,5.6.09,1.97.03c.91,0,1.93.12,2.68-.17.38-.12.69-.28.97-.47.3-.2.64-.51.85-.8.2-.28.34-.64.52-.96.1-.14.12-.37.16-.59l.12-.64.54-15.97.46-14.68.4-14.69c.11-4.91.23-9.79.24-14.75,0-2.03-.39-3.16-1.02-3.84ZM43.3,69.27l.62-39.46.04-2.82h.9s9.86-.11,9.86-.11l19.73-.21,34.05-.36v38.49c0,2.65,1.44,2.88,3.22,2.88s3.22-.23,3.22-2.88v-16.61l11.4,12.6-50.06,30.17-33.17-20.35c.12-.36.19-.8.2-1.36ZM69.73,94.5l-22.56,11.72-13.82,7.12c-4.61,2.35-9.23,4.73-13.82,6.98-.08.04-.15.08-.22.12v-.51s-.08-11.2-.08-11.2l-.29-44.82c0-.2,0-.39-.02-.58l50.81,31.17ZM44.68,122.38l-14.47-.22c2.03-1.03,4.05-2.06,6.07-3.1l13.84-7.13,26.01-13.5.11.07h.02s41.71,25.01,41.71,25.01l-73.29-1.13ZM130.84,81.02l-.4,14.65-.89,27.45c-.18-.21-.41-.41-.73-.6l-46.32-27.79,48.61-29.3c-.02.31-.04.63-.04,1,0,4.82-.12,9.72-.23,14.6Z"/>
  <path class="cls-1" d="M95.2,45.9c.67-.01.7-1.45.67-3.23-.03-1.78-.12-3.21-.79-3.2l-40.03.73c-.67.01-.7,1.45-.67,3.23.03,1.78.12,3.21.79,3.2l40.03-.73Z"/>
  <path class="cls-1" d="M85.75,59.19c0-1.78-.05-3.21-.55-3.21l-29.54.08c-.5,0-.54,1.44-.53,3.22,0,1.78.05,3.21.55,3.21l29.54-.08c.5,0,.54-1.44.53-3.22Z"/>
</svg>