<?xml version="1.0" encoding="UTF-8"?>
<svg id="Layer_1_copy_3" data-name="Layer 1 copy 3" xmlns="http://www.w3.org/2000/svg" viewBox="0 0 150 150">
  <defs>
    <style>
      .cls-1 {
        fill: #191919;
      }
    </style>
  </defs>
  <path class="cls-1" d="M129.41,119.27c-.17-.37-.39-.74-.64-1.09l-.61-.88-2.94-4.25-5.89-8.5-11.77-17.01-3.69-5.34.51-.51c.34-.34.69-.67,1.02-1.03l.95-1.11c.65-.72,1.19-1.54,1.76-2.33.3-.39.52-.83.78-1.24.25-.42.51-.84.74-1.27,1.8-3.48,2.9-7.33,3.17-11.16.29-3.83-.06-7.64-.91-11.26l-.32-1.36-.38-1.34c-.24-.9-.57-1.76-.85-2.64-.64-1.73-1.32-3.44-2.12-5.08-1.57-3.32-3.47-6.45-5.65-9.41-1.11-1.47-2.28-2.9-3.57-4.26-.66-.67-1.31-1.35-2.03-1.98-.34-.33-.72-.64-1.1-.95l-.56-.46-.56-.42c-2.97-2.24-6.18-4.1-9.58-5.59-1.69-.75-3.44-1.39-5.22-1.92-1.78-.53-3.59-.98-5.43-1.27-1.84-.3-3.7-.52-5.57-.57-.93-.06-1.87-.02-2.8-.02-.93.06-1.87.07-2.79.18l-1.39.14-1.38.21c-.93.12-1.83.34-2.74.51-.9.22-1.81.43-2.7.69-.88.28-1.78.52-2.64.85-3.49,1.22-6.81,2.82-9.94,4.69-.33.2-2.5,1.69-2.85,1.96-4.2,3.13-8.07,6.83-11.32,11.1-3.25,4.27-5.77,9.22-7.13,14.54-1.34,5.31-1.51,10.92-.51,16.27.99,5.35,3.02,10.45,5.88,15.03,1.43,2.29,3.07,4.46,4.96,6.46,1.92,2.01,4.11,3.78,6.47,5.24,2.36,1.46,4.88,2.64,7.47,3.48,2.59.85,5.24,1.43,7.9,1.79,5.31.72,10.62.58,15.8-.07,2.59-.33,5.16-.79,7.7-1.36,1.12-.25,2.24-.53,3.35-.84,0,0,0,0,.01,0,.59-.13,1.93-.5,1.93-.5l17.61,24.24,4.77,6.56,2.38,3.28,1.19,1.64.68.93c.4.54.78,1.12,1.26,1.54.94.84,2.17,1.37,3.44,1.41.63.03,1.27-.05,1.87-.24.6-.19,1.17-.48,1.71-.89l3.68-2.78,6.91-5.22c.68-.53,1.2-1.15,1.57-1.88.37-.72.57-1.53.59-2.34.02-.81-.15-1.62-.47-2.37ZM75.47,90.28c-2.34.53-4.69.95-7.06,1.25-4.73.59-9.5.7-14.09.08-4.59-.62-9.02-1.97-12.78-4.34-1.88-1.17-3.61-2.57-5.15-4.17-1.55-1.64-2.94-3.47-4.15-5.42-2.43-3.89-4.16-8.24-4.99-12.72-.83-4.48-.68-9.08.42-13.46.53-2.19,1.38-4.31,2.38-6.35.98-2.05,2.25-3.98,3.63-5.83,2.8-3.68,6.21-6.97,10.03-9.81.47-.35,1.96-1.39,2.26-1.56,5.57-3.33,11.71-5.63,18.02-6.18,6.3-.6,12.71.52,18.56,3.09,2.92,1.28,5.71,2.9,8.25,4.81l.47.36.43.36c.29.23.58.47.86.74.57.5,1.12,1.07,1.67,1.63,1.08,1.15,2.1,2.39,3.07,3.67,1.91,2.59,3.61,5.38,4.98,8.3.71,1.45,1.3,2.95,1.86,4.46.24.76.53,1.51.73,2.28l.33,1.15.27,1.16c.73,3.09,1,6.23.77,9.27,0,.38-.07.76-.12,1.13-.05.37-.09.75-.16,1.13-.17.73-.27,1.49-.51,2.19l-.31,1.08-.4,1.04-.2.52-.24.5-.48,1.01c-.17.33-.38.64-.56.96-.2.32-.36.65-.59.95-.45.6-.84,1.24-1.36,1.79l-.73.86c-.26.27-.54.53-.81.8,0,0-.79.77-.88.85,0,0-1.65,1.36-1.67,1.38-2.92,2.11-5.97,4.16-9.05,6-1.54.93-3.1,1.77-4.65,2.54l-1.98.88c-.14.05-1.69.53-1.69.53l-.87.25c-1.15.32-2.31.61-3.48.87ZM114.04,127.93l-8.86-12.19-16.78-23.09c1.06-.57,2.11-1.15,3.12-1.76,2.46-1.47,4.81-3,7.14-4.61l.54.77,2.94,4.25,20.74,29.95-8.83,6.68Z"/>
  <path class="cls-1" d="M91.56,77.02c.9-.66,1.77-1.39,2.53-2.22,1.54-1.64,2.72-3.58,3.54-5.59.83-2.01,1.28-4.11,1.49-6.17.21-2.07.18-4.12-.04-6.12-.45-4.02-1.59-7.87-3.33-11.48-1.75-3.59-4.09-6.98-7.32-9.73-3.21-2.68-6.86-4.48-10.63-5.72-3.78-1.23-7.72-1.87-11.7-1.89-3.97-.02-7.99.6-11.81,1.96-3.73,1.33-7.22,3.43-10.16,6.13-.29.2-.59.46-.89.82-2.61,2.9-4.92,6.18-6.59,9.87-.81,1.85-1.48,3.78-1.93,5.78-.43,2-.68,4.06-.68,6.12.03,4.12.95,8.25,2.75,11.93,1.78,3.69,4.31,7.01,7.53,9.63,1.61,1.31,3.38,2.45,5.34,3.33.98.44,2,.8,3.07,1.09.99.25,1.9.43,2.86.65,3.81.74,7.75,1.02,11.68.76,1.96-.11,3.91-.42,5.84-.79.95-.23,1.92-.44,2.86-.71.94-.29,1.89-.54,2.8-.9,3.68-1.31,7.16-3.07,10.4-5.13.81-.54,1.58-1.04,2.4-1.62ZM85.61,73.07c-5.76,3.65-12.15,6.12-18.79,6.51-3.31.22-6.66-.01-9.97-.65-.81-.18-1.68-.36-2.44-.55-.68-.19-1.37-.43-2.05-.73-1.35-.61-2.66-1.43-3.86-2.41-2.42-1.96-4.39-4.54-5.75-7.37-1.39-2.83-2.08-5.96-2.1-9.08,0-1.57.2-3.13.52-4.67.35-1.54.88-3.05,1.51-4.52,1.31-2.88,3.17-5.57,5.36-8.03.13-.1.26-.22.39-.35,2.32-2.16,5.07-3.83,8.08-4.92,3.02-1.07,6.27-1.58,9.54-1.57,3.27,0,6.57.55,9.69,1.56,3.1,1.01,6.06,2.51,8.43,4.49,2.31,1.96,4.22,4.63,5.63,7.55,1.41,2.92,2.36,6.12,2.71,9.31.35,3.18.09,6.4-1,9.1-.55,1.34-1.3,2.55-2.24,3.55-.46.51-.99.95-1.55,1.36-.66.46-1.41.95-2.11,1.42Z"/>
</svg>