<?xml version="1.0" encoding="UTF-8"?>
<svg id="Layer_1_copy_3" data-name="Layer 1 copy 3" xmlns="http://www.w3.org/2000/svg" viewBox="0 0 150 150">
  <defs>
    <style>
      .cls-1 {
        fill: #191919;
      }
    </style>
  </defs>
  <path class="cls-1" d="M134.64,43.24c-.04-1.02-.05-2.04-.1-3.06l-.16-2.23c-.03-1-.24-1.93-.63-2.65-.39-.76-1.02-1.47-1.75-1.95-.37-.25-.73-.44-1.18-.55-.43-.13-.88-.24-1.32-.34l-4.7-.44-3.69-.38c-2.45-.27-4.88-.58-7.3-.94-4.84-.73-9.62-1.66-14.24-2.95-4.62-1.29-9.1-2.94-13.13-5.15-2.01-1.11-3.9-2.36-5.59-3.78l-.61-.55-.48-.43c-.25-.21-2.07-1.69-2.07-1.69l-.7-.52s-.58-.35-.7-.39c-.97-.32-2.2-.33-3.21.01-.25.08-.49.18-.71.29-.22.14-.43.35-.65.53,0,0-1.96,1.99-2.34,2.38l-.58.64c-.33.34-.67.66-1,1l-1.08.95-1.14.91c-1.56,1.19-3.26,2.26-5.04,3.24-3.57,1.96-7.43,3.55-11.42,4.87-3.98,1.33-8.09,2.38-12.24,3.21-4.15.83-8.36,1.44-12.53,1.77-.52.05-1.04.07-1.56.1-.07,0-.4.02-.66.06l-.8.09-1.59.17c-.97.26-1.86.8-2.59,1.51-.72.71-1.26,1.62-1.54,2.57-.14.47-.22.99-.25,1.53,0,.55.01,1.12.02,1.68v.56c.01.15,0,.3.02.45l.06.88c.04.58.07,1.17.12,1.75l.18,1.73c.52,4.6,1.44,9.04,2.57,13.41,2.26,8.74,5.41,17.18,9.22,25.32.36.78.72,1.44,1.07,1.99,1.45,2.82,2.92,5.64,4.48,8.45.97,1.74,1.96,3.48,3.11,5.25l1.7,2.51c.54.82,1.13,1.63,1.73,2.45,4.74,6.52,10.23,12.63,16.79,17.68,3.28,2.51,6.84,4.74,10.66,6.51l1.45.64c.48.21.96.43,1.46.6l1.49.55c.49.19.99.37,1.51.5l1.53.45.76.22c.34.09.72.17,1.08.23,1.47.23,2.99.16,4.45-.22.21-.05.28-.08.42-.12l.38-.12.75-.24,1.51-.48c.25-.08.5-.15.75-.24l.73-.29,1.47-.58c.48-.2.99-.37,1.46-.6l1.42-.69,1.42-.69c.47-.23.91-.51,1.37-.76l1.36-.78.68-.39.65-.43c.87-.58,1.74-1.15,2.6-1.74l2.48-1.88c.82-.63,1.58-1.33,2.37-2,3.1-2.74,5.93-5.73,8.51-8.9,2.55-3.19,4.86-6.54,6.97-10,4.17-6.94,7.51-14.32,10.08-21.92.66-1.9,1.23-3.82,1.81-5.74.53-1.94,1.07-3.87,1.51-5.83.92-3.91,1.68-7.86,2.2-11.85.52-3.99.85-8.02.93-12.08,0-1.02.03-2.03,0-3.05ZM126.95,46.16c-.07,3.72-.37,7.47-.86,11.19-.48,3.73-1.2,7.43-2.06,11.1-.41,1.84-.93,3.65-1.42,5.47-.55,1.8-1.08,3.61-1.7,5.39-2.41,7.14-5.54,14.02-9.38,20.43-1.94,3.19-4.06,6.25-6.37,9.14-2.34,2.86-4.87,5.54-7.61,7.95-.7.58-1.37,1.21-2.09,1.76l-2.17,1.65c-.74.51-1.5,1-2.25,1.51l-.57.37-.59.33-1.17.67c-.39.22-.77.46-1.18.66l-1.21.58-1.21.59c-.4.2-.83.34-1.24.51l-1.24.5-.62.25c-.21.08-.42.14-.64.2l-2.51.79c-.43.11-.89.13-1.34.06-.12-.02-.21-.04-.35-.07l-.64-.19-1.27-.37c-.43-.11-.85-.26-1.26-.42l-1.25-.46c-.42-.14-.83-.33-1.23-.51l-1.23-.54c-3.24-1.5-6.33-3.43-9.23-5.64-5.8-4.45-10.84-10.02-15.24-16.08-.55-.76-1.1-1.51-1.63-2.32l-1.57-2.33c-.97-1.49-1.91-3.14-2.83-4.79-1.84-3.33-3.62-6.76-5.37-10.2-.11-.23-.23-.44-.34-.64-3.44-7.45-6.3-15.2-8.34-23.11-1.06-4.1-1.91-8.25-2.38-12.36l-.17-1.54c-.04-.51-.07-1.01-.1-1.52l-.05-.76c-.01-.13,0-.25-.01-.37v-.19s0-.04,0-.04l1.86-.12c4.55-.36,9.02-1,13.46-1.89,4.43-.89,8.82-2.01,13.15-3.45,4.33-1.43,8.59-3.17,12.7-5.43,2.05-1.13,4.07-2.39,5.99-3.86.48-.38.95-.75,1.42-1.14.46-.41.93-.81,1.38-1.22.44-.44.89-.87,1.33-1.32l.52-.58,1,.89c2.15,1.81,4.46,3.32,6.84,4.63,4.76,2.61,9.76,4.41,14.78,5.82,5.03,1.4,10.1,2.39,15.17,3.15,2.53.38,5.07.7,7.6.98l3.79.39,2.78.26.05.67c.05.92.06,1.85.09,2.77.03.93,0,1.86,0,2.79Z"/>
</svg>