<?xml version="1.0" encoding="UTF-8"?>
<svg id="Layer_1_copy_3" data-name="Layer 1 copy 3" xmlns="http://www.w3.org/2000/svg" viewBox="0 0 150 150">
  <defs>
    <style>
      .cls-1 {
        fill: #191919;
      }
    </style>
  </defs>
  <path class="cls-1" d="M142.33,63.72c-.07-.71-.33-1.41-.64-2-.17-.29-.34-.55-.51-.76-.18-.21-.32-.38-.53-.56l-.33-.27c-.12-.09-.2-.18-.36-.27-.3-.17-.54-.36-.94-.49-.68-.33-1.7-.42-2.62-.55l-2.82-.4-11.73-1.65-22.05-3.11-19.29-35.83c-.45-.82-1.02-1.37-1.55-1.79-.53-.36-1.01-.64-1.7-.83-.67-.19-1.44-.27-2.17-.17-.74.09-1.43.34-1.96.64-.26.13-.51.34-.76.52-.12.08-.25.23-.38.35-.13.14-.26.23-.38.41-.52.57-.88,1.5-1.27,2.33l-1.7,3.76-4.6,10.16-8.98,19.83-39.89,5.05-2.63.33c-.86.12-1.64.36-2.15.68l-.41.24-.31.25-.31.25c-.1.08-.17.16-.25.25-.31.33-.68.81-.95,1.39-.28.58-.46,1.26-.51,1.91-.05.65.03,1.28.15,1.75.06.24.11.44.23.69l.16.36.08.18.13.2c.17.26.32.53.59.8.13.13.22.27.39.41l.49.39,10.9,7.48,16.95,11.61-11.68,40.88-.12.6c-.02.1-.05.21-.05.3v.27s-.03.54-.03.54c.01.16.04.3.05.46.02.15.03.31.06.45l.11.37.11.37c.04.12.08.21.13.31.16.38.44.86.84,1.33.4.47.92.9,1.49,1.21.56.32,1.16.5,1.65.59.25.05.46.06.68.08.23,0,.5-.01.75-.02.12,0,.27-.03.42-.06l.45-.09c.14-.01.32-.1.48-.16.17-.07.33-.12.5-.2.71-.37,1.43-.91,2.15-1.4l10.15-7,17.27-11.91c.35-.24.68-.47.99-.7l13.4-8.98,41.04,28.08.63.36c.11.07.21.11.3.14l.29.11c.41.18.73.2,1.09.28.19.05.31.03.46.04h.44c.28,0,.5-.02.76-.06.51-.09,1.22-.31,1.87-.71.65-.38,1.23-.96,1.62-1.51.2-.28.35-.55.46-.79.11-.24.2-.44.27-.71l.11-.42c.03-.14.08-.27.08-.46.02-.36.08-.68.02-1.12,0-.4-.14-.88-.27-1.36l-.51-1.48-1.01-2.96-4.23-12.36-7.86-22.97,26.87-17.75c.35-.28.74-.54.97-.84.3-.29.47-.57.65-.85.33-.55.52-1.03.64-1.51.13-.53.21-1.22.12-1.93ZM119.53,73.55l-7.13,4.71-3.77,2.49c-.59.4-1.22.76-1.68,1.25-.47.46-.84,1.01-1.11,1.62-.27.61-.42,1.28-.45,1.93-.03.65.06,1.31.28,1.99l12.21,35.7-18.58-12.71-10.49-7.18-5.25-3.59-1.31-.9-.7-.48c-.44-.29-.87-.61-1.32-.88-.89-.51-1.86-.76-2.88-.73-1.02.04-1.96.33-2.85.92l-16.32,10.93c-.83.55-1.54,1.06-2.15,1.54l-21.47,14.81,5.31-18.6,3.03-10.59,1.51-5.3.41-1.44c.25-.88.56-1.78.52-2.63,0-.85-.22-1.72-.62-2.49-.41-.77-.96-1.4-1.72-1.93l-24.7-16.93,19.97-2.53,10.54-1.33,5.27-.67,1.32-.17.72-.09c.44-.06.88-.1,1.31-.18,1.68-.33,3.15-1.48,3.87-3.06l14.63-32.3,8.99,16.7,4.96,9.21,2.48,4.6,1.46,2.72c.81,1.52,2.31,2.57,4.01,2.81l33.83,4.76-12.13,8.01Z"/>
</svg>