<?xml version="1.0" encoding="UTF-8"?>
<svg id="Layer_1_copy_3" data-name="Layer 1 copy 3" xmlns="http://www.w3.org/2000/svg" viewBox="0 0 150 150">
  <defs>
    <style>
      .cls-1 {
        fill: #191919;
      }
    </style>
  </defs>
  <path class="cls-1" d="M127.17,77.8c-.18-3.6-.92-6.93-1.93-10.2-1.04-3.25-2.41-6.39-4.13-9.34-.37-.64-.75-1.27-1.15-1.89l2.78-5.1,1.5-2.76c1.04-1.68,1.23-3.78.47-5.6l-.44-1.03-.3-.66c-.2-.44-.41-.88-.63-1.32-.44-.88-.91-1.75-1.44-2.63-.53-.88-1.12-1.76-1.85-2.65-.17-.22-.38-.45-.58-.67-.2-.23-.4-.43-.69-.69-.34-.33-.69-.59-1.05-.85-.36-.26-.74-.48-1.12-.71l-.39-.17c-.14-.03-.27-.09-.41-.13-.13-.05-.27-.1-.4-.14l-.42-.08c-.56-.1-1.14-.11-1.7-.06-.57.06-1.13.18-1.69.36-.28.09-.55.2-.81.31-.13.06-.27.11-.4.18l-.34.17c-1.48.79-2.56,1.65-3.58,2.53-1.96,1.72-3.59,3.5-5.15,5.39-4.12-1.96-8.49-3.33-12.89-4.16-.82-.18-1.64-.3-2.47-.42-.56-.08-1.11-.17-1.67-.25v-3.53l2.01.02c.6,0,1.21.03,1.79,0,.58-.05,1.09-.2,1.56-.38.92-.37,1.84-1.1,2.42-1.99.14-.22.27-.45.38-.67.09-.25.2-.47.27-.73.16-.52.21-1.1.25-1.69.04-.58.05-1.2.05-1.77v-.8s-.04-.55-.04-.55c-.03-.38-.06-.74-.12-1.18-.04-.3-.1-.59-.16-.88l-.22-.87-.29-.83c-.12-.26-.23-.54-.38-.78-.28-.51-.65-.94-1.02-1.38l-1.02-.76-.57-.28c-.19-.09-.41-.14-.61-.22-.4-.16-.85-.21-1.28-.32-.22-.05-.43-.08-.67-.12l-.51-.07c-1.02-.13-1.97-.2-2.92-.26-1.88-.11-3.71-.16-5.53-.19-3.64-.05-7.24-.01-10.84.06l-1.35.03-1.17.03c-.44.02-.9.01-1.33.05l-.64.08c-.21.03-.43.05-.61.12-.37.13-.75.23-1.07.42-.68.36-1.31.92-1.78,1.57-.47.67-.76,1.31-.91,2.13-.15.83-.08,1.76-.1,2.64v1.61s-.01,1.26-.01,1.26c0,.44-.02.9,0,1.33,0,.44.09.85.19,1.23.11.38.24.71.42,1.05.36.68.91,1.32,1.55,1.79.66.47,1.29.76,2.11.93.82.16,1.77.09,2.67.13h.68v4.84c-5.02,1.08-9.92,2.77-14.54,5.14-6,3.07-11.46,7.37-15.8,12.6-4.35,5.24-7.54,11.34-9.6,17.68-1.03,3.15-1.85,6.45-2.33,9.82-.43,3.37-.54,6.81-.26,10.22.52,6.84,2.81,13.54,6.4,19.38,3.58,5.87,8.57,10.75,14.2,14.5,2.81,1.89,5.83,3.44,8.94,4.74,3.11,1.29,6.31,2.33,9.58,3.03,3.26.72,6.58,1.23,9.9,1.4l1.24.09,1.25.03c.83.01,1.66.04,2.49.04,1.66-.07,3.32-.07,4.96-.24,6.6-.49,13.39-2.07,19.5-5.29,3.05-1.59,5.93-3.55,8.5-5.86,2.57-2.31,4.83-4.92,6.77-7.73,3.89-5.62,6.47-11.93,8.12-18.34.82-3.21,1.41-6.46,1.81-9.73.19-1.64.35-3.27.44-4.92.05-.82.08-1.65.1-2.48.01-.41.01-.83.02-1.25,0-.42-.02-.91-.02-1.36ZM111.46,40.45c.74-.65,1.52-1.23,2.11-1.53l.05-.03c.05.04.16.15.24.25.1.1.2.21.3.34.41.49.82,1.09,1.22,1.75.4.65.78,1.35,1.14,2.08.18.36.36.73.53,1.1l.25.56.06.14.03.06h0s0,0,0,0l-2.55,4.67c-2.07-2.18-4.36-4.16-6.83-5.88,1.1-1.27,2.27-2.49,3.45-3.52ZM73.11,35.17v-3.57l3.56.04v3.3c-1.19.05-2.38.12-3.56.23ZM65.48,23.88v-1.14s1.5-.03,1.5-.03c3.53-.07,7.07-.11,10.57-.06,1.75.03,3.49.08,5.17.18.84.05,1.67.12,2.42.21l.15.02.06.61.02.46-3.09-.04-11.77-.14s-.02,0-.03,0l-5.04-.07h.03ZM119.56,80.23c-.02.74-.05,1.48-.09,2.22-.08,1.48-.23,2.97-.4,4.45-.36,2.95-.9,5.89-1.63,8.75-1.48,5.72-3.75,11.19-7.01,15.9-1.63,2.35-3.5,4.5-5.59,6.39-2.1,1.89-4.44,3.48-6.95,4.78l-.94.5-.97.43c-.66.27-1.28.61-1.97.82l-2.01.72-2.07.58c-2.8.7-5.64,1.2-8.61,1.4-1.48.16-2.95.15-4.43.22-.74,0-1.48-.02-2.21-.03l-1.11-.02-1.1-.08c-2.94-.15-5.85-.6-8.71-1.23-2.86-.61-5.65-1.52-8.33-2.63-2.68-1.12-5.27-2.44-7.66-4.06-4.79-3.19-8.97-7.29-11.93-12.16-1.49-2.42-2.7-5-3.6-7.69-.2-.68-.44-1.35-.61-2.04l-.49-2.07-.35-2.1c-.12-.7-.15-1.41-.23-2.12-.23-2.83-.15-5.7.21-8.55.41-2.84,1.1-5.65,2.02-8.46,1.81-5.58,4.56-10.78,8.23-15.2,3.67-4.42,8.26-8.04,13.42-10.69,5.09-2.61,10.7-4.32,16.44-5.15,2.51-.34,5.05-.54,7.55-.6h1.09s.53,0,.53,0h.2s.08.01.17.02l2.21.22c.74.05,1.46.2,2.19.3.73.11,1.46.21,2.17.37,2.88.53,5.69,1.34,8.37,2.39,2.68,1.05,5.24,2.36,7.62,3.93,4.74,3.15,8.73,7.37,11.56,12.34,1.44,2.47,2.59,5.11,3.46,7.83.85,2.71,1.46,5.57,1.58,8.23,0,.33.02.62.02.99l-.02,1.1Z"/>
  <path class="cls-1" d="M85.28,80.25c-.23-.15-.19-.14-.25-.18-.04-.04-.09-.07-.13-.1-.06-.02-.26-.22-.41-.35-.16-.15-.31-.27-.48-.43l-.52-.51c-.34-.33-.69-.69-1.04-1.06-.35-.36-.7-.73-1.05-1.12-2.8-3.06-5.54-6.34-8.24-9.62-2.7-3.29-5.37-6.63-8.01-9.98l-.5-.63-.21-.26c-.17-.2-.33-.37-.55-.55-.23-.18-.45-.34-.72-.48-.53-.28-1.14-.46-1.73-.5-.6-.04-1.16.04-1.67.22-1.02.35-1.88,1.02-2.45,2.07-.28.52-.46,1.13-.49,1.73-.02.31,0,.6.03.88.04.3.1.54.18.78.04.12.09.25.13.35l.02.05.04.09.08.18.16.37,1.23,2.93c.81,1.96,1.59,3.92,2.35,5.89,1.5,3.93,2.91,7.91,3.96,11.81l.37,1.45.3,1.42.22,1.36c.04.42.07.82.1,1.21-.01.15-.02.29-.02.44v.11s0,.04,0,.16l-.03.55-.05,1.1c-.01.37.04.74.06,1.1.04.37.05.74.12,1.1l.24,1.09.13.54.19.53.39,1.05c.63,1.35,1.4,2.65,2.45,3.74.48.58,1.08,1.05,1.67,1.54.29.25.63.43.95.65.33.2.64.42,1,.58.35.17.71.33,1.06.49.36.15.75.25,1.13.37.75.26,1.56.32,2.35.43.4.02.81,0,1.21,0l.6-.02c.2-.02.4-.06.6-.09.4-.07.79-.14,1.19-.22.38-.1.75-.24,1.13-.37.2-.07.37-.15.52-.23,1.03-.42,2.02-.97,2.91-1.64,1.23-.92,2.26-2.04,3.1-3.33.21-.33.41-.66.61-1.06.05-.09.11-.22.16-.33l.1-.24.2-.49c.14-.31.25-.71.37-1.08.13-.38.19-.76.27-1.15.28-1.55.26-3.14-.06-4.66-.64-3.02-2.41-5.86-5.23-7.64ZM78.12,95.2c-.27-.07-.54-.04-.81-.16-.13-.05-.27-.06-.41-.12-.13-.07-.26-.13-.4-.19-.14-.04-.26-.15-.39-.23-.12-.09-.27-.14-.38-.25-.23-.21-.49-.39-.69-.65-.46-.45-.77-1.04-1.06-1.62-.05-.16-.1-.31-.16-.46l-.09-.23-.05-.24c-.03-.16-.07-.32-.11-.48-.04-.16-.02-.33-.05-.5,0-.17-.05-.33-.04-.5.01-.17.02-.34.03-.51v-.26s.04-.54.04-.54c.02-.39.03-.78.04-1.17-.04-.68-.08-1.36-.16-2-.09-.61-.18-1.23-.29-1.82l-.36-1.73-.42-1.67c-.28-1.06-.59-2.1-.9-3.13,1.4,1.65,2.83,3.28,4.32,4.91.37.41.76.82,1.15,1.23.39.41.78.82,1.21,1.23l.63.62c.22.21.48.43.72.64.26.22.44.41.83.68l.52.37.4.28c.83.51,1.57,1.57,1.81,2.74.12.58.13,1.18.02,1.73-.09.51-.36,1.23-.62,1.6-.33.5-.77.99-1.27,1.36-.5.37-1.05.65-1.68.84-.08.02-.15.07-.22.11-.12.01-.25.03-.37.06-.07.01-.13.04-.2.04h-.2c-.13-.01-.27,0-.4,0Z"/>
</svg>