<?xml version="1.0" encoding="UTF-8"?>
<svg id="Layer_1_copy_3" data-name="Layer 1 copy 3" xmlns="http://www.w3.org/2000/svg" viewBox="0 0 150 150">
  <defs>
    <style>
      .cls-1 {
        fill: #191919;
      }
    </style>
  </defs>
  <path class="cls-1" d="M132.11,44.11c-1.33-3.96-3.19-7.81-5.67-11.28-2.47-3.47-5.59-6.55-9.17-8.95-3.57-2.4-7.58-4.09-11.67-5.13-1.04-.31-1.98-.48-2.96-.71-.97-.22-1.95-.42-2.92-.61-.98-.2-1.96-.38-2.94-.55l-1.47-.26-1.48-.23c-7.9-1.22-15.98-1.76-24.08-1.11-4.05.33-8.1.95-12.08,1.98-3.97,1.02-7.88,2.43-11.59,4.25-7.47,3.6-14.02,9.03-19.19,15.41-.26.32-.51.63-.73.92-.21.3-.4.59-.58.86-.35.55-.64,1.04-.86,1.48-.01.03-.02.05-.03.08-.26.35-.53.72-.8,1.13-2.29,3.51-4.14,7.26-5.52,11.16-1.38,3.9-2.37,7.94-2.87,12.06-.5,4.12-.54,8.3-.06,12.46.47,4.15,1.55,8.26,3.16,12.16,1.63,3.89,3.83,7.57,6.55,10.81,2.72,3.24,5.92,6.04,9.39,8.37l.35.22-.2.73c-.47,1.61-1.17,3.24-1.99,4.84-.82,1.61-1.77,3.2-2.78,4.81-1.01,1.62-2.08,3.22-3.16,5l-.4.69-.2.36-.1.19-.16.3c-.42.81-.85,1.74-1.09,2.62-.13.44-.2.88-.24,1.32-.02.43-.02.85.05,1.26.13.81.46,1.61,1.01,2.27.54.65,1.22,1.12,2.02,1.44.39.17.82.29,1.29.35.46.07.9.18,1.39.17l.72.02h.36c.11.01.19,0,.29,0,.37-.01.76-.04,1.12-.07.56-.06,1.13-.12,1.66-.22,2.17-.35,4.17-.91,6.14-1.52,1.96-.62,3.86-1.33,5.74-2.09,3.74-1.53,7.35-3.26,10.88-5.16,3.53-1.9,6.97-3.96,10.3-6.24l1.05-.73.13-.1s.05-.04.06-.04h.02s.68.03.68.03c.46.01.93.04,1.4.07,1.88.11,3.82.28,5.79.42,3.94.29,8.03.46,12.17.15,4.13-.3,8.3-1.09,12.28-2.52,1-.34,1.97-.76,2.94-1.16.95-.45,1.92-.88,2.84-1.39.94-.48,1.83-1.03,2.74-1.57.45-.28.88-.58,1.31-.87.44-.29.87-.58,1.29-.9,3.39-2.47,6.42-5.3,9.12-8.44,2.76-3.22,4.99-6.78,6.81-10.48,3.62-7.43,5.71-15.44,6.48-23.58.74-8.13.13-16.5-2.52-24.45ZM128.1,67.96c-.69,7.38-2.61,14.7-5.83,21.29-1.61,3.29-3.57,6.39-5.88,9.09-2.38,2.78-5.09,5.29-8.01,7.42-.36.28-.73.53-1.11.78-.38.25-.75.51-1.13.74-.77.46-1.53.94-2.33,1.34-.78.44-1.6.8-2.41,1.18-.83.34-1.65.7-2.49.98-3.37,1.21-6.92,1.89-10.57,2.16-3.65.28-7.38.13-11.21-.15-1.92-.14-3.86-.31-5.88-.43-.51-.03-1.01-.06-1.53-.08l-.81-.03-1.43-.02h-.72c-.07-.02-.11.01-.15.05l-.13.09-.26.19-1.05.76-.48.35-.29.2-.58.4c-3.1,2.12-6.36,4.08-9.7,5.87-3.34,1.79-6.77,3.44-10.25,4.86-1.74.71-3.49,1.36-5.25,1.92-1.75.55-3.52,1.04-5.2,1.3-.42.08-.83.12-1.23.16l-.41.03.59-1.04c.94-1.56,2.03-3.2,3.09-4.89,1.06-1.69,2.11-3.45,3.06-5.32.95-1.86,1.81-3.84,2.44-5.97.08-.27.15-.53.22-.81l.06-.23.08-.35.16-.71c.19-.95.31-1.89.44-2.84l.1-.71c-.17-.15-.38-.28-.57-.41l-1.17-.82-2.11-1.36c-3-2.02-5.72-4.41-8.02-7.14-2.3-2.73-4.15-5.82-5.53-9.12-1.37-3.3-2.29-6.81-2.7-10.4-.41-3.59-.38-7.26.06-10.88.43-3.63,1.32-7.21,2.54-10.65,1.21-3.45,2.85-6.74,4.82-9.76.81-1.21,1.39-2.16,1.81-2.93.02-.03.03-.06.04-.09.24-.29.5-.59.77-.92,4.64-5.72,10.39-10.48,16.99-13.66,6.58-3.23,13.87-5,21.32-5.59,7.45-.6,15.04-.11,22.55,1.05l1.41.22,1.41.25c.94.16,1.87.33,2.81.53.93.19,1.87.37,2.8.58.92.21,1.9.4,2.73.65,3.46.87,6.75,2.27,9.65,4.22,2.91,1.95,5.44,4.44,7.49,7.32,2.05,2.88,3.64,6.12,4.79,9.55,2.3,6.87,2.89,14.4,2.21,21.77Z"/>
  <path class="cls-1" d="M61.14,51.71l-4.27-10.01-2-4.69-.25-.58c-.09-.17-.18-.37-.27-.5-.1-.13-.2-.29-.3-.39l-.3-.31c-.2-.15-.4-.32-.59-.4-.09-.05-.19-.11-.28-.15l-.26-.1c-.34-.12-.63-.16-.89-.19-.03,0-.29-.01-.32,0h-.2c-.13.02-.3.06-.45.09-.15.02-.34.11-.51.16-.09.03-.19.09-.28.14-.1.05-.19.09-.29.17-.4.25-.85.66-1.22,1.39l-15.66,33.38c-.53,1.13.75,1.85,2.39,2.62,1.64.77,3.01,1.29,3.54.17l3.92-8.36,16.68.06,3.77,8.83c.49,1.15,1.88.67,3.55-.04,1.67-.71,2.97-1.39,2.48-2.53l-8-18.75ZM45.73,57.59l5.65-12.05,5.16,12.09-10.81-.04Z"/>
  <path class="cls-1" d="M115.64,60.96h-17.34v-6.48c0-.16-1.47-.17-3.28-.17s-3.28.01-3.28.17v6.48h-12.61c-.61,0-.67,1.47-.67,3.28s.05,3.28.67,3.28h27.88c-.19.82-.45,1.66-.76,2.49-.59,1.52-1.35,3.03-2.22,4.5-1.75,2.95-3.93,5.73-6.32,8.32-.92.98-1.87,1.94-2.85,2.86-2.52-2.83-4.38-6.14-5.29-9.73-.11-.39-1.54-.09-3.31.33s-3.18.8-3.04,1.32c1.17,4.62,3.58,8.86,6.66,12.35-2.81,2.17-5.8,4.11-8.91,5.75-.62.33-.02,1.67.8,3.28.82,1.61,1.54,2.89,2.25,2.52,3.8-2.01,7.37-4.36,10.71-7.02.66.52,1.33,1.02,2.02,1.5,2.1,1.43,4.27,2.67,6.69,3.71.51.21,1.13-1.13,1.74-2.83.61-1.71,1.16-3.06.8-3.21-1.87-.8-3.78-1.87-5.52-3.07-.24-.16-.47-.34-.7-.5.94-.91,1.86-1.84,2.76-2.79,2.66-2.88,5.1-5.98,7.15-9.44,1.02-1.73,1.95-3.55,2.71-5.5.57-1.52,1.05-3.12,1.31-4.83h1.94c.61,0,.67-1.47.67-3.28s-.05-3.28-.67-3.28Z"/>
</svg>