<?xml version="1.0" encoding="UTF-8"?>
<svg id="Layer_1_copy_3" data-name="Layer 1 copy 3" xmlns="http://www.w3.org/2000/svg" viewBox="0 0 150 150">
  <defs>
    <style>
      .cls-1 {
        fill: #191919;
      }
    </style>
  </defs>
  <path class="cls-1" d="M119.58,124.98c-.03-.36-.1-.73-.15-1.09l-.05-.54-.03-.39-.05-1c-.06-1.36-.09-2.78-.1-4.19-.05-5.69.03-11.49.05-17.27.03-5.8.04-11.61-.13-17.48-.09-2.94-.22-5.89-.52-8.94-.08-.77-.17-1.54-.29-2.34-.14-.85-.2-1.43-.64-3.01-.41-1.37-1-2.67-2.06-3.54-1.01-.93-2.44-1.17-3.85-1.43l-.95-.11c-.21-.02-.4-.04-.59-.06-.38-.03-.78-.07-1.16-.1-.76-.06-1.51-.1-2.25-.14-1.48-.08-2.96-.13-4.42-.18-2.93-.09-5.84-.14-8.74-.17-.59,0-1.11.02-1.57.07l-26.05.15.36-20.85.02-1.32v-.32s.03-.14.03-.14c.02-.1,0-.18.04-.3.07-.46.25-.9.46-1.32.21-.42.5-.79.84-1.12.34-.33.71-.62,1.14-.82.42-.21.86-.36,1.32-.44.51-.06.76-.07,1.82-.03l5.29.2,5.29.2c.13,0,.15.01.22.02l.18.02c.12,0,.23.03.35.05.23.03.45.11.68.17.44.14.85.38,1.23.66.76.55,1.33,1.36,1.62,2.24.03.11.07.22.1.33.02.12.04.23.07.34.02.12.02.23.04.35v.09s.02.06.02.13l.02.33.16,2.64.16,2.64.14,2.32c.02.89.17,1.75.48,2.43.15.35.32.64.54.95.22.31.49.61.78.87.29.27.62.49.94.68.32.18.64.31,1,.44.18.06.38.1.57.15.21.03.41.07.62.08.43.03.88.02,1.32.02h8.43c.44,0,.89.01,1.31-.02.22,0,.41-.06.62-.08.2-.04.38-.1.57-.14l.52-.19c.16-.07.32-.15.47-.23.31-.18.63-.39.92-.65.59-.51,1.07-1.18,1.34-1.8.29-.63.5-1.42.49-2.3l-.12-8.45-.05-3.53-.13-2.13c-.08-.71-.22-1.41-.33-2.12-1.13-5.62-4.48-10.73-9.14-14.03-2.32-1.66-4.97-2.87-7.75-3.56l-1.04-.25-1.06-.16-1.06-.15c-.35-.04-.71-.04-1.07-.06-1.54-.09-2.56-.04-3.77-.04l-14.11.1-1.79.02-2.14.12c-.71.1-1.41.21-2.12.33-.7.15-1.39.35-2.08.53-2.74.83-5.32,2.19-7.55,3.96-4.49,3.54-7.57,8.82-8.38,14.5-.14.7-.17,1.42-.21,2.13l-.06,1.06v.88s-.05,3.53-.05,3.53l-.09,7.05-.17,14.1s0,.02,0,.03l-3.01.02h-2.39c-.72.03-1.46,0-2.16.05-.7.07-1.33.24-1.89.5-1.16.51-2.21,1.5-2.79,2.64-.16.28-.26.57-.36.89l-.15.46c-.03.17-.05.35-.08.52-.12.68-.11,1.43-.16,2.14l-.38,8.97c-.22,5.8-.38,11.61-.47,17.42-.08,5.82-.1,11.65.09,17.53.1,2.94.24,5.89.53,8.92.16,1.52.33,3.05.66,4.69.04.22.08.39.14.66.07.36.17.7.28,1.05.1.34.19.7.33,1.02.13.33.25.67.42.96l.24.46c.09.14.19.28.28.42.18.29.41.53.62.78.24.23.49.45.76.65.28.19.57.35.85.48,1.1.56,2.73.38,4.09.42h2.17s4.35.01,4.35.01l8.7-.03c11.6-.08,23.19-.28,34.85-.86,5.84-.32,11.65-.68,17.63-1.49,1.5-.21,3.01-.46,4.59-.81.4-.09.8-.19,1.21-.3l.4-.11.52-.16c.35-.1.68-.23,1.02-.35,1.34-.51,2.54-1.22,3.35-2.25.41-.5.74-1.15.9-1.7.17-.55.23-1.25.16-1.97ZM110.07,71.71h0s0-.03,0,0ZM52.56,49.31l.09-7.05.04-3.53v-.88s.06-.7.06-.7c.03-.46.04-.93.14-1.38.52-3.65,2.5-7.05,5.4-9.34,1.44-1.15,3.1-2.02,4.86-2.56.45-.11.89-.24,1.34-.34l1.37-.21,1.38-.08,1.74-.02,14.11-.1c2.57-.04,4.17-.03,6.01.43,1.78.44,3.48,1.22,4.99,2.29,3.02,2.13,5.17,5.43,5.9,9.04.06.46.16.91.22,1.37l.09,1.39.05,3.52.08,5.66h-4.81l-.18-2.97-.16-2.64-.02-.33-.02-.2-.02-.24c-.04-.32-.06-.64-.12-.96l-.2-.95c-.08-.31-.18-.62-.27-.93-.81-2.47-2.39-4.67-4.48-6.2-1.04-.77-2.19-1.4-3.42-1.82-.62-.2-1.24-.39-1.88-.49-.32-.06-.64-.12-.96-.14l-.48-.04c-.15-.01-.35-.03-.44-.03l-5.29-.2-5.29-.2c-.7-.04-2.22-.09-3.46.13-1.28.22-2.53.64-3.68,1.22-1.16.58-2.21,1.36-3.13,2.27-.92.9-1.72,1.95-2.31,3.1-.6,1.15-1.05,2.39-1.27,3.66-.07.31-.1.68-.14,1.02l-.05.52v.34s-.03,1.33-.03,1.33l-.37,21.22-5.53.03.17-13.99ZM111.27,123.66l-.13.03c-.29.08-.59.15-.89.22-1.24.28-2.58.5-3.95.69-5.48.75-11.21,1.12-16.92,1.42-11.44.57-22.96.77-34.48.85l-8.64.03h-6.51s-.08-.41-.08-.41c-.24-1.19-.41-2.54-.54-3.89-.27-2.72-.41-5.55-.5-8.38-.18-5.67-.16-11.41-.08-17.15.09-5.74.25-11.49.46-17.24l.35-8.35h0,1.95s17.34-.11,17.34-.11l34.69-.2c.39,0,.74-.02,1.07-.05,2.58.03,5.17.08,7.73.16,1.43.04,2.84.1,4.24.17.7.04,1.39.08,2.07.13.35.02.67.06,1,.08.17.01.33.03.48.05h.12s.01.01.01.01c.02.12.15.76.22,1.23.1.63.17,1.29.24,1.96.27,2.7.4,5.53.48,8.36.16,5.68.16,11.43.13,17.19-.02,5.77-.1,11.54-.05,17.4.02,1.47.04,2.95.11,4.47l.07,1.32h0Z"/>
</svg>