<?xml version="1.0" encoding="UTF-8"?>
<svg id="Layer_1_copy_4" data-name="Layer 1 copy 4" xmlns="http://www.w3.org/2000/svg" viewBox="0 0 150 150">
  <defs>
    <style>
      .cls-1 {
        fill: #191919;
      }
    </style>
  </defs>
  <path class="cls-1" d="M136.42,65.33l-1.69-1.12-.85-.56-.87-.53-3.48-2.1c-2.37-1.31-4.73-2.66-7.19-3.82-4.88-2.39-9.9-4.5-15.09-6.15-10.35-3.35-21.22-5.21-32.12-5.35-10.9-.14-21.82,1.38-32.26,4.52-5.22,1.57-10.32,3.55-15.24,5.93l-1.84.9-1.81.96c-1.22.62-2.39,1.34-3.58,2.02-1.19.69-2.33,1.45-3.49,2.18-1.13.79-2.28,1.53-3.38,2.37-1.79,1.34-.92,2.75.33,4.35s2.41,2.79,4.02,1.59c4.03-2.99,8.42-5.53,12.96-7.74,4.44-2.15,9.07-3.95,13.8-5.4-.12.53-.22,1.05-.31,1.58-.4,2.46-.45,4.94-.21,7.38.48,4.87,2.11,9.6,4.77,13.73,1.33,2.06,2.92,3.97,4.72,5.65,1.8,1.69,3.84,3.11,5.99,4.28,2.15,1.16,4.42,2.11,6.76,2.72,2.33.63,4.7,1.06,7.05,1.22,1.18.13,2.35.11,3.53.14.58.02,1.23-.04,1.84-.07.62-.02,1.24-.1,1.86-.18,2.47-.33,4.91-1.01,7.2-2.02,4.6-2.02,8.46-5.32,11.39-9.11,2.95-3.8,5.1-8.07,6.53-12.57.71-2.25,1.25-4.57,1.54-6.96.16-1.39.26-2.8.24-4.25,3.94,1.39,7.8,3.05,11.56,4.9,2.31,1.08,4.52,2.36,6.75,3.58l2.86,1.73c-.17.12-.34.27-.51.47-3.31,3.82-6.84,7.44-10.69,10.65-3.84,3.22-7.95,6.1-12.3,8.52-8.68,4.85-18.38,7.77-28.24,8.14-4.92.19-9.87-.22-14.71-1.23-4.84-1.01-9.57-2.59-14.1-4.65-9.08-4.11-17.3-10.15-24.48-17.24-1.45-1.43-2.76-.4-4.22,1.01-1.46,1.42-2.51,2.69-.95,4.23,7.69,7.59,16.59,14.17,26.6,18.7,4.99,2.27,10.24,4.03,15.65,5.16,5.4,1.12,10.96,1.6,16.49,1.38,5.53-.22,11.03-1.13,16.34-2.67,5.3-1.54,10.4-3.72,15.2-6.39,4.8-2.67,9.29-5.83,13.46-9.33,4.18-3.5,7.99-7.39,11.52-11.47.85-.98.79-1.8.27-2.57.84-.24,1.53-1.12,2.26-2.16,1.16-1.67,1.94-3.13.12-4.34ZM99.99,62.27c-.23,1.89-.66,3.79-1.25,5.64-1.18,3.71-2.97,7.25-5.31,10.26-2.34,3.01-5.26,5.45-8.57,6.9-1.65.73-3.4,1.21-5.2,1.45-.45.06-.9.13-1.36.14-.47.01-.89.07-1.39.05-.98-.03-1.96,0-2.92-.11-1.94-.12-3.83-.48-5.66-.97-1.84-.48-3.57-1.21-5.21-2.09-3.28-1.75-6.04-4.34-8.04-7.46-2.01-3.11-3.27-6.75-3.63-10.45-.36-3.65.18-7.41,1.72-10.44,7.13-1.5,14.42-2.22,21.71-2.13-2.51.16-4.97,1.1-6.93,2.71-.47.38-.41.92-.07,1.5.35.59.99,1.24,1.72,1.96,1.45,1.43,2.67,2.54,3,2.25.9-.74,2.1-1.13,3.28-1.08,1.17.04,2.32.54,3.17,1.37.84.81,1.37,1.94,1.46,3.13.1,1.18-.27,2.36-1,3.3-.72.94-1.76,1.59-2.93,1.81-1.17.22-2.39,0-3.39-.61-.12-.08-.49-.32-.56-.42,0,0-.38-.43-.45-.56-.29-.44-.53-1.04-.69-1.7-.32-1.33-.27-2.95.13-4.2.16-.45-1.34-1.15-3.21-1.95-.94-.39-1.79-.74-2.46-.84-.67-.11-1.19.05-1.36.6-.81,2.71-.88,5.37-.26,8.07.32,1.35.83,2.71,1.67,4.01.19.33,1.22,1.56,1.5,1.85.57.57,1.31,1.11,1.9,1.45,2.53,1.54,5.65,2.09,8.56,1.53,2.91-.54,5.61-2.2,7.4-4.56,1.81-2.32,2.75-5.37,2.51-8.32-.21-2.95-1.53-5.81-3.67-7.88-1.92-1.89-4.5-3.09-7.19-3.38,7.77.26,15.5,1.45,23.01,3.47,0,.09,0,.18.02.28.27,1.65.21,3.54,0,5.42Z"/>
</svg>