<?xml version="1.0" encoding="UTF-8"?>
<svg id="Layer_1_copy_3" data-name="Layer 1 copy 3" xmlns="http://www.w3.org/2000/svg" viewBox="0 0 150 150">
  <defs>
    <style>
      .cls-1 {
        fill: #191919;
      }
    </style>
  </defs>
  <path class="cls-1" d="M110.11,69.17c-.13-2.22-.48-4.46-1.09-6.66-.62-2.2-1.51-4.35-2.69-6.36-1.17-2.01-2.65-3.84-4.32-5.45-.52-.5-1.06-.97-1.62-1.42,0-.06,0-.12-.02-.18l-2.56-16.34-1.28-8.17-.75-4.76c-.12-.67-.18-1.39-.38-2-.21-.61-.53-1.07-.87-1.46-.19-.21-.43-.42-.67-.59-.24-.17-.45-.28-.71-.4-.5-.23-1.12-.38-1.81-.37l-17.18.33-7.92.15-4.42.08c-.65.02-1.33,0-1.97.07-.63.08-1.18.29-1.61.55-.22.13-.47.32-.69.51-.21.18-1.22,1.89-1.28,2.24l-3.76,17.64c-1.07,5.09-2.15,10.14-3.18,15.3-1.02,1.09-2,2.25-2.89,3.48-1.31,1.83-2.41,3.81-3.31,5.85-.47,1.02-.83,2.07-1.2,3.12-.17.53-.31,1.06-.47,1.59l-.23.8-.18.8-.36,1.6-.27,1.6-.13.8-.09.8-.18,1.6c-.09,1.07-.14,2.12-.2,3.2-.02,1.14,0,2.28.1,3.41.2,2.27.66,4.53,1.4,6.69,1.46,4.35,4.06,8.33,7.43,11.43.21.2.44.39.66.58l5.13,24.29,1.41,6.7.33,1.55c.12.51.33.96.57,1.33.42.69,1.25,1.36,2.02,1.63.42.16.9.27,1.43.27h1.58s2.06,0,2.06,0h26.25c.52,0,1.07.03,1.56-.06.49-.08.92-.24,1.28-.43.18-.1.35-.19.53-.33.18-.13.37-.3.53-.46.31-.32.52-.62.74-1.03.45-.8.49-1.96.66-2.98l.3-2.03.91-6.28,3.62-24.87c2.31-2.41,4.25-5.16,5.77-8.12,2.03-3.96,3.29-8.27,3.8-12.64.25-2.19.32-4.39.19-6.61ZM59.62,38.08l3.25-15.27,25.95-.49,3.49,22.29c-.64-.25-1.28-.5-1.92-.71-4.19-1.4-8.47-2.05-12.71-2.29l-1.59-.07-1.58-.02c-.53,0-1.09.01-1.63.02l-1.64.09c-2.19.16-4.39.51-6.56,1.08-2.26.59-4.48,1.45-6.58,2.56.5-2.39,1.01-4.79,1.51-7.18ZM89.55,120.36l-1.07,7.38h-25.61l-1.21-5.72-3.72-17.61c.82.34,1.65.65,2.49.92,4.23,1.35,8.6,1.89,12.88,1.93,2.16,0,4.34-.13,6.51-.43,2.17-.32,4.32-.82,6.43-1.5,2.01-.65,3.97-1.49,5.84-2.51l-2.55,17.54ZM102.7,74.94c-.41,3.55-1.43,7.02-3.05,10.16-1.61,3.15-3.81,5.96-6.48,8.23-2.66,2.28-5.8,4-9.17,5.09-1.69.55-3.43.95-5.21,1.22-1.78.25-3.6.36-5.43.36-3.69-.03-7.33-.5-10.71-1.58-3.37-1.08-6.47-2.77-8.96-5.1-2.5-2.31-4.4-5.21-5.48-8.44-.56-1.61-.9-3.29-1.05-4.99-.09-.85-.09-1.71-.08-2.56.05-.91.09-1.85.17-2.77.36-3.67,1.09-7.24,2.52-10.44.71-1.6,1.56-3.13,2.57-4.55,1.02-1.42,2.19-2.74,3.5-3.98.1-.1.95-.85,1.58-1.31,2.85-2.4,5.71-3.69,9.1-4.57,1.69-.45,3.45-.73,5.24-.86l1.35-.07c.46,0,.89-.02,1.36-.02l1.41.02,1.4.06c3.73.21,7.4.78,10.79,1.92,3.39,1.13,6.47,2.85,8.89,5.17,2.44,2.31,4.13,5.25,5.05,8.53.92,3.27,1.08,6.92.68,10.47Z"/>
</svg>