<?xml version="1.0" encoding="UTF-8"?>
<svg id="Layer_1_copy_3" data-name="Layer 1 copy 3" xmlns="http://www.w3.org/2000/svg" viewBox="0 0 150 150">
  <defs>
    <style>
      .cls-1 {
        fill: #191919;
      }
    </style>
  </defs>
  <path class="cls-1" d="M93.6,95.38c-.6-5.42-3.54-10.5-7.87-13.77-2.16-1.64-4.65-2.85-7.29-3.52-2.64-.67-5.39-.79-8.07-.38-5.39.8-10.36,3.91-13.48,8.35-1.57,2.21-2.69,4.75-3.26,7.42-.57,2.66-.6,5.41-.09,8.08,1,5.37,4.27,10.22,8.84,13.17,2.27,1.48,4.86,2.51,7.53,2.98,1.32.24,2.73.33,4.01.31,1.26-.02,2.53-.14,3.79-.35,2.52-.44,5.08-1.27,7.48-2.74,2.39-1.45,4.56-3.59,6-6.11,1.45-2.51,2.23-5.27,2.46-7.87.14-1.76.11-3.48-.06-5.13.01-.14.02-.29,0-.44ZM82.78,99.9c-.12,1.36-.5,2.48-1.02,3.41-.53.92-1.26,1.67-2.26,2.29-.99.62-2.27,1.06-3.65,1.3-.69.11-1.41.19-2.13.2-.7,0-1.28-.03-1.91-.14-1.23-.22-2.41-.68-3.46-1.37-2.12-1.36-3.63-3.62-4.08-6.07-.48-2.48.08-5.11,1.54-7.15,1.45-2.06,3.74-3.49,6.21-3.85,2.5-.39,5.09.26,7.08,1.79,1.71,1.29,2.93,3.17,3.43,5.23.17.77.18,1.48.26,2.21.06.39.04,1.83-.03,2.15Z"/>
  <path class="cls-1" d="M120.26,84.73l-2.01-2.74c-.65-.92-1.36-1.81-2.08-2.7-.72-.88-1.4-1.79-2.16-2.65-2.95-3.49-6.19-6.78-9.71-9.84-3.53-3.04-7.39-5.81-11.65-8.04-4.25-2.24-8.88-3.97-13.76-4.83-4.87-.88-9.94-.9-14.83-.03l-3.63.8c-1.2.31-2.36.73-3.53,1.1-1.13.46-2.29.88-3.4,1.39l-1.65.79c-.55.26-1.09.53-1.61.84-8.52,4.68-15.34,11.49-20.78,18.94-1.1,1.52.82,3.04,3.3,4.75,2.48,1.72,4.58,2.99,5.53,1.69,4.72-6.48,10.5-12.13,17.18-15.78,6.64-3.72,14.18-5.04,21.46-3.73,7.3,1.3,14.24,5.21,20.25,10.42,3.01,2.61,5.85,5.49,8.49,8.61,2.6,3.15,5.12,6.4,7.38,9.88.93,1.38,3.07.17,5.6-1.46,2.53-1.64,4.5-3.09,3.49-4.6l-1.89-2.8Z"/>
  <path class="cls-1" d="M136.9,68.26c-7.63-8.96-16.26-17.31-26.35-24.06l-.93-.65-.98-.59-1.97-1.16c-1.33-.76-2.59-1.6-4-2.23l-4.15-2.02c-1.43-.59-2.88-1.14-4.32-1.7-5.83-2.11-12.02-3.48-18.31-3.79-6.29-.33-12.64.4-18.66,2.05-6.03,1.64-11.74,4.16-17.03,7.25-10.59,6.21-19.55,14.45-27.14,23.73-1.53,1.89.31,3.56,2.69,5.4,2.39,1.85,4.43,3.18,5.8,1.48,6.84-8.39,15-15.83,24.15-21.17,4.57-2.67,9.41-4.79,14.4-6.15,4.99-1.36,10.14-1.95,15.26-1.68,5.12.26,10.2,1.38,15.1,3.14,1.21.48,2.44.93,3.65,1.43l3.55,1.74c1.21.53,2.32,1.28,3.47,1.94l1.72,1.01.86.51.83.58c8.92,5.96,16.89,13.62,24.05,22.03,1.46,1.67,3.48.26,5.8-1.66,2.33-1.92,4.08-3.63,2.51-5.43Z"/>
</svg>