<?xml version="1.0" encoding="UTF-8"?>
<svg id="Layer_1_copy_2" data-name="Layer 1 copy 2" xmlns="http://www.w3.org/2000/svg" viewBox="0 0 150 150">
  <defs>
    <style>
      .cls-1 {
        fill: #191919;
      }
    </style>
  </defs>
  <path class="cls-1" d="M134.3,60.52c-2.47-7.48-6.06-14.55-10.54-21-4.49-6.44-9.88-12.29-16.16-17.13-2.54-1.95-4.25-2.56-5.35-2.54-1.11.02-1.65.67-2.14,1.47.4-.84.64-1.66.05-2.59-.29-.47-.8-.96-1.6-1.5-.8-.52-1.92-1.04-3.41-1.62-7.44-2.66-15.38-4.11-23.36-3.97-7.97.12-15.98,1.87-23.24,5.27-7.28,3.37-13.77,8.32-19.09,14.23-5.28,5.95-9.46,12.78-12.53,20l-1.13,2.72-1.01,2.76c-.35.89-.64,1.89-.93,2.87-.32.98-.53,1.98-.75,2.97-.85,3.99-1.14,8.07-.97,12.08.35,8.05,2.45,15.83,5.61,23.05,3.19,7.22,7.47,13.91,12.64,19.85,5.19,5.92,11.31,11.16,18.46,14.9,3.56,1.85,7.45,3.34,11.42,4.16l5.8,1.09,5.88.6c7.87.51,15.86-.21,23.51-2.32,7.64-2.11,14.99-5.56,21.32-10.46,6.34-4.87,11.71-11.11,15.37-18.32,3.7-7.23,5.48-15.22,5.71-23.19.23-7.98-1.11-15.9-3.58-23.38ZM127.98,62.96c2.18,6.72,3.34,13.77,3.14,20.75-.04,1.43-.15,2.85-.31,4.27l-.06-.06c-1.3-1.24-2.52-2.49-3.55-3.75-.5-.63-.96-1.26-1.32-1.86l-.24-.44c-.08-.13-.19-.38-.28-.57l-.56-1.19c-.71-1.58-1.31-3.15-1.67-4.67-.38-1.52-.47-2.96-.26-4.15.1-.54.33-1.24.63-1.92.3-.68.67-1.37,1.09-2.06.84-1.37,1.87-2.7,3-3.94l.38-.41ZM99.77,21.94c-.27.6-.38,1.23-.08,1.96,0,0,0,.02.01.02-.15-.05-.45-.21-1.05-1,.5-.21.85-.55,1.13-.98ZM94.86,22.66c-.1.03-.2.06-.31.1-1.33.4-2.72.76-4.06,1.06-.69.15-1.32.29-1.76.31-.66.05-1.32.1-1.97.1-1.31.04-2.61-.06-3.86-.25-1.26-.17-2.43-.53-3.54-.93-1.09-.44-2.04-1.02-2.87-1.69-.8-.69-1.4-1.52-1.91-2.42-.06-.17-.13-.34-.21-.51,6.27.18,12.53,1.42,18.49,3.56.75.29,1.41.51,2,.68ZM97.12,40.84s.05.19.03.37c-.02.54-.61,1.73-1.49,2.82-.89,1.12-2.01,2.25-3.21,3.37l-3.82,3.48c-.67.62-1.35,1.27-2.07,2.1-.09.1-.18.22-.28.34-.14.17-.28.34-.4.52-.22.37-.48.71-.66,1.1-.42.75-.51,1.6-.58,2.43.04.31.07.63.13.94l.23.93c.06.31.17.61.31.91.13.29.2.47.31.69.42.78.86,1.47,1.3,2.07.88,1.21,1.77,2.22,2.56,3.18.39.47.76.93,1.07,1.35.14.2.31.42.4.59l.15.23.04.08v.02s-1.97-.7-1.97-.7c-1.24-.44-2.57-.91-4.09-1.25-.75-.18-1.6-.3-2.51-.35-.93-.03-1.98.04-3.11.4-1.13.39-2.27,1.11-3.06,2.04-.78.9-1.28,1.94-1.57,2.77-.27.76-.46,1.5-.6,2.24-.6-1.18-1.44-2.24-2.37-3.02-1.45-1.24-3.02-1.98-4.52-2.49-1.51-.51-2.98-.81-4.44-1.01-1.46-.21-3.05-.27-4.44-.23-1.41.04-2.71.13-3.86.14-1.16.01-2.21-.04-3.19-.25-.52-.11-.93-.21-1.51-.4-.57-.18-1.13-.37-1.66-.58-2.16-.83-3.95-1.86-5.44-3.33-.75-.73-1.44-1.58-2.09-2.51-.68-.97-1.35-2.02-1.88-2.99-.52-.97-.94-1.93-1.11-2.74-.09-.41-.12-.73-.11-1.07.01-.37.08-.81.19-1.32.23-1.01.64-2.2,1.04-3.58.2-.7.39-1.45.52-2.27.07-.4.12-.88.15-1.26l.08-.96c.1-1.36.24-2.87-.06-4.75-.14-.93-.56-2.1-1.02-2.89-.47-.84-1.01-1.55-1.58-2.19-.12-.13-.24-.25-.36-.36,3.05-3.04,6.43-5.71,10.09-7.91.06.18.13.36.24.6.43.85.62,2.5,1.19,4.55.3,1.03.74,2.13,1.36,3.18.34.5.65,1.03,1.06,1.47l.59.67.56.54c1.48,1.42,3.3,2.72,5.37,3.52,2.06.84,4.22,1.13,6.19,1.21,1.98.05,3.82-.09,5.57-.24,1.3-.11,2.57.03,3.97.39,2.8.71,5.98,2.41,9.92,3.3l.74.16c.33.05.68.09,1.02.12.35.04.68.04,1,.02.32-.02.67-.02.97-.07,1.24-.18,2.33-.52,3.29-.91,1.92-.78,3.44-1.68,4.84-2.33.67-.3,1.34-.6,1.85-.72.28-.1.48-.09.7-.14ZM75.94,124.24c-.83.74-1.58,1.3-2.57,1.88-1.52.91-3.4,1.73-5.36,2.76.19-1.52.64-3.13,1.18-4.82.76-2.37,1.74-4.9,2.36-7.81.17-.71.26-1.48.38-2.23.05-.78.16-1.54.13-2.35,0-.4,0-.8-.03-1.2l-.15-1.22c-.07-.83-.32-1.58-.5-2.36-.88-3.04-2.38-5.51-3.45-7.67-.54-1.07-.94-2.06-1.19-2.95-.18-.87-.25-1.62-.09-2.36,0-.19.12-.38.17-.57.08-.19.09-.39.21-.59l.32-.6c.1-.2.2-.41.37-.61.32-.42.54-.81.93-1.26.36-.44.78-.9,1.19-1.37.85-.96,1.82-1.98,2.75-3.27.76-1.05,1.46-2.31,1.93-3.68.28,1.11.68,2.23,1.36,3.4.45.82,1.13,1.62,1.88,2.31.78.67,1.64,1.2,2.47,1.57,1.65.72,3.07,1,4.29,1.3.61.15,1.19.29,1.73.45l1.85.54c1.26.36,2.46.69,3.55,1.06,2.2.73,3.83,1.64,4.81,2.94.48.59.97,1.64.98,1.95.1.53.04,1.4-.25,2.34-.54,1.91-1.66,4.01-2.93,6.01-.65,1.01-1.33,2.01-2.06,3l-1.12,1.49c-.36.47-.66.83-1.04,1.24-1.45,1.58-3.37,3.02-5.44,4.6l-1.58,1.24c-.54.43-1.13.93-1.64,1.41-1.05.97-1.98,1.95-2.87,2.88-.89.93-1.72,1.79-2.56,2.55ZM51.99,126.35c-6.22-3.25-11.77-7.96-16.49-13.35-4.71-5.42-8.65-11.56-11.55-18.13-2.87-6.57-4.74-13.59-5.04-20.61-.15-3.51.1-7.01.82-10.38.19-.84.36-1.69.63-2.5.25-.82.47-1.64.81-2.5l.93-2.55,1.04-2.5c2.33-5.48,5.33-10.63,8.96-15.26.21.25.39.51.52.74.18.34.2.42.28.77.13.7.09,1.81-.02,3.04l-.08.99c-.03.26-.04.43-.08.67-.08.46-.2.98-.36,1.53-.31,1.12-.77,2.4-1.12,3.92-.18.76-.32,1.61-.36,2.54-.04.97.07,1.95.26,2.81.39,1.74,1.07,3.18,1.77,4.5.73,1.32,1.46,2.46,2.27,3.63.84,1.21,1.8,2.39,2.91,3.47,2.21,2.21,5.05,3.8,7.75,4.81.68.26,1.35.49,2.02.71.66.22,1.5.45,2.26.6,1.57.32,3.14.39,4.58.37,1.45-.02,2.75-.12,3.94-.15,1.21-.03,2.24.01,3.35.16,2.23.29,4.41.97,5.47,1.93.52.47.79.87.92,1.45,0,.16.06.3.07.47v.55c-.03.44-.07.86-.18,1.25-.19.79-.58,1.54-1.17,2.36-.59.82-1.4,1.71-2.28,2.69-.45.5-.91,1.01-1.37,1.57-.46.54-.93,1.25-1.39,1.88-.24.31-.44.68-.63,1.06l-.58,1.13c-.19.37-.31.83-.46,1.25-.12.43-.31.83-.36,1.3-.4,1.82-.23,3.71.16,5.38.44,1.63,1.07,3.04,1.69,4.3,1.26,2.48,2.45,4.54,3.01,6.52.1.49.28.98.3,1.45l.1.72v.75c.05.5-.05,1.03-.07,1.55-.09.54-.14,1.06-.28,1.62-.46,2.19-1.35,4.55-2.18,7.13-.74,2.34-1.48,4.93-1.59,7.78-3.2-.72-6.23-1.88-9.18-3.41ZM112.69,120.04c-5.59,4.34-12.15,7.42-19.01,9.32-5.29,1.46-10.78,2.18-16.29,2.22,1.07-.67,2.16-1.49,3.08-2.32,1.07-.97,2.02-1.96,2.91-2.89.89-.93,1.74-1.82,2.58-2.59.43-.4.82-.73,1.28-1.11l1.46-1.14c2-1.54,4.26-3.17,6.3-5.38.5-.53,1.02-1.17,1.44-1.72l1.2-1.6c.8-1.08,1.57-2.2,2.31-3.36,1.47-2.33,2.86-4.79,3.75-7.84.43-1.51.73-3.27.4-5.28-.04-.48-.25-1.01-.39-1.51-.08-.26-.17-.5-.26-.67l-.27-.57c-.17-.38-.39-.75-.62-1.12-.21-.37-.47-.73-.74-1.07-1.06-1.39-2.43-2.54-3.83-3.37-1.41-.84-2.83-1.4-4.17-1.86-1.35-.45-2.64-.8-3.85-1.15l-1.85-.54c-.7-.2-1.36-.37-2.01-.52-1.28-.3-2.39-.58-3.1-.89-.68-.33-.96-.57-1.31-1.16-.34-.58-.65-1.51-.82-2.5-.17-1-.23-2.06-.18-3.08.06-1.02.23-2.02.52-2.83.14-.38.23-.5.29-.58.05-.05.04-.02.11-.07.1-.02.35-.07.7-.06.37.03.81.07,1.31.19.99.22,2.1.59,3.28,1.02l1.92.68.28.09.37.12.92.27c.31.1.61.14.92.21.3.06.62.14.91.15,1.22.17,2.29-.03,3.26-.46.48-.23.93-.55,1.32-.94.37-.41.69-.85.92-1.33l.29-.75c.07-.27.1-.55.16-.82.15-.53.05-1.17.06-1.75.01-.29-.05-.61-.11-.92l-.17-.93c-.09-.61-.3-1.26-.52-1.81-.12-.27-.25-.53-.38-.79-.13-.26-.23-.39-.35-.59-.23-.39-.46-.68-.69-1.01-.45-.61-.9-1.16-1.32-1.67-.85-1.02-1.65-1.95-2.29-2.82-.33-.44-.57-.84-.76-1.19-.04-.07-.08-.19-.09-.19l.12-.15c.41-.47.98-1.03,1.57-1.58l3.83-3.49c1.32-1.23,2.64-2.55,3.9-4.13.63-.79,1.23-1.67,1.77-2.7.52-1.02,1.01-2.22,1.14-3.69.13-1.45-.1-3.05-1.01-4.6-.19-.39-.48-.7-.73-1.04-.26-.34-.5-.68-.85-.93-.66-.52-1.42-.91-2.28-.98-.42-.07-.83-.16-1.25-.21-.45,0-1.02.02-1.3.04-.62.09-1.29.18-1.82.35-1.16.3-2.07.73-2.96,1.13-1.71.82-3.18,1.66-4.46,2.17-.64.26-1.2.41-1.67.48-.12.02-.21,0-.32.02-.11.01-.21.02-.28,0-.09-.01-.16-.01-.26-.02l-.53-.11c-2.82-.58-5.8-2.18-9.68-3.24-1.93-.51-4.13-.78-6.28-.58-1.68.15-3.28.26-4.75.22-2.95-.09-5.1-.9-7.11-2.86l-.37-.36-.26-.3c-.2-.19-.3-.42-.46-.62-.26-.44-.47-.95-.65-1.57-.18-.63-.34-1.41-.54-2.31-.2-.9-.45-1.97-.97-3.11-.14-.32-.3-.61-.47-.88,4.68-2.03,9.66-3.31,14.75-3.83.06.21.11.42.16.62.2.91.65,1.78,1.01,2.66.9,1.71,2.1,3.27,3.55,4.52,1.47,1.21,3.08,2.16,4.74,2.83,1.66.63,3.35,1.11,5.03,1.34,1.68.25,3.35.37,5,.33.83,0,1.65-.06,2.47-.13l.31-.02.43-.05.68-.11,1.2-.25c1.55-.35,3.03-.74,4.54-1.18.75-.23,1.51-.47,2.3-.75.4-.15.79-.29,1.23-.48.45-.21.86-.37,1.58-.85.08-.05.13-.1.2-.17.08-.08.16-.17.22-.25.03-.03.04-.07.06-.1.41.35.87.72,1.41,1.13,5.66,4.35,10.61,9.71,14.73,15.63,2.83,4.06,5.25,8.41,7.23,12.94-.09.08-.18.15-.3.23-.35.27-.78.58-1.26,1-.24.21-.5.45-.75.71l-.52.56c-1.38,1.52-2.65,3.14-3.76,4.96-.56.91-1.07,1.86-1.52,2.89-.45,1.03-.83,2.1-1.08,3.4-.44,2.5-.17,4.85.34,6.95.51,2.12,1.27,4.04,2.08,5.86l.63,1.34c.12.23.19.41.34.69l.43.79c.59,1.01,1.24,1.88,1.9,2.71,1.95,2.38,6.76,6.89,6.98,7.05.13.12.25.24.38.35-.79,2.85-1.84,5.62-3.17,8.22-3.17,6.23-7.85,11.69-13.45,16Z"/>
</svg>